<?xml version="1.0" encoding="UTF-8"?>
<svg id="_レイヤー_2" data-name="レイヤー 2" xmlns="http://www.w3.org/2000/svg" width="339.72" height="212.56" viewBox="0 0 339.72 212.56">
  <defs>
    <style>
      .cls-1 {
        fill: #211815;
      }

      .cls-2 {
        fill: #f5f19b;
      }

      .cls-3 {
        fill: #ecbb6e;
      }

      .cls-4 {
        fill: #93c9ce;
      }

      .cls-5 {
        fill: #5c948d;
      }

      .cls-6, .cls-7 {
        fill: #fff;
      }

      .cls-8 {
        fill: #d3f2c9;
      }

      .cls-9 {
        fill: #de8a4c;
      }

      .cls-10 {
        fill: #fffb9f;
      }

      .cls-11 {
        fill: #ceeaeb;
      }

      .cls-12 {
        fill: #f2d496;
      }

      .cls-7 {
        stroke: #ceeaeb;
        stroke-miterlimit: 10;
        stroke-width: 2.83px;
      }
    </style>
  </defs>
  <g id="_レイヤー_1-2" data-name="レイヤー 1">
    <g>
      <path class="cls-7" d="M9.95,103.52h239.38c4.68,0,8.47,3.79,8.47,8.47v68.3s9.69,9.69,9.69,9.69h-9.69s0,.5,0,.5c0,4.68-3.79,8.47-8.47,8.47H9.95c-4.68,0-8.47-3.79-8.47-8.47v-78.49c0-4.68,3.79-8.47,8.47-8.47Z"/>
      <g>
        <path d="M19.13,128.83c0-.97.54-1.95,1.74-2.77-1.96.29-3.99.54-5.83.78l-.2-1.47c.55-.01,1.27-.07,2.07-.13,1.69-.99,3.57-2.4,4.87-3.51-1.63.25-2.92.36-4.06.41l-.25-1.44c1.74-.03,3.4-.1,5.86-.46l1.14.9c-.96,1.08-3.06,2.59-5.03,3.85,2.67-.29,5.59-.67,7.26-.99l.27,1.52c-1.23-.02-2.42.1-3.39.43-1.65.55-2.95,1.72-2.95,2.89,0,1.25,1.5,1.94,3.99,2.06l-.5,1.48c-2.91-.19-4.99-1.44-4.99-3.54Z"/>
        <path d="M30.74,128.58c0-.96.5-1.78,1.31-2.58l1.27.74c-.76.58-1.05,1.25-1.05,1.77,0,.97,1.02,1.44,3.39,1.44,1.61,0,3.41-.21,4.75-.55l.38,1.59c-1.65.36-3.12.5-4.9.5-3.39,0-5.15-.98-5.15-2.9ZM34.2,123.94c.53-.43.99-.79,1.54-1.17-1.57.08-3.21.11-4.23.08l-.09-1.51c2.64.09,5.54.03,7.71-.23l.3,1.49c-.6.04-1.04.09-1.53.29-.9.36-1.48.84-2.38,1.65l-1.32-.58Z"/>
        <path d="M43.76,131.04c1.25-2.34,2.1-4.38,2.71-6.57-.92.13-1.77.25-2.43.36l-.25-1.45c.69-.06,1.96-.2,2.98-.35.24-1.03.45-2.11.65-3.25l1.53.24c-.19.93-.42,1.86-.66,2.82.44-.03.83-.06,1.14-.06,1.44,0,2.4.88,2.4,2.69,0,1.29-.12,2.91-.45,4.27-.37,1.56-1.27,1.96-2.17,1.96-.7,0-1.39-.13-2.01-.36l-.12-1.65c.71.34,1.38.48,1.83.48.58,0,.88-.31,1.11-1.35.19-.88.3-2,.3-3.06s-.43-1.59-1.18-1.59c-.26,0-.62.03-1.14.09-.73,2.59-1.53,4.88-2.82,7.51l-1.41-.74ZM51.75,123.01l1.23-.92c1.17,1.39,1.95,3.06,2.64,5.19l-1.38.9c-.72-2.26-1.35-3.97-2.49-5.17ZM52.92,120.9l.79-.66c.63.6,1.05,1.11,1.56,2.01l-.86.67c-.51-.92-.94-1.49-1.5-2.03ZM54.38,120.06l.79-.66c.68.58,1.08,1.16,1.56,1.98l-.87.66c-.45-.84-.9-1.46-1.49-1.98Z"/>
        <path d="M57.68,131.26c.93-1.21,1.79-2.73,2.5-4.47l1.17.96c-.64,1.68-1.53,3.36-2.46,4.69l-1.21-1.18ZM57.78,124.15l.94-1.08c.79.54,1.63,1.26,2.28,1.96l-.99,1.19c-.63-.75-1.42-1.49-2.23-2.07ZM58.31,120.79l.99-1.09c.73.51,1.51,1.2,2.21,1.96l-1.04,1.17c-.71-.81-1.42-1.49-2.16-2.04ZM61.28,130.62h3.88v-3.13h-3.21v-1.29h3.21v-2.67h-3.58v-1.29h4.79c-.85-.72-1.89-1.42-2.89-1.96l1-1.02c1.05.55,2.1,1.21,3.01,1.92l-.99,1.06h3.81v1.29h-3.69v2.67h3.38v1.29h-3.38v3.13h4.09v1.33h-9.43v-1.33Z"/>
        <path d="M72.21,122.68h3.61c-.17-.39-.31-.69-.54-1.12h-2.19v-1h4.79v-1.25h1.5v1.25h4.89v1h-2.33c-.15.36-.36.78-.55,1.12h3.76v1.04h-12.94v-1.04ZM72.21,131.5c.67-.76,1.27-1.69,1.62-2.56l1.3.5c-.42,1.14-1.02,2.19-1.7,2.96l-1.23-.89ZM77.93,129.09l1.02-.62h-4.77v-4.11h9v4.11h-4.07c.54.45.99.93,1.38,1.44l-1.12.81c-.43-.63-.85-1.1-1.44-1.63ZM81.72,125.94v-.63h-6.09v.63h6.09ZM81.72,127.53v-.67h-6.09v.67h6.09ZM75.87,131.19v-2.17h1.44v1.63c0,.29.04.39.2.45.17.07.79.12,1.56.12.55,0,1.05-.03,1.38-.08.54-.06.63-.23.71-1.32l1.33.36c-.11,1.17-.25,1.68-.55,1.9-.32.21-1.2.3-3.09.3-2.55,0-2.97-.17-2.97-1.2ZM79.92,122.68c.16-.34.27-.62.46-1.12h-3.54c.2.36.33.67.5,1.12h2.58ZM82.04,129.22l1.19-.66c1.11,1.08,1.74,1.8,2.25,2.55l-1.26.86c-.51-.86-1.15-1.67-2.17-2.75Z"/>
        <path d="M86.76,129.57c1.2-1.38,2.05-2.96,2.55-4.44l1.37.61c-.48,1.5-1.33,3.32-2.49,4.56l-1.42-.74ZM90.29,131.85l-.19-1.65c.78.18,1.48.27,1.88.27.31,0,.46-.15.46-.48,0-2-.03-3.99-.08-5.97-1.67.01-3.31.03-5.1.03l-.03-1.47c1.75.03,3.42.04,5.1.01-.03-.88-.04-1.77-.06-2.67h1.51l.04,2.66c1.59-.03,3.24-.08,5.03-.15l.04,1.47c-1.8.04-3.44.08-5.05.09.03,2.16.07,4.3.1,6.46.01.99-.51,1.54-1.67,1.54-.64,0-1.26-.04-2-.15ZM95.16,125.85l1.2-.86c1.09,1.32,1.98,2.69,2.8,4.4l-1.35.85c-.78-1.68-1.63-3.1-2.66-4.39ZM96.21,120.63c0-.86.69-1.54,1.54-1.54s1.54.69,1.54,1.54-.67,1.54-1.54,1.54-1.54-.67-1.54-1.54ZM98.48,120.63c0-.41-.32-.72-.72-.72s-.73.31-.73.72.33.73.73.73.72-.33.72-.73Z"/>
        <path d="M101.87,126.66c4.1-1.68,7.41-4.23,9.34-7l1.35.78c-.92,1.32-2.1,2.55-3.46,3.69,0,2.61.01,5.22.04,7.83h-1.56c.03-2.23.03-4.47.02-6.69-1.4.99-2.94,1.88-4.56,2.62l-1.17-1.23Z"/>
        <path d="M117.03,122.56l.9-1.29c1.3.67,2.17,1.21,3.51,2.28l-.96,1.32c-1.18-1.02-2.29-1.76-3.45-2.31ZM117.63,130c3.96-.99,7.03-3.28,9.07-7.54l1.16,1.47c-2.28,4.12-5.04,6.43-9.41,7.62l-.82-1.54Z"/>
        <path d="M134.37,119.77h1.56v3.87c1.86.79,3.97,2.01,5.56,3.27l-1,1.29c-1.44-1.2-3.13-2.28-4.56-2.97v6.92h-1.56v-12.38Z"/>
        <path d="M149.76,130.47c0-.66.49-1.23,1.21-1.23s1.21.57,1.21,1.23-.5,1.21-1.21,1.21-1.21-.56-1.21-1.21ZM150.09,120.78h1.76l-.09,7.33h-1.56l-.11-7.33Z"/>
        <path d="M161.9,126.58c-.65,1.53-1.37,2.71-2.17,3.6l-.88-1.32c1.26-1.17,2.17-2.54,2.86-4.27h-2.62v-1.32h2.82v-1.67c-.54.11-1.16.2-2.03.29l-.58-1.2c1.96-.21,3.78-.58,5.37-1.12l.85,1.2c-.63.21-1.47.42-2.2.57v1.93h2.46v1.32h-2.46v1.04c.97.63,1.74,1.21,2.47,1.87l-.83,1.38c-.54-.66-1.04-1.18-1.65-1.75v5.42h-1.41v-5.95ZM166.59,121.02h1.43v7.89h-1.43v-7.89ZM167.4,132.15l-.3-1.53c.73.12,1.51.2,2.14.2.43,0,.55-.12.55-.55v-10.28h1.44v10.86c0,1.11-.39,1.42-1.73,1.42-.66,0-1.47-.04-2.11-.12Z"/>
        <path d="M174.09,120.24h11.61v12.22h-1.46v-.76h-8.7v.76h-1.45v-12.22ZM184.25,130.41v-8.88h-8.7v8.88h8.7ZM176.94,123.1h5.82v5.61h-5.82v-5.61ZM181.38,127.47v-3.12h-3.06v3.12h3.06Z"/>
        <path d="M190.44,123.91c0-1.29.17-2.5.5-4.14l1.5.36c-.36,1.44-.6,2.98-.6,4.08,0,.3,0,.58.02.84.3-.75.67-1.53.97-2.12l.76,1.04c-.46.76-.78,1.5-.96,2.02-.27.81-.3,1.33-.27,2.07l-1.2.41c-.55-1.58-.72-3.08-.72-4.56ZM192.69,131.4c2.73-1.65,3.96-3.45,3.96-6.75,0-1.18-.12-2.92-.33-4.63l1.59-.2c.18,1.82.27,3.36.27,4.67,0,3.95-1.15,5.94-4,7.83l-1.48-.92Z"/>
        <path d="M202.82,131.04c1.25-2.34,2.1-4.38,2.71-6.57-.92.13-1.77.25-2.43.36l-.25-1.45c.69-.06,1.96-.2,2.98-.35.24-1.03.45-2.11.65-3.25l1.53.24c-.19.93-.42,1.86-.66,2.82.44-.03.83-.06,1.14-.06,1.44,0,2.4.88,2.4,2.69,0,1.29-.12,2.91-.45,4.27-.37,1.56-1.27,1.96-2.17,1.96-.7,0-1.39-.13-2.01-.36l-.12-1.65c.71.34,1.38.48,1.83.48.58,0,.88-.31,1.11-1.35.19-.88.3-2,.3-3.06s-.43-1.59-1.18-1.59c-.26,0-.62.03-1.14.09-.73,2.59-1.53,4.88-2.82,7.51l-1.41-.74ZM210.81,123.01l1.23-.92c1.17,1.39,1.95,3.06,2.64,5.19l-1.38.9c-.72-2.26-1.35-3.97-2.49-5.17ZM211.98,120.9l.79-.66c.63.6,1.05,1.11,1.56,2.01l-.86.67c-.51-.92-.94-1.49-1.5-2.03ZM213.44,120.06l.79-.66c.68.58,1.08,1.16,1.56,1.98l-.87.66c-.45-.84-.9-1.46-1.49-1.98Z"/>
        <path d="M216.99,120.67h5.47v-1.37h1.53v1.37h5.56v1.16h-12.57v-1.16ZM217.4,125.89h11.76v5.31c0,.87-.41,1.2-1.44,1.2-.58,0-1.33-.03-1.86-.08l-.25-1.38c.56.09,1.17.13,1.65.13.39,0,.48-.09.48-.43v-3.62h-8.91v5.5h-1.42v-6.64ZM219.38,122.47h7.8v2.79h-7.8v-2.79ZM220.23,127.65h5.97v3h-4.61v.72h-1.36v-3.72ZM225.75,124.24v-.76h-4.95v.76h4.95ZM224.84,129.58v-.92h-3.24v.92h3.24Z"/>
        <path d="M233.12,128.55c-.33-1.07-.55-2.97-.55-4.71,0-.75.03-1.82.09-2.75l1.59.33c-.09,1.02-.13,1.92-.13,2.88,0,1.63.17,2.8.43,3.67.32,1.02.76,1.63,1.2,1.63.48,0,1.11-1.04,1.51-2.94l1.32,1.11c-.63,2.37-1.7,3.51-2.8,3.51-1.21,0-2.13-1.06-2.66-2.74ZM239.97,122.89l1.14-1.02c1.8,1.65,2.32,3.67,2.71,6.52l-1.54.48c-.35-2.65-.9-4.77-2.31-5.98Z"/>
        <path d="M16.23,152.31c-.45,1.49-.94,2.62-1.6,3.75l-.69-1.61c.93-1.2,1.67-2.8,2.13-4.63h-1.8v-1.3h1.96v-2.96h1.35v2.96h1.65v1.3h-1.65v1.42c.75.66,1.36,1.31,1.93,2.03l-.78,1.35c-.42-.75-.64-1.12-1.15-1.84v6.01h-1.35v-6.48ZM22.5,154.12c-.68,1.43-1.62,2.7-2.82,3.77l-.96-1.2c1.51-1.05,2.62-2.36,3.51-4.14h-3.12v-1.28h3.39v-1.91h-1.59c-.25.71-.43,1.14-.76,1.73l-1.08-.81c.54-.92.92-2.22,1.16-3.85l1.28.21c-.06.46-.15.96-.27,1.44h1.28v-2.52h1.38v2.52h2.88v1.29h-2.88v1.91h3.54v1.28h-3.27c.86,1.5,2.16,2.79,3.62,3.67l-.87,1.35c-1.25-1.04-2.25-2.19-3.01-3.54v4.75h-1.38v-4.67Z"/>
        <path d="M30.05,153.27c0-1.33.3-3.96.84-6.81l1.53.27c-.65,2.92-.95,5.57-.95,6.67,0,.46.03.98.09,1.44.24-.77.54-1.47.87-2.19l.9.9c-.45.93-.65,1.47-.79,2.02-.23.84-.3,1.28-.29,1.95l-1.19.5c-.63-1.37-1.02-2.73-1.02-4.75ZM33.81,155.71c0-1.05.86-2.04,2.55-2.04.42,0,.87.04,1.32.12l-.04-1.17c-.04-.64-.08-1.38-.09-2.07-1.19.08-2.37.1-3.38.1l-.11-1.5c1.07.02,2.26-.01,3.46-.09,0-.84-.01-1.57.03-2.79l1.58.05c-.08,1.02-.11,1.83-.14,2.61.79-.08,1.54-.18,2.24-.31l.15,1.51c-.72.12-1.53.22-2.39.3.02.78.03,1.49.06,2.16.01.6.04,1.14.06,1.59.86.31,1.71.78,2.54,1.39l-.87,1.38c-.55-.52-1.11-.92-1.65-1.2-.12,1.45-1.1,2.19-2.71,2.19-1.5,0-2.61-.85-2.61-2.23ZM36.39,156.6c.81,0,1.35-.39,1.33-1.21v-.2c-.45-.13-.88-.21-1.25-.21-.88,0-1.26.36-1.26.81,0,.5.43.81,1.17.81Z"/>
        <path d="M42.78,155.71l1.3-1.12c.92.78,1.98,1.99,2.77,3.13l-1.41,1.24c-.69-1.15-1.64-2.29-2.67-3.25Z"/>
        <path d="M59.61,152.31c-.45,1.49-.94,2.62-1.6,3.75l-.69-1.61c.93-1.2,1.67-2.8,2.13-4.63h-1.8v-1.3h1.96v-2.96h1.35v2.96h1.65v1.3h-1.65v1.42c.75.66,1.36,1.31,1.93,2.03l-.78,1.35c-.42-.75-.64-1.12-1.15-1.84v6.01h-1.35v-6.48ZM65.88,154.12c-.68,1.43-1.62,2.7-2.82,3.77l-.96-1.2c1.51-1.05,2.62-2.36,3.51-4.14h-3.12v-1.28h3.39v-1.91h-1.59c-.25.71-.43,1.14-.76,1.73l-1.08-.81c.54-.92.92-2.22,1.16-3.85l1.27.21c-.06.46-.15.96-.27,1.44h1.28v-2.52h1.38v2.52h2.88v1.29h-2.88v1.91h3.54v1.28h-3.27c.86,1.5,2.16,2.79,3.62,3.67l-.87,1.35c-1.25-1.04-2.25-2.19-3.01-3.54v4.75h-1.38v-4.67Z"/>
        <path d="M73.35,151.92c-.27.58-.58,1.12-.95,1.66l-.61-1.42c1.11-1.77,1.93-4.11,2.4-6.66l1.37.29c-.27,1.15-.53,2.08-.86,2.98v10.02h-1.35v-6.87ZM75.99,149.76h2.49v-1.92h-2.89v-1.3h9.7v1.3h-3.01v1.92h2.56v8.88h-1.29v-.83h-6.27v.83h-1.29v-8.88ZM78.54,156.55v-5.55h-1.26v5.55h1.26ZM81.02,149.76v-1.92h-1.28v1.92h1.28ZM81.02,156.55v-5.55h-1.28v5.55h1.28ZM83.55,156.55v-5.55h-1.33v5.55h1.33Z"/>
        <path d="M87.14,157.29c1.25-2.34,2.1-4.38,2.71-6.57-.92.13-1.77.25-2.43.36l-.25-1.45c.69-.06,1.96-.2,2.98-.35.24-1.03.45-2.11.65-3.25l1.53.24c-.19.93-.42,1.86-.66,2.82.44-.03.83-.06,1.14-.06,1.44,0,2.4.88,2.4,2.69,0,1.29-.12,2.91-.45,4.27-.38,1.56-1.28,1.96-2.18,1.96-.71,0-1.39-.13-2.01-.36l-.12-1.65c.71.34,1.38.48,1.83.48.58,0,.88-.31,1.11-1.35.19-.88.3-2,.3-3.06s-.43-1.59-1.18-1.59c-.26,0-.62.03-1.14.09-.73,2.59-1.53,4.88-2.82,7.51l-1.41-.74ZM95.13,149.26l1.23-.92c1.17,1.39,1.95,3.06,2.64,5.19l-1.38.9c-.72-2.26-1.35-3.97-2.49-5.17ZM96.3,147.15l.79-.66c.63.6,1.05,1.11,1.56,2.01l-.86.67c-.51-.92-.94-1.49-1.5-2.03ZM97.76,146.31l.79-.66c.68.58,1.08,1.16,1.56,1.98l-.87.66c-.45-.84-.9-1.46-1.49-1.98Z"/>
        <path d="M106.38,148.26h-5v-1.44h12.42v1.44h-5.82v1.75c1.8.87,3.74,1.98,5.46,3.13l-1.2,1.35c-1.27-.97-2.75-1.96-4.26-2.83v7.14h-1.6v-10.54Z"/>
        <path d="M116.06,157.29c1.25-2.34,2.1-4.38,2.71-6.57-.92.13-1.77.25-2.43.36l-.25-1.45c.69-.06,1.96-.2,2.98-.35.24-1.03.45-2.11.65-3.25l1.53.24c-.19.93-.42,1.86-.66,2.82.44-.03.83-.06,1.14-.06,1.44,0,2.4.88,2.4,2.69,0,1.29-.12,2.91-.45,4.27-.38,1.56-1.28,1.96-2.18,1.96-.71,0-1.39-.13-2.01-.36l-.12-1.65c.71.34,1.38.48,1.83.48.58,0,.88-.31,1.11-1.35.19-.88.3-2,.3-3.06s-.43-1.59-1.18-1.59c-.26,0-.62.03-1.14.09-.73,2.59-1.53,4.88-2.82,7.51l-1.41-.74ZM124.05,149.26l1.23-.92c1.17,1.39,1.95,3.06,2.64,5.19l-1.38.9c-.72-2.26-1.35-3.97-2.49-5.17ZM125.22,147.15l.79-.66c.63.6,1.05,1.11,1.56,2.01l-.86.67c-.51-.92-.94-1.49-1.5-2.03ZM126.68,146.31l.79-.66c.68.58,1.08,1.16,1.56,1.98l-.87.66c-.45-.84-.9-1.46-1.49-1.98Z"/>
        <path d="M135.03,156.51c2.99-.32,4.59-1.38,4.59-2.88,0-.95-.64-1.85-1.92-1.85-.67,0-1.5.18-2.46.38-.95.2-2.23.5-3.21.74l-.4-1.41c.96-.21,2.08-.43,3.28-.67,1.05-.21,2.05-.39,2.85-.39,2.17,0,3.42,1.36,3.42,3.13,0,2.31-1.8,3.76-5.28,4.29l-.87-1.33Z"/>
        <path d="M149.09,153.67c0-1.67,1.05-3.23,3.02-4.56-2.88.27-4.68.42-6.81.58l-.19-1.57c3.12-.12,7.92-.41,11.43-.98l.3,1.53c-2.08.29-2.79.51-4,1.47-1.38,1.08-2.21,2.19-2.21,3.55,0,1.71,1.37,2.6,4.04,2.94l-.67,1.46c-2.99-.42-4.89-1.86-4.89-4.42Z"/>
        <path d="M160.82,154.8c-.33-1.07-.55-2.97-.55-4.71,0-.75.03-1.82.09-2.75l1.59.33c-.09,1.02-.13,1.92-.13,2.88,0,1.63.17,2.8.43,3.67.32,1.02.76,1.63,1.2,1.63.48,0,1.11-1.04,1.51-2.94l1.32,1.11c-.63,2.37-1.7,3.51-2.8,3.51-1.21,0-2.13-1.06-2.66-2.74ZM167.67,149.14l1.14-1.02c1.8,1.65,2.32,3.67,2.71,6.52l-1.54.48c-.35-2.65-.9-4.77-2.31-5.98Z"/>
        <path d="M176.94,156c0-1.05.95-1.81,2.23-1.81s2.39.72,3.12,2.01c.72-.48,1.19-1.18,1.19-2.03,0-1.05-1.07-1.9-2.79-1.9-1.09,0-2.42.36-3.42.99-.69.43-1.2.85-1.96,1.63l-1.04-1.12c1.65-1.28,4.05-3.39,6.21-5.82-1.21.21-2.73.35-3.99.41l-.27-1.44c1.72-.03,3.61-.15,5.77-.56l.85,1.05c-1.44,1.54-2.56,2.61-3.91,3.83.69-.21,1.33-.3,1.93-.3,2.52,0,4.16,1.33,4.16,3.19,0,2.4-2.4,4.05-5.24,4.05-1.54,0-2.85-.82-2.85-2.17ZM179.94,156.85c.39,0,.75-.04,1.11-.13-.46-.81-1.11-1.26-1.8-1.26-.51,0-.81.26-.81.58,0,.53.66.81,1.5.81Z"/>
        <path d="M195.15,149.41c0-1.14.83-2.42,1.79-3.15h1.39c-.96.79-1.86,1.98-1.75,2.87.78.04,1.37.42,1.37,1.05s-.51,1.11-1.18,1.11c-.95,0-1.61-.76-1.61-1.87ZM198.47,149.41c0-1.14.83-2.42,1.79-3.15h1.4c-.96.79-1.86,1.98-1.75,2.87.78.04,1.36.42,1.36,1.05s-.51,1.11-1.18,1.11c-.95,0-1.61-.76-1.61-1.87Z"/>
        <path d="M202.76,157.68c1.3-1.32,1.69-2.55,1.69-5.36v-2.1c-.36.34-.81.75-1.23,1.06l-.83-1.21c1.84-1.29,3-2.61,3.97-4.6l1.51.27c-.13.28-.24.49-.45.79h4.51l.64.55c-.5.72-1.09,1.46-1.71,2.12h4.47v1.26h-9.49v1.62c0,3.61-.42,5.1-1.95,6.64l-1.15-1.05ZM209.16,149.2c.45-.48.84-.93,1.25-1.44h-3.75c-.33.45-.67.92-1.16,1.44h3.66ZM207.02,157.14v-5.62h6.19v2.98c0,.89-.34,1.19-1.38,1.19-.54,0-1.16-.04-1.63-.12l-.2-1.3c.53.1,1.09.18,1.46.18.25,0,.33-.08.33-.39v-1.32h-3.33v3.62c0,.4.06.57.29.64.24.11,1.08.17,2.21.17,2.13,0,2.56-.08,2.75-.51.1-.3.16-.74.19-1.58l1.47.39c-.1,2.92-.3,3.06-4.39,3.06-3.4,0-3.94-.18-3.94-1.38Z"/>
        <path d="M217.35,146.14h3.63l.66.63c-.5,1.82-.8,2.7-1.29,3.88.79,1.02,1.18,2.19,1.18,3.46,0,1.43-.45,2.04-1.51,2.04-.25,0-.69-.04-1.02-.12l-.25-1.38c.32.14.58.18.96.18.41,0,.53-.18.53-.87,0-1.19-.38-2.12-1.21-3.18.51-1.16.88-2.33,1.08-3.35h-1.46v11.34h-1.29v-12.64ZM221.25,157.63c2.01-.44,3.21-1.46,3.71-3.17h-1.54v.54h-1.28v-3.99h2.91v-.92h-1.3v-.58c-.53.5-1.17.96-1.88,1.37l-.83-1.08c1.71-.87,3.11-2.4,3.78-4.16h1.46c.99,1.61,2.38,2.87,4.2,3.86l-.84,1.18c-.57-.33-1.3-.85-1.8-1.29v.71h-1.51v.92h3v3.99h-1.28v-.54h-1.51c.63,1.29,1.99,2.37,3.78,2.94l-.92,1.26c-1.69-.78-3.06-1.98-3.58-3.17-.54,1.64-1.83,2.81-3.72,3.38l-.84-1.24ZM225.05,153.43v-1.4h-1.63v1.4h1.63ZM227.33,148.96c-.65-.58-1.31-1.35-1.74-2-.38.78-.81,1.42-1.32,2h3.06ZM228.05,153.43v-1.4h-1.72v1.4h1.72Z"/>
        <path d="M234.65,151.17c-1.1.01-2.08.01-2.97.01l-.02-1.47c.86.01,1.86.01,2.99,0,0-1.09,0-2.21-.02-3.32h1.52c-.02,1.11-.02,2.21-.02,3.32,1.16-.02,2.42-.02,3.75-.04-.01-1.17-.03-2.37-.06-3.5h1.51c-.01,1.14-.01,2.31-.01,3.48,1.03-.01,2.1-.04,3.19-.06l.02,1.48-3.21.05v.18c0,4.17-1.29,5.89-4.02,7.24l-1.36-.9c2.83-1.38,3.94-2.62,3.94-6.51-1.37.01-2.61.01-3.75.03,0,1.08,0,2.16.02,3.24h-1.52c.02-1.08.02-2.16.02-3.24Z"/>
        <path d="M15.11,179.16c4.1-1.68,7.41-4.23,9.34-7l1.35.78c-.92,1.32-2.1,2.55-3.46,3.69,0,2.61.01,5.22.04,7.83h-1.56c.03-2.23.03-4.47.02-6.69-1.4.99-2.94,1.88-4.56,2.62l-1.17-1.23Z"/>
        <path d="M30.27,175.06l.9-1.29c1.3.67,2.17,1.21,3.51,2.28l-.96,1.32c-1.18-1.02-2.29-1.76-3.45-2.31ZM30.87,182.5c3.96-.99,7.03-3.28,9.07-7.54l1.16,1.47c-2.28,4.12-5.04,6.43-9.41,7.62l-.82-1.54Z"/>
        <path d="M44.6,174.66c-.78-.03-1.37-.4-1.37-1.03s.51-1.11,1.19-1.11c.94,0,1.6.76,1.6,1.86s-.83,2.42-1.79,3.16h-1.39c.96-.81,1.86-1.98,1.75-2.88ZM47.91,174.66c-.78-.03-1.36-.4-1.36-1.03s.51-1.11,1.18-1.11c.95,0,1.61.76,1.61,1.86s-.83,2.42-1.79,3.16h-1.4c.96-.81,1.86-1.98,1.75-2.88Z"/>
        <path d="M64.49,183.07c2.75-.69,4.38-2.37,4.38-4.5s-1.47-3.52-3.6-3.66c-.11,1.69-.38,3.16-.84,4.6-.72,2.25-2,3.48-3.36,3.48s-2.52-1.39-2.52-3.31c0-3.48,2.88-6.21,6.42-6.21,3.25,0,5.49,1.98,5.49,5.08,0,2.68-1.65,4.68-4.74,5.75l-1.23-1.23ZM61.11,181.39c.77,0,1.41-.9,1.88-2.38.41-1.32.65-2.49.74-3.96-2.07.52-3.64,2.42-3.64,4.65,0,.92.49,1.7,1.03,1.7Z"/>
        <path d="M79.37,184.69l-.27-1.58c.84.11,1.8.18,2.43.18.53,0,.66-.13.66-.63v-8.4h-9.58v-1.33h12.97v1.33h-1.88v9.01c0,1.17-.45,1.51-1.95,1.51-.55,0-1.54-.04-2.38-.1ZM74.39,176.04h5.85v5.22h-4.46v1.08h-1.39v-6.3ZM78.87,179.97v-2.67h-3.09v2.67h3.09Z"/>
        <path d="M92.34,175.81c-1.64.21-3.42.38-5.24.46l-.34-1.32c.33,0,.57,0,1.23-.03.56-.95,1.08-2.17,1.4-3.2l1.48.32c-.51,1.17-.93,2.01-1.47,2.87.72-.03,1.44-.06,2.38-.14-.28-.52-.46-.79-.79-1.24l1.12-.51c.65.83,1.33,1.95,1.84,3.02l-1.18.7c-.15-.34-.29-.64-.43-.93ZM87.66,176.95h5.38v6.75c0,.92-.33,1.19-1.35,1.19-.45,0-.96-.03-1.32-.08l-.23-1.35c.41.08.83.12,1.2.12.31,0,.38-.06.38-.36v-1.31h-2.76v3.12h-1.3v-8.08ZM91.73,178.92v-.9h-2.76v.9h2.76ZM91.73,180.9v-.95h-2.76v.95h2.76ZM94.11,177v-5.03h1.39v2.28c1.12-.39,2.21-.9,3.08-1.42l1.04,1.09c-1.23.62-2.66,1.14-4.11,1.53v.97c0,.46.15.54,1.08.54,1.11,0,1.61-.08,1.75-.25.15-.15.21-.63.21-1.49l1.37.32c-.01,1.18-.12,1.89-.39,2.22-.32.36-.98.48-2.7.48-2.33,0-2.71-.18-2.71-1.24ZM94.11,183.64v-5.01h1.39v1.96c1.19-.36,2.31-.88,3.24-1.46l1.04,1.11c-1.47.7-2.94,1.23-4.28,1.56v1.14c0,.53.21.62,1.37.62.42,0,.72-.01,1.09-.06.6-.06.68-.21.75-1.89l1.41.33c-.15,2.8-.3,2.92-3.27,2.92-2.33,0-2.75-.17-2.75-1.23Z"/>
        <path d="M101.1,179.05c.3-1.28.44-2.5.5-4.33l1.2.15c-.06,1.99-.23,3.48-.54,4.84l-1.16-.66ZM103.19,171.81h1.42v2.8l.98-.51c.38.69.64,1.32.85,1.98.32-1,.54-1.94.75-3.35l1.32.24c-.09.66-.21,1.26-.38,2.04h1.36v-3.08h1.42v3.08h3.24v1.28h-3.24v2.65h2.91v1.29h-2.91v3.06h3.65v1.32h-8.66v-1.32h3.58v-3.06h-2.73v-1.29h2.73v-2.65h-1.71c-.31,1-.69,1.86-1.11,2.55l-1.08-.9c.33-.57.58-1.12.79-1.74l-1.08.64c-.2-.83-.41-1.39-.71-2.08v10.27h-1.42v-13.23Z"/>
        <path d="M116.88,178.39c0-.53.38-1.26,1.02-1.92l1.05.51c-.4.36-.64.67-.64.88,0,.33.43.48,1.5.48h.22c.06-.36.11-.74.17-1.14.06-.45.13-.93.2-1.43-1-.01-2.01-.07-2.9-.19l-.07-1.42c1.05.15,2.11.24,3.15.24.12-.93.24-1.8.3-2.43l1.56.21c-.11.53-.24,1.32-.38,2.17.92-.04,1.83-.15,2.74-.31l.09,1.42c-.89.15-2.04.25-3.06.29-.07.52-.13,1.02-.19,1.47-.04.38-.09.72-.12,1.04,1.06-.11,2.17-.3,3.03-.57l.33,1.41c-1.11.24-2.37.39-3.51.46-.04.55-.08.96-.08,1.21,0,1.38.62,2.16,2.07,2.15,1.54-.02,2.92-1.1,2.92-2.9,0-.93-.33-1.68-.93-2.68l1.56-.06c.66,1.1.88,2.17.88,2.94,0,2.65-1.84,4.2-4.47,4.2-2.43,0-3.54-1.21-3.54-3.33,0-.35.03-.84.09-1.46h-.36c-1.96,0-2.64-.55-2.64-1.25Z"/>
        <path d="M135.6,183.1c-.79.6-1.61.96-2.42.96-1.32,0-2.1-.96-2.1-2.36,0-1.29.66-2.55,1.74-3.51.53-.48,1.14-.87,1.79-1.14.01-.5.04-1.11.11-1.77-1.14.06-2.18.09-2.92.09l-.08-1.37c.81.03,1.9,0,3.12-.06.06-.69.15-1.38.24-1.98l1.53.21c-.12.53-.23,1.09-.32,1.68,1.4-.12,2.87-.28,4.14-.52l.11,1.38c-1.35.21-2.92.36-4.42.48-.06.53-.11,1.04-.13,1.47.71-.15,1.48-.23,2.31-.21.08-.35.11-.63.15-.98l1.41.21c-.04.32-.1.62-.18.92,1.83.42,3.11,1.73,3.11,3.42,0,1.91-.96,3.67-4.19,4.7l-1.11-1.11c2.85-.84,3.76-2.13,3.76-3.55,0-1.08-.76-1.89-1.92-2.24-.57,1.58-1.53,3.21-2.55,4.32.13.27.27.54.43.79l-1.18,1.02c-.15-.27-.29-.55-.42-.85ZM133.32,182.64c.54,0,1.19-.3,1.82-.87-.27-.9-.47-2.08-.53-3.3-.33.19-.69.48-1.04.83-.54.54-1.04,1.35-1.04,2.23,0,.75.33,1.11.78,1.11ZM136.28,180.69c.66-.83,1.29-1.93,1.7-3.03-.74,0-1.41.08-2.01.25.02.95.09,1.91.32,2.78Z"/>
        <path d="M148.4,182.25c0-1.05.95-1.81,2.23-1.81s2.39.72,3.12,2.01c.72-.48,1.19-1.18,1.19-2.03,0-1.05-1.07-1.9-2.79-1.9-1.09,0-2.42.36-3.42.99-.69.43-1.2.85-1.96,1.63l-1.04-1.12c1.65-1.28,4.05-3.39,6.21-5.82-1.21.21-2.73.35-3.99.41l-.27-1.44c1.72-.03,3.61-.15,5.77-.56l.85,1.05c-1.44,1.54-2.56,2.61-3.91,3.83.69-.21,1.33-.3,1.93-.3,2.52,0,4.16,1.33,4.16,3.19,0,2.4-2.4,4.05-5.24,4.05-1.54,0-2.85-.82-2.85-2.17ZM151.4,183.1c.39,0,.75-.04,1.11-.13-.46-.81-1.11-1.26-1.8-1.26-.51,0-.81.26-.81.58,0,.53.66.81,1.5.81Z"/>
        <path d="M165.71,183.07c2.75-.69,4.38-2.37,4.38-4.5s-1.47-3.52-3.6-3.66c-.11,1.69-.38,3.16-.84,4.6-.72,2.25-2,3.48-3.36,3.48s-2.52-1.39-2.52-3.31c0-3.48,2.88-6.21,6.42-6.21,3.25,0,5.49,1.98,5.49,5.08,0,2.68-1.65,4.68-4.74,5.75l-1.23-1.23ZM162.33,181.39c.77,0,1.41-.9,1.88-2.38.41-1.32.65-2.49.74-3.96-2.07.52-3.64,2.42-3.64,4.65,0,.92.49,1.7,1.03,1.7Z"/>
        <path d="M173.45,183.04c0-1.17.98-2.14,2.17-2.14s2.15.99,2.15,2.16-.98,2.16-2.17,2.16-2.15-.99-2.15-2.17ZM176.76,183.06c0-.65-.51-1.16-1.16-1.16s-1.16.53-1.16,1.16.51,1.15,1.16,1.15,1.16-.52,1.16-1.15Z"/>
      </g>
      <circle class="cls-8" cx="308.3" cy="182.56" r="30"/>
      <circle class="cls-11" cx="30" cy="59.77" r="30"/>
      <path class="cls-7" d="M329.84,1.42H90.46c-4.68,0-8.47,3.79-8.47,8.47v43.9s-9.69,9.69-9.69,9.69h9.69v.5c0,4.68,3.79,8.47,8.47,8.47h239.38c4.68,0,8.47-3.79,8.47-8.47V9.89c0-4.68-3.79-8.47-8.47-8.47Z"/>
      <g>
        <path d="M98.24,26.64c0-.84.03-2.66.06-3.78.03-.97.01-2.97-.01-4.27l1.72.03c-.03,1.29-.08,3.18-.12,4.12-.04,1-.08,2.74-.08,3.67,0,1.78.5,2.66,1.89,2.66,1.72,0,3.57-1.23,4.56-3.04l.83,1.63c-1.16,1.65-3.21,2.92-5.4,2.92-2.62,0-3.45-1.63-3.45-3.94ZM102.77,19.99l.96-.46c.51.79.86,1.54,1.23,2.49l-1,.5c-.35-.96-.75-1.77-1.19-2.52ZM104.46,19.49l.97-.46c.53.75.86,1.47,1.26,2.49l-1.02.46c-.39-1.05-.75-1.81-1.21-2.49Z"/>
        <path d="M113.78,25.99c-.86.34-1.65.66-2.18.88l-.61-1.25,2.31-.85c-.32-.77-.64-1.55-1.06-2.37l1.32-.51c.38.79.69,1.59,1.02,2.43.18-.07.36-.13.52-.19.71-.25,1.58-.54,2.33-.71-.86-.54-1.5-.83-2.33-1.11l.53-1.09c.93.29,1.62.58,2.55,1.11l-.66,1.06c.42-.09.79-.15,1.08-.15,1.37,0,2.58.84,2.58,2.36,0,1.59-1.44,2.36-2.91,2.36-.42,0-.74-.03-.97-.08l-.41-1.3c.31.08.76.13,1.21.13.95,0,1.62-.39,1.62-1.14,0-.71-.48-1.1-1.21-1.1-.65,0-1.58.29-2.97.83-.17.06-.33.13-.5.19.6,1.58,1.32,3.55,1.8,5.27l-1.38.43c-.45-1.8-1.09-3.67-1.68-5.2Z"/>
        <path d="M129.33,29.27c-.79.6-1.61.96-2.42.96-1.32,0-2.1-.96-2.1-2.36,0-1.29.66-2.55,1.74-3.51.53-.48,1.14-.87,1.79-1.14.01-.5.04-1.11.11-1.77-1.14.06-2.18.09-2.92.09l-.08-1.36c.81.03,1.9,0,3.12-.06.06-.69.15-1.38.24-1.98l1.53.21c-.12.52-.23,1.09-.32,1.68,1.4-.12,2.87-.29,4.14-.53l.11,1.38c-1.35.21-2.92.36-4.42.48-.06.53-.11,1.04-.13,1.47.71-.15,1.48-.22,2.31-.21.08-.34.11-.63.15-.98l1.41.21c-.04.31-.1.62-.18.91,1.83.42,3.11,1.73,3.11,3.42,0,1.91-.96,3.68-4.19,4.7l-1.11-1.11c2.85-.84,3.76-2.13,3.76-3.56,0-1.08-.76-1.89-1.92-2.24-.57,1.58-1.53,3.21-2.55,4.32.13.27.27.54.43.79l-1.18,1.02c-.15-.27-.29-.55-.42-.85ZM127.05,28.8c.54,0,1.19-.3,1.82-.87-.27-.9-.47-2.08-.53-3.3-.33.19-.69.48-1.04.83-.54.54-1.04,1.35-1.04,2.23,0,.75.33,1.11.78,1.11ZM130.01,26.85c.66-.82,1.29-1.93,1.7-3.03-.74,0-1.41.07-2.01.25.02.95.09,1.91.32,2.78Z"/>
        <path d="M138.11,28.13l1.3-1.12c.92.78,1.98,1.99,2.77,3.13l-1.41,1.24c-.69-1.15-1.64-2.29-2.67-3.25Z"/>
        <path d="M153.47,21.53h1.75v-1.52h-2.21v-1.24h6.93v1.24h-1.99v1.52h1.75v9.61h-1.19v-.57h-3.85v.64h-1.2v-9.69ZM158.52,26.99v-1.09h-.78c-.65,0-.81-.15-.81-.74v-2.52h-.69c-.03,1.92-.32,3.13-.92,4.04l-.66-.63v.94h3.85ZM155.39,22.64h-.72v3.29c.46-.77.67-1.72.72-3.29ZM158.52,29.37v-1.3h-3.85v1.3h3.85ZM156.93,21.53v-1.52h-.67v1.52h.67ZM158.52,24.84v-2.21h-.72v1.94c0,.22.06.27.32.27h.4ZM160.52,29.55v-6.34h3.72v-3.13h-3.9v-1.3h5.23v6.57h-1.33v-.83h-2.37v4.46c0,.42.09.49.63.54.23.03.33.03.58.03.42,0,.75-.02,1.02-.04.66-.03.74-.27.79-2.49l1.39.31c-.06,1.68-.15,2.46-.33,2.89-.26.6-.77.74-2.94.74s-2.5-.18-2.5-1.4Z"/>
        <path d="M177.75,30.48h-9.36v-1.3h9.36v-1.74h-8.99v-1.27h8.99v-1.61h-9.33v-1.28h4.75v-4.99h1.56v4.99h4.54v7.92h-1.53v-.72ZM168.72,19.82l1.32-.75c.63.79,1.25,1.8,1.83,2.99l-1.42.75c-.57-1.25-1.12-2.2-1.73-2.99ZM175.83,22.25c.7-.99,1.3-2.08,1.84-3.34l1.56.64c-.72,1.43-1.41,2.58-2.01,3.33l-1.39-.63Z"/>
        <path d="M184.92,25.25c-.65,1.53-1.37,2.72-2.17,3.6l-.88-1.32c1.26-1.17,2.17-2.54,2.86-4.28h-2.62v-1.32h2.82v-1.66c-.54.1-1.16.19-2.03.29l-.58-1.2c1.96-.21,3.78-.58,5.37-1.12l.85,1.2c-.63.21-1.47.42-2.2.57v1.93h2.46v1.32h-2.46v1.04c.97.63,1.74,1.21,2.47,1.88l-.83,1.38c-.54-.66-1.04-1.18-1.65-1.75v5.41h-1.41v-5.96ZM189.62,19.68h1.43v7.89h-1.43v-7.89ZM190.43,30.81l-.3-1.53c.73.12,1.51.2,2.14.2.43,0,.55-.12.55-.55v-10.28h1.44v10.86c0,1.11-.39,1.42-1.73,1.42-.66,0-1.47-.04-2.11-.12Z"/>
        <path d="M197.12,18.91h11.61v12.22h-1.46v-.77h-8.7v.77h-1.45v-12.22ZM207.27,29.08v-8.88h-8.7v8.88h8.7ZM199.97,21.77h5.82v5.61h-5.82v-5.61ZM204.41,26.13v-3.12h-3.06v3.12h3.06Z"/>
        <path d="M213.47,22.58c0-1.29.17-2.5.5-4.14l1.5.36c-.36,1.44-.6,2.98-.6,4.08,0,.3,0,.58.02.84.3-.75.67-1.53.97-2.12l.76,1.04c-.46.77-.78,1.5-.96,2.03-.27.81-.3,1.33-.27,2.07l-1.2.4c-.55-1.57-.72-3.07-.72-4.56ZM215.72,30.06c2.73-1.65,3.96-3.45,3.96-6.75,0-1.19-.12-2.93-.33-4.63l1.59-.2c.18,1.81.27,3.36.27,4.66,0,3.95-1.15,5.94-4,7.83l-1.48-.92Z"/>
        <path d="M225.84,29.7c1.25-2.34,2.1-4.38,2.71-6.57-.92.14-1.77.25-2.43.36l-.25-1.46c.69-.06,1.96-.2,2.98-.35.24-1.03.45-2.11.65-3.25l1.53.24c-.19.93-.42,1.86-.66,2.82.44-.03.83-.06,1.14-.06,1.44,0,2.4.88,2.4,2.68,0,1.29-.12,2.91-.45,4.27-.38,1.56-1.28,1.96-2.18,1.96-.71,0-1.39-.13-2.01-.36l-.12-1.65c.71.35,1.38.48,1.83.48.58,0,.88-.32,1.11-1.35.19-.89.3-2,.3-3.06s-.43-1.59-1.18-1.59c-.26,0-.62.03-1.14.09-.73,2.59-1.53,4.88-2.82,7.51l-1.41-.74ZM233.84,21.68l1.23-.92c1.17,1.39,1.95,3.06,2.64,5.19l-1.38.9c-.72-2.26-1.35-3.97-2.49-5.17ZM235.01,19.57l.79-.66c.63.6,1.05,1.11,1.56,2.01l-.86.67c-.51-.92-.94-1.49-1.5-2.02ZM236.46,18.73l.79-.66c.68.58,1.08,1.15,1.56,1.98l-.87.66c-.45-.84-.9-1.46-1.49-1.98Z"/>
        <path d="M240.02,19.34h5.47v-1.36h1.53v1.36h5.56v1.16h-12.57v-1.16ZM240.42,24.56h11.76v5.31c0,.87-.41,1.2-1.44,1.2-.58,0-1.33-.03-1.86-.07l-.26-1.38c.56.09,1.17.13,1.65.13.39,0,.48-.09.48-.43v-3.61h-8.91v5.5h-1.42v-6.64ZM242.4,21.14h7.8v2.79h-7.8v-2.79ZM243.26,26.32h5.97v3h-4.61v.72h-1.36v-3.72ZM248.78,22.91v-.76h-4.95v.76h4.95ZM247.86,28.25v-.91h-3.24v.91h3.24Z"/>
        <path d="M256.14,27.21c-.33-1.07-.55-2.97-.55-4.71,0-.75.03-1.81.09-2.75l1.59.33c-.09,1.02-.13,1.92-.13,2.88,0,1.63.17,2.8.43,3.67.32,1.02.76,1.64,1.2,1.64.48,0,1.11-1.04,1.51-2.94l1.32,1.11c-.63,2.37-1.7,3.51-2.8,3.51-1.22,0-2.13-1.07-2.66-2.75ZM263,21.56l1.14-1.02c1.8,1.65,2.32,3.67,2.71,6.52l-1.54.48c-.35-2.65-.9-4.77-2.31-5.98Z"/>
        <path d="M270.62,24.72c-.45,1.49-.94,2.62-1.6,3.75l-.69-1.6c.93-1.2,1.67-2.8,2.13-4.63h-1.8v-1.3h1.96v-2.96h1.35v2.96h1.65v1.3h-1.65v1.42c.75.66,1.36,1.31,1.93,2.03l-.78,1.35c-.42-.75-.64-1.12-1.15-1.84v6.01h-1.35v-6.48ZM276.89,26.54c-.68,1.42-1.62,2.7-2.82,3.76l-.96-1.2c1.51-1.05,2.62-2.36,3.51-4.14h-3.12v-1.27h3.39v-1.91h-1.59c-.25.71-.43,1.14-.76,1.73l-1.08-.81c.54-.92.92-2.22,1.16-3.86l1.28.21c-.06.46-.15.96-.27,1.44h1.28v-2.52h1.38v2.52h2.88v1.29h-2.88v1.91h3.54v1.27h-3.27c.86,1.5,2.16,2.79,3.62,3.67l-.87,1.35c-1.25-1.04-2.25-2.19-3.01-3.54v4.75h-1.38v-4.66Z"/>
        <path d="M283.68,29.99c1.23-2.76,2.1-5.34,2.71-7.93-1.02.08-1.98.12-2.78.15l-.16-1.51c1.03-.03,2.14-.08,3.28-.15.15-.81.3-1.63.42-2.47l1.54.24c-.13.72-.28,1.42-.43,2.11,1.11-.12,2.21-.25,3.27-.46l.24,1.5c-1.18.19-2.54.36-3.85.48-.69,2.93-1.54,5.7-2.71,8.65l-1.53-.6ZM288.92,28.05c0-.56.21-1.23.68-1.89l1.36.43c-.39.45-.57.9-.57,1.21,0,.58.66.92,2.13.92.96,0,1.98-.11,2.79-.29l.3,1.56c-.93.18-2.13.21-2.85.21-2.74,0-3.84-.9-3.84-2.16ZM289.68,23.25c1.71-.29,3.7-.42,5.4-.35l-.2,1.49c-1.63-.09-3.45.03-4.8.27l-.4-1.41ZM292.2,19.26l.9-.54c.55.71.85,1.24,1.24,2.11l-.94.57c-.39-.87-.71-1.45-1.2-2.14ZM293.91,18.75l.88-.55c.54.67.88,1.24,1.26,2.08l-.93.57c-.39-.87-.71-1.42-1.21-2.1Z"/>
        <path d="M299.19,25.5c0-1.33.3-4.17.57-6.39l1.53.25c-.52,3.18-.66,5.08-.66,6.48,0,.48.01,1.05.1,1.53.21-.57.54-1.21.83-1.74l.85.87c-.45.81-.6,1.16-.78,1.67-.18.51-.32,1.15-.25,1.71l-1.19.46c-.67-1.35-1-2.82-1-4.84ZM302.84,22.04c1.28.03,2.58.01,3.81-.08-.06-1-.15-2.19-.25-3.48l1.6-.12c.08,1.21.15,2.38.2,3.45.79-.09,1.51-.21,2.17-.36l.18,1.5c-.69.12-1.47.22-2.29.32.02.48.03.94.03,1.36,0,3.72-.53,5.07-2.31,6.55l-1.58-.69c2.22-1.68,2.32-3.43,2.32-6.27,0-.25,0-.54-.01-.84-1.27.08-2.58.11-3.76.09l-.11-1.44Z"/>
        <path d="M311.88,29.81c.61-.35,1.17-.75,1.77-1.25v-3.6h-1.67v-1.35h3.01v4.68c.38.56.98.95,1.64,1.11l-.84-1.08c1.12-.3,2.03-.71,3.02-1.32h-3.25v-1.1h2.31v-.91h-1.91v-1.08h1.91v-.92c-1.54.01-1.84-.12-1.86-.92v-2.03h2.58v-.71h-2.91v-.96h4.12v2.58h-2.55v.67c0,.35.15.42.74.42,1.04,0,1.14-.09,1.16-.9l1.17.21c-.06,1.21-.3,1.54-1.16,1.59v.95h1.95v-1.04c-.38-.09-.56-.36-.56-.81v-2.01h2.61v-.71h-2.88v-.96h4.08v2.58h-2.55v.64c0,.38.12.43.87.43.9,0,.98-.06.99-.85l1.19.2c-.08,1.5-.24,1.59-2.46,1.6v.92h2.08v1.08h-2.08v.91h2.62v1.1h-3.2c1.08.39,2.13.84,3.03,1.33l-1.12,1.07c-.75-.51-1.56-.93-3.03-1.54l.88-.86h-2.7l.91.82c-1.02.69-1.98,1.19-3.1,1.61.83.21,1.98.24,3.06.24,1.7,0,3.3-.04,5.71-.18-.27.55-.38.93-.45,1.47-2.13.08-3,.09-4.1.09-4.21,0-5.41-.32-6.4-1.64-.51.63-1.08,1.22-1.83,1.88l-.81-1.48ZM312.2,19.25l1.02-.85c.81.71,1.5,1.46,2.11,2.29l-1.14.93c-.69-.99-1.29-1.71-2-2.37ZM321.11,25.91v-.91h-1.95v.91h1.95Z"/>
        <path d="M101.63,50c-.75-.89-1.16-1.11-1.56-1.11s-.75.24-1.12.77c-.92,1.27-1.58,2.11-2.67,3.43l-1.32-1.11c1-.99,2.08-2.21,3-3.43.67-.92,1.27-1.32,2.08-1.32s1.53.4,2.46,1.48c1.84,2.16,3.33,3.66,5.79,5.67l-1.18,1.37c-2.52-2.27-3.96-3.96-5.47-5.75ZM103.1,47.3l.79-.63c.69.58,1.14,1.16,1.71,1.96l-.81.72c-.56-.84-1.05-1.46-1.7-2.05ZM104.45,46.31l.83-.66c.66.54,1.14,1.08,1.73,1.94l-.83.67c-.6-.87-1.11-1.44-1.73-1.95Z"/>
        <path d="M110.61,52.01c0-1.33.3-3.96.84-6.81l1.53.27c-.64,2.93-.94,5.56-.94,6.67,0,.47.03.98.09,1.44.24-.77.54-1.47.87-2.19l.9.9c-.45.93-.64,1.47-.79,2.02-.22.84-.3,1.28-.28,1.95l-1.19.5c-.63-1.37-1.02-2.73-1.02-4.75ZM114.38,54.45c0-1.05.85-2.04,2.55-2.04.42,0,.87.04,1.32.12l-.04-1.17c-.05-.64-.08-1.38-.09-2.07-1.18.08-2.37.1-3.37.1l-.11-1.5c1.07.02,2.26-.01,3.46-.09,0-.84-.01-1.57.03-2.79l1.58.04c-.08,1.02-.11,1.83-.14,2.61.79-.07,1.54-.18,2.24-.31l.15,1.51c-.72.12-1.53.23-2.38.3.02.78.03,1.48.06,2.16.01.6.04,1.14.06,1.59.86.31,1.71.78,2.54,1.39l-.87,1.38c-.55-.53-1.11-.92-1.65-1.2-.12,1.46-1.1,2.19-2.72,2.19-1.5,0-2.61-.85-2.61-2.24ZM116.96,55.34c.81,0,1.35-.39,1.33-1.21v-.19c-.45-.14-.88-.21-1.25-.21-.88,0-1.26.36-1.26.81,0,.49.43.81,1.17.81ZM120.26,44.81l.97-.29c.25.72.36,1.17.53,2.04l-1.02.29c-.15-.87-.25-1.34-.48-2.04ZM121.8,44.36l.96-.29c.31.73.42,1.15.6,2.04l-.99.3c-.16-.87-.28-1.32-.57-2.05Z"/>
        <path d="M126,53.46c-.33-1.07-.55-2.97-.55-4.71,0-.75.03-1.81.09-2.75l1.59.33c-.09,1.02-.13,1.92-.13,2.88,0,1.63.17,2.8.43,3.67.32,1.02.76,1.64,1.2,1.64.48,0,1.11-1.04,1.51-2.94l1.32,1.11c-.63,2.37-1.7,3.51-2.8,3.51-1.21,0-2.13-1.07-2.66-2.75ZM132.86,47.81l1.14-1.02c1.8,1.65,2.32,3.67,2.71,6.52l-1.54.48c-.35-2.65-.9-4.77-2.31-5.98Z"/>
        <path d="M140.46,53.46c-.33-1.07-.55-2.97-.55-4.71,0-.75.03-1.81.09-2.75l1.59.33c-.09,1.02-.13,1.92-.13,2.88,0,1.63.17,2.8.43,3.67.32,1.02.76,1.64,1.2,1.64.48,0,1.11-1.04,1.51-2.94l1.32,1.11c-.63,2.37-1.7,3.51-2.8,3.51-1.22,0-2.13-1.07-2.66-2.75ZM147.32,47.81l1.14-1.02c1.8,1.65,2.32,3.67,2.71,6.52l-1.54.48c-.35-2.65-.9-4.77-2.31-5.98Z"/>
        <path d="M153.48,56.04c2.04-4.32,3.56-7.62,5.27-11.5l1.54.58c-1.04,2.04-1.91,3.81-2.81,5.71.8-.69,1.65-1.02,2.33-1.02,1.04,0,1.38.83,1.38,2.64,0,1.93.24,2.58,1.02,2.58,1.05,0,2.05-1.28,2.95-3.99l1.23,1.19c-1.04,2.8-2.35,4.3-4.17,4.3s-2.52-1.23-2.52-3.57c0-1.28-.12-1.61-.58-1.61-.53,0-1.37.68-2.01,1.47-.76.93-1.15,1.65-2.2,4l-1.43-.79Z"/>
        <path d="M168,56.24c1.23-2.76,2.1-5.34,2.71-7.93-1.02.08-1.98.12-2.77.15l-.17-1.51c1.03-.03,2.14-.08,3.28-.15.15-.81.3-1.63.42-2.47l1.54.24c-.13.72-.29,1.42-.43,2.11,1.11-.12,2.21-.25,3.27-.46l.24,1.5c-1.18.19-2.54.36-3.85.48-.69,2.93-1.54,5.7-2.71,8.65l-1.53-.6ZM173.24,54.3c0-.56.21-1.23.68-1.89l1.36.43c-.39.45-.57.9-.57,1.21,0,.58.66.92,2.13.92.96,0,1.98-.11,2.79-.29l.3,1.56c-.93.18-2.13.21-2.85.21-2.74,0-3.84-.9-3.84-2.16ZM174,49.5c1.71-.29,3.7-.42,5.4-.35l-.2,1.49c-1.63-.09-3.45.03-4.8.27l-.4-1.41ZM176.52,45.51l.9-.54c.55.71.85,1.24,1.24,2.11l-.94.57c-.39-.87-.71-1.45-1.2-2.14ZM178.23,45l.88-.55c.54.67.88,1.24,1.26,2.08l-.93.57c-.39-.87-.71-1.42-1.21-2.1Z"/>
        <path d="M184.68,53.1c-.48.6-1,1.3-1.62,2.21l-1.27-.95c.96-1.09,1.92-2.31,2.49-3.48.12-.24.27-.65.42-1.11v-1.21c-.72.18-1.66.33-2.34.39l-.24-1.38c.76-.06,1.71-.16,2.56-.38,0-1.08-.01-1.88-.03-2.65l1.59.06c-.03.84-.04,1.62-.06,2.5l.72.35c-.13.42-.43,1.17-.75,1.9v.15c1.54-1.65,3-2.91,4.8-2.91s2.73,1.5,2.73,4.46c0,.75-.08,1.5-.2,2.16.66.36,1.29.81,1.88,1.37l-.96,1.27c-.39-.46-.84-.87-1.3-1.18-.09.25-.2.46-.3.63-.5.79-1.43,1.2-2.5,1.2-1.59,0-2.58-.95-2.58-2.15s1.04-2.04,2.56-2.04c.57,0,1.17.11,1.79.29.06-.53.09-1.06.09-1.57,0-1.77-.41-2.96-1.35-2.96-1.26,0-2.94,1.47-4.65,3.33,0,1.92,0,3.38.03,5.61l-1.58.06c.03-1.51.04-2.76.08-3.96ZM190.29,55.07c.6,0,1.08-.29,1.33-.82.04-.09.09-.2.12-.3-.49-.2-1.02-.3-1.42-.3-.64,0-1.09.27-1.09.67,0,.45.36.75,1.07.75Z"/>
        <path d="M201.71,55.38c0-.66.49-1.23,1.21-1.23s1.21.57,1.21,1.23-.5,1.21-1.21,1.21-1.21-.56-1.21-1.21ZM202.04,45.69h1.76l-.09,7.34h-1.56l-.11-7.34Z"/>
      </g>
      <g>
        <path class="cls-1" d="M325.25,173.31c1.98.16,1.35,2.34.38,3.61-.2.27-.59.3-.85.08-1.72-1.47-1.12-3.82.47-3.69Z"/>
        <path class="cls-1" d="M325.15,174.18c-.34,0-.62-.28-.62-.62v-3.92l-.99-1.38c-.2-.28-.14-.67.14-.87.28-.2.67-.14.87.14l1.1,1.54c.08.11.12.23.12.36v4.12c0,.34-.28.62-.62.62Z"/>
        <polygon class="cls-5" points="322.18 163.49 315.8 162.89 318.64 168.63 325.15 169.33 322.18 163.49"/>
        <rect class="cls-5" x="315.19" y="166.72" width="6.95" height="3.02" transform="translate(173.74 -161.69) rotate(38.45)"/>
        <path class="cls-1" d="M320.47,172.68c-.14,0-.27-.04-.39-.13-.27-.21-.32-.61-.1-.88l2.35-2.98c.13-.17.34-.26.56-.23l1.19.13-2.29-4.51-4.93-.46.7,1.42c.1.21.08.46-.06.65l-1.88,2.51c-.21.28-.6.33-.87.12-.28-.21-.33-.6-.12-.87l1.65-2.2-1.03-2.07c-.1-.2-.08-.44.05-.63s.35-.29.57-.27l6.39.6c.21.02.4.15.5.34l2.96,5.84c.1.2.09.45-.04.64-.13.19-.35.29-.58.27l-1.99-.21-2.13,2.71c-.12.16-.31.24-.49.24Z"/>
        <path class="cls-10" d="M315.98,200.01l1.72-.87,4.64-2.86,2.66-4.44.28-4.84-2.37-9.99-4.84-6.89-5.68-3.06-6.22-.11-6.22,2.18-3.6,4.06-4.75,9.54-1.64,4.11-.28,5.67,3.66,4.27c4.43,3.21,12.95,4.67,22.63,3.23Z"/>
        <path class="cls-12" d="M324.93,188.55c-6.01-1.46-12.15,4.43-11.22,11.67,6.66-1.16,11.06-4.57,11.22-11.67Z"/>
        <path class="cls-1" d="M304.05,179.62c-1.22,1.43-2.92,1.55-4.2.69-.3-.2-.14-.6.24-.6,1.22-.01,2.3-.27,3.45-.61.38-.11.73.25.5.52Z"/>
        <path class="cls-1" d="M308.98,180.05c.83,1.68,2.45,2.22,3.9,1.69.34-.12.28-.54-.09-.64-1.18-.31-2.17-.82-3.2-1.43-.34-.2-.77.06-.61.38Z"/>
        <ellipse class="cls-1" cx="300.43" cy="187.18" rx="1.93" ry="1.78" transform="translate(67.37 453.59) rotate(-80.75)"/>
        <ellipse class="cls-1" cx="311.07" cy="188.33" rx="1.78" ry="1.93" transform="translate(-8.2 14.26) rotate(-2.59)"/>
        <path class="cls-12" d="M290.55,185.83c5.25.88,7.74,6.78,5.18,12.57-4.87-3.33-7.47-6.47-5.18-12.57Z"/>
        <path class="cls-1" d="M311.28,200.85c-.33,0-.6-.26-.62-.59-.02-.34.24-.64.59-.66,4.87-.27,13.03-2.08,13.06-11.05,0-1.95-.17-6.99-1.94-11.58-2.13-5.52-5.79-8.59-10.9-9.13-12.27-1.3-15.11,5.95-17,10.75-.23.59-.45,1.15-.67,1.64-.21.48-.48,1.02-.77,1.6-1.49,3.01-3.74,7.57-2.21,11.16.91,2.13,3.09,3.75,6.49,4.82,1.25.39,2.19.6,3.48.89l.57.13c.34.07.55.41.47.74-.08.34-.41.55-.74.47l-.56-.12c-1.28-.28-2.29-.51-3.59-.91-3.76-1.18-6.21-3.04-7.27-5.52-1.76-4.12.65-8.98,2.24-12.2.28-.57.55-1.1.75-1.56.21-.47.42-1.01.65-1.59,1.9-4.84,5.08-12.94,18.29-11.53,5.61.6,9.62,3.93,11.93,9.93,1.85,4.79,2.03,10.01,2.03,12.03,0,2.08-.47,5.1-2.65,7.64-2.4,2.79-6.3,4.36-11.58,4.66-.01,0-.02,0-.04,0Z"/>
        <path class="cls-1" d="M299.15,186.53c-.07,0-.14-.02-.19-.07-.79-.62-1.2-1.27-1.5-2.37-.05-.17.05-.34.22-.38.17-.05.34.05.38.22.3,1.11.68,1.57,1.28,2.05.14.11.16.3.05.44-.06.08-.15.12-.24.12Z"/>
        <path class="cls-1" d="M298.95,187.14c-.84,0-1.74-.48-2.45-1.32-.11-.13-.1-.33.04-.44.13-.11.33-.1.44.04.65.76,1.45,1.17,2.14,1.09.17-.02.33.1.34.28s-.1.33-.28.34c-.08,0-.16.01-.23.01Z"/>
        <path class="cls-1" d="M311.93,187.76c-.15,0-.29-.11-.31-.27-.02-.17.1-.33.27-.35.69-.09,1.49-.69,1.93-1.45.09-.15.28-.2.43-.11.15.09.2.28.11.43-.55.93-1.51,1.63-2.39,1.75-.01,0-.03,0-.04,0Z"/>
        <path class="cls-1" d="M313.06,189.06c-.39,0-.79-.07-1.17-.25-.16-.07-.23-.26-.15-.41.07-.16.26-.23.41-.15.89.41,1.9.09,2.58-.25.15-.08.34-.01.42.14.08.15.01.34-.14.42-.53.26-1.22.51-1.94.51Z"/>
        <g>
          <path class="cls-3" d="M310.5,193.62c-.7-1.91-3.8-3.97-5.38-3.74s-4.91,2.14-5.94,2.08c-1.04-.06-1.76-.76-1.88,1.66-.12,2.42,1.77,3.66,4.3,2.77,3.51,2,10.1.51,8.89-2.77Z"/>
          <path class="cls-3" d="M310.5,196.1c-.78,3.84-5.14,6.09-6.46,5.52-1.32-.57-2.98-1.48-1.53-4.82,2.61.55,7.21-.12,7.33-1.7.12-1.58.66,1,.66,1Z"/>
          <path class="cls-9" d="M303.8,197.14c-.76,1.4-.39,3.2,1.91,2.08s2.3-2.38,2.3-2.38c0,0,1.51-.76-.51,0-2.02.76-3.7.31-3.7.31Z"/>
          <path class="cls-1" d="M305.37,197.92c-1.11,0-2.29-.34-3.52-1.03-2.39.68-3.73.04-4.43-.63-.89-.85-1.22-2.2-.87-3.54.36-1.35.96-1.46,1.9-1.49.67-.02,1.69-.04,3.35-.91,3.69-1.94,5.84-.82,7.95,1.44.21.22.19.57-.03.77-.22.2-.57.19-.77-.03-1.86-2-3.54-2.85-6.64-1.22-1.89.99-3.1,1.02-3.83,1.04q-.7.02-.87.67c-.25.94-.02,1.91.57,2.47.74.7,1.97.81,3.58.31.15-.05.31-.03.44.05,2,1.18,4.86,1.88,7.14-1.43.15-.21.42-.29.66-.2,0,0,.75.3,1.41.45.29.07.48.36.41.65s-.36.48-.65.41c-.43-.1-.87-.24-1.18-.35-1.28,1.69-2.85,2.55-4.61,2.55Z"/>
          <path class="cls-1" d="M304.64,202.23c-.63,0-1.23-.15-1.79-.45-.89-.48-1.46-1.16-1.69-2.02-.45-1.7.63-3.45.68-3.53.16-.26.5-.33.75-.17.26.16.33.5.17.75,0,.01-.88,1.44-.55,2.68.15.56.53,1,1.15,1.34.88.48,1.99.41,3.11-.2,1.57-.85,3.26-2.9,3.48-5.56.02-.3.29-.52.59-.5.3.02.52.29.5.59-.22,2.7-1.81,5.22-4.04,6.43-.8.43-1.6.65-2.36.65Z"/>
        </g>
      </g>
      <g>
        <path class="cls-6" d="M39.5,49.39c5.99-4.82,10.66-4.4,11.63-2.77.89,1.5-.2,9.39-9.12,4.98"/>
        <path class="cls-4" d="M43.74,51.97c2.15-3.7,6.52-2.97,7.65-2.44-1.95,3.62-3.96,4.96-7.65,2.44Z"/>
        <path class="cls-1" d="M46.74,53.54c-1.31,0-2.95-.38-4.99-1.39-.3-.15-.43-.52-.28-.82.15-.3.52-.42.82-.28,3.32,1.64,5.84,1.68,7.3.12,1.3-1.4,1.35-3.69,1.02-4.24-.21-.35-.72-.62-1.4-.75-.91-.17-4.28-.39-9.33,3.68-.26.21-.65.17-.86-.09-.21-.26-.17-.65.09-.86,3.68-2.96,7.54-4.43,10.31-3.93,1.04.19,1.83.66,2.23,1.32.64,1.09.43,3.95-1.18,5.69-.75.81-1.93,1.54-3.74,1.54Z"/>
        <path class="cls-6" d="M44.99,63.62c1.64-16.83-17.12-22.81-25.65-13.47-2.98,3.26-5.19,9.03-4.06,15.78-3.29,3.25-2.73,7.92,2.42,10.47,3.1,1.53,6.2,2.2,13.34,2.2,6.63,0,14.3-2.8,16.45-6.94,1.2-2.31.78-5.73-2.5-8.03Z"/>
        <path class="cls-2" d="M34.76,45.98c-.6-4.19-4.15-6.53-4.34-.47"/>
        <path class="cls-2" d="M23.07,47.05c-.51-4.21,2.31-7.38,4.07-1.58"/>
        <path class="cls-6" d="M18.61,50.11c-6.66-3.83-11.22-2.69-11.92-.92-.65,1.62,2.36,9.82,10.47,4.08"/>
        <path class="cls-4" d="M15.34,53.92c-2.15-3.7-7.04-2.78-8.16-2.25,1.95,3.62,4.48,4.77,8.16,2.25Z"/>
        <path class="cls-4" d="M28.18,45.5c1.23,7.47-2.33,14.46-12.54,14.46,0-11.43,12.54-14.46,12.54-14.46Z"/>
        <path class="cls-4" d="M30.42,45.51c0,8.41,6.81,12.73,13.85,13.26,0-11.43-13.85-13.26-13.85-13.26Z"/>
        <path class="cls-4" d="M14.19,72.39c13.82-6.39,25.47-3.61,33.3-.74-3.13,7.58-29.27,10.16-33.3.74Z"/>
        <path class="cls-1" d="M31.04,79.2c-7.6,0-10.65-.79-13.61-2.26-2.69-1.33-4.37-3.31-4.74-5.59-.32-1.98.37-3.97,1.94-5.63-1.1-7.14,1.47-12.92,4.26-15.98,4.25-4.65,11.26-5.93,17.43-3.18,3.01,1.34,5.47,3.51,7.11,6.28,1.79,3.02,2.53,6.55,2.2,10.5,3.38,2.57,3.64,6.23,2.4,8.6-2.36,4.55-10.5,7.26-17,7.26ZM29.66,46.34c-3.76,0-7.35,1.46-9.87,4.22-2.64,2.89-5.06,8.42-3.91,15.27.03.2-.03.39-.17.53-1.44,1.42-2.08,3.13-1.81,4.8.3,1.88,1.75,3.55,4.07,4.69,2.8,1.38,5.72,2.13,13.07,2.13,6.88,0,14.02-2.96,15.91-6.61,1.03-1.99.75-5.1-2.31-7.25-.18-.13-.28-.34-.26-.56.71-7.25-2.5-13.19-8.57-15.9-2.01-.89-4.11-1.33-6.16-1.33Z"/>
        <path class="cls-1" d="M11.96,55.9c-1.46,0-2.58-.54-3.4-1.18-2.09-1.64-2.9-4.58-2.44-5.76.29-.72.99-1.31,1.99-1.65,2.66-.93,6.7-.08,10.8,2.27.29.17.39.54.23.83-.17.29-.54.39-.83.23-5.62-3.23-8.91-2.49-9.79-2.18-.65.23-1.11.57-1.26.95-.21.53.31,2.97,2.06,4.35,1.89,1.49,4.48,1.14,7.5-.99.27-.19.65-.13.85.15.19.27.13.66-.15.85-2.23,1.58-4.07,2.14-5.56,2.14Z"/>
        <path class="cls-1" d="M34.76,46.59c-.3,0-.56-.22-.6-.52-.32-2.23-1.49-3.66-2.13-3.63-.31.02-.93.69-1,3.09-.01.34-.3.6-.63.59-.34-.01-.6-.29-.59-.63.11-3.62,1.4-4.23,2.15-4.27.03,0,.06,0,.09,0,1.46,0,2.94,2.06,3.31,4.67.05.33-.18.64-.52.69-.03,0-.06,0-.09,0Z"/>
        <path class="cls-1" d="M23.07,47.66c-.3,0-.57-.23-.6-.54-.32-2.67.61-5.08,2.07-5.39.74-.15,2.14.1,3.19,3.56.1.32-.08.66-.41.76-.32.1-.66-.08-.76-.41-.7-2.3-1.46-2.79-1.77-2.72-.62.13-1.38,1.81-1.11,4.05.04.33-.2.64-.53.68-.02,0-.05,0-.07,0Z"/>
        <path class="cls-1" d="M36,57.5c-.65-1.09-1.64-1.26-2.42-.7-.18.13-.11.42.12.44.71.07,1.33.3,1.99.61.22.1.44-.14.31-.35Z"/>
        <path class="cls-1" d="M25.04,57.7c.65-1.09,1.64-1.26,2.42-.7.18.13.11.42-.12.44-.71.07-1.33.3-1.99.61-.22.1-.44-.14-.31-.35Z"/>
        <circle class="cls-1" cx="31.89" cy="71.51" r=".57"/>
        <circle class="cls-1" cx="30.1" cy="71.51" r=".57"/>
        <path class="cls-1" d="M30.21,75.7c-.58,0-1.17-.13-1.74-.4-1.05-.5-1.76-1.38-1.96-2.34l-.5.2c-.32.13-.68-.02-.8-.34-.13-.32.02-.68.34-.8l1.32-.53c.21-.08.44-.05.62.09.17.14.26.36.22.59-.16.89.54,1.66,1.3,2.02.9.43,2.24.48,3.27-.69.23-.26.62-.28.87-.05.26.23.28.62.05.87-.81.91-1.88,1.39-2.99,1.39Z"/>
        <ellipse class="cls-1" cx="34.67" cy="66.05" rx="1.44" ry="1.56" transform="translate(-9.85 6.2) rotate(-8.95)"/>
        <ellipse class="cls-1" cx="27.01" cy="66.4" rx="1.56" ry="1.44" transform="translate(-40.68 90.02) rotate(-87.1)"/>
      </g>
    </g>
  </g>
</svg>