<?xml version="1.0" encoding="UTF-8"?>
<svg id="_レイヤー_2" data-name="レイヤー 2" xmlns="http://www.w3.org/2000/svg" width="339.66" height="328.33" viewBox="0 0 339.66 328.33">
  <defs>
    <style>
      .cls-1 {
        fill: #211815;
      }

      .cls-2 {
        fill: #f5f19b;
      }

      .cls-3 {
        fill: #ecbb6e;
      }

      .cls-4 {
        fill: #93c9ce;
      }

      .cls-5 {
        fill: #5c948d;
      }

      .cls-6 {
        fill: #fffba1;
      }

      .cls-7, .cls-8 {
        fill: #fff;
      }

      .cls-9 {
        fill: #d3f2c9;
      }

      .cls-10 {
        fill: #def7c8;
      }

      .cls-11 {
        fill: #de8a4c;
      }

      .cls-12 {
        fill: #ceeaeb;
      }

      .cls-13 {
        fill: #f2d496;
      }

      .cls-8 {
        stroke: #ceeaeb;
        stroke-miterlimit: 10;
        stroke-width: 2.83px;
      }
    </style>
  </defs>
  <g id="_レイヤー_1-2" data-name="レイヤー 1">
    <g>
      <path class="cls-8" d="M9.89,1.42h239.38c4.68,0,8.47,3.79,8.47,8.47v66.99s9.69,9.69,9.69,9.69h-9.69s0,.5,0,.5c0,4.68-3.79,8.47-8.47,8.47H9.89c-4.68,0-8.47-3.79-8.47-8.47V9.89c0-4.68,3.79-8.47,8.47-8.47Z"/>
      <g>
        <path d="M23.64,22.66h2.13c.68,0,1.1-.03,1.54-.09v1.63c-.48-.04-.93-.07-1.56-.07h-1.62c.86,1.5,2.1,2.74,3.58,3.58-.48.48-.69.78-.99,1.5-.61-.43-1.05-.85-1.62-1.5-.74-.85-1.05-1.32-1.53-2.22.03.54.04,1,.04,1.44v1.81c0,.67.03,1.2.09,1.67h-1.67c.06-.46.09-1,.09-1.68v-1.71c0-.4.02-.88.04-1.48-.91,1.65-1.93,2.76-3.39,3.73-.38-.71-.58-1-.9-1.36,1.54-.89,2.8-2.17,3.67-3.78h-.95c-.64,0-1.11.03-1.58.09v-.6c-.25.36-.43.69-.61,1.22-.38-.59-.6-1.05-.89-1.8.03.47.06,1.27.06,1.91v3.69c0,.77.03,1.32.09,1.77h-1.67c.06-.46.09-1.02.09-1.77v-3.1c0-.57.02-.93.11-1.86-.44,1.46-.87,2.43-1.52,3.41-.18-.68-.37-1.11-.67-1.6.72-.92,1.47-2.61,1.92-4.35h-.57c-.44,0-.69.02-.96.06v-1.53c.24.04.51.06.96.06h.72v-1.16c0-.76-.01-1.14-.08-1.5h1.65c-.06.39-.08.8-.08,1.5v1.16h.43c.36,0,.54-.02.78-.06v1.42c.57-1.02,1.05-2.52,1.09-3.49l1.46.38c-.06.17-.1.34-.21.79-.08.27-.1.4-.18.69h1.15v-.99c0-.61-.03-.99-.09-1.36h1.68c-.06.36-.09.77-.09,1.36v.99h1.7c.72,0,1.14-.03,1.54-.09v1.58c-.42-.04-.9-.08-1.54-.08h-1.7v1.81ZM20.5,20.84c-.25.62-.39.9-.81,1.6q-.36-.38-1.17-.94c.12-.17.17-.24.24-.35-.2-.03-.44-.04-.71-.04h-.38c.34.79.71,1.4,1.36,2.28v-.82c.45.06.87.09,1.56.09h1.53v-1.81h-1.63Z"/>
        <path d="M31.27,21.2c-.39.09-.53.13-1.07.33-.19.08-.3.1-.39.1-.33,0-.63-.61-.9-1.9.96-.04,1.31-.09,2.97-.34,1.8-.27,4.08-.62,5.28-.77,1.35-.18,2.43-.36,3-.48.1-.03.15-.03.22-.03.2,0,.27.09.41.46.12.31.21.76.21.97,0,.18-.06.24-.27.24-.32,0-.6.03-.89.08-2.53.42-4.56,2.64-4.56,4.98,0,1.75,1.38,2.91,3.72,3.12.21.01.29.09.29.27,0,.38-.15,1.09-.29,1.42-.08.17-.19.24-.39.24s-.65-.09-1.11-.22c-2.55-.75-3.88-2.37-3.88-4.67,0-1.25.41-2.4,1.19-3.39.42-.54.78-.84,1.63-1.43-1.96.33-4.04.72-5.17,1.01ZM38.95,21.59c.21,0,1.48,1.43,1.48,1.65,0,.08-.09.17-.36.41-.29.24-.3.24-.42.28q-.08.03-.11.03c-.06,0-.08-.02-.34-.44-.24-.38-.5-.71-.97-1.2-.03-.03-.08-.1-.08-.12.03-.08.04-.12.06-.12.04-.06.3-.27.36-.31.15-.08.24-.14.25-.15.01-.03.04-.03.04-.03h.08ZM41.52,22.63c-.22.17-.36.25-.43.25-.06,0-.09-.03-.17-.15-.45-.67-.67-.96-1.16-1.42-.03-.05-.06-.09-.06-.12,0-.08.09-.17.3-.31s.39-.24.46-.24c.11,0,.29.14.6.45.44.45.84,1,.84,1.14,0,.09-.11.2-.39.41Z"/>
        <path d="M44.58,25.87c0-.57.02-.99.03-1.54-.39.48-.62.69-1.12,1.08-.2-.62-.36-.99-.67-1.52,1.05-.72,1.8-1.47,2.58-2.58.24-.36.46-.74.66-1.17l1.28.9c-.12.18-.17.24-.29.43-.33.54-.41.65-.93,1.32v5.91c0,.78.01,1.19.08,1.63h-1.7c.08-.44.09-.82.09-1.53v-2.94ZM47.23,17.84c-.77,1-.86,1.09-1.23,1.5-.66.66-1.38,1.25-2.21,1.77-.25-.58-.46-.88-.84-1.32,1.46-.83,2.45-1.77,3-2.88l1.28.93ZM48.03,26.33c-.6,0-.93.02-1.37.06v-1.45c.39.04.76.06,1.38.06h4.79v-.72h-4.63c-.56,0-.98.02-1.35.06v-1.41c.38.04.6.06,1.37.06h6.43c.67,0,1.04-.02,1.4-.07v1.42c-.38-.04-.78-.06-1.37-.06h-.32v.72h.38c.6,0,1.04-.01,1.41-.06v1.45c-.34-.04-.76-.06-1.36-.06h-.42v2.52c0,1.06-.42,1.35-1.93,1.35-.29,0-.84-.02-1.5-.04-.06-.6-.13-.9-.33-1.44l-.75.67c-.6-1.02-1-1.52-1.86-2.31l1.04-.75h-.99ZM49.18,22.36c-.58,0-1.08.02-1.33.04.03-.4.05-.78.05-1.41v-2.16c0-.6-.02-.93-.05-1.33.41.04.77.06,1.46.06h4.44c.72,0,1.11-.02,1.48-.06-.04.46-.06.81-.06,1.42v2.07c0,.63.01.99.06,1.41-.31-.03-.82-.04-1.32-.04h-4.73ZM49.35,26.33c.62.57.95.93,1.74,1.95l-.36.31c.74.1,1.23.15,1.56.15.43,0,.54-.06.54-.36v-2.06h-3.48ZM49.38,19.4h4.26v-.63h-4.26v.63ZM49.38,21.2h4.26v-.68h-4.26v.68Z"/>
        <path d="M66.01,22.69c2.05,0,3.39,1.21,3.39,3.06s-1.12,3.02-3.37,3.73c-.81.26-2.15.5-2.75.5-.32,0-.39-.08-.6-.51-.16-.35-.34-.56-.79-.87,3.77-.3,5.62-1.26,5.62-2.9,0-.92-.64-1.46-1.72-1.46-1.37,0-2.78.71-3.93,1.95-.21.21-.41.46-.54.69s-.23.3-.36.3c-.22,0-.75-.22-1.11-.49-.18-.14-.24-.24-.24-.48q0-.12.04-.48s0-.15.01-.31c.08-.96.12-1.37.3-2.72q.03-.16.14-.87s.04-.33.12-.89c.01-.13.03-.25.03-.49.72.1,1.4.27,1.68.43.12.06.18.14.16.23,0,.06-.03.1-.07.2-.17.25-.21.39-.35.96-.13.57-.34,1.89-.38,2.38,1.53-1.41,2.87-1.96,4.71-1.96ZM65.74,18.41c.58.34.76.51.76.67,0,.14-.24.58-.5.96-.24.35-.33.42-.45.42-.07,0-.12-.03-.3-.17-1-.76-1.8-1.2-2.92-1.59-.22-.09-.27-.12-.27-.24,0-.15.12-.41.39-.79.24-.36.34-.45.51-.45.36,0,1.83.63,2.78,1.19Z"/>
        <path d="M74.97,21.62c-.67.13-1.32.3-1.74.45-.11.04-.2.06-.27.06-.13,0-.21-.07-.3-.33-.11-.33-.21-.85-.27-1.38.22.02.33.03.46.03.57,0,1.18-.08,2.13-.26l.03-.9c.02-.21.02-.36.02-.4,0-.65-.02-1.04-.08-1.44.79.03,1.29.09,1.77.21.2.04.29.13.29.27,0,.06-.01.1-.09.27-.13.28-.15.46-.25,1.71.33.23.62.54.62.69,0,.09-.04.17-.18.33-.22.24-.3.34-.58.76q-.03.39-.03.5c.5-.44.82-.72,1.33-1.09.57-.44,1.2-.84,1.65-1.06.58-.32.99-.42,1.53-.42.79,0,1.37.3,1.68.87.18.36.25.71.25,1.29,0,.51-.03.99-.12,2.08-.12,1.29-.18,2.25-.18,2.83s.13.76.55.76c.6,0,1.33-.44,1.98-1.17.01.58.06.77.25,1.37.04.12.06.19.06.25,0,.17-.08.3-.33.5-.61.49-1.5.81-2.29.81-1.32,0-1.92-.69-1.92-2.2,0-.69.04-1.58.2-3.67.04-.5.06-.92.06-1.12,0-.62-.21-.9-.66-.9s-1.33.48-2.52,1.39c-.6.45-.94.77-1.57,1.41v.69c0,1.12.07,3.72.13,4.63v.18c0,.12-.02.17-.04.21-.08.09-.51.15-1.2.15-.43,0-.53-.06-.53-.31,0-.09,0-.24.02-.4v-.35q.01-.52.08-3.38-.86,1.11-1.37,1.94c-.13.21-.23.29-.34.29s-.39-.24-.86-.75c-.29-.33-.39-.47-.39-.56,0-.07.03-.13.13-.24.95-.98,1.74-1.91,2.87-3.31l.03-1.27Z"/>
        <path d="M94.63,22.36c2.12,0,3.62,1.44,3.62,3.48,0,1.39-.74,2.65-1.96,3.39-.86.51-1.91.77-3.09.77-1.91,0-3.02-.77-3.02-2.07,0-1.19.99-2.02,2.4-2.02,1.27,0,2.19.64,2.8,1.96.76-.56,1.08-1.14,1.08-1.95,0-1.29-.92-2.13-2.36-2.13s-3.04.73-4.35,2.04c-.24.24-.46.5-.73.84-.11.15-.18.21-.27.21-.27,0-1.33-1.05-1.33-1.32,0-.13.06-.21.39-.45.34-.27.84-.7,1.47-1.3,1.46-1.38,2.52-2.54,4.09-4.46-1.88.24-3.13.45-3.6.62-.08.02-.12.03-.17.03-.12,0-.2-.07-.29-.3-.18-.45-.27-.94-.32-1.6.41.06.69.08,1.02.08.72,0,1.93-.1,3.51-.29.55-.06.73-.1,1.16-.27.13-.06.21-.08.3-.08.21,0,.42.18.81.78.29.39.38.58.38.71,0,.19-.04.25-.38.46-.27.17-.43.3-.78.63-.75.72-.76.72-1.69,1.67-.66.67-.74.75-1.33,1.35.97-.54,1.74-.77,2.64-.77ZM93.19,27.55c-.23-.15-.48-.23-.77-.23-.46,0-.76.23-.76.58,0,.44.46.71,1.18.71.33,0,.62-.03.99-.14-.18-.5-.33-.72-.64-.93Z"/>
        <path d="M103.83,19.49c-.84.17-1.18.22-2.1.36-.12-.5-.26-.84-.53-1.38,2.37-.24,4.63-.81,5.54-1.38l.96,1.32c-.87.3-1.7.55-2.36.73v1.86h1.16c.52,0,.87-.01,1.21-.07v1.56c-.36-.04-.71-.06-1.25-.06h-1.06c.58,1.05,1.26,1.83,2.32,2.69-.28.38-.58.93-.76,1.41-.84-.87-1.17-1.32-1.7-2.31.04.51.08,1.08.08,1.83v2.5c0,.9.02,1.27.09,1.81h-1.71c.06-.52.09-1,.09-1.81v-2.42c0-.6.03-1.25.07-1.73-.42,1.06-.61,1.46-.99,2.02-.39.63-.71,1.02-1.23,1.59-.29-.68-.51-1.1-.81-1.52.63-.57,1.06-1.12,1.56-1.92.38-.6.95-1.68,1.12-2.16h-1.04c-.55,0-.93.03-1.32.08v-1.57c.36.06.69.07,1.35.07h1.29v-1.51ZM110.17,18.13c-.06.46-.08.92-.08,1.75v5.43c0,.92.02,1.29.08,1.73h-1.7c.06-.4.08-.73.08-1.68v-5.48c0-.84-.01-1.26-.08-1.75h1.7ZM113.59,17.26c-.06.57-.09,1.12-.09,1.95v9.27c0,.77-.18,1.17-.65,1.42-.36.18-.84.24-2,.24-.34,0-.57,0-1.06-.03-.12-.63-.22-.97-.48-1.59.78.09,1.37.12,1.92.12.6,0,.71-.06.71-.44v-9c0-.72-.03-1.31-.09-1.95h1.74Z"/>
        <path d="M119.31,19.27c-.36-.71-.71-1.25-1.18-1.83l1.49-.57c.6.81.82,1.17,1.21,1.92l-1.21.48h3.33c.56-.75.98-1.52,1.29-2.37l1.59.56c-.51.94-.66,1.19-1.14,1.81h2.07c.81,0,1.24-.02,1.65-.09v1.62c-.42-.06-.97-.09-1.62-.09h-2.17c.87,1.46,2.45,2.83,4.33,3.75-.39.58-.58.97-.78,1.57-.66-.4-.94-.58-1.38-.93v3.31h.6c.58,0,.85-.01,1.17-.07v1.62c-.48-.04-.99-.07-1.54-.07h-9.97c-.53,0-1.12.03-1.58.09v-1.63c.33.04.69.07,1.11.07h.66v-3.36c-.51.36-.75.52-1.36.89-.25-.66-.42-.96-.78-1.43,1.96-.97,3.39-2.28,4.17-3.81h-1.98c-.7,0-1.21.03-1.66.09v-1.62c.42.06.87.09,1.66.09h2.04ZM125.26,23.8c-.97-.98-1.53-1.73-2.26-3.09h-2.04c-.63,1.23-1.32,2.16-2.26,3.09h6.57ZM118.72,28.45h1.29v-3.25h-1.29v3.25ZM121.38,28.45h1.25v-3.25h-1.25v3.25ZM124,28.45h1.27v-3.25h-1.27v3.25Z"/>
        <path d="M133.98,25.99c.04.07.06.13.06.21,0,.1-.02.12-.15.45-.3.69-.66,1.77-.84,2.58-.04.17-.09.25-.15.29-.08.03-.59.1-.75.1h-.06c-.08,0-.18-.02-.3-.02-.2,0-.24-.04-.3-.23-.29-.97-.51-2.98-.51-4.5,0-1.65.1-2.67.52-4.92.15-.81.22-1.26.29-1.75.63.12,1.17.27,1.62.48.25.1.33.18.33.33,0,.1-.02.15-.18.39-.5.79-1.05,3.98-1.05,6.12,0,.34.02.81.06,1.56.42-.94.57-1.23.92-1.96.13.31.22.46.49.87ZM137.23,27.05c.48.25,1.05.34,2.06.34s1.53-.07,2.46-.34c.09-.03.16-.04.21-.04.1,0,.18.06.19.21.08.51.13,1.11.13,1.41,0,.15-.04.2-.25.26-.81.21-1.63.31-2.64.31-1.38,0-2.23-.17-2.94-.58-.66-.41-1.35-1.23-1.35-1.64,0-.21.32-.49,1.12-.99.27.54.53.81,1,1.06ZM136.18,19.4c.33.08,1.29.14,2.03.14.99,0,1.98-.08,2.91-.24q.08-.01.14-.01c.1,0,.15.04.18.16.03.15.08.81.08,1.22,0,.22-.04.3-.21.33-.62.12-1.63.19-2.71.19-1.29,0-2.45-.08-2.59-.17-.08-.04-.11-.15-.11-.42,0-.41.04-1,.08-1.12.01-.06.06-.09.15-.09.02,0,.04,0,.08.01Z"/>
        <path d="M148.35,26.27c.04.06.06.11.06.17q0,.09-.25.78c-.32.92-.51,1.67-.57,2.25-.01.19-.08.27-.27.31-.21.06-.61.09-1,.09-.15,0-.22-.03-.27-.12-.13-.28-.38-1.32-.5-2.16-.1-.71-.15-1.44-.15-2.21,0-1.73.2-3.36.74-6.3.09-.48.12-.71.17-1.17.69.09,1.17.23,1.6.44.23.12.32.23.32.36,0,.09-.03.17-.11.29-.61,1.05-1.18,4.29-1.18,6.69,0,.36.01.93.06,1.65.36-.93.52-1.35.85-2.07.11.41.21.6.51,1ZM150.87,22.33c-.72,0-.87-.03-.92-.19-.04-.13-.09-.61-.09-.96,0-.12,0-.24.01-.51.41.03.64.04,1.14.04.81,0,1.32-.02,2.1-.08-.02-1.9-.03-2.15-.18-2.85.74.01,1.29.07,1.77.19.22.06.31.14.31.29,0,.06-.01.1-.06.22-.15.35-.23.93-.25,1.98.55-.07,1.03-.18,1.93-.39.08-.03.1-.03.15-.03.09,0,.13.04.17.15.03.14.07.71.07,1.02,0,.38-.01.44-.17.5-.24.12-.9.23-2.17.39,0,1.03.09,2.74.2,3.72.95.4,1.59.75,2.25,1.21.42.3.51.41.51.51,0,.17-.27.67-.58,1.11-.18.25-.27.33-.38.33s-.1,0-.45-.33c-.33-.33-.67-.58-1.33-1.02v.12c0,1.32-1.09,2.19-2.76,2.19s-2.8-.9-2.8-2.25,1.14-2.35,2.66-2.35c.55,0,.84.02,1.24.08q-.06-1.17-.1-3.18c-.65.04-1.67.09-2.26.09ZM152.1,26.74c-.75,0-1.25.34-1.25.87,0,.48.46.78,1.19.78.79,0,1.21-.36,1.21-1.05,0-.21-.02-.38-.02-.38-.39-.15-.73-.23-1.14-.23Z"/>
        <path d="M159.16,26.53c.27-.24.34-.3.45-.3.19,0,1.09.66,1.75,1.29.75.69,1.59,1.69,1.59,1.9,0,.14-.03.17-.46.56-.57.52-.69.62-.79.62-.09,0-.18-.06-.25-.21-.53-.93-1.73-2.16-2.79-2.85-.12-.09-.18-.15-.18-.24,0-.1.03-.15.69-.76Z"/>
        <path d="M175.14,18.22c-.76.39-1.05.75-1.15,1.42.13-.03.27-.04.31-.04.6,0,1.05.48,1.05,1.09,0,.66-.46,1.12-1.11,1.12-.79,0-1.26-.58-1.26-1.59,0-.6.18-1.27.44-1.69.25-.39.58-.68,1.12-.98l.6.66ZM178.03,18.22c-.77.39-1.05.75-1.16,1.42.13-.03.27-.04.31-.04.6,0,1.05.48,1.05,1.09,0,.66-.47,1.12-1.11,1.12-.79,0-1.26-.58-1.26-1.54,0-1.29.46-2.11,1.56-2.71l.6.66Z"/>
        <path d="M180.52,24.41c0-.52,0-1.03.03-1.6-.42.74-.62,1.02-1,1.5-.15-.6-.36-1.17-.65-1.71.96-1.06,1.59-2.14,2.13-3.58.35-.9.45-1.33.56-2.06l1.63.39q-.71,2.13-1.21,3.24v8.08c0,.63.01,1.12.07,1.66h-1.65c.06-.58.09-.97.09-1.68v-4.25ZM182.98,30.37c.06-.51.08-.89.08-1.77v-6.34c0-.72-.03-1.2-.09-1.62h1.6c-.04.45-.06.89-.06,1.64v6.04h6.34c.72,0,1.15-.01,1.59-.07v1.54c-.5-.06-.96-.09-1.61-.09h-6.33v.68h-1.53ZM184.63,19.64c-.58,0-.93.02-1.35.06v-1.52c.38.06.77.08,1.52.08h2.56c.06-.51.08-.65.1-1.2l1.59.09q-.14.79-.2,1.11h2.19c.69,0,1.02-.02,1.5-.09v1.53c-.42-.04-.84-.06-1.32-.06h-2.62c-.06.3-.13.61-.21.94h2.07c.6,0,.95-.02,1.21-.03-.04.46-.04.7-.04,1.38v4.36c0,.6,0,.82.04,1.27-.45-.02-.82-.03-1.23-.03h-3.71c-.42,0-.76.01-1.21.03.03-.31.04-.69.04-1.14v-4.71c0-.54-.01-.93-.04-1.17.36.03.57.03,1.16.03h.21c.1-.34.15-.58.22-.94h-2.49ZM187.03,22.55h3.15v-.75h-3.15v.75ZM187.03,24.4h3.15v-.77h-3.15v.77ZM187.03,26.32h3.15v-.84h-3.15v.84Z"/>
        <path d="M200.77,28.22h4.17c.73,0,1.41-.03,1.93-.09v1.74c-.6-.08-1.2-.1-1.92-.1h-9.15c-.67,0-1.33.03-1.98.1v-1.74c.56.06,1.17.09,1.98.09h3.29v-9.3c0-.66-.03-1.08-.09-1.66h1.86c-.06.54-.09,1.02-.09,1.66v2.46h3.39c.63,0,1.17-.03,1.68-.09v1.73c-.54-.06-1.08-.09-1.68-.09h-3.39v5.29Z"/>
        <path d="M209.61,22.99c-.12.03-.18.06-.27.1-.08.04-.12.06-.18.06-.33,0-.57-.57-.75-1.68h.29c.63,0,2.24-.19,3.2-.39.31-1.31.48-2.31.48-3.02,0-.06,0-.15-.01-.25.64.06,1.26.19,1.68.38.24.09.36.21.36.36,0,.08-.02.14-.09.26q-.23.39-.69,2.04c.36-.04.76-.07,1.02-.07.62,0,1.1.12,1.44.36.6.44.9,1.32.9,2.69,0,2.23-.41,4.15-1.1,5.1-.48.66-1.11.98-2,.98-.54,0-1.05-.08-1.2-.17q-.12-.08-.17-.63c-.04-.41-.13-.77-.32-1.19.78.27.98.31,1.46.31.72,0,1.02-.35,1.35-1.56.23-.79.35-1.81.35-2.92,0-1.17-.29-1.59-1.08-1.59-.27,0-.71.04-1.05.09-.04.18-.06.19-.12.39-.42,1.54-1.19,3.55-1.95,5.17-.79,1.63-.99,1.96-1.18,1.96-.12,0-.53-.21-.96-.5-.35-.21-.44-.3-.44-.42q0-.07.62-1.05c.83-1.27,1.91-3.77,2.28-5.25-1.11.25-1.73.39-1.86.44ZM219.03,19.91c-.24.18-.41.25-.48.25-.04,0-.09-.03-.13-.1-.32-.51-.84-1.1-1.28-1.47-.03-.03-.04-.06-.04-.09,0-.06.11-.17.36-.36.25-.18.33-.23.43-.23.24,0,1.56,1.33,1.56,1.58,0,.09-.12.19-.42.42ZM217.44,21.5c0-.1.13-.24.57-.58.3-.23.45-.31.57-.31.2,0,.87.72,1.5,1.6.52.75,1.09,1.81,1.09,2.07,0,.15-.04.19-.52.58-.3.24-.65.44-.77.44-.1,0-.15-.04-.25-.3-.29-.72-.54-1.21-.95-1.86-.4-.65-.43-.67-1.15-1.45-.06-.08-.09-.12-.09-.18ZM219.4,16.9c.25,0,1.53,1.27,1.53,1.53,0,.07-.09.16-.39.38-.27.21-.41.28-.46.28q-.08,0-.38-.42c-.25-.34-.74-.85-1-1.08-.04-.04-.08-.07-.08-.12,0-.12.62-.57.78-.57Z"/>
        <path d="M227.26,22.72q.07-.12.73-1.23c.09.25.18.42.36.66.1.17.15.25.15.34s-.03.17-.39.75c-.25.45-.69,1.38-.87,1.83-.15.42-.21.45-.71.45s-.88-.06-.94-.15c-.09-.12-.15-.93-.15-2.04,0-1.47.11-2.5.5-5.11.04-.3.06-.45.06-.78,1.17.21,1.94.56,1.94.84,0,.08-.02.12-.12.26-.2.28-.32.67-.46,1.47-.18,1-.32,2.32-.32,3.12q.13-.24.23-.41ZM232.71,18.34v.25c.01.06.01.18.03.35q.01.24.04.61,0,.17.03.72c.04.72.07,1.44.07,1.8,0,2.82-.73,5.01-2.29,6.85-.6.71-1.12,1.11-1.42,1.11-.18,0-.19,0-.51-.24-.29-.22-.67-.42-1.06-.52,1.05-.75,1.62-1.27,2.17-2.07.93-1.33,1.38-2.92,1.38-4.86,0-2.05-.14-3.31-.48-4.23.63-.08,1.09-.11,1.53-.11s.51.03.51.29v.04Z"/>
        <path d="M18.09,44.78c-.36-.71-.71-1.25-1.18-1.83l1.49-.57c.6.81.82,1.17,1.21,1.92l-1.21.48h3.33c.56-.75.98-1.52,1.29-2.37l1.59.56c-.51.94-.66,1.19-1.14,1.81h2.07c.81,0,1.24-.02,1.65-.09v1.62c-.42-.06-.97-.09-1.62-.09h-2.17c.87,1.46,2.45,2.83,4.33,3.75-.39.58-.58.97-.78,1.57-.66-.4-.94-.58-1.38-.93v3.31h.6c.58,0,.85-.01,1.17-.07v1.62c-.48-.04-.99-.07-1.54-.07h-9.97c-.53,0-1.12.03-1.58.09v-1.63c.33.04.69.07,1.11.07h.66v-3.36c-.51.36-.75.52-1.36.89-.25-.66-.42-.96-.78-1.43,1.96-.97,3.39-2.28,4.17-3.81h-1.98c-.7,0-1.21.03-1.66.09v-1.62c.42.06.87.09,1.66.09h2.04ZM24.04,49.31c-.97-.98-1.53-1.73-2.26-3.09h-2.04c-.63,1.23-1.32,2.16-2.26,3.09h6.57ZM17.5,53.96h1.29v-3.25h-1.29v3.25ZM20.16,53.96h1.25v-3.25h-1.25v3.25ZM22.78,53.96h1.27v-3.25h-1.27v3.25Z"/>
        <path d="M40.2,56.24c-.84-1.2-1.21-1.86-1.64-2.96-.54-1.38-.79-2.7-.79-4.14s.24-2.65.77-4c.43-1.09.79-1.75,1.65-2.96h2.1c-1.05,1.32-1.49,2-1.91,2.99-.53,1.23-.78,2.5-.78,3.97s.25,2.86.79,4.11c.42.99.84,1.65,1.91,2.98h-2.1Z"/>
        <path d="M47.49,43.2c.67-.13,1.32-.19,1.9-.19.3,0,.41.08.41.29,0,.06,0,.1-.04.25-.01.09-.03.19-.03.3,0,.29.03.52.23,1.62,1.54-.25,2.77-.51,3.4-.71.11-.04.14-.04.23-.04.1,0,.15.09.21.38.06.29.18,1.05.18,1.17,0,.19-.06.21-.64.27-.54.04-.84.09-3.09.48q.25,1.32.39,2.02l.66-.12c1.5-.27,2.52-.49,3.21-.71.24-.07.39-.12.43-.12.12,0,.17.06.21.21.12.39.27,1.12.27,1.35,0,.14-.03.15-.48.23q-.24.04-.73.14-.81.13-3.25.57.39,1.88.93,4.05c.03.12.04.21.04.24,0,.15-.06.19-.32.28-.42.15-1.2.31-1.41.31-.15,0-.18-.04-.23-.33-.1-.72-.34-2.06-.73-4.26-3.06.57-3.3.63-4.16.93-.2.06-.25.08-.33.08-.12,0-.2-.06-.27-.23-.18-.38-.33-.85-.51-1.59.78-.03,1.61-.15,4.98-.72-.18-.9-.3-1.54-.41-2.05q-2.73.48-3.5.7c-.12.05-.15.05-.18.05q-.24,0-.67-1.74.83-.03,4.05-.54c-.24-1.15-.48-2.01-.75-2.56Z"/>
        <path d="M67.14,47.18c.15-.09.21-.1.32-.1.36,0,1.33.99,1.33,1.35,0,.1-.04.16-.15.25-.21.18-.29.25-.48.58-.39.65-.95,1.36-1.53,1.98-.24.25-.38.34-.5.34-.09,0-.18-.04-.29-.12-.4-.31-.61-.42-1.26-.65.84-.55,1.41-1.09,2.07-2.01q-1.95.46-3.12.77c.63,2.49.85,3.3,1.41,5.16.03.14.04.19.04.25,0,.14-.15.23-.55.33-.26.08-.77.17-.9.17-.18,0-.21-.06-.29-.5-.13-.79-.67-2.97-1.23-5.02-1.11.31-1.29.36-1.86.63-.17.07-.25.1-.33.1-.29,0-.62-.68-.87-1.73.75-.03,1.11-.09,2.67-.44-.31-1.17-.46-1.59-.82-2.25.81-.13,1.41-.19,1.8-.19.25,0,.36.08.36.24,0,.04,0,.07-.01.17-.03.09-.03.15-.03.22,0,.3.06.6.27,1.48,2.88-.64,3.58-.82,3.94-1.03Z"/>
        <path d="M76.2,52.37c.22.36.9.49,2.35.49s2.12-.06,4.21-.34c.04-.02.09-.02.13-.02.15,0,.23.08.26.24.04.24.12.99.12,1.25,0,.23-.07.33-.28.39-.47.1-2.57.23-4.28.23s-2.62-.12-3.33-.45c-.54-.25-.87-.67-.99-1.19-.08-.38-.11-.7-.11-1.3v-.58c.03-1.58.03-1.77.03-2.81,0-2.59-.04-3.54-.18-4.24,1.84.15,2.25.24,2.25.52,0,.08-.01.1-.09.27-.04.1-.09.3-.13.6-.06.45-.08.79-.08,1.59-.01.58-.01.99-.01,1.21,2.59-.76,4.71-1.81,5.58-2.77.73.92,1.17,1.6,1.17,1.81,0,.14-.06.18-.36.29-.21.07-.6.24-1.18.54-1.85.88-3.17,1.36-5.22,1.92,0,1.88.01,2.16.13,2.35ZM85.47,44.46c0,.9-.71,1.6-1.61,1.6s-1.6-.71-1.6-1.6.71-1.6,1.6-1.6,1.61.71,1.61,1.6ZM83.07,44.46c0,.44.36.79.79.79s.8-.36.8-.79-.36-.79-.8-.79-.79.36-.79.79Z"/>
        <path d="M89.73,48.96c-.45.36-.69.51-.81.51s-.13,0-.42-.3c-.27-.27-.64-.54-1.06-.76,1.6-.98,2.56-1.85,3.49-3.15.63-.89,1.1-1.75,1.33-2.58,1.59.58,1.96.78,1.96.99,0,.07-.04.13-.19.24-.15.1-.35.38-.75.99h.27c.53.01.9.01.99.01,1.46,0,1.83-.03,2.29-.21.12-.04.17-.06.25-.06.21,0,.42.17.88.72.38.42.48.6.48.77,0,.13-.04.21-.21.38-.12.12-.3.4-.53.84-1.41,2.56-2.46,3.97-4.15,5.5-1.33,1.21-3.45,2.64-3.92,2.64-.13,0-.25-.06-.38-.18-.45-.43-.83-.7-1.26-.88,2.07-1,3.67-2.13,5.1-3.55q-.11-.1-.44-.45c-.31-.33-.66-.61-1.42-1.19-.09-.07-.12-.12-.12-.18,0-.08.2-.3.72-.84.25-.25.31-.3.4-.3.24,0,1.12.72,2.03,1.63.9-1.17,1.54-2.28,1.9-3.24q-1.71.03-3.9.04c-.69.9-1.56,1.79-2.56,2.61Z"/>
        <path d="M105.6,44.4c.12.04.18.13.18.25,0,.06,0,.09-.03.21-.09.33-.11.57-.11,1.17-.03,3.66-.69,6-2.26,7.99-.34.42-.48.56-.63.56-.06,0-.13-.03-.25-.09-.41-.26-.78-.39-1.46-.54,1.04-1.05,1.44-1.6,1.89-2.62.63-1.41.89-2.83.89-4.98,0-.99-.03-1.44-.15-2.19.84.02,1.53.1,1.93.24ZM107.2,45.86c0-.74-.04-1.32-.13-1.95,1.62.06,2.2.18,2.2.48,0,.09-.01.14-.07.3-.05.09-.09.33-.11.55q-.04.41-.08,7c1.91-1.08,3.15-2.12,4.41-3.71.03.78.09,1.35.22,1.8.04.13.04.18.04.25,0,.24-.15.44-.84,1.08-1.11,1.02-1.86,1.55-3.25,2.28-.33.17-.52.3-.71.46-.1.09-.24.15-.34.15-.18,0-.72-.36-1.11-.73-.3-.3-.44-.52-.44-.72,0-.07.01-.12.06-.25.1-.28.13-.55.13-1.38v-5.62Z"/>
        <path d="M121.87,46.19c.85,0,3.92-.06,4.5-.07.51-.03.66-.03,1.17-.09h.06c.2,0,.22.15.22,1.29,0,.35-.03.41-.21.44q-.15,0-.39-.02c-.71-.04-.84-.04-3.24-.04-.07,2.28-.48,3.88-1.35,5.31-.55.93-1.5,1.89-2.34,2.4-.24.13-.42.21-.52.21-.17,0-.21-.03-.54-.31-.36-.33-.44-.38-.99-.68,1.41-.75,2.54-1.86,3.12-3.06.46-.96.75-2.37.79-3.85-.23,0-2.66.03-3.08.03-.93,1.53-1.83,2.61-2.16,2.61-.09,0-.18-.05-.31-.14-.39-.27-.74-.45-1.19-.6,1.26-1.14,2.16-2.38,2.82-3.94.38-.88.64-1.9.66-2.46.66.14,1.26.35,1.74.57.15.07.24.18.24.27s-.03.15-.17.3c-.12.13-.21.3-.46.93-.21.49-.25.6-.38.91h2ZM126.48,45.48c-.34-.63-.63-1.01-1.11-1.52q-.09-.09-.09-.13c0-.09.09-.18.35-.38.22-.17.34-.23.42-.23.12,0,.27.12.64.52.48.54.83,1,.83,1.14,0,.16-.67.7-.88.7-.06,0-.09-.03-.15-.12ZM128.17,44.57s-.08-.03-.13-.14c-.44-.69-.78-1.12-1.14-1.47t-.08-.12s.03-.06.24-.24c.08-.08.24-.17.5-.31q.18.04.36.19c.43.39,1.12,1.26,1.12,1.44,0,.13-.54.54-.87.65Z"/>
        <path d="M137.79,50.49c0,1.89.03,3.28.09,4.3v.1c0,.17-.04.23-.2.24-.2.04-.83.07-1.32.07-.47,0-.51-.03-.51-.29v-.07c.06-.77.09-2.48.09-4.36v-1.98c-1.02.66-1.51.96-2.38,1.41-1.08.57-1.6.79-1.8.79-.12,0-.21-.04-.31-.16-.44-.5-.68-.69-1.26-1.1,1.92-.71,3.02-1.23,4.35-2.07,1.65-1.04,3.38-2.48,4.35-3.63.21-.24.3-.38.5-.71.94.63,1.62,1.26,1.62,1.54,0,.09-.06.17-.24.24-.27.12-.38.19-1.08.81-.66.58-1.3,1.11-1.89,1.54v3.3Z"/>
        <path d="M156.64,47.1c.08.15.1.25.1.35,0,.15-.06.25-.25.52-.82,1.08-1.71,1.95-3.04,2.98-1.5,1.17-2.77,1.95-4.57,2.8-1.16.54-1.21.57-1.4.74-.12.12-.18.15-.27.15-.13,0-.25-.12-.48-.45-.3-.45-.58-1.06-.75-1.59,1.52-.34,3.33-1.15,5.08-2.26,2.31-1.46,3.76-2.9,4.89-4.86.17.55.3.85.69,1.62ZM146.65,44.58c.25-.29.36-.36.49-.36.29.02,1.41.73,2.34,1.48.57.47.75.66.75.81,0,.1-.27.51-.63.92-.33.38-.49.51-.61.51q-.11,0-.72-.58c-.39-.38-1.17-1-1.56-1.24q-.53-.35-.63-.41c-.06-.04-.09-.09-.09-.13,0-.14.29-.56.66-.99Z"/>
        <path d="M158.31,56.24c1.07-1.33,1.49-2,1.91-2.98.54-1.25.79-2.58.79-4.11s-.24-2.75-.76-3.97c-.44-.99-.87-1.67-1.92-2.99h2.11c.84,1.19,1.2,1.85,1.64,2.96.52,1.37.76,2.58.76,4s-.25,2.76-.78,4.14c-.43,1.1-.79,1.75-1.63,2.96h-2.12Z"/>
        <path d="M165.69,46.76c.77-.39,1.07-.75,1.16-1.43-.13.03-.25.05-.3.05-.6,0-1.07-.48-1.07-1.1,0-.66.47-1.12,1.11-1.12.79,0,1.26.57,1.26,1.54,0,1.29-.46,2.12-1.56,2.71l-.6-.66ZM168.58,46.76c.76-.39,1.06-.75,1.16-1.43-.14.03-.26.05-.3.05-.6,0-1.06-.48-1.06-1.1,0-.66.46-1.12,1.11-1.12.79,0,1.26.57,1.26,1.54,0,1.29-.47,2.12-1.56,2.71l-.6-.66Z"/>
        <path d="M183.79,47.61c-.19-.66-.25-1.06-.43-2.91-.06-.72-.12-1.08-.27-1.59.91.02,1.5.06,1.9.17.23.06.33.17.33.33,0,.06-.01.13-.04.25-.1.36-.15.63-.15,1.02,0,.73.15,1.94.32,2.46.09.28.18.39.34.39.36,0,1.68-.69,2.4-1.24.19-.15.22-.17.3-.17.13,0,.27.1.5.39.38.51.67,1.06.67,1.27,0,.17-.11.27-.36.34-.93.25-2.46.85-3.49,1.35-1.83.9-2.66,1.73-2.66,2.65s.76,1.29,2.7,1.29c1.12,0,2.14-.1,3.52-.33.06-.02.17-.03.2-.03.12,0,.19.06.25.18.04.15.15,1.06.15,1.43,0,.21-.06.28-.26.34-.33.08-2.14.18-3.28.18-1.92,0-3.2-.25-3.99-.79-.67-.47-1.04-1.2-1.04-2.1,0-.69.2-1.31.6-1.9.52-.78,1.09-1.27,2.35-2.02-.31-.29-.43-.5-.57-.96Z"/>
        <path d="M203.11,43.73c-.76.39-1.05.75-1.15,1.42.13-.03.27-.04.31-.04.6,0,1.05.48,1.05,1.09,0,.66-.46,1.12-1.11,1.12-.79,0-1.26-.58-1.26-1.59,0-.6.18-1.27.44-1.69.25-.39.58-.68,1.12-.98l.6.66ZM206.01,43.73c-.77.39-1.05.75-1.16,1.42.13-.03.27-.04.31-.04.6,0,1.05.48,1.05,1.09,0,.66-.47,1.12-1.11,1.12-.79,0-1.26-.58-1.26-1.54,0-1.29.46-2.11,1.56-2.71l.6.66Z"/>
        <path d="M208.96,44.39c-.61,0-1.18.03-1.56.06v-1.53c.46.06.99.09,1.58.09h3.52c.62,0,1.12-.03,1.62-.09v1.53c-.41-.04-.95-.06-1.46-.06h-.46v1.19h.2c.76,0,1.06-.02,1.5-.04-.03.4-.04.94-.04,1.57v6.92c0,.72.02,1.12.06,1.59h-1.4v-.54h-3.4v.79h-1.44c.06-.54.09-1.11.09-1.96v-6.66c0-.72-.02-1.23-.06-1.71.42.03.74.04,1.47.04h.3v-1.19h-.51ZM209.11,51.35h3.42v-1.11h-.41c-.93,0-1.08-.09-1.08-.64v-2.81h-.41v.17c0,.85-.12,2-.28,2.7-.14.57-.25.87-.63,1.53-.18-.44-.32-.68-.62-1.05v1.22ZM209.11,49.97c.41-.81.52-1.52.57-3.18h-.57v3.18ZM209.11,53.72h3.42v-1.12h-3.42v1.12ZM210.64,45.57h.41v-1.19h-.41v1.19ZM211.99,48.78c0,.23.03.24.54.25v-2.25h-.54v2ZM219.88,47.6c0,.6.01.98.06,1.41-.5-.05-.79-.06-1.44-.06h-2.33v4.71c0,.26.03.35.12.39.12.08.51.12,1.02.12,1.07,0,1.35-.09,1.49-.45.11-.3.17-1.05.17-2.13.6.33.97.48,1.51.6-.09,1.69-.22,2.43-.52,2.82-.36.45-1.07.61-2.73.61-2.25,0-2.58-.19-2.58-1.5v-5.27c0-.69-.01-1-.06-1.42.43.04.83.06,1.44.06h2.32v-3.03h-2.29c-.73,0-1.14.01-1.58.07v-1.62c.47.06.95.09,1.59.09h2.38c.63,0,1.06-.02,1.48-.06-.04.54-.06.77-.06,1.46v3.19Z"/>
        <path d="M227.49,43.98c0-.6-.03-1.02-.09-1.43h1.8c-.06.36-.09.81-.09,1.43v3.85h3.66c.48,0,.76-.01,1.16-.07-.04.39-.06.71-.06,1.21v5.31c0,.73.03,1.18.09,1.65h-1.67v-.71h-8.33c-.67-.02-1.17.02-1.56.07v-1.63c.42.06.78.08,1.5.08h8.4v-1.53h-7.96c-.63,0-1,.02-1.38.06v-1.6c.34.04.67.06,1.4.06h7.95v-1.4h-8.31c-.63,0-1.02.02-1.47.06v-1.63c.46.06.84.07,1.48.07h3.48v-3.85ZM223.95,43.23c1.08,1.4,1.65,2.31,2.25,3.54l-1.42.83c-.65-1.41-1.25-2.37-2.21-3.57l1.38-.79ZM234.03,43.91c-.85,1.75-1.32,2.5-2.25,3.71l-1.33-.83c.95-1.19,1.44-2.04,2.06-3.6l1.53.72Z"/>
        <path d="M236.1,46.76c.77-.39,1.07-.75,1.16-1.43-.13.03-.25.05-.3.05-.6,0-1.07-.48-1.07-1.1,0-.66.47-1.12,1.11-1.12.79,0,1.26.57,1.26,1.54,0,1.29-.46,2.12-1.56,2.71l-.6-.66ZM238.99,46.76c.76-.39,1.06-.75,1.16-1.43-.14.03-.26.05-.3.05-.6,0-1.06-.48-1.06-1.1,0-.66.46-1.12,1.11-1.12.79,0,1.26.57,1.26,1.54,0,1.29-.47,2.12-1.56,2.71l-.6-.66Z"/>
        <path d="M20.02,77.73c-.72,1.25-1.71,1.94-2.73,1.94-1.56,0-2.67-1.53-2.67-3.66,0-2.37,1.2-4.41,3.25-5.49,1-.54,2.08-.78,3.51-.78,3.14,0,5.46,2.22,5.46,5.19,0,2.62-1.29,4.51-3.78,5.58-.5.21-.89.33-1.08.33-.18,0-.25-.06-.45-.34-.25-.39-.54-.68-.95-.95,3.09-.79,4.49-2.25,4.49-4.68,0-1.25-.53-2.29-1.46-2.96-.53-.36-.95-.51-1.77-.64-.42,3.16-.92,4.89-1.83,6.46ZM17.86,72.42c-1,.88-1.58,2.15-1.58,3.55,0,1.16.38,1.83,1,1.83.75,0,1.52-1.04,2.08-2.82.36-1.12.54-1.98.77-3.65-1.07.23-1.59.48-2.28,1.08Z"/>
        <path d="M38.34,80.46h-6.33v-1.23c.36-.98.7-1.59,1.32-2.4.41-.55.53-.69,1.89-2.17,1.04-1.14,1.33-1.75,1.33-2.76,0-.5-.13-.93-.38-1.25-.21-.25-.54-.39-.94-.39-.54,0-1,.36-1.25.98-.13.35-.2.71-.25,1.53l-1.72-.34c.12-1.23.31-1.85.79-2.48.6-.79,1.42-1.17,2.53-1.17,1.88,0,3.03,1.23,3.03,3.25,0,.96-.21,1.6-.74,2.35-.34.48-.64.79-1.56,1.69-1.21,1.19-1.7,1.8-2.21,2.88h4.47v1.5Z"/>
        <path d="M46.11,71.4c2.49-.71,3.78-.93,5.19-.93,1.51,0,2.7.41,3.5,1.19.66.68,1.02,1.6,1.02,2.7,0,1.92-1.03,3.54-2.83,4.47-.96.48-1.93.81-3.27,1.06-.58.12-.88.17-1.11.17-.18,0-.27-.06-.36-.23-.34-.69-.48-.9-.93-1.36,2.23-.27,3.45-.57,4.62-1.16,1.28-.63,1.98-1.67,1.98-2.92,0-1.41-.96-2.32-2.43-2.32-1.78,0-3.76.51-6.04,1.56-.41.18-.62.29-.77.38-.27.15-.34.18-.43.18-.29,0-.79-.92-1.14-2.07.69-.09,1.38-.25,3.01-.71Z"/>
        <path d="M58.99,74.01c-.12.03-.18.06-.27.1-.08.04-.12.06-.18.06-.33,0-.57-.57-.75-1.68h.29c.63,0,2.24-.19,3.2-.39.31-1.31.48-2.31.48-3.02,0-.06,0-.15-.01-.25.64.06,1.26.19,1.68.38.24.09.36.21.36.36,0,.08-.02.14-.09.26q-.23.39-.69,2.04c.36-.04.76-.07,1.02-.07.62,0,1.1.12,1.44.36.6.44.9,1.32.9,2.69,0,2.23-.41,4.15-1.1,5.1-.48.66-1.11.98-2,.98-.54,0-1.05-.08-1.2-.17q-.12-.08-.17-.63c-.04-.41-.13-.77-.32-1.19.78.27.98.31,1.46.31.72,0,1.02-.35,1.35-1.56.23-.79.35-1.81.35-2.92,0-1.17-.29-1.59-1.08-1.59-.27,0-.71.04-1.05.09-.04.18-.06.19-.12.39-.42,1.54-1.19,3.55-1.95,5.17-.79,1.63-.99,1.96-1.18,1.96-.12,0-.53-.21-.96-.5-.35-.21-.44-.3-.44-.42q0-.07.62-1.05c.83-1.27,1.91-3.77,2.28-5.25-1.11.25-1.73.39-1.86.44ZM68.41,70.94c-.24.18-.41.25-.48.25-.04,0-.09-.03-.13-.1-.32-.51-.84-1.1-1.28-1.47-.03-.03-.04-.06-.04-.09,0-.06.11-.17.36-.36.25-.18.33-.23.43-.23.24,0,1.56,1.33,1.56,1.58,0,.09-.12.19-.42.42ZM66.82,72.53c0-.1.13-.24.57-.58.3-.23.45-.31.57-.31.2,0,.87.72,1.5,1.6.52.75,1.09,1.81,1.09,2.07,0,.15-.04.19-.52.58-.3.24-.65.44-.77.44-.1,0-.15-.04-.25-.3-.29-.72-.54-1.21-.95-1.86-.4-.65-.43-.67-1.15-1.45-.06-.08-.09-.12-.09-.18ZM68.79,67.92c.25,0,1.53,1.27,1.53,1.53,0,.07-.09.16-.39.38-.27.21-.41.28-.46.28q-.08,0-.38-.42c-.25-.34-.74-.85-1-1.08-.04-.04-.08-.07-.08-.12,0-.12.62-.57.78-.57Z"/>
        <path d="M76.24,71.78c-.69.04-1.33.06-1.91.06-.63,0-.67,0-.71-.09-.04-.09-.09-.72-.09-1.16v-.28c.71.03,1,.04,1.38.04s.95-.02,1.4-.03c.07-.87.09-1.17.09-1.47,0-.14,0-.23-.02-.44.72.02,1.28.06,1.71.17.12.03.18.09.18.19,0,.08-.02.14-.09.31-.12.29-.21.68-.27,1.14.96-.08,2.12-.23,2.58-.33.45-.1.76-.17.84-.17.32-.03.54-.09.63-.17.02-.01.03-.01.03-.01.03,0,.04.01.08.01.06,0,.1.06.13.17.03.23.08.75.08,1.08,0,.23-.04.29-.2.31-.88.18-2.71.4-4.29.54-.01.06-.01.09-.01.24-.03.29-.03.32-.04,1.07.66-.15,1.25-.23,1.98-.23.11-.48.12-.6.15-.95,1.16.24,1.72.45,1.72.63,0,.06-.01.1-.13.3-.04.06-.08.1-.11.21,1.94.45,3.17,1.88,3.17,3.72,0,1.64-.88,2.94-2.58,3.84-.63.33-1.51.63-1.84.63-.17,0-.29-.06-.38-.18-.31-.45-.51-.66-.99-1.06,1.56-.29,2.32-.6,3.07-1.21.69-.58,1.02-1.26,1.02-2.1,0-1.2-.71-2.1-1.91-2.44-.9,2.07-1.5,3.04-2.58,4.15.08.25.13.4.27.72.06.12.07.17.07.21,0,.15-.06.2-.4.38-.38.2-.81.35-.96.35-.13,0-.17-.04-.33-.51-.87.61-1.8.94-2.71.94-1.02,0-1.71-.83-1.71-2.02,0-1.88,1.37-3.71,3.63-4.83.01-.78.03-1.44.04-1.74ZM74.13,78.08c0,.38.23.6.6.6.51,0,1.18-.29,1.86-.78-.21-1.02-.3-1.71-.38-2.83-1.32.98-2.08,2.1-2.08,3.02ZM79.38,73.94c-.67.06-1.04.12-1.65.33.03,1.06.06,1.52.18,2.28.63-.8,1.05-1.54,1.47-2.61Z"/>
        <path d="M94.63,73.38c2.12,0,3.62,1.44,3.62,3.48,0,1.39-.74,2.65-1.96,3.39-.86.51-1.91.77-3.09.77-1.91,0-3.02-.77-3.02-2.07,0-1.19.99-2.02,2.4-2.02,1.27,0,2.19.64,2.8,1.96.76-.56,1.08-1.14,1.08-1.95,0-1.29-.92-2.13-2.36-2.13s-3.04.73-4.35,2.04c-.24.24-.46.5-.73.84-.11.15-.18.21-.27.21-.27,0-1.33-1.05-1.33-1.32,0-.13.06-.21.39-.45.34-.27.84-.7,1.47-1.3,1.46-1.38,2.52-2.54,4.09-4.46-1.88.24-3.13.45-3.6.62-.08.02-.12.03-.17.03-.12,0-.2-.07-.29-.3-.18-.45-.27-.94-.32-1.6.41.06.69.08,1.02.08.72,0,1.93-.1,3.51-.29.55-.06.73-.1,1.16-.27.13-.06.21-.08.3-.08.21,0,.42.18.81.78.29.39.38.58.38.71,0,.19-.04.25-.38.46-.27.17-.43.3-.78.63-.75.72-.76.72-1.69,1.67-.66.67-.74.75-1.33,1.35.97-.54,1.74-.77,2.64-.77ZM93.19,78.57c-.23-.15-.48-.23-.77-.23-.46,0-.76.23-.76.58,0,.44.46.71,1.18.71.33,0,.62-.03.99-.14-.18-.5-.33-.72-.64-.93Z"/>
        <path d="M106.78,77.73c-.72,1.25-1.71,1.94-2.73,1.94-1.56,0-2.67-1.53-2.67-3.66,0-2.37,1.2-4.41,3.25-5.49,1-.54,2.08-.78,3.51-.78,3.14,0,5.46,2.22,5.46,5.19,0,2.62-1.29,4.51-3.78,5.58-.5.21-.89.33-1.08.33-.18,0-.25-.06-.45-.34-.25-.39-.54-.68-.95-.95,3.09-.79,4.49-2.25,4.49-4.68,0-1.25-.53-2.29-1.46-2.96-.53-.36-.95-.51-1.77-.64-.42,3.16-.92,4.89-1.83,6.46ZM104.62,72.42c-1,.88-1.58,2.15-1.58,3.55,0,1.16.38,1.83,1,1.83.75,0,1.52-1.04,2.08-2.82.36-1.12.54-1.98.77-3.65-1.07.23-1.59.48-2.28,1.08Z"/>
        <path d="M119.43,77.3c.04.06.06.11.06.17q0,.09-.25.78c-.32.92-.51,1.67-.57,2.25-.01.19-.08.27-.27.31-.21.06-.61.09-1,.09-.15,0-.22-.03-.27-.12-.13-.28-.38-1.32-.5-2.16-.1-.71-.15-1.44-.15-2.21,0-1.73.2-3.36.74-6.3.09-.48.12-.71.17-1.17.69.09,1.17.23,1.6.44.23.12.32.23.32.36,0,.09-.03.17-.11.29-.61,1.05-1.18,4.29-1.18,6.69,0,.36.01.93.06,1.65.36-.93.52-1.35.85-2.07.11.41.21.6.51,1ZM121.95,73.35c-.72,0-.87-.03-.92-.19-.04-.13-.09-.61-.09-.96,0-.12,0-.24.01-.51.41.03.64.04,1.14.04.81,0,1.32-.02,2.1-.08-.02-1.9-.03-2.15-.18-2.85.74.01,1.29.07,1.77.19.22.06.31.14.31.29,0,.06-.01.1-.06.22-.15.35-.23.93-.25,1.98.55-.07,1.03-.18,1.93-.39.08-.03.1-.03.15-.03.09,0,.13.04.17.15.03.14.07.71.07,1.02,0,.38-.01.44-.17.5-.24.12-.9.23-2.17.39,0,1.03.09,2.74.2,3.72.95.4,1.59.75,2.25,1.21.42.3.51.41.51.51,0,.17-.27.67-.58,1.11-.18.25-.27.33-.38.33s-.1,0-.45-.33c-.33-.33-.67-.58-1.33-1.02v.12c0,1.32-1.09,2.19-2.76,2.19s-2.8-.9-2.8-2.25,1.14-2.35,2.66-2.35c.55,0,.84.02,1.24.08q-.06-1.17-.1-3.18c-.65.04-1.67.09-2.26.09ZM123.18,77.76c-.75,0-1.25.34-1.25.87,0,.48.46.78,1.19.78.79,0,1.21-.36,1.21-1.05,0-.21-.02-.38-.02-.38-.39-.15-.73-.23-1.14-.23Z"/>
        <path d="M133.63,78.14c-.6,0-.93.01-1.39.04.04-.31.06-.65.06-1.42v-3.31c0-.66-.01-1.05-.06-1.46.45.03.76.04,1.44.04h5.59c.67,0,1-.01,1.44-.04-.03.39-.04.81-.04,1.47v3.51c0,.75,0,.88.04,1.21-.45-.03-.71-.04-1.26-.04h-1.01v1.36c0,.38.14.42,1.11.42,1.29,0,1.59-.04,1.7-.28.12-.23.17-.62.17-1.59.55.26.85.36,1.56.5-.06,1.52-.25,2.08-.81,2.42-.38.23-1.1.31-2.62.31-2.17,0-2.57-.17-2.57-1.1v-2.04h-1.42c-.21.94-.88,1.83-1.75,2.34-.75.45-1.83.77-3.21.96-.21-.51-.39-.85-.76-1.48,1.09-.08,2.01-.25,2.75-.56.66-.25,1.09-.67,1.3-1.26h-.24ZM132.7,70.08c-.3-.56-.55-.93-1.09-1.6l1.5-.33c.63.88.97,1.41,1.24,1.94h1.53c-.24-.62-.43-.99-.92-1.73l1.53-.3c.4.71.73,1.38.99,2.02h1.16c.48-.65.75-1.16,1.07-1.96l1.51.4c-.27.52-.69,1.19-.95,1.56h.95c.79,0,1.21-.02,1.47-.06-.03.45-.04.81-.04,1.35v1.02c0,.35.01.66.06,1.02h-1.49v-2.08h-9.51v2.07h-1.53c.05-.41.08-.74.08-1.04v-1.05c0-.62-.01-.9-.06-1.29.41.04.84.06,1.5.06h1ZM133.8,73.74h5.38v-.6h-5.38v.6ZM133.8,75.36h5.38v-.6h-5.38v.6ZM133.8,76.98h5.38v-.6h-5.38v.6Z"/>
        <path d="M150.24,75.95c.34-.1.6-.15.85-.15,1.04,0,1.51.61,1.71,2.16.1.89.15,1.05.36,1.23.18.18.46.24.99.24.71,0,1.05-.06,2.28-.39.04-.02.08-.02.1-.02.09,0,.14.03.2.14.11.24.23,1.03.23,1.47,0,.14-.03.19-.17.23-.41.1-1.83.23-2.7.23-1.3,0-2-.24-2.4-.85-.25-.41-.38-.85-.46-1.79-.1-1.15-.29-1.44-.88-1.44-.54,0-.96.27-1.84,1.15-.86.85-1.59,1.76-2.08,2.54-.09.15-.2.24-.29.24-.1,0-.21-.09-.67-.58-.45-.49-.62-.69-.62-.78,0-.1.03-.13.3-.38q.36-.3,5.94-6.24c-2.42.44-3.95.75-4.3.88-.17.06-.23.08-.3.08-.13,0-.17-.04-.25-.34-.15-.5-.22-.89-.29-1.49.32.02.42.02.53.02.66,0,2.5-.18,4.17-.42,1.26-.17,1.46-.21,1.79-.38.09-.04.18-.08.24-.08.38,0,1.23.98,1.23,1.41,0,.18-.06.25-.25.36-.23.09-.54.3-.81.52-.15.12-.6.54-.81.74l-1.77,1.69ZM148.45,68.45c.06-.18.1-.25.18-.24s.12.02.15.03c.61.21,1.18.35,1.83.47.93.18,1.06.19,2.67.27.18.01.2.06.2.42,0,.45-.06,1-.13,1.12-.04.09-.11.13-.18.13s-1.7-.18-1.94-.21c-1.08-.17-2.02-.39-2.86-.69-.14-.06-.18-.1-.18-.21,0-.14.11-.58.27-1.1Z"/>
        <path d="M161.41,72.23c-.39.09-.53.13-1.07.33-.19.08-.3.1-.39.1-.33,0-.63-.61-.9-1.9.96-.04,1.31-.09,2.97-.34,1.8-.27,4.08-.62,5.28-.77,1.35-.18,2.43-.36,3-.48.1-.03.15-.03.22-.03.2,0,.27.09.41.46.12.31.21.76.21.97,0,.18-.06.24-.27.24-.32,0-.6.03-.89.08-2.53.42-4.56,2.64-4.56,4.98,0,1.75,1.38,2.91,3.72,3.12.21.01.29.09.29.27,0,.38-.15,1.09-.29,1.42-.08.17-.19.24-.39.24s-.65-.09-1.11-.22c-2.55-.75-3.88-2.37-3.88-4.67,0-1.25.41-2.4,1.19-3.39.42-.54.78-.84,1.63-1.43-1.96.33-4.04.72-5.17,1.01Z"/>
        <path d="M181.39,73.38c2.12,0,3.62,1.44,3.62,3.48,0,1.39-.74,2.65-1.96,3.39-.86.51-1.91.77-3.09.77-1.91,0-3.02-.77-3.02-2.07,0-1.19.99-2.02,2.4-2.02,1.27,0,2.19.64,2.8,1.96.76-.56,1.08-1.14,1.08-1.95,0-1.29-.92-2.13-2.36-2.13s-3.04.73-4.35,2.04c-.24.24-.46.5-.73.84-.11.15-.18.21-.27.21-.27,0-1.33-1.05-1.33-1.32,0-.13.06-.21.39-.45.34-.27.84-.7,1.47-1.3,1.46-1.38,2.52-2.54,4.09-4.46-1.88.24-3.13.45-3.6.62-.08.02-.12.03-.17.03-.12,0-.2-.07-.29-.3-.18-.45-.27-.94-.32-1.6.41.06.69.08,1.02.08.72,0,1.93-.1,3.51-.29.55-.06.73-.1,1.16-.27.13-.06.21-.08.3-.08.21,0,.42.18.81.78.29.39.38.58.38.71,0,.19-.04.25-.38.46-.27.17-.43.3-.78.63-.75.72-.76.72-1.69,1.67-.66.67-.74.75-1.33,1.35.97-.54,1.74-.77,2.64-.77ZM179.95,78.57c-.23-.15-.48-.23-.77-.23-.46,0-.76.23-.76.58,0,.44.46.71,1.18.71.33,0,.62-.03.99-.14-.18-.5-.33-.72-.64-.93Z"/>
        <path d="M190.47,71.1c.34-.9.67-1.38,1.25-1.86.69-.57,1.51-.84,2.56-.84,2.25,0,3.69,1.23,3.69,3.15,0,.65-.18,1.26-.53,1.75-.27.39-.39.51-1.23,1.27-1.17,1.05-1.42,1.46-1.42,2.25v.79h-1.53v-.84c0-.67.13-1.27.41-1.75.21-.38.43-.63,1.03-1.23.63-.61.83-.84.99-1.11.21-.3.33-.72.33-1.12,0-1-.67-1.63-1.74-1.63s-1.69.55-2.14,1.86l-1.67-.69ZM195.25,79.85c0,.66-.53,1.18-1.19,1.18s-1.18-.52-1.18-1.18.52-1.19,1.18-1.19,1.19.52,1.19,1.19Z"/>
      </g>
      <circle class="cls-10" cx="308.24" cy="80.95" r="30"/>
      <path class="cls-8" d="M9.89,190.99h239.38c4.68,0,8.47,3.79,8.47,8.47v92.05s9.69,9.69,9.69,9.69h-9.69s0,.5,0,.5c0,4.68-3.79,8.47-8.47,8.47H9.89c-4.68,0-8.47-3.79-8.47-8.47v-102.24c0-4.68,3.79-8.47,8.47-8.47Z"/>
      <g>
        <path d="M21.09,205.84c0,.38.18,1.08.54,2.02,1.16-.29,1.83-.52,3.41-1.2.09-.03.13-.04.18-.04.15,0,.25.27.48,1.25.01.08.01.09.03.15.02.03.02.04.02.06,0,.11-.06.17-.21.23-.77.33-1.64.6-3.24,1.02.78,1.46,1.89,2.71,2.97,3.34.08.04.12.11.12.18,0,.18-.33.89-.58,1.25-.13.2-.22.27-.36.27-.1,0-.13-.02-.33-.17-.31-.23-1.06-.57-1.6-.72-.64-.18-1.23-.26-1.92-.26-1.77,0-2.67.5-2.67,1.46,0,.54.29.92.9,1.21.7.35,1.99.54,3.51.54.45,0,.75-.01,1.2-.07-.24.46-.31.66-.6,1.59-.08.22-.2.28-.6.28-1,0-2.27-.13-3.03-.31-2-.5-3.13-1.62-3.13-3.12,0-.72.29-1.42.78-1.93.69-.67,1.8-1.05,3.22-1.05.93,0,1.53.1,2.33.42-.87-.93-1.31-1.53-1.83-2.55-.92.17-1.68.27-2.57.36-.52.04-1.68.12-1.9.12-.21,0-.27-.04-.35-.3-.09-.29-.17-.76-.24-1.42.5.01.73.03,1,.03.9,0,2.38-.12,3.36-.27-.13-.3-.39-.95-.54-1.35-.24-.66-.34-.9-.54-1.23.71-.12,1.47-.19,1.82-.19.29,0,.39.07.39.25v.17Z"/>
        <path d="M35.12,209.11c-3.29.21-4.56.34-5.5.6-.06.02-.12.03-.17.03-.11,0-.2-.08-.24-.2-.13-.38-.21-.87-.25-1.62h.36c.48,0,.93-.02,2.37-.11,1.11-.06,2.05-.1,3.4-.15-.01-1.35-.03-1.56-.17-2.23,1.16.03,1.74.08,1.95.17.09.04.13.12.13.27,0,.03-.01.09-.04.17-.13.33-.18.66-.21,1.59,2.19-.06,2.52-.06,4.02-.06.41,0,.46,0,.51.04.06.06.09.29.09.79,0,.69-.02.76-.21.76h-.06c-.64-.06-2.25-.12-3.3-.12q-.34,0-1.09.01l-.03,2.46c.23.5.3.92.3,1.63,0,1.88-.69,3.31-2.14,4.38-.6.45-1.37.84-1.63.84-.13,0-.21-.04-.33-.17-.42-.48-.74-.72-1.28-1.02.9-.25,1.37-.46,1.95-.83.44-.29.83-.6,1.11-.92.19-.24.34-.46.57-.95-.43.45-.79.62-1.35.62-1.26,0-2.08-.96-2.08-2.42,0-1.53.97-2.64,2.33-2.64.43,0,.71.06,1,.2v-1.16ZM33.3,212.62c0,.63.36,1.07.9,1.07.57,0,.92-.41.92-1.1s-.33-1.11-.9-1.11c-.54,0-.92.46-.92,1.14Z"/>
        <path d="M44.54,211.1c-.12.03-.18.06-.27.1-.08.04-.12.06-.18.06-.33,0-.57-.57-.75-1.68h.29c.63,0,2.24-.19,3.2-.39.31-1.3.48-2.31.48-3.01,0-.06,0-.15-.01-.25.64.06,1.26.19,1.68.38.24.09.36.21.36.36,0,.08-.02.14-.09.26q-.23.39-.69,2.04c.36-.04.76-.07,1.02-.07.62,0,1.1.12,1.44.36.6.44.9,1.32.9,2.69,0,2.23-.41,4.15-1.1,5.1-.48.66-1.11.97-2,.97-.54,0-1.05-.08-1.2-.17q-.12-.08-.17-.63c-.04-.41-.13-.76-.32-1.18.78.27.98.31,1.46.31.72,0,1.02-.34,1.35-1.56.23-.79.35-1.82.35-2.92,0-1.17-.29-1.59-1.08-1.59-.27,0-.71.04-1.05.09-.04.18-.06.19-.12.39-.42,1.54-1.19,3.55-1.95,5.17-.79,1.63-.99,1.96-1.18,1.96-.12,0-.53-.21-.96-.5-.35-.21-.44-.3-.44-.42q0-.07.62-1.05c.83-1.27,1.91-3.76,2.28-5.25-1.11.25-1.73.39-1.86.44ZM53.96,208.03c-.24.18-.41.25-.48.25-.04,0-.09-.03-.13-.1-.32-.51-.84-1.1-1.28-1.47-.03-.03-.04-.06-.04-.09,0-.06.11-.17.36-.36.25-.18.33-.23.43-.23.24,0,1.56,1.33,1.56,1.58,0,.09-.12.2-.42.42ZM52.37,209.62c0-.1.13-.24.57-.58.3-.22.45-.31.57-.31.2,0,.87.72,1.5,1.6.52.75,1.09,1.82,1.09,2.07,0,.15-.04.19-.52.58-.3.24-.65.43-.77.43-.1,0-.15-.04-.25-.3-.29-.72-.54-1.21-.95-1.86-.4-.64-.43-.67-1.15-1.45-.06-.08-.09-.12-.09-.18ZM54.33,205.01c.25,0,1.53,1.27,1.53,1.53,0,.07-.09.16-.39.38-.27.21-.41.28-.46.28q-.08,0-.38-.42c-.25-.34-.74-.85-1-1.08-.04-.04-.08-.07-.08-.12,0-.12.62-.57.78-.57Z"/>
        <path d="M62.1,210.22c-.19-.66-.25-1.07-.43-2.91-.06-.72-.12-1.08-.27-1.59.91.01,1.5.06,1.9.17.23.06.33.17.33.33,0,.06-.01.13-.04.25-.1.36-.15.63-.15,1.02,0,.74.15,1.94.32,2.46.09.29.18.39.34.39.36,0,1.68-.69,2.4-1.24.19-.15.22-.17.3-.17.13,0,.27.1.5.39.38.51.67,1.07.67,1.28,0,.17-.11.27-.36.34-.93.25-2.46.85-3.49,1.35-1.83.9-2.66,1.73-2.66,2.66s.76,1.29,2.7,1.29c1.12,0,2.14-.11,3.52-.33.06-.02.17-.03.2-.03.12,0,.19.06.25.18.04.15.15,1.07.15,1.43,0,.21-.06.28-.26.34-.33.08-2.14.18-3.28.18-1.92,0-3.2-.25-3.99-.79-.67-.46-1.04-1.2-1.04-2.1,0-.69.2-1.31.6-1.91.52-.78,1.09-1.27,2.35-2.02-.31-.29-.43-.5-.57-.96Z"/>
        <path d="M76.79,209.3c.97-.25,1.62-.35,2.33-.35,2.13,0,3.36,1.26,3.36,3.42,0,1.88-.81,3.39-2.45,4.59-.87.65-2.19,1.29-2.62,1.29-.2,0-.24-.04-.56-.5-.22-.34-.45-.55-.82-.82,1.72-.58,2.44-.96,3.22-1.64.9-.79,1.35-1.75,1.35-2.89,0-1.21-.57-1.91-1.58-1.91-.81,0-1.86.32-3.22.98-.2.09-.3.17-.55.34-.06.03-.12.06-.18.06-.29,0-.77-.84-1.1-1.96.56-.04.84-.12,2.82-.61ZM77.79,205.64c.54.17,1.35.32,2.08.41.3.03.41.04,1.17.07.22,0,.29.06.29.23,0,.5-.11,1.3-.2,1.46-.03.09-.1.12-.21.12-.34,0-1.56-.17-2.26-.32-1.19-.24-2.22-.54-2.43-.71-.05-.04-.08-.1-.08-.17,0-.12.31-.93.46-1.21.08-.12.12-.15.21-.15q.08,0,.96.27Z"/>
        <path d="M91.44,205.87c.38.11.48.18.48.35,0,.1-.01.15-.09.36-.17.44-.29,1.2-.34,2.25-.12,2.42-.18,4.29-.18,5.78,0,.48.04.84.12,1.08.17.5.69.75,1.53.75,1.35,0,2.62-.55,3.79-1.65.54-.51.87-.92,1.42-1.74.09.48.21.79.54,1.47.04.12.08.21.08.35,0,.27-.29.63-1.04,1.3-1.49,1.33-3.13,2.02-4.86,2.02-1.14,0-1.98-.28-2.52-.82-.57-.6-.79-1.38-.79-2.87,0-1.17.01-2.07.13-5.56.02-.53.03-.84.03-.98,0-1.27-.01-1.65-.11-2.29.77.03,1.35.09,1.8.21Z"/>
        <path d="M110.21,206.68c0,.13-.06.18-.32.33-.1.06-.24.18-.38.34-.93,1.08-2.26,2.54-3.45,3.73-.25.26-.36.45-.36.63,0,.16.12.34.41.6.88.81,2.32,2.28,3.39,3.5.75.84.94,1.11.94,1.26,0,.17-.25.42-.87.9-.29.23-.47.33-.56.33-.13,0-.19-.06-.34-.3-.64-1.02-2.22-2.92-3.42-4.14-.67-.67-.81-.83-1.02-1.12-.25-.36-.36-.66-.36-1,0-.3.09-.62.27-.92q.17-.27,1.08-1.25c.87-.9,1.8-2.04,2.38-2.88.39-.55.58-.92.78-1.42,1.17.64,1.82,1.14,1.82,1.41Z"/>
        <path d="M122.47,206.18c.18.12.25.21.25.31s-.01.12-.24.38c-.08.09-.3.42-.54.83q-.75,1.25-1.16,1.96c-.42.71-.69,1.19-.84,1.41q-.04.08-.25.45c-.2.34-.32.52-.53.81.97-.85,1.5-1.08,2.49-1.08.66,0,1.25.29,1.62.78.31.42.4.81.54,2.28.07.88.15,1.27.25,1.5.1.21.31.33.58.33,1.03,0,2.26-1.25,2.86-2.88.15.63.27.93.58,1.48.11.18.14.3.14.45,0,.17-.08.38-.26.66-.78,1.26-2.05,2.01-3.42,2.01-.86,0-1.58-.3-1.95-.79-.3-.42-.44-.98-.56-2.45-.07-.96-.15-1.29-.36-1.53-.17-.18-.41-.27-.74-.27-.99,0-2.29,1.33-3.06,3.11-.22.51-.38.97-.54,1.54-.06.22-.13.31-.24.31-.31,0-1.04-.3-1.42-.58-.1-.09-.15-.15-.15-.24,0-.07.03-.15.22-.57.12-.27.17-.35.27-.62q1.11-2.59,4.19-8.82c.34-.69.51-1.12.61-1.58.78.29,1.14.46,1.62.79Z"/>
        <path d="M132.64,209.8c-1.06.18-1.3.22-1.56.3-.15.04-.27.06-.36.06-.27,0-.4-.48-.46-1.65.87,0,1.35-.04,2.42-.24,0-.48.01-1.04.01-1.23,0-.58-.03-1.09-.09-1.47,1.58.08,2.04.18,2.04.46q0,.08-.13.39t-.2,1.62c.48.38.74.68.72.87,0,.04-.03.08-.09.14-.22.19-.25.22-.52.61q-.06.08-.15.2l-.06.09c0,.23,0,.25-.02.54.45-.51.87-.93,1.28-1.26,1.32-1.08,2.31-1.53,3.39-1.53s1.77.44,2.29,1.33c.45.78.69,1.88.69,3.17,0,.78-.06,1.38-.23,2.5.72.51,1.5,1.3,1.5,1.51,0,.24-.84,1.08-1.09,1.08-.1,0-.12-.01-.32-.31-.12-.17-.28-.36-.61-.72-.21.39-.33.56-.54.75-.55.51-1.3.78-2.19.78-1.56,0-2.56-.79-2.56-2,0-1.27,1.04-2.23,2.4-2.23.78,0,1.35.1,1.86.33.06-.56.08-.83.08-1.31,0-2.37-.45-3.3-1.59-3.3-.81,0-1.89.57-3.03,1.59-.41.38-.72.69-1.37,1.4v.87c0,1.99.04,4,.11,4.53v.06c0,.27-.21.34-.93.34-.66,0-.79-.06-.79-.34v-.12c.03-.44.04-.96.04-1.62q0-.99.01-2.17s-.03.04-.06.08c-.33.4-.87,1.14-1.22,1.63-.17.24-.25.31-.36.31-.15,0-.42-.27-.88-.87-.18-.23-.29-.42-.29-.5s.08-.17.45-.5c.27-.25,1.29-1.5,1.81-2.19.27-.38.46-.64.58-.84v-1.15ZM138.39,214.94c-.69,0-1.11.29-1.11.75s.32.69.89.69c.5,0,.9-.15,1.17-.45.13-.14.34-.51.34-.57v-.02c-.51-.31-.81-.4-1.29-.4Z"/>
        <path d="M152.1,216.94c0,.66-.52,1.18-1.18,1.18s-1.19-.53-1.19-1.18.53-1.19,1.19-1.19,1.18.53,1.18,1.19ZM151.58,214.72h-1.33l-.41-8.98h2.16l-.42,8.98Z"/>
        <path d="M165.92,215.54c1.23,0,2.59-.18,3.94-.52.08-.03.12-.03.17-.03.09,0,.13.06.17.2.04.33.08.81.08,1.3,0,.3-.03.39-.17.45-.45.24-2.47.46-4.21.46-2.26,0-3.55-.38-4.59-1.35-.5-.46-.99-1.27-.99-1.6,0-.22.13-.32,1.37-1.02.54,1.49,1.79,2.12,4.25,2.12ZM166.05,206.92c.87,0,1.38-.03,2.4-.18h.11c.12,0,.17.04.2.13.03.18.06.63.06,1.17,0,.35-.03.47-.12.53-.12.08-1.42.17-2.43.17-1.33,0-2.45-.11-3.69-.34-.85-.17-.9-.21-.9-.74,0-.34.03-.92.08-1.33,1.3.41,2.73.6,4.3.6Z"/>
        <path d="M179.08,214.82c-.72,1.25-1.71,1.93-2.73,1.93-1.56,0-2.67-1.53-2.67-3.66,0-2.37,1.2-4.41,3.25-5.49,1-.54,2.08-.78,3.51-.78,3.14,0,5.46,2.22,5.46,5.19,0,2.62-1.29,4.51-3.78,5.58-.5.21-.89.33-1.08.33-.18,0-.25-.06-.45-.34-.25-.39-.54-.67-.95-.95,3.09-.79,4.49-2.25,4.49-4.68,0-1.25-.53-2.29-1.46-2.96-.53-.36-.95-.51-1.77-.64-.42,3.17-.92,4.89-1.83,6.46ZM176.92,209.51c-1,.88-1.58,2.14-1.58,3.55,0,1.16.38,1.83,1,1.83.75,0,1.52-1.04,2.08-2.82.36-1.12.54-1.98.77-3.64-1.07.22-1.59.48-2.28,1.08Z"/>
        <path d="M197.4,217.55h-6.33v-1.23c.36-.98.7-1.59,1.32-2.4.41-.55.53-.69,1.89-2.17,1.04-1.14,1.33-1.75,1.33-2.76,0-.5-.13-.93-.38-1.25-.21-.25-.54-.39-.94-.39-.54,0-1,.36-1.25.97-.13.35-.2.71-.25,1.53l-1.72-.34c.12-1.23.31-1.85.79-2.48.6-.79,1.42-1.17,2.53-1.17,1.88,0,3.03,1.23,3.03,3.25,0,.96-.21,1.61-.74,2.36-.34.48-.64.79-1.56,1.69-1.21,1.19-1.7,1.8-2.21,2.88h4.47v1.5Z"/>
        <path d="M205.17,208.49c2.49-.71,3.78-.93,5.19-.93,1.51,0,2.7.41,3.5,1.18.66.68,1.02,1.61,1.02,2.7,0,1.92-1.03,3.54-2.83,4.47-.96.48-1.93.81-3.27,1.07-.58.12-.88.17-1.11.17-.18,0-.27-.06-.36-.23-.34-.69-.48-.9-.93-1.36,2.23-.27,3.45-.57,4.62-1.16,1.28-.63,1.98-1.67,1.98-2.92,0-1.41-.96-2.33-2.43-2.33-1.78,0-3.76.51-6.04,1.56-.41.18-.62.29-.77.38-.27.15-.34.18-.43.18-.29,0-.79-.92-1.14-2.07.69-.09,1.38-.25,3.01-.71Z"/>
        <path d="M223.07,213.82c-1.48.87-1.91,1.3-1.91,1.96,0,.27.11.45.33.58.33.2,1.07.3,2.01.3.81,0,1.93-.08,2.7-.18.32-.04.5-.09,1.09-.24h.08c.11,0,.18.08.23.18.09.32.15.77.15,1.31,0,.22-.08.31-.27.36-.36.08-2.03.17-3.12.17-1.83,0-2.8-.12-3.52-.42-.87-.36-1.31-1.04-1.31-1.98,0-.87.41-1.63,1.21-2.28.65-.51.79-.62,2.17-1.39-.12-.5-.34-.71-.81-.71-.62,0-1.26.24-1.96.71-.43.3-.95.72-1.26,1.03-.45.47-.5.5-.62.5-.15,0-.46-.34-.78-.87-.15-.25-.24-.45-.24-.55,0-.13.03-.17.39-.39,1.23-.83,2.25-1.88,2.87-2.96-1.07.08-1.62.09-2.21.09-.23,0-.27-.04-.34-.3-.05-.2-.12-.99-.14-1.39.51.07.81.09,1.53.09.58,0,1.23-.02,1.91-.04.31-.86.42-1.4.43-2.1,1.33.23,1.95.45,1.95.71,0,.06-.02.09-.06.18-.1.19-.22.43-.42.9q-.03.06-.04.11c.86-.12,1.61-.27,2.13-.39.33-.09.41-.1.48-.1.12,0,.18.04.21.13.06.27.15.96.15,1.17,0,.17-.06.24-.25.29-.48.13-2.13.39-3.51.52-.45.83-.76,1.31-1.23,1.82.67-.32,1.18-.43,1.78-.43.68,0,1.12.39,1.43,1.23,1.48-.81,2.28-1.25,2.37-1.3.69-.41.98-.63,1.31-1,.61.63,1.27,1.57,1.27,1.83,0,.09-.06.15-.25.2-.74.2-2.1.78-4.38,1.89.01.27.04.96.04,1.44v.72c0,.18-.03.27-.1.32-.08.08-.48.12-.93.12-.51,0-.6-.04-.6-.29v-.06c.03-.43.04-1,.04-1.36v-.08Z"/>
        <path d="M233.97,209.95c-.92.57-1.3.78-2.29,1.23-.25-.62-.42-.92-.84-1.47,1.35-.52,2.56-1.23,3.66-2.08,1.01-.79,1.68-1.51,2.27-2.41h1.72c.62.91,1.26,1.57,2.42,2.44,1.12.86,2.21,1.42,3.66,1.96-.38.62-.51.88-.78,1.59-1.02-.45-1.49-.71-2.35-1.26v1c-.38-.04-.72-.06-1.29-.06h-4.94c-.45,0-.84.01-1.23.06v-1ZM232.8,218.36c.06-.45.09-.88.09-1.52v-3.36c0-.62-.01-.97-.08-1.41.35.03.67.04,1.26.04h7.17c.58,0,.9-.01,1.26-.04-.06.39-.07.78-.07,1.41v3.38c0,.67.01,1.05.09,1.5h-1.73v-.72h-6.27v.72h-1.72ZM234.53,216.23h6.27v-2.71h-6.27v2.71ZM240.12,209.39h.5c-1.3-.93-2.07-1.65-2.97-2.82-.87,1.25-1.49,1.86-2.82,2.82h5.29Z"/>
        <path d="M17.27,242.15q0-1.63.01-2.34c-.75.82-1.26,1.48-1.51,1.95-.08.15-.18.24-.27.24-.15,0-.51-.31-.99-.85-.19-.24-.28-.38-.28-.44q0-.1.76-.85c.64-.65,1.51-1.67,2.33-2.75,0-.09,0-.43.01-1.04-.74.13-1.68.39-1.93.53-.15.08-.18.09-.25.09-.26,0-.47-.58-.66-1.75.79-.01,1.79-.12,2.88-.3,0-.54.01-1.31.01-1.73,0-.45-.03-.81-.09-1.11.95.06,1.41.12,1.83.22.22.06.31.15.31.32,0,.08-.03.15-.09.3-.15.3-.17.41-.29,1.59.36.22.71.6.71.79q0,.13-.46.71c-.04.06-.18.25-.41.54q-.01.48-.01.58c1.47-1.25,2.71-1.77,4.18-1.77,2.34,0,3.81,1.48,3.81,3.87,0,1.83-.84,3.2-2.57,4.12-.66.38-1.79.78-2.12.78-.09,0-.19-.03-.24-.09t-.23-.3c-.25-.36-.54-.64-.84-.85,2.99-.81,4.17-1.86,4.17-3.71,0-1.44-.85-2.37-2.21-2.37-.88,0-1.69.29-2.65.92q-.48.32-1.33,1.04.01.12.01.32c0,1.6,0,1.74.09,4.89.02.17.02.29.02.31,0,.29-.21.35-1.31.35-.39,0-.42-.04-.42-.47l.02-1.74Z"/>
        <path d="M33.33,237.49v.92c0,2.21.01,2.66.13,2.97.2.54.71.74,1.92.74,1.31,0,2.9-.15,3.58-.33.15-.04.17-.04.21-.04.09,0,.17.04.2.15.09.21.17.79.17,1.21,0,.33-.04.42-.25.48-.3.08-2.29.18-3.39.18-2.67,0-3.78-.66-4.05-2.38-.07-.46-.09-.83-.09-3.63-.09.01-.1.03-.21.04-1.08.18-1.54.3-1.98.5-.12.06-.21.09-.27.09-.22,0-.48-.69-.66-1.81h.13c.33,0,.55-.03,2.97-.33-.04-2.36-.06-2.49-.21-3.21.75.03,1.39.1,1.75.21.25.09.34.17.34.34,0,.09-.01.15-.09.32-.12.29-.18.92-.2,2.13,1.95-.24,2.04-.25,3.62-.39v-.88c0-1.35-.04-2-.17-2.44.72.03,1.37.12,1.75.24.18.06.24.14.24.29,0,.11-.02.15-.08.33-.12.32-.12.39-.15,2.16v.18c2.19-.17,2.57-.19,2.82-.19.09,0,.15.03.18.07.03.08.08.72.08,1.23,0,.21-.01.25-.09.3t-1.33.03c-.58,0-1.04.01-1.71.06-.06,1.28-.15,2.08-.32,2.57-.27.81-.79,1.11-1.95,1.11-.41,0-.86-.08-1-.17-.14-.09-.15-.15-.24-.64s-.13-.65-.32-1.02c.57.2.93.25,1.33.25.36,0,.51-.06.63-.24.15-.21.18-.45.26-1.77-1.43.11-2.52.24-3.57.41Z"/>
        <path d="M45.74,235.57c-.39.09-.53.13-1.07.33-.19.08-.3.1-.39.1-.33,0-.63-.61-.9-1.9.96-.04,1.31-.09,2.97-.34,1.8-.27,4.08-.62,5.28-.77,1.35-.18,2.43-.36,3-.48.1-.03.15-.03.22-.03.2,0,.27.09.41.46.12.32.21.76.21.97,0,.18-.06.24-.27.24-.32,0-.6.03-.89.08-2.53.42-4.56,2.64-4.56,4.98,0,1.75,1.38,2.91,3.72,3.12.21.01.29.09.29.27,0,.38-.15,1.09-.29,1.42-.08.17-.19.24-.39.24s-.65-.09-1.11-.22c-2.55-.75-3.88-2.37-3.88-4.67,0-1.25.41-2.4,1.19-3.39.42-.54.78-.84,1.63-1.42-1.96.33-4.04.72-5.17,1Z"/>
        <path d="M66.96,232.58c-.76.39-1.05.75-1.15,1.42.13-.03.27-.04.31-.04.6,0,1.05.48,1.05,1.09,0,.66-.46,1.12-1.11,1.12-.79,0-1.26-.58-1.26-1.59,0-.6.18-1.28.44-1.7.25-.39.58-.67,1.12-.97l.6.66ZM69.86,232.58c-.77.39-1.05.75-1.16,1.42.13-.03.27-.04.31-.04.6,0,1.05.48,1.05,1.09,0,.66-.47,1.12-1.11,1.12-.79,0-1.26-.58-1.26-1.54,0-1.29.46-2.12,1.56-2.71l.6.66Z"/>
        <path d="M77.14,239.59c0,.92.04,3.36.08,4.07v.08c0,.13-.03.24-.11.28-.1.09-.71.17-1.26.17-.48,0-.57-.04-.57-.34v-.06c.03-.39.07-4.71.07-6.5,0-3.45-.03-4.42-.17-5.29,1.08.08,1.56.12,2,.21.15.04.23.12.23.24q0,.08-.06.33c-.06.18-.09.39-.1.63,0,.03-.03.93-.08,2.7q1.06.3,1.68.52c1.5.53,2.36.92,3.69,1.62.12.09.18.17.18.25,0,.15-.27.87-.51,1.32-.12.25-.2.33-.29.33-.06,0-.13-.03-.24-.11-1.47-.97-3.01-1.69-4.54-2.14v1.69Z"/>
        <path d="M91.56,237.19c2.75,0,4.32-.03,5.83-.13h.19c.45,0,.45.01.45,1.21,0,.61-.04.72-.3.72h-.06c-.99-.04-1.54-.04-5.88-.04-1.59,0-2.38.01-3.76.06h-.44c-.48,0-.55.02-.84.06-.08,0-.13.01-.17.01-.17,0-.27-.08-.3-.21-.09-.38-.15-1.14-.15-1.83,1.21.12,2.28.15,5.42.15Z"/>
        <path d="M103.25,237.82c-.45.36-.69.51-.81.51s-.13,0-.42-.3c-.27-.27-.64-.54-1.06-.76,1.6-.98,2.56-1.85,3.49-3.15.63-.88,1.1-1.75,1.33-2.58,1.59.58,1.96.78,1.96.99,0,.08-.04.13-.19.24-.15.1-.35.38-.75.99h.27c.53.01.9.01.99.01,1.46,0,1.83-.03,2.29-.21.12-.04.17-.06.25-.06.21,0,.42.17.88.72.38.42.48.6.48.76,0,.13-.04.21-.21.38-.12.12-.3.41-.53.84-1.41,2.57-2.46,3.97-4.15,5.5-1.33,1.21-3.45,2.64-3.92,2.64-.13,0-.25-.06-.38-.18-.45-.43-.83-.71-1.26-.88,2.07-1,3.67-2.13,5.1-3.55q-.11-.11-.44-.45c-.31-.33-.66-.62-1.42-1.19-.09-.07-.12-.12-.12-.18,0-.08.2-.3.72-.84.25-.25.31-.3.4-.3.24,0,1.12.72,2.03,1.63.9-1.17,1.54-2.28,1.9-3.24q-1.71.03-3.9.04c-.69.9-1.56,1.79-2.56,2.61Z"/>
        <path d="M119.11,233.26c.12.04.18.13.18.25,0,.06,0,.09-.03.21-.09.33-.11.57-.11,1.17-.03,3.66-.69,6-2.26,7.99-.34.42-.48.56-.63.56-.06,0-.13-.03-.25-.09-.41-.26-.78-.39-1.46-.54,1.04-1.05,1.44-1.61,1.89-2.62.63-1.41.89-2.83.89-4.98,0-.99-.03-1.44-.15-2.19.84.01,1.53.1,1.93.24ZM120.72,234.71c0-.74-.04-1.32-.13-1.95,1.62.06,2.2.18,2.2.48,0,.09-.01.14-.07.3-.05.09-.09.33-.11.55q-.04.41-.08,7c1.91-1.08,3.15-2.12,4.41-3.71.03.78.09,1.35.22,1.8.04.13.04.18.04.25,0,.24-.15.44-.84,1.08-1.11,1.02-1.86,1.54-3.25,2.28-.33.17-.52.3-.71.46-.1.09-.24.15-.34.15-.18,0-.72-.36-1.11-.73-.3-.3-.44-.53-.44-.72,0-.07.01-.12.06-.25.1-.28.13-.55.13-1.38v-5.62Z"/>
        <path d="M133.48,236.77c0,.34.02,1.04.03,1.46,0,.15.01.3.01.36,0,.3-.21.36-1.38.36-.45,0-.54-.06-.54-.32v-.3c.06-1.17.09-1.81.09-2.88,0-1.74-.04-2.42-.17-3.19.77.01,1.47.06,1.82.13.21.04.33.15.33.33,0,.08-.02.12-.04.21-.12.3-.15.58-.15,1.3v2.54ZM139.32,234.82c0,2.14-.13,3.54-.42,4.59-.54,1.91-1.74,3.43-3.51,4.41-.38.21-.66.33-.77.33s-.18-.04-.28-.17c-.35-.44-.62-.68-1.14-1.02.96-.36,1.77-.87,2.43-1.51.76-.75,1.26-1.65,1.53-2.73.2-.85.33-2.47.33-4.2,0-1.21-.04-1.82-.15-2.37.9.01,1.44.08,1.9.17.2.04.29.12.29.27,0,.07-.01.13-.06.27-.12.33-.15.63-.15,1.33v.63Z"/>
        <path d="M146.62,237.82c-.45.36-.69.51-.81.51s-.13,0-.42-.3c-.27-.27-.64-.54-1.06-.76,1.6-.98,2.56-1.85,3.49-3.15.63-.88,1.1-1.75,1.33-2.58,1.59.58,1.96.78,1.96.99,0,.08-.04.13-.19.24-.15.1-.35.38-.75.99h.27c.53.01.9.01.99.01,1.46,0,1.83-.03,2.29-.21.12-.04.17-.06.25-.06.21,0,.42.17.88.72.38.42.48.6.48.76,0,.13-.04.21-.21.38-.12.12-.3.41-.53.84-1.41,2.57-2.46,3.97-4.15,5.5-1.33,1.21-3.45,2.64-3.92,2.64-.13,0-.25-.06-.38-.18-.45-.43-.83-.71-1.26-.88,2.07-1,3.67-2.13,5.1-3.55q-.11-.11-.44-.45c-.31-.33-.66-.62-1.42-1.19-.09-.07-.12-.12-.12-.18,0-.08.2-.3.72-.84.25-.25.31-.3.4-.3.24,0,1.12.72,2.03,1.63.9-1.17,1.54-2.28,1.9-3.24q-1.71.03-3.9.04c-.69.9-1.56,1.79-2.56,2.61Z"/>
        <path d="M163.86,237.19c2.75,0,4.32-.03,5.83-.13h.2c.45,0,.45.01.45,1.21,0,.61-.04.72-.3.72h-.06c-.99-.04-1.54-.04-5.88-.04-1.59,0-2.38.01-3.76.06h-.44c-.48,0-.55.02-.84.06-.08,0-.13.01-.17.01-.17,0-.27-.08-.3-.21-.09-.38-.15-1.14-.15-1.83,1.21.12,2.28.15,5.42.15Z"/>
        <path d="M184.62,235.96c.08.15.1.25.1.35,0,.15-.06.25-.25.52-.82,1.08-1.71,1.95-3.04,2.99-1.5,1.17-2.77,1.95-4.57,2.8-1.16.54-1.21.57-1.4.74-.12.12-.18.15-.27.15-.13,0-.25-.12-.48-.45-.3-.45-.58-1.06-.75-1.59,1.52-.34,3.33-1.15,5.08-2.26,2.31-1.46,3.76-2.89,4.89-4.86.17.55.3.85.69,1.62ZM174.63,233.44c.25-.29.36-.36.49-.36.29.02,1.41.74,2.34,1.49.57.46.75.66.75.81,0,.11-.27.51-.63.92-.33.38-.49.51-.61.51q-.11,0-.72-.58c-.39-.38-1.17-1-1.56-1.24q-.53-.35-.63-.41c-.06-.04-.09-.09-.09-.13,0-.14.29-.56.66-.99Z"/>
        <path d="M186.7,235.61c.77-.39,1.07-.75,1.16-1.42-.13.03-.25.04-.3.04-.6,0-1.07-.48-1.07-1.09,0-.66.47-1.12,1.11-1.12.79,0,1.26.57,1.26,1.54,0,1.29-.46,2.12-1.56,2.71l-.6-.66ZM189.6,235.61c.76-.39,1.06-.75,1.16-1.42-.14.03-.26.04-.3.04-.6,0-1.06-.48-1.06-1.09,0-.66.46-1.12,1.11-1.12.79,0,1.26.57,1.26,1.54,0,1.29-.47,2.12-1.56,2.71l-.6-.66Z"/>
        <path d="M206.71,240.07c-1.48.87-1.91,1.3-1.91,1.96,0,.27.11.45.33.58.33.2,1.07.3,2.01.3.81,0,1.93-.08,2.7-.18.32-.04.5-.09,1.09-.24h.08c.11,0,.18.08.23.18.09.32.15.77.15,1.31,0,.22-.08.31-.27.36-.36.08-2.03.17-3.12.17-1.83,0-2.8-.12-3.52-.42-.87-.36-1.31-1.04-1.31-1.98,0-.87.41-1.63,1.21-2.28.65-.51.79-.62,2.18-1.39-.12-.5-.35-.71-.81-.71-.62,0-1.26.24-1.96.71-.43.3-.95.72-1.26,1.03-.45.47-.5.5-.62.5-.15,0-.46-.34-.78-.87-.15-.25-.24-.45-.24-.55,0-.13.03-.17.39-.39,1.23-.83,2.25-1.88,2.87-2.96-1.07.08-1.62.09-2.21.09-.23,0-.27-.04-.34-.3-.05-.2-.12-.99-.14-1.39.51.07.81.09,1.53.09.58,0,1.23-.02,1.91-.04.31-.86.42-1.4.43-2.1,1.33.23,1.95.45,1.95.71,0,.06-.02.09-.06.18-.1.19-.22.43-.42.9q-.03.06-.04.11c.86-.12,1.61-.27,2.13-.39.33-.09.41-.1.48-.1.12,0,.18.04.21.13.06.27.15.96.15,1.17,0,.17-.06.24-.25.29-.48.13-2.13.39-3.51.52-.45.83-.76,1.31-1.23,1.82.67-.32,1.18-.43,1.78-.43.68,0,1.12.39,1.43,1.23,1.48-.81,2.28-1.25,2.37-1.3.69-.41.98-.63,1.31-1,.61.63,1.27,1.57,1.27,1.83,0,.09-.06.15-.25.2-.74.2-2.1.78-4.38,1.89.01.27.04.96.04,1.44v.72c0,.18-.03.27-.1.32-.08.08-.48.12-.93.12-.51,0-.6-.04-.6-.29v-.06c.03-.43.04-1,.04-1.36v-.08Z"/>
        <path d="M214.89,233.86c.36.06.69.08,1.21.08h3.72c.54,0,.87-.02,1.21-.06v1.43c-.36-.05-.62-.06-1.21-.06h-3.72c-.48,0-.78.01-1.21.06v-1.44ZM215.49,231.85c.36.04.64.06,1.25.06h2.49c.58,0,.86-.01,1.23-.06v1.39c-.38-.03-.67-.04-1.23-.04h-2.49c-.53,0-.9.02-1.25.04v-1.39ZM217.02,244.72h-1.53c.06-.42.08-.83.08-1.36v-2.21c0-.45-.02-.72-.06-1.11.25.03.48.04,1.02.04h3.09c.43,0,.67-.01.92-.04-.03.34-.04.62-.04,1.11v2.13c0,.52.01.9.07,1.25h-1.53v-.45h-2.01v.64ZM215.5,235.94c.33.04.46.04.95.04h3.06c.51,0,.58,0,.93-.04v1.37c-.33-.04-.48-.04-.93-.04h-3.06c-.48,0-.58,0-.95.04v-1.37ZM215.5,237.98c.27.03.45.04.95.04h3.06c.5,0,.62,0,.93-.04v1.37c-.3-.03-.48-.04-.94-.04h-3.06c-.47,0-.62,0-.93.04v-1.37ZM216.99,242.8h2.04v-1.41h-2.04v1.41ZM223.65,233.21c0-.79-.01-1.17-.09-1.73h1.79c-.06.48-.09.95-.09,1.73v2.59h1.02c.78,0,1.28-.03,1.75-.09v1.67c-.58-.06-1.05-.09-1.77-.09h-1v5.25c0,1,.03,1.58.1,2.17h-1.81c.08-.57.1-1.12.1-2.17v-5.25h-.9c-.63,0-1.23.03-1.74.09v-1.67c.45.06.99.09,1.74.09h.9v-2.59Z"/>
        <path d="M231.72,233.59c-.55.79-.93,1.23-1.56,1.81-.27-.41-.62-.79-1.02-1.17.71-.58,1.1-1,1.52-1.65.4-.57.6-.98.69-1.37l1.52.36c-.04.08-.17.32-.38.71h1.81c.62,0,1-.03,1.37-.07v1.26c.64-.78,1.06-1.53,1.29-2.29l1.5.39c-.15.3-.17.3-.36.72h2.73c.66,0,1.1-.03,1.47-.07v1.44c-.39-.04-.84-.06-1.47-.06h-1.12c.32.48.36.55.56.9l-.96.32c.73,0,.99-.02,1.39-.04-.04.38-.04.81-.04,1.57v2.69c0,.84,0,1.18.04,1.53-.41-.03-.73-.04-1.53-.04h-.35v.63h1.82c.78,0,1.26-.03,1.67-.09v1.47c-.48-.06-1-.09-1.67-.09h-1.82v1c0,.51.02.86.08,1.29h-1.67c.06-.34.09-.73.09-1.29v-1h-2.91c-.29.77-.71,1.28-1.38,1.67-.63.38-1.16.55-2.28.78-.22-.44-.43-.75-.9-1.29,1.11-.13,1.28-.17,1.73-.3.63-.2.99-.44,1.27-.86h-1.9c-.62,0-1.12.03-1.61.08v-1.46c.42.06.88.09,1.61.09h2.23c.02-.3.02-.34.02-.63h-.6c-.79,0-1.11.02-1.53.04.05-.36.06-.71.06-1.44v-3.32c0-.42-.01-.64-.03-1.02.29.01.56.03,1.14.03h.82c-.18-.48-.3-.74-.58-1.21h-.75ZM232.59,236.38h6.57v-.51h-6.57v.51ZM232.59,237.91h6.57v-.54h-6.57v.54ZM232.59,239.42h6.57v-.52h-6.57v.52ZM233.91,233.59c.22.33.3.48.52.92l-1.02.3h2.61c-.3-.32-.51-.46-.97-.75.22-.18.29-.24.46-.44-.27-.01-.66-.03-1.06-.03h-.54ZM237.31,241.13v-.63h-2.62c0,.3,0,.39-.03.63h2.65ZM238.89,234.8c-.22-.51-.34-.74-.67-1.21h-.87c-.33.48-.64.87-.97,1.21h2.52Z"/>
        <path d="M16.82,261.82c-.39.09-.53.13-1.07.33-.19.08-.3.1-.39.1-.33,0-.63-.61-.9-1.9.96-.04,1.31-.09,2.97-.34,1.8-.27,4.08-.62,5.28-.77,1.35-.18,2.43-.36,3-.48.1-.03.15-.03.22-.03.2,0,.27.09.41.46.12.32.21.76.21.97,0,.18-.06.24-.27.24-.32,0-.6.03-.89.08-2.53.42-4.56,2.64-4.56,4.98,0,1.75,1.38,2.91,3.72,3.12.21.01.29.09.29.27,0,.38-.15,1.09-.29,1.42-.08.17-.19.24-.39.24s-.65-.09-1.11-.22c-2.55-.75-3.88-2.37-3.88-4.67,0-1.25.41-2.4,1.19-3.39.42-.54.78-.84,1.63-1.42-1.96.33-4.04.72-5.17,1ZM24.5,262.21c.21,0,1.48,1.43,1.48,1.65,0,.08-.09.17-.36.41-.29.24-.3.24-.42.28q-.08.03-.11.03c-.06,0-.08-.01-.34-.43-.24-.38-.5-.71-.97-1.2-.03-.03-.08-.11-.08-.12.03-.08.04-.12.06-.12.04-.06.3-.27.36-.31.15-.08.24-.14.25-.15.01-.03.04-.03.04-.03h.08ZM27.06,263.24c-.22.17-.36.25-.43.25-.06,0-.09-.03-.17-.15-.45-.67-.67-.96-1.16-1.42-.03-.05-.06-.09-.06-.12,0-.08.09-.17.3-.32.21-.15.39-.24.46-.24.11,0,.29.14.6.45.44.45.84,1,.84,1.14,0,.09-.11.2-.39.41Z"/>
        <path d="M34.42,261.23c-1.29.22-2.62.38-3.43.38-.24,0-.34-.04-.38-.18-.06-.23-.12-.67-.15-1.23,1.22,0,2.15-.08,3.48-.29q-.08-.22-.27-.78c-.13-.36-.25-.66-.42-.98.65-.13,1.23-.21,1.77-.21.13,0,.21.09.21.24v.21c0,.27.06.63.21,1.21,1.12-.25,2.08-.57,2.85-.9.12-.04.15-.06.2-.06.07,0,.12.08.25.39.13.34.27.73.27.81s-.03.1-.12.15c-.88.38-1.29.51-3.03.94.21.53.27.66.52,1.2.83-.22,1.23-.36,1.53-.51l1.41-.71s.04-.03.04-.03c.01,0,.04.01.06.01.06,0,.12.09.25.38.18.36.33.77.33.86q0,.1-.31.27c-.83.45-1.47.71-2.55,1,.6.89,1.46,1.85,1.96,2.21.51.36.52.39.52.54,0,.13-.15.45-.43.95-.25.43-.38.55-.54.55-.09,0-.11,0-.33-.17-.76-.58-2.31-.99-3.79-.99-1.29,0-2.1.45-2.1,1.2,0,.46.36.84,1,1.08.58.21,1.88.34,3.27.34.33,0,.62-.01,1.2-.04-.27.39-.41.66-.58,1.29-.09.32-.2.38-.66.38-1.6,0-3.03-.18-3.99-.52-1.28-.45-1.95-1.29-1.95-2.42,0-1.61,1.32-2.58,3.51-2.58,1.35,0,2.21.15,3.15.57-.84-.79-1.29-1.33-1.72-2.04-.72.15-1.08.21-1.56.29-.86.12-2.42.24-3.04.24-.48,0-.5-.01-.63-1.42.33.02.58.02.73.02.96,0,2.79-.2,3.79-.41-.18-.38-.38-.81-.54-1.25Z"/>
        <path d="M51.25,262.97c2.12,0,3.62,1.44,3.62,3.48,0,1.39-.74,2.66-1.96,3.39-.86.51-1.91.77-3.09.77-1.91,0-3.02-.77-3.02-2.07,0-1.18.99-2.02,2.4-2.02,1.27,0,2.19.64,2.8,1.96.76-.56,1.08-1.14,1.08-1.95,0-1.29-.92-2.13-2.36-2.13s-3.04.73-4.35,2.04c-.24.24-.46.5-.73.84-.11.15-.18.21-.27.21-.27,0-1.33-1.05-1.33-1.32,0-.13.06-.21.39-.45.34-.27.84-.7,1.47-1.3,1.46-1.38,2.52-2.54,4.09-4.46-1.88.24-3.13.45-3.6.62-.08.02-.12.03-.17.03-.12,0-.2-.08-.29-.3-.18-.45-.27-.95-.32-1.61.41.06.69.08,1.02.08.72,0,1.93-.1,3.51-.29.55-.06.73-.1,1.16-.27.13-.06.21-.08.3-.08.21,0,.42.18.81.78.29.39.38.58.38.71,0,.19-.04.25-.38.46-.27.17-.43.3-.78.63-.75.72-.76.72-1.69,1.67-.66.67-.74.75-1.33,1.35.97-.54,1.74-.76,2.64-.76ZM49.82,268.16c-.23-.15-.48-.22-.77-.22-.46,0-.76.22-.76.58,0,.43.46.71,1.18.71.33,0,.62-.03.99-.14-.18-.5-.33-.72-.64-.93Z"/>
        <path d="M62.1,262.72c-.19-.66-.25-1.07-.43-2.91-.06-.72-.12-1.08-.27-1.59.91.01,1.5.06,1.9.17.23.06.33.17.33.33,0,.06-.01.13-.04.25-.1.36-.15.63-.15,1.02,0,.74.15,1.94.32,2.46.09.29.18.39.34.39.36,0,1.68-.69,2.4-1.24.19-.15.22-.17.3-.17.13,0,.27.1.5.39.38.51.67,1.07.67,1.28,0,.17-.11.27-.36.34-.93.25-2.46.85-3.49,1.35-1.83.9-2.66,1.73-2.66,2.66s.76,1.29,2.7,1.29c1.12,0,2.14-.11,3.52-.33.06-.02.17-.03.2-.03.12,0,.19.06.25.18.04.15.15,1.07.15,1.43,0,.21-.06.28-.26.34-.33.08-2.14.18-3.28.18-1.92,0-3.2-.25-3.99-.79-.67-.46-1.04-1.2-1.04-2.1,0-.69.2-1.31.6-1.91.52-.78,1.09-1.27,2.35-2.02-.31-.29-.43-.5-.57-.96Z"/>
        <path d="M72.41,267.14c.27-.24.34-.3.45-.3.19,0,1.09.66,1.75,1.29.75.69,1.59,1.7,1.59,1.91,0,.13-.03.17-.46.55-.57.53-.69.62-.79.62-.09,0-.18-.06-.25-.21-.53-.93-1.73-2.16-2.79-2.85-.12-.09-.18-.15-.18-.24,0-.11.03-.15.69-.76Z"/>
        <path d="M88.83,259.22c0-.66-.03-1.05-.09-1.5h1.69c-.06.46-.07.83-.07,1.5v10.02c0,.72.03,1.29.09,1.77h-1.71c.06-.48.09-.93.09-1.78v-2.96c-.25.18-1.07.72-1.58,1.04-.19.12-.39.25-.5.33l-.6-1.65c.55-.17,1.65-.75,2.67-1.44v-5.32ZM87.66,259.67c.43,1.26.69,2.13.95,3.3l-1.32.54c-.25-1.35-.48-2.15-.93-3.29l1.3-.55ZM99.36,258.98q-.12.03-.4.11c-2.18.58-4.75.96-7.73,1.12-.1-.54-.25-.96-.49-1.44,3.19-.01,6.42-.51,7.53-1.14l1.09,1.35ZM98.21,264.53c.55,0,1.02-.03,1.45-.08v1.52c-.43-.05-.93-.08-1.45-.08h-.21v3.57c0,.99-.53,1.35-2,1.35-.54,0-.88-.02-1.63-.06-.08-.71-.15-.99-.36-1.53.78.13,1.38.19,1.88.19s.62-.09.62-.38v-3.15h-4.19c-.6,0-1,.01-1.42.08v-1.52c.42.06.77.08,1.42.08h4.19c-.02-.46-.03-.69-.08-.96h.84l-1.08-.42c.79-1.02,1.28-1.95,1.72-3.29l1.49.56c-.69,1.47-1.17,2.32-1.77,3.15h.43c-.04.3-.06.42-.06.96h.21ZM92.08,263.74c-.38-1.14-.62-1.68-1.14-2.64l1.3-.5c.45.81.78,1.51,1.17,2.58l-1.33.55ZM93.69,269.2c-.61-1.05-1-1.56-1.81-2.38l1.18-.79c.86.82,1.35,1.42,1.92,2.28l-1.29.9ZM94.48,263.35c-.3-1.17-.49-1.74-.94-2.69l1.33-.45c.42.84.69,1.56,1,2.68l-1.4.45Z"/>
        <path d="M102.76,265.18c-.69,0-1.15.03-1.69.09v-1.63c.48.07.87.09,1.68.09h1.25c-.33-.93-.6-1.53-1.11-2.38l1.35-.62c.49.83.66,1.17,1.2,2.49l-1.14.51h2.31v-3.12h-3.25c-.69,0-1.11.01-1.6.08v-1.61c.51.06.95.09,1.68.09h3.18v-.4c0-.45-.01-.72-.07-1.11h1.74c-.06.38-.08.63-.08,1.12v.39h3.42c.84,0,1.31-.03,1.71-.09v1.61c-.43-.06-.85-.08-1.6-.08h-3.53v3.12h.99c.65-1.02,1.05-1.88,1.4-2.9l1.51.5c-.38.88-.67,1.47-1.25,2.4h1.5c.87,0,1.28-.02,1.67-.09v1.63c-.48-.06-1-.09-1.74-.09h-3.17c1.25,1.68,2.82,2.85,5.17,3.81-.43.52-.64.87-.97,1.51-1.42-.74-2.29-1.3-3.25-2.17-.78-.71-1.27-1.28-1.91-2.22.03.73.04,1.04.04,1.37v2.04c0,.54.03.99.11,1.47h-1.8c.08-.48.1-.87.1-1.47v-2.02c0-.46.02-.76.04-1.35-.66,1.08-1.35,1.86-2.38,2.71-.79.66-1.54,1.15-2.44,1.63-.34-.65-.54-.95-.98-1.46,1.32-.58,2.43-1.32,3.53-2.33.46-.42.76-.76,1.32-1.53h-2.92Z"/>
        <path d="M121.25,267.32c-.72,1.25-1.71,1.93-2.73,1.93-1.56,0-2.67-1.53-2.67-3.66,0-2.37,1.2-4.41,3.25-5.49,1-.54,2.08-.78,3.51-.78,3.14,0,5.46,2.22,5.46,5.19,0,2.62-1.29,4.51-3.78,5.58-.5.21-.89.33-1.08.33-.18,0-.25-.06-.45-.34-.25-.39-.54-.67-.95-.95,3.09-.79,4.49-2.25,4.49-4.68,0-1.25-.53-2.29-1.46-2.96-.53-.36-.95-.51-1.77-.64-.42,3.17-.92,4.89-1.83,6.46ZM119.08,262.01c-1,.88-1.58,2.14-1.58,3.55,0,1.16.38,1.83,1,1.83.75,0,1.52-1.04,2.08-2.82.36-1.12.54-1.98.77-3.64-1.07.22-1.59.48-2.28,1.08Z"/>
        <path d="M133.2,266.72c-.67,0-1.2.01-1.56.04.04-.42.08-.89.08-1.53v-5.25c0-.78-.03-1.42-.08-1.79.42.04.87.06,1.52.06h6.64c.63,0,1.09-.02,1.51-.06-.04.32-.08.98-.08,1.79v5.25c0,.72.02,1.11.08,1.53-.38-.03-.96-.04-1.53-.04h-1.24v2.22c0,.4.12.45,1.29.45,1.08,0,1.36-.06,1.53-.3.15-.21.23-.78.25-1.84.6.32.96.46,1.5.6-.15,1.61-.29,2.15-.66,2.49-.4.36-1.02.48-2.62.48-2.42,0-2.85-.2-2.85-1.28v-2.82h-1.29c-.17,1.09-.63,1.99-1.36,2.67-.92.84-2,1.36-3.65,1.74-.24-.6-.42-.9-.84-1.42,1.37-.24,2.12-.5,2.82-.96.76-.5,1.18-1.12,1.36-2.02h-.82ZM133.23,260.65h6.5v-.95h-6.5v.95ZM133.23,262.94h6.5v-.95h-6.5v.95ZM133.23,265.33h6.5v-1.04h-6.5v1.04Z"/>
        <path d="M144.39,263.08c.36.06.6.08,1.16.08h1.18c.44,0,.77-.01,1.1-.06-.04.45-.06.78-.06,1.57v3c.21.48.34.62.83.93.67.44,1.44.54,3.9.54,2.08,0,3.95-.1,5.36-.31-.24.69-.33,1.05-.44,1.71-1.27.06-3.31.1-4.35.1-2.38,0-3.54-.09-4.29-.33-.75-.24-1.26-.63-1.83-1.36-.46.46-.81.76-1.48,1.27-.24.2-.3.24-.42.35q-.15.12-.23.18l-.7-1.65c.66-.27,1.54-.87,2.14-1.41v-3.09h-.88c-.39,0-.6.01-.98.07v-1.59ZM145.75,257.89c1.05.9,1.83,1.71,2.52,2.62l-1.18,1.17c-.9-1.21-1.37-1.73-2.47-2.71l1.14-1.08ZM150.4,259.66c-.49,0-.84.02-1.2.06v-1.54c.31.06.64.07,1.2.07h2.06c.46,0,.76-.01,1.06-.06-.03.33-.04.53-.04.78,0,1.39.33,2.86.95,4.17.75,1.57,1.6,2.58,3.18,3.7-.41.5-.66.89-.96,1.52-1.05-.79-1.63-1.37-2.29-2.25-.72-.98-1.12-1.84-1.6-3.42-.38,1.53-.78,2.43-1.58,3.52-.54.74-.99,1.19-1.95,1.98-.39-.53-.6-.77-1.12-1.26.87-.63,1.3-1.07,1.89-1.85.77-1.03,1.31-2.2,1.61-3.43.13-.58.2-1.02.27-2h-1.46Z"/>
        <path d="M164.62,265.07c-.54,1-1.16,2-1.71,2.8-.62.88-1.32,1.33-2.05,1.33-1.08,0-1.82-.88-1.82-2.21,0-1.14.57-2.11,1.63-2.74.71-.41,1.77-.69,2.62-.69h.15c.76-1.56.96-1.98,1.47-3.15-1.38.06-2.22.18-2.83.39-.03.01-.08.01-.11.01-.25,0-.49-.78-.57-1.9.33.06.64.09,1.05.09.51,0,1.38-.04,2.29-.13q.85-.08,1.05-.2c.12-.06.2-.09.27-.09.19,0,.49.24.82.64.24.32.39.57.39.67,0,.12-.06.23-.24.41-.22.24-.92,1.53-1.79,3.36,1.42.28,1.96.45,3,.9.08-.52.13-1.14.13-1.56,0-.2-.01-.42-.04-.67.65.09,1.19.19,1.62.3.27.08.36.15.36.27,0,.11-.03.21-.12.39-.13.28-.18.48-.29,1.09-.04.31-.09.52-.18.96.76.48,1.42.94,1.72,1.23.08.08.12.15.12.23,0,.42-.65,1.39-.92,1.39-.08,0-.15-.04-.27-.13-.4-.36-.9-.78-1.2-1-.51,1.08-1.04,1.77-1.86,2.47-.71.58-1.68,1.12-2.04,1.12-.12,0-.25-.06-.36-.15-.04-.04-.04-.06-.24-.33-.23-.35-.42-.51-.78-.68,1.2-.42,1.79-.72,2.43-1.27.65-.57,1.14-1.26,1.47-2.07-1.02-.55-2.03-.9-3.21-1.09ZM160.58,266.87c0,.36.13.58.38.58.33,0,.92-.73,1.86-2.35-1.42.15-2.23.79-2.23,1.77Z"/>
        <path d="M179.68,266.32c-1.48.87-1.91,1.3-1.91,1.96,0,.27.11.45.33.58.33.2,1.07.3,2.01.3.81,0,1.93-.08,2.7-.18.32-.04.5-.09,1.09-.24h.08c.11,0,.18.08.23.18.09.32.15.77.15,1.31,0,.22-.08.31-.27.36-.36.08-2.03.17-3.12.17-1.83,0-2.8-.12-3.52-.42-.87-.36-1.31-1.04-1.31-1.98,0-.87.41-1.63,1.21-2.28.65-.51.79-.62,2.17-1.39-.12-.5-.34-.71-.81-.71-.62,0-1.26.24-1.96.71-.43.3-.95.72-1.26,1.03-.45.47-.5.5-.62.5-.15,0-.46-.34-.78-.87-.15-.25-.24-.45-.24-.55,0-.13.03-.17.39-.39,1.23-.83,2.25-1.88,2.87-2.96-1.07.08-1.62.09-2.21.09-.23,0-.27-.04-.34-.3-.05-.2-.12-.99-.14-1.39.51.07.81.09,1.53.09.58,0,1.23-.02,1.91-.04.31-.86.42-1.4.43-2.1,1.33.23,1.95.45,1.95.71,0,.06-.02.09-.06.18-.1.19-.22.43-.42.9q-.03.06-.04.11c.86-.12,1.61-.27,2.13-.39.33-.09.41-.1.48-.1.12,0,.18.04.21.13.06.27.15.96.15,1.17,0,.17-.06.24-.25.29-.48.13-2.13.39-3.51.52-.45.83-.76,1.31-1.23,1.82.67-.32,1.18-.43,1.78-.43.68,0,1.12.39,1.43,1.23,1.48-.81,2.28-1.25,2.37-1.3.69-.41.98-.63,1.31-1,.61.63,1.27,1.57,1.27,1.83,0,.09-.06.15-.25.2-.74.2-2.1.78-4.38,1.89.01.27.04.96.04,1.44v.72c0,.18-.03.27-.1.32-.08.08-.48.12-.93.12-.51,0-.6-.04-.6-.29v-.06c.03-.43.04-1,.04-1.36v-.08Z"/>
        <path d="M199.15,264.68h.23c.6,0,.96-.02,1.41-.08v1.54c-.43-.06-.82-.09-1.41-.09h-.23v3.46c0,1.02-.51,1.36-2.04,1.36-.33,0-.72-.01-1.35-.04-.08-.63-.2-1.03-.42-1.54.66.12,1.17.17,1.65.17s.6-.07.6-.39v-3.01h-3.63c-.71,0-1.11.01-1.62.08v-1.28c-.51.24-.93.42-1.25.54v4.09c0,1.14-.39,1.42-1.92,1.42-.27,0-.48-.01-.96-.04-.04-.6-.12-.92-.31-1.47.51.06.88.09,1.21.09.36,0,.46-.09.46-.45v-3.09c-.65.23-.66.23-1,.34-.17.05-.41.14-.57.21l-.22-1.59c.34-.04.79-.15,1.8-.48v-2.66h-.66c-.39,0-.67.02-1.04.06v-1.53c.36.06.63.08,1.07.08h.63v-1.19c0-.67-.02-.99-.09-1.47h1.68c-.06.45-.08.79-.08,1.46v1.2h.45c.38,0,.54-.01.81-.04v1.48c-.27-.03-.48-.04-.79-.04h-.46v2.15c.46-.17.6-.21,1.19-.46h-.06v-1.49c.36.04.97.08,1.61.08h1.75v-1.42h-1.32c-.67,0-1.02.01-1.46.06v-1.51c.41.06.81.09,1.46.09h1.32v-.43c0-.42-.03-.72-.09-1.08h1.7c-.06.36-.08.61-.08,1.08v.43h1.68c.66,0,1.07-.03,1.47-.09v1.51c-.42-.04-.78-.06-1.46-.06h-1.7v1.42h2.08c.65,0,1.21-.03,1.62-.09v1.51c-.38-.04-.92-.08-1.67-.08v1.28ZM193.84,263.41c-.45,0-1.17.03-1.49.04v1.16c.46.06.89.08,1.61.08h3.63v-1.28h-3.75ZM194.22,266.26c.72.77,1.08,1.23,1.7,2.18l-1.25.94c-.6-1.04-.83-1.35-1.68-2.29l1.23-.83Z"/>
        <path d="M205.79,263.24c1.89-.52,3.25-.76,4.27-.76,2.12,0,3.42,1.16,3.42,3.03,0,1.12-.46,2.12-1.35,2.87-.58.5-1.46.92-2.61,1.26-.64.18-1.33.32-1.63.32-.18,0-.27-.04-.33-.2-.21-.52-.45-.9-.76-1.21,3.3-.34,4.98-1.39,4.98-3.1,0-.87-.72-1.54-1.65-1.54-1.62,0-3.39.54-5.25,1.57-.15.08-.24.12-.3.12-.25,0-.67-.75-1.02-1.83.74-.1.99-.17,2.24-.51Z"/>
        <path d="M219.26,261.82c-.39.09-.53.13-1.07.33-.19.08-.3.1-.39.1-.33,0-.63-.61-.9-1.9.96-.04,1.31-.09,2.97-.34,1.8-.27,4.08-.62,5.28-.77,1.35-.18,2.43-.36,3-.48.1-.03.15-.03.22-.03.2,0,.27.09.41.46.12.32.21.76.21.97,0,.18-.06.24-.27.24-.32,0-.6.03-.89.08-2.53.42-4.56,2.64-4.56,4.98,0,1.75,1.38,2.91,3.72,3.12.21.01.29.09.29.27,0,.38-.15,1.09-.29,1.42-.08.17-.19.24-.39.24s-.65-.09-1.11-.22c-2.55-.75-3.88-2.37-3.88-4.67,0-1.25.41-2.4,1.19-3.39.42-.54.78-.84,1.63-1.42-1.96.33-4.04.72-5.17,1Z"/>
        <path d="M232.91,259.15c0-.69-.01-1-.09-1.47h1.73c-.08.45-.09.79-.09,1.46v1.18h.79c.32,0,.5-.01.72-.04v1.49c-.25-.03-.48-.04-.75-.04h-.77v2.19c.44-.15.65-.22,1.26-.46v1.41q-.84.33-1.26.48v4.18c0,.63-.22,1.05-.64,1.19-.3.1-.86.17-1.39.17-.26,0-.45-.02-.87-.04-.06-.63-.12-.92-.35-1.5.54.08.93.1,1.28.1s.43-.08.43-.43v-3.13q-1.32.42-1.59.54l-.31-1.61c.62-.08.71-.09,1.9-.42v-2.65h-.73c-.36,0-.62.01-1.02.06v-1.53c.33.06.6.08,1.04.08h.72v-1.17ZM243.37,264.61q-.1.13-.38.58c-.75,1.25-1.3,1.98-2.1,2.75,1.11.71,2.07,1.08,3.55,1.36-.39.48-.67.99-.9,1.56-1.77-.54-2.82-1.04-3.93-1.86-1.17.86-2.38,1.41-4.05,1.89-.31-.64-.51-.97-.88-1.44,1.5-.32,2.45-.71,3.76-1.53-.84-.9-1.23-1.5-1.8-2.8-.27.01-.45.03-.69.06v-1.52c.31.06.66.08,1.15.08h4.54c.39,0,.66-.01.87-.06l.84.93ZM244.32,260.57c-.17,2.16-.33,2.34-2.22,2.34-.69,0-1.04-.03-1.26-.1-.44-.15-.57-.41-.57-1.08v-2.19h-1.74c-.06,2.12-.62,3.24-2.05,4.19-.34-.45-.63-.71-1.16-1.08,1.31-.72,1.73-1.67,1.73-3.92,0-.22-.02-.41-.04-.72.27.03.61.04.94.04h2.97c.32,0,.63-.02.9-.04-.03.18-.04.51-.04.92v2.2c0,.23.01.29.12.32.06.03.24.04.39.04.21,0,.42-.03.48-.08.13-.1.18-.39.18-1.17v-.17c0-.1,0-.27-.02-.48.83.45.96.51,1.41.66v.31ZM238.25,265.12c.38.74.83,1.33,1.44,1.91.69-.58,1.04-.99,1.6-1.91h-3.04Z"/>
        <path d="M19.95,286.12c-.42.45-.79.78-1.37,1.21-.33-.45-.58-.69-.97-.96,1.14-.75,2-1.72,2.31-2.58l1.51.27q-.1.15-.25.41c-.07.13-.18.29-.31.46h4.23c.62,0,.95-.01,1.2-.06l.85.68c-.12.15-.15.19-.25.36-.54.78-.73,1.04-1.33,1.62-.43-.24-.81-.39-1.33-.55.46-.32.63-.46.96-.86h-2.22c.45,1.42,1.95,2.21,4.54,2.34-.3.51-.43.83-.58,1.41-.6-.1-.83-.15-1.32-.27-.01.42-.01.81-.01,1.23v2.67q.01,1.28.06,1.53c-.31-.03-.91-.04-1.53-.04h-.67c1.15.54,2.13.78,3.99.96-.36.42-.52.67-.9,1.32-2.13-.36-3.17-.72-4.7-1.65l.84-.63h-3.94l.88.63c-1.5.92-2.46,1.26-4.56,1.65-.33-.6-.45-.76-.88-1.27,1.9-.23,2.86-.48,3.84-1h-.58c-.68,0-1.19.01-1.53.04.03-.27.06-.86.06-1.44v-2.85c0-.66-.01-1.07-.06-1.47.29.01.83.03,1.47.03h.75c-.17-.36-.33-.6-.6-.93-.77.36-.98.45-2.08.9-.21.09-.36.15-.62.29l-.57-1.49c.96-.18,2.24-.64,3.53-1.29l.43,1.26-.51.25c1-.13,1.63-.28,2.17-.52.9-.41,1.33-.87,1.53-1.65h-1.46ZM16.89,286.58c-.83-.66-1.33-.97-2.28-1.41l.93-1.1c1.07.5,1.49.74,2.34,1.32l-.99,1.18ZM17.46,290.89h6.63v-.54h-6.63v.54ZM17.46,292.39h6.63v-.57h-6.63v.57ZM17.46,293.86h6.63v-.54h-6.63v.54ZM24.18,289.3h.5c-1.2-.43-1.89-.99-2.46-1.9-.38.62-.71.93-1.33,1.3-.45.27-.88.44-1.62.6h4.92Z"/>
        <path d="M30.08,289.85c-.12.03-.18.06-.27.1-.08.04-.12.06-.18.06-.33,0-.57-.57-.75-1.68h.29c.63,0,2.24-.19,3.2-.39.31-1.3.48-2.31.48-3.01,0-.06,0-.15-.01-.25.64.06,1.26.19,1.68.38.24.09.36.21.36.36,0,.08-.02.14-.09.26q-.23.39-.69,2.04c.36-.04.76-.07,1.02-.07.62,0,1.1.12,1.44.36.6.44.9,1.32.9,2.69,0,2.23-.41,4.15-1.1,5.1-.48.66-1.11.97-2,.97-.54,0-1.05-.08-1.2-.17q-.12-.08-.17-.63c-.04-.41-.13-.76-.32-1.18.78.27.98.31,1.46.31.72,0,1.02-.34,1.35-1.56.23-.79.35-1.82.35-2.92,0-1.17-.29-1.59-1.08-1.59-.27,0-.71.04-1.05.09-.04.18-.06.19-.12.39-.42,1.54-1.19,3.55-1.95,5.17-.79,1.63-.99,1.96-1.18,1.96-.12,0-.53-.21-.96-.5-.35-.21-.44-.3-.44-.42q0-.07.62-1.05c.83-1.27,1.91-3.76,2.28-5.25-1.11.25-1.73.39-1.86.44ZM39.5,286.78c-.24.18-.41.25-.48.25-.04,0-.09-.03-.13-.1-.32-.51-.84-1.1-1.28-1.47-.03-.03-.04-.06-.04-.09,0-.06.11-.17.36-.36.25-.18.33-.23.43-.23.24,0,1.56,1.33,1.56,1.58,0,.09-.12.2-.42.42ZM37.91,288.37c0-.1.13-.24.57-.58.3-.22.45-.31.57-.31.2,0,.87.72,1.5,1.6.52.75,1.09,1.82,1.09,2.07,0,.15-.04.19-.52.58-.3.24-.65.43-.77.43-.1,0-.15-.04-.25-.3-.29-.72-.54-1.21-.95-1.86-.4-.64-.43-.67-1.15-1.45-.06-.08-.09-.12-.09-.18ZM39.87,283.76c.25,0,1.53,1.27,1.53,1.53,0,.07-.09.16-.39.38-.27.21-.41.28-.46.28q-.08,0-.38-.42c-.25-.34-.74-.85-1-1.08-.04-.04-.08-.07-.08-.12,0-.12.62-.57.78-.57Z"/>
        <path d="M45.74,288.07c-.39.09-.53.13-1.07.33-.19.08-.3.1-.39.1-.33,0-.63-.61-.9-1.9.96-.04,1.31-.09,2.97-.34,1.8-.27,4.08-.62,5.28-.77,1.35-.18,2.43-.36,3-.48.1-.03.15-.03.22-.03.2,0,.27.09.41.46.12.32.21.76.21.97,0,.18-.06.24-.27.24-.32,0-.6.03-.89.08-2.53.42-4.56,2.64-4.56,4.98,0,1.75,1.38,2.91,3.72,3.12.21.01.29.09.29.27,0,.38-.15,1.09-.29,1.42-.08.17-.19.24-.39.24s-.65-.09-1.11-.22c-2.55-.75-3.88-2.37-3.88-4.67,0-1.25.41-2.4,1.19-3.39.42-.54.78-.84,1.63-1.42-1.96.33-4.04.72-5.17,1ZM53.42,288.46c.21,0,1.48,1.43,1.48,1.65,0,.08-.09.17-.36.41-.29.24-.3.24-.42.28q-.08.03-.11.03c-.06,0-.08-.01-.34-.43-.24-.38-.5-.71-.97-1.2-.03-.03-.08-.11-.08-.12.03-.08.04-.12.06-.12.04-.06.3-.27.36-.31.15-.08.24-.14.25-.15.01-.03.04-.03.04-.03h.08ZM55.98,289.49c-.22.17-.36.25-.43.25-.06,0-.09-.03-.17-.15-.45-.67-.67-.96-1.16-1.42-.03-.05-.06-.09-.06-.12,0-.08.09-.17.3-.32.21-.15.39-.24.46-.24.11,0,.29.14.6.45.44.45.84,1,.84,1.14,0,.09-.11.2-.39.41Z"/>
        <path d="M63.34,287.48c-1.29.22-2.62.38-3.43.38-.24,0-.34-.04-.38-.18-.06-.23-.12-.67-.15-1.23,1.22,0,2.15-.08,3.48-.29q-.08-.22-.27-.78c-.13-.36-.25-.66-.42-.98.65-.13,1.23-.21,1.77-.21.13,0,.21.09.21.24v.21c0,.27.06.63.21,1.21,1.12-.25,2.08-.57,2.85-.9.12-.04.15-.06.2-.06.07,0,.12.08.25.39.13.34.27.73.27.81s-.03.1-.12.15c-.88.38-1.29.51-3.03.94.21.53.27.66.52,1.2.83-.22,1.23-.36,1.53-.51l1.41-.71s.04-.03.04-.03c.01,0,.04.01.06.01.06,0,.12.09.25.38.18.36.33.77.33.86q0,.1-.31.27c-.83.45-1.47.71-2.55,1,.6.89,1.46,1.85,1.96,2.21.51.36.52.39.52.54,0,.13-.15.45-.43.95-.25.43-.38.55-.54.55-.09,0-.11,0-.33-.17-.76-.58-2.31-.99-3.79-.99-1.29,0-2.1.45-2.1,1.2,0,.46.36.84,1,1.08.58.21,1.88.34,3.27.34.33,0,.62-.01,1.2-.04-.27.39-.41.66-.58,1.29-.09.32-.2.38-.66.38-1.6,0-3.03-.18-3.99-.52-1.28-.45-1.95-1.29-1.95-2.42,0-1.61,1.32-2.58,3.51-2.58,1.35,0,2.21.15,3.15.57-.84-.79-1.29-1.33-1.72-2.04-.72.15-1.08.21-1.56.29-.86.12-2.42.24-3.04.24-.48,0-.5-.01-.63-1.42.33.02.58.02.73.02.96,0,2.79-.2,3.79-.41-.18-.38-.38-.81-.54-1.25Z"/>
        <path d="M80.17,289.22c2.12,0,3.62,1.44,3.62,3.48,0,1.39-.74,2.66-1.96,3.39-.86.51-1.91.77-3.09.77-1.91,0-3.02-.77-3.02-2.07,0-1.18.99-2.02,2.4-2.02,1.27,0,2.19.64,2.8,1.96.76-.56,1.08-1.14,1.08-1.95,0-1.29-.92-2.13-2.36-2.13s-3.04.73-4.35,2.04c-.24.24-.46.5-.73.84-.11.15-.18.21-.27.21-.27,0-1.33-1.05-1.33-1.32,0-.13.06-.21.39-.45.34-.27.84-.7,1.47-1.3,1.46-1.38,2.52-2.54,4.09-4.46-1.88.24-3.13.45-3.6.62-.08.02-.12.03-.17.03-.12,0-.2-.08-.29-.3-.18-.45-.27-.95-.32-1.61.41.06.69.08,1.02.08.72,0,1.93-.1,3.51-.29.55-.06.73-.1,1.16-.27.13-.06.21-.08.3-.08.21,0,.42.18.81.78.29.39.38.58.38.71,0,.19-.04.25-.38.46-.27.17-.43.3-.78.63-.75.72-.76.72-1.69,1.67-.66.67-.74.75-1.33,1.35.97-.54,1.74-.76,2.64-.76ZM78.74,294.41c-.23-.15-.48-.22-.77-.22-.46,0-.76.22-.76.58,0,.43.46.71,1.18.71.33,0,.62-.03.99-.14-.18-.5-.33-.72-.64-.93Z"/>
        <path d="M92.33,293.57c-.72,1.25-1.71,1.93-2.73,1.93-1.56,0-2.67-1.53-2.67-3.66,0-2.37,1.2-4.41,3.25-5.49,1-.54,2.08-.78,3.51-.78,3.14,0,5.46,2.22,5.46,5.19,0,2.62-1.29,4.51-3.78,5.58-.5.21-.89.33-1.08.33-.18,0-.25-.06-.45-.34-.25-.39-.54-.67-.95-.95,3.09-.79,4.49-2.25,4.49-4.68,0-1.25-.53-2.29-1.46-2.96-.53-.36-.95-.51-1.77-.64-.42,3.17-.92,4.89-1.83,6.46ZM90.17,288.26c-1,.88-1.58,2.14-1.58,3.55,0,1.16.38,1.83,1,1.83.75,0,1.52-1.04,2.08-2.82.36-1.12.54-1.98.77-3.64-1.07.22-1.59.48-2.28,1.08Z"/>
        <path d="M108.06,289.24c.03,1.12.06,1.71.21,3.21,1.26.41,1.86.66,2.75,1.14,1.18.67,1.79,1.12,1.79,1.33,0,.18-.2.53-.54,1.02-.23.33-.39.48-.51.48-.08,0-.14-.03-.24-.13-1.07-1.02-1.92-1.58-3.18-2.08-.03.92-.2,1.39-.63,1.84-.53.53-1.44.81-2.62.81-1.96,0-3.17-.87-3.17-2.29,0-1.52,1.32-2.48,3.38-2.48.5,0,.93.03,1.3.08-.15-2.46-.2-3.64-.21-5.85-.01-.87-.04-1.39-.13-2.1.69.01,1.38.09,1.79.19.24.08.33.15.33.32,0,.08-.01.12-.06.24-.17.39-.22.96-.25,2.62q.12,0,.58-.03c.72-.04,1.74-.23,2.88-.54.04-.01.08-.01.12-.01.09,0,.12.03.18.18.15.36.32,1.09.32,1.35,0,.12-.06.17-.2.21-1.16.27-2.77.5-3.66.5h-.21ZM105.12,293.56c-1.02,0-1.63.34-1.63.91,0,.53.51.8,1.46.8,1.15,0,1.66-.41,1.66-1.35v-.12c-.49-.18-.92-.24-1.48-.24Z"/>
        <path d="M123.18,295.69c0,.66-.52,1.18-1.18,1.18s-1.19-.53-1.19-1.18.53-1.19,1.19-1.19,1.18.53,1.18,1.19ZM122.66,293.47h-1.33l-.41-8.98h2.16l-.42,8.98Z"/>
      </g>
      <circle class="cls-9" cx="308.24" cy="298.33" r="30"/>
      <g>
        <path class="cls-1" d="M325.82,289.11c1.79.14,1.22,2.12.34,3.27-.18.24-.54.27-.77.08-1.56-1.33-1.01-3.46.43-3.34Z"/>
        <path class="cls-1" d="M325.72,289.9c-.31,0-.56-.25-.56-.56v-3.55l-.89-1.24c-.18-.25-.12-.61.13-.79.25-.18.61-.12.79.13l1,1.39c.07.1.11.21.11.33v3.73c0,.31-.25.56-.56.56Z"/>
        <path class="cls-6" d="M310.96,315.5c1.34-.08,2.63-.26,3.88-.53,9.79-2.16,10.15-7.15,10.02-11.31s-1.03-19.07-13.04-19.88c-12.01-.81-15.11,8.74-17.43,11.84s-10.78,12.79,5.09,18.2c1.55.53,3.09.93,4.6,1.21"/>
        <polygon class="cls-5" points="322.89 280.23 316.8 279.67 319.51 285.14 325.71 285.8 322.89 280.23"/>
        <rect class="cls-5" x="316.22" y="283.32" width="6.62" height="2.88" transform="translate(246.4 -136.95) rotate(38.45)"/>
        <path class="cls-13" d="M290.74,301.43c5.03.33,7.93,5.64,6.07,11.34-4.9-2.67-7.64-5.38-6.07-11.34Z"/>
        <path class="cls-13" d="M324.35,303.55c-5.8-.8-10.25,4.19-9.34,10.68,6.16-1.72,9.86-3.98,9.34-10.68Z"/>
        <ellipse class="cls-1" cx="302.72" cy="303.74" rx="1.82" ry="1.68" transform="translate(-44.41 555.52) rotate(-81.05)"/>
        <ellipse class="cls-1" cx="312.8" cy="304.78" rx="1.68" ry="1.82" transform="translate(-15 16.2) rotate(-2.9)"/>
        <path class="cls-1" d="M302.56,294.12c1.65-.67,3.13-.04,3.82,1.25.16.3-.14.56-.46.4-1.03-.52-2.05-.78-3.16-.99-.37-.07-.51-.53-.2-.66Z"/>
        <path class="cls-1" d="M315.64,296.63c-1.22-1.29-2.83-1.33-4-.45-.27.21-.11.57.26.56,1.16-.05,2.19.14,3.29.41.37.09.68-.27.45-.52Z"/>
        <path class="cls-1" d="M310.96,316.06c-.3,0-.55-.23-.56-.53-.02-.31.22-.58.53-.6,1.29-.08,2.57-.25,3.79-.52,9.84-2.17,9.68-7.33,9.58-10.74-.13-4.28-.81-7.98-2.03-11-2.08-5.2-5.61-8-10.49-8.33-9.65-.65-13.25,5.48-15.63,9.54-.48.82-.9,1.53-1.31,2.07-.11.15-.24.32-.38.51-1.66,2.17-4.75,6.2-3.58,10.07.84,2.78,3.8,5.06,8.79,6.76,1.5.51,3.02.91,4.52,1.19.31.06.51.35.45.66s-.35.51-.66.45c-1.55-.29-3.12-.71-4.67-1.23-5.35-1.82-8.55-4.35-9.5-7.5-1.34-4.42,2.11-8.92,3.77-11.08.14-.18.26-.35.38-.5.37-.49.77-1.18,1.24-1.97,2.37-4.04,6.34-10.8,16.68-10.1,5.35.36,9.2,3.4,11.46,9.03,1.26,3.14,1.97,6.98,2.11,11.39.14,4.6-.54,9.69-10.46,11.88-1.28.28-2.61.47-3.97.54-.01,0-.02,0-.03,0Z"/>
        <path class="cls-1" d="M301.8,303.09c-.06,0-.12-.02-.17-.06-.75-.59-1.13-1.2-1.42-2.25-.04-.15.05-.31.2-.35.15-.04.31.05.35.2.29,1.06.65,1.51,1.23,1.96.12.1.14.27.05.4-.06.07-.14.11-.22.11Z"/>
        <path class="cls-1" d="M301.61,303.68c-.79,0-1.64-.46-2.32-1.25-.1-.12-.09-.3.03-.4.12-.1.3-.09.4.03.62.73,1.39,1.12,2.05,1.05.15-.02.29.09.31.25.02.15-.09.29-.25.31-.07,0-.15.01-.22.01Z"/>
        <path class="cls-1" d="M313.98,304.27c-.14,0-.26-.1-.28-.24-.02-.15.09-.3.24-.32.66-.09,1.42-.66,1.85-1.39.08-.13.25-.18.39-.1.13.08.18.25.1.39-.52.88-1.43,1.54-2.26,1.66-.01,0-.03,0-.04,0Z"/>
        <path class="cls-1" d="M315.05,305.51c-.37,0-.75-.07-1.11-.24-.14-.06-.2-.23-.14-.37.06-.14.23-.2.37-.14.85.39,1.82.09,2.47-.24.14-.07.31-.01.38.13.07.14.01.31-.13.38-.5.25-1.16.48-1.85.48Z"/>
        <g>
          <path class="cls-3" d="M312.59,309.38c-.67-1.82-3.62-3.78-5.13-3.57s-4.67,2.04-5.66,1.99-1.67-.72-1.79,1.58,1.69,3.49,4.1,2.64c3.35,1.91,9.62.49,8.48-2.64Z"/>
          <path class="cls-3" d="M312.59,311.75c-.74,3.66-4.9,5.8-6.16,5.26s-2.84-1.41-1.46-4.59c2.49.53,6.87-.11,6.98-1.62s.63.95.63.95Z"/>
          <path class="cls-11" d="M306.2,312.74c-.72,1.34-.37,3.05,1.82,1.98s2.19-2.27,2.19-2.27c0,0,1.44-.72-.48,0s-3.53.29-3.53.29Z"/>
          <path class="cls-1" d="M307.7,313.45c-1.05,0-2.18-.32-3.35-.98-2.28.65-3.54.04-4.21-.59-.84-.8-1.15-2.08-.82-3.34.33-1.27.9-1.38,1.78-1.4.64-.01,1.62-.04,3.2-.87,3.5-1.84,5.55-.78,7.54,1.37.19.2.17.51-.03.7s-.51.17-.7-.03c-1.78-1.92-3.39-2.73-6.36-1.17-1.79.94-2.9.97-3.64.98-.68.02-.69.03-.85.66-.24.9-.02,1.84.55,2.38.71.68,1.9.78,3.44.3.13-.04.28-.02.4.05,1.91,1.13,4.66,1.8,6.84-1.37.13-.19.38-.27.59-.18,0,0,.71.29,1.35.43.27.06.43.32.37.59s-.32.44-.59.37c-.42-.09-.85-.23-1.14-.34-1.22,1.62-2.71,2.44-4.39,2.44Z"/>
          <path class="cls-1" d="M307.01,317.56c-.6,0-1.17-.14-1.69-.42-.84-.45-1.38-1.1-1.59-1.91-.43-1.61.6-3.27.64-3.34.14-.23.45-.3.68-.16.23.14.3.45.16.68,0,.01-.84,1.38-.52,2.57.15.55.51.97,1.11,1.29.85.46,1.91.39,2.98-.19,1.5-.82,3.12-2.78,3.33-5.32.02-.27.26-.47.53-.45.27.02.47.26.45.53-.21,2.56-1.72,4.96-3.84,6.11-.75.41-1.51.61-2.23.61Z"/>
        </g>
        <path class="cls-1" d="M321.26,288.96c-.12,0-.25-.04-.35-.12-.24-.19-.29-.55-.09-.79l2.24-2.84c.12-.15.31-.23.5-.21l1.19.13-2.21-4.36-4.77-.45.69,1.4c.09.19.07.42-.05.59l-1.8,2.39c-.19.25-.54.3-.79.11-.25-.19-.3-.54-.11-.79l1.59-2.11-.99-1.99c-.09-.18-.08-.4.04-.57.12-.17.31-.26.52-.24l6.09.57c.19.02.36.13.45.31l2.82,5.57c.09.18.08.41-.04.58-.12.17-.32.26-.52.24l-1.91-.2-2.04,2.59c-.11.14-.28.21-.44.21Z"/>
      </g>
      <g>
        <path class="cls-1" d="M325.81,74.38c1.81.14,1.23,2.13.34,3.29-.19.24-.54.27-.77.08-1.57-1.34-1.02-3.48.43-3.36Z"/>
        <path class="cls-1" d="M325.71,75.17c-.31,0-.57-.25-.57-.57v-3.57l-.9-1.25c-.18-.25-.12-.61.13-.79.25-.18.61-.12.79.13l1,1.4c.07.1.11.21.11.33v3.75c0,.31-.25.57-.57.57Z"/>
        <polygon class="cls-5" points="322.87 65.44 316.74 64.87 319.47 70.38 325.71 71.05 322.87 65.44"/>
        <rect class="cls-5" x="316.16" y="68.55" width="6.67" height="2.9" transform="translate(112.83 -183.51) rotate(38.45)"/>
        <path class="cls-1" d="M321.23,74.23c-.12,0-.25-.04-.35-.12-.25-.19-.29-.55-.09-.8l2.25-2.85c.12-.15.31-.23.51-.21l1.19.13-2.23-4.39-4.8-.45.7,1.41c.1.19.07.42-.06.59l-1.81,2.4c-.19.25-.54.3-.79.11-.25-.19-.3-.54-.11-.79l1.6-2.12-.99-2.01c-.09-.18-.08-.4.04-.57.12-.17.31-.27.52-.24l6.12.57c.19.02.37.13.45.31l2.84,5.6c.09.19.08.41-.04.58-.12.17-.32.26-.53.24l-1.92-.2-2.06,2.61c-.11.14-.28.22-.45.22Z"/>
        <path class="cls-6" d="M317.19,97.19l4.18-1.62,2.02-5.47-.29-8.15-2.24-7.54-3.74-4.67-5.59-1.9-5.52-.3-7.14,3.84-3.23,5.74-3.98,4.71-1.8,4.98,1.36,4.52,9.81,4.92c2.84,1.15,12.97,1.45,16.17.94Z"/>
        <path class="cls-13" d="M290.28,83.53c4.88.32,7.71,5.48,5.9,11.02-4.77-2.59-7.43-5.23-5.9-11.02Z"/>
        <path class="cls-13" d="M323.46,87.29c-5.64-.78-9.96,4.07-9.08,10.38,5.99-1.67,9.58-3.87,9.08-10.38Z"/>
        <path class="cls-1" d="M301.77,76.43c1.6-.65,3.04-.03,3.72,1.21.16.29-.14.55-.45.39-1.01-.51-1.99-.76-3.07-.96-.36-.07-.49-.51-.19-.64Z"/>
        <path class="cls-1" d="M314.47,78.87c-1.18-1.26-2.75-1.29-3.88-.44-.27.2-.1.55.25.54,1.13-.04,2.13.14,3.2.4.36.09.66-.26.44-.5Z"/>
        <path class="cls-1" d="M310.47,87.91c-.14,0-.27-.05-.39-.14-.25-.21-.29-.59-.07-.85.68-.81,1.51-1.23,2.34-1.19.75.04,1.43.46,1.93,1.18.19.27.12.65-.15.84-.27.19-.65.12-.84-.15-.2-.29-.53-.64-1-.66-.44-.02-.92.25-1.36.77-.12.14-.29.21-.46.21Z"/>
        <path class="cls-1" d="M303.02,86.64c-.19,0-.37-.09-.49-.25-.37-.52-.72-.8-1-.81,0,0,0,0-.02,0-.33,0-.68.34-.92.64-.21.26-.59.29-.85.08-.26-.21-.29-.59-.08-.85.6-.74,1.23-1.1,1.9-1.08.7.02,1.33.45,1.94,1.31.19.27.13.65-.14.84-.11.08-.23.11-.35.11Z"/>
        <path class="cls-1" d="M313.25,98.23c-.31,0-.56-.25-.57-.56,0-.31.24-.57.56-.58,3.72-.08,6.39-.95,7.93-2.58,1.98-2.1,1.87-5.19,1.79-7.45l-.02-.46c-.13-4.27-1.4-18.26-12.21-18.99-9.16-.62-12.59,5.21-14.85,9.07-.46.78-.86,1.46-1.24,1.98-.11.15-.23.31-.37.48-1.58,2.06-4.51,5.88-3.4,9.55.8,2.64,3.61,4.79,8.34,6.41,1.43.49,2.87.87,4.3,1.14.31.06.51.35.45.66s-.36.51-.66.45c-1.48-.28-2.97-.67-4.45-1.18-5.1-1.74-8.15-4.15-9.07-7.16-1.28-4.23,2.01-8.51,3.59-10.57.13-.17.25-.33.36-.47.35-.47.73-1.12,1.17-1.87,2.26-3.85,6.04-10.29,15.91-9.63,5.1.34,8.83,3.35,11.1,8.93,1.72,4.24,2.1,8.81,2.17,11.16l.02.46c.09,2.46.21,5.83-2.1,8.27-1.78,1.89-4.64,2.85-8.73,2.94,0,0,0,0-.01,0Z"/>
        <path class="cls-1" d="M301.36,85.34c-.06,0-.12-.02-.18-.06-.75-.6-1.14-1.21-1.43-2.27-.04-.15.05-.31.2-.35.15-.04.31.05.35.2.29,1.07.66,1.52,1.23,1.97.12.1.14.28.05.4-.06.07-.14.11-.22.11Z"/>
        <path class="cls-1" d="M313.35,86.87c-.14,0-.26-.1-.28-.25-.02-.16.09-.3.24-.32.67-.09,1.43-.66,1.87-1.39.08-.13.25-.18.39-.1.13.08.18.25.1.39-.52.88-1.44,1.55-2.28,1.67-.01,0-.03,0-.04,0Z"/>
        <path class="cls-1" d="M314.7,87.41c-.37,0-.75-.07-1.12-.24-.14-.07-.21-.23-.14-.38.07-.14.23-.2.38-.14.86.39,1.83.09,2.49-.24.14-.07.31-.01.38.13.07.14.01.31-.13.38-.5.25-1.16.48-1.86.48Z"/>
        <path class="cls-1" d="M300.49,85.34c-.8,0-1.66-.46-2.34-1.26-.1-.12-.09-.3.03-.4.12-.1.3-.09.4.03.62.73,1.4,1.13,2.07,1.05.16-.02.3.09.31.25.02.16-.09.3-.25.31-.07,0-.15.01-.22.01Z"/>
        <g>
          <path class="cls-3" d="M310.66,91.07c-.67-1.83-3.64-3.8-5.16-3.59-1.51.21-4.7,2.06-5.7,2s-1.68-.73-1.8,1.59,1.7,3.51,4.13,2.66c3.37,1.92,9.68.49,8.53-2.66Z"/>
          <path class="cls-3" d="M310.66,93.45c-.75,3.68-4.93,5.84-6.2,5.3-1.26-.54-2.85-1.42-1.47-4.62,2.5.53,6.91-.12,7.03-1.63s.63.96.63.96Z"/>
          <path class="cls-11" d="M304.24,94.44c-.73,1.35-.38,3.07,1.83,1.99,2.21-1.08,2.21-2.29,2.21-2.29,0,0,1.45-.73-.48,0-1.94.73-3.55.3-3.55.3Z"/>
          <path class="cls-1" d="M305.74,95.16c-1.06,0-2.19-.33-3.37-.99-2.29.66-3.56.04-4.23-.6-.84-.81-1.16-2.1-.83-3.37.34-1.28.9-1.38,1.8-1.41.65-.02,1.63-.04,3.22-.88,3.52-1.85,5.58-.79,7.59,1.38.19.2.18.52-.03.7-.2.19-.52.18-.7-.03-1.79-1.93-3.42-2.74-6.4-1.17-1.8.95-2.92.97-3.66.99-.69.02-.69.03-.86.67-.24.91-.02,1.85.55,2.4.71.68,1.91.79,3.46.3.13-.04.28-.02.4.05,1.93,1.13,4.69,1.81,6.88-1.38.13-.19.38-.27.6-.18,0,0,.72.29,1.36.43.27.06.44.32.38.59-.06.27-.33.44-.59.38-.42-.09-.85-.24-1.15-.34-1.22,1.63-2.73,2.45-4.41,2.45Z"/>
          <path class="cls-1" d="M305.05,99.3c-.6,0-1.18-.14-1.7-.42-.85-.46-1.39-1.1-1.6-1.92-.43-1.62.6-3.29.65-3.36.15-.23.45-.3.68-.16.23.15.3.45.16.68,0,.01-.85,1.39-.53,2.59.15.55.51.97,1.11,1.3.86.46,1.92.39,3-.19,1.51-.82,3.14-2.8,3.35-5.36.02-.27.26-.48.54-.45.27.02.48.26.45.54-.21,2.58-1.73,4.99-3.86,6.15-.76.41-1.52.62-2.25.62Z"/>
        </g>
      </g>
      <circle class="cls-12" cx="31.42" cy="147.61" r="30"/>
      <path class="cls-8" d="M329.77,125.25H90.4c-4.68,0-8.47,3.79-8.47,8.47v12.66s-9.69,9.69-9.69,9.69h9.69v.5c0,4.68,3.79,8.47,8.47,8.47h239.38c4.68,0,8.47-3.79,8.47-8.47v-22.85c0-4.68-3.79-8.47-8.47-8.47Z"/>
      <g>
        <path d="M99.55,149.87c1.84-.72,2.59-1.23,3.33-2.01.67-.72,1.26-1.88,1.26-2.96,0-1.47-.98-1.99-1.91-1.99-.5,0-.97.07-2.21.4-1.12.3-1.69.46-2.61.72l-.44-1.47c.92-.23,1.49-.38,2.54-.63,1.39-.35,2.13-.48,2.94-.48,1.77,0,3.36.99,3.36,3.21,0,1.89-.79,3.13-1.56,4.03-.81.94-1.95,1.68-3.45,2.26l-1.26-1.09ZM99.16,139.4l.57-1.33c1.5.27,2.91.57,4.54,1.35l-.63,1.38c-1.46-.72-3-1.09-4.49-1.4Z"/>
        <path d="M110.04,149.65c2.04-4.32,3.56-7.62,5.27-11.5l1.54.58c-1.04,2.04-1.91,3.81-2.81,5.71.8-.69,1.65-1.02,2.33-1.02,1.04,0,1.38.83,1.38,2.64,0,1.94.24,2.58,1.02,2.58,1.05,0,2.05-1.27,2.95-3.99l1.23,1.19c-1.04,2.8-2.35,4.3-4.17,4.3s-2.52-1.23-2.52-3.57c0-1.27-.12-1.6-.58-1.6-.53,0-1.37.67-2.01,1.47-.76.93-1.15,1.65-2.2,4l-1.43-.79Z"/>
        <path d="M129.34,148.99c0-.66.49-1.23,1.21-1.23s1.21.57,1.21,1.23-.5,1.21-1.21,1.21-1.21-.56-1.21-1.21ZM129.67,139.3h1.76l-.09,7.33h-1.56l-.11-7.33Z"/>
        <path d="M138.34,149.89c2.91-.15,4.09-.7,4.45-2.11h-1.95v-5.76h8.34v5.76h-2v1.43c0,.43.15.49,1.3.49,1.05,0,1.44-.07,1.59-.28.12-.15.18-.68.2-1.46l1.35.42c-.04,1.09-.19,1.77-.45,2.08-.33.38-.94.5-2.77.5-2.31,0-2.66-.14-2.66-1.17v-2.01h-1.53c-.38,2.13-1.95,3.16-5.16,3.4l-.72-1.29ZM138.87,140.11h2.6c-.36-.66-.71-1.19-1.12-1.62l1.36-.57c.42.45.9,1.11,1.26,1.73l-1.17.46h2.7c-.27-.71-.52-1.17-1.02-1.83l1.38-.54c.45.58.85,1.26,1.11,1.87l-1.26.5h2.12c.6-.88.93-1.5,1.29-2.35l1.5.52c-.42.74-.77,1.29-1.2,1.83h2.76v3.03h-1.42v-1.92h-9.45v1.92h-1.42v-3.03ZM147.79,143.65v-.69h-5.55v.69h5.55ZM147.79,145.22v-.69h-5.55v.69h5.55ZM147.79,146.83v-.72h-5.55v.72h5.55Z"/>
        <path d="M153.57,149.32c3.03-3,4.93-4.81,6.94-6.7-1.93.33-4.2.51-5.52.57l-.19-1.45c1.74-.04,5.4-.31,7.51-.78l1,1.04c-1.05.88-2.55,2.19-3.6,3.12.29-.06.56-.09.79-.09.74,0,1.11.54,1.11,1.1,0,.4-.04,1.32-.04,1.59,0,.71.17,1.08,1.05,1.08.65,0,1.91-.1,2.85-.35l.18,1.59c-1.02.21-2.28.27-2.99.27-1.88,0-2.67-.76-2.67-2.22,0-.33.03-.83.03-1.05,0-.37-.2-.75-.57-.75-.45,0-.87.24-1.39.7-.6.54-1.17,1.12-3.24,3.39l-1.26-1.05ZM156.7,139.3l.58-1.3c1.5.25,2.79.51,4.41,1.2l-.72,1.31c-1.4-.62-2.9-.94-4.28-1.2Z"/>
        <path d="M172.05,145.94c0-1.67,1.05-3.23,3.02-4.56-2.88.27-4.68.42-6.81.58l-.19-1.57c3.12-.12,7.92-.41,11.43-.98l.3,1.53c-2.08.29-2.79.51-4,1.47-1.38,1.08-2.21,2.19-2.21,3.55,0,1.71,1.37,2.6,4.04,2.94l-.67,1.46c-2.99-.42-4.89-1.86-4.89-4.42Z"/>
        <path d="M185.44,148.27c0-1.05.95-1.81,2.23-1.81s2.39.72,3.12,2.01c.72-.48,1.19-1.19,1.19-2.03,0-1.05-1.07-1.9-2.79-1.9-1.09,0-2.42.36-3.42.99-.69.43-1.2.85-1.96,1.63l-1.04-1.12c1.65-1.27,4.05-3.39,6.21-5.82-1.21.21-2.73.35-3.99.41l-.27-1.44c1.72-.03,3.61-.15,5.77-.56l.85,1.05c-1.44,1.54-2.56,2.61-3.91,3.83.69-.21,1.33-.3,1.93-.3,2.52,0,4.16,1.33,4.16,3.19,0,2.4-2.4,4.05-5.24,4.05-1.54,0-2.85-.82-2.85-2.17ZM188.44,149.12c.39,0,.75-.04,1.11-.13-.46-.81-1.11-1.26-1.8-1.26-.51,0-.81.25-.81.58,0,.52.66.81,1.5.81Z"/>
        <path d="M197.89,148.13c0-1.27,1.11-2.22,3.15-2.22.36,0,.72.03,1.11.08-.02-.31-.04-.65-.06-.96-.09-1.36-.17-3.42-.17-4.41,0-.71-.01-1.5.02-2.48l1.6.08c-.09,1-.1,1.69-.12,2.65,1.23-.06,2.49-.21,3.72-.46l.17,1.5c-1.41.23-2.7.36-3.87.42.01.88.06,1.9.12,2.68.03.44.06.89.07,1.31,1.44.4,2.94,1.11,4.21,2.04l-.85,1.31c-1.19-.9-2.31-1.5-3.29-1.88v.29c0,1.57-.94,2.37-2.8,2.37s-3.01-.85-3.01-2.31ZM200.77,149.02c.84,0,1.44-.29,1.44-1.19,0-.1,0-.25-.01-.46-.41-.08-.79-.1-1.12-.1-1.09,0-1.65.38-1.65.88,0,.58.57.87,1.35.87Z"/>
        <path d="M216.1,148.99c0-.66.49-1.23,1.21-1.23s1.21.57,1.21,1.23-.5,1.21-1.21,1.21-1.21-.56-1.21-1.21ZM216.43,139.3h1.76l-.09,7.33h-1.56l-.11-7.33Z"/>
      </g>
      <g>
        <path class="cls-7" d="M41.47,136.77c5.99-4.81,10.66-4.4,11.63-2.77.89,1.5-.2,9.39-9.11,4.98"/>
        <path class="cls-4" d="M45.71,139.35c2.15-3.69,6.52-2.97,7.64-2.44-1.95,3.62-3.96,4.96-7.64,2.44Z"/>
        <path class="cls-1" d="M48.7,140.92c-1.31,0-2.94-.38-4.99-1.39-.3-.15-.42-.51-.28-.82.15-.3.52-.42.82-.28,3.32,1.64,5.84,1.68,7.29.12,1.3-1.4,1.35-3.69,1.02-4.24-.21-.35-.72-.62-1.4-.75-.91-.16-4.27-.39-9.33,3.68-.26.21-.65.17-.86-.09-.21-.26-.17-.65.09-.86,3.68-2.96,7.53-4.43,10.31-3.92,1.04.19,1.83.66,2.23,1.32.64,1.09.43,3.95-1.18,5.69-.75.81-1.93,1.54-3.74,1.54Z"/>
        <path class="cls-7" d="M46.95,151c1.64-16.82-17.11-22.8-25.64-13.47-2.97,3.25-5.19,9.02-4.06,15.77-3.29,3.25-2.73,7.92,2.42,10.46,3.1,1.53,6.19,2.19,13.34,2.19,6.63,0,14.3-2.8,16.45-6.93,1.2-2.31.78-5.72-2.5-8.03Z"/>
        <path class="cls-2" d="M36.73,133.37c-.6-4.19-4.15-6.52-4.34-.47"/>
        <path class="cls-2" d="M25.05,134.44c-.51-4.2,2.31-7.38,4.07-1.58"/>
        <path class="cls-7" d="M20.59,137.49c-6.66-3.82-11.21-2.69-11.91-.92-.65,1.62,2.36,9.82,10.47,4.08"/>
        <ellipse class="cls-1" cx="36.22" cy="152.94" rx="1.44" ry="1.56" transform="translate(-23.35 7.5) rotate(-8.95)"/>
        <path class="cls-4" d="M17.32,141.31c-2.15-3.69-7.03-2.78-8.16-2.25,1.95,3.62,4.47,4.77,8.16,2.25Z"/>
        <path class="cls-4" d="M30.15,132.89c1.23,7.46-2.33,14.45-12.53,14.45,0-11.42,12.53-14.45,12.53-14.45Z"/>
        <path class="cls-4" d="M32.4,132.9c0,8.41,6.81,12.72,13.84,13.25,0-11.42-13.84-13.25-13.84-13.25Z"/>
        <path class="cls-4" d="M16.17,159.76c13.81-6.39,25.45-3.61,33.28-.74-3.13,7.57-29.25,10.15-33.28.74Z"/>
        <path class="cls-1" d="M33.01,166.57c-7.59,0-10.64-.79-13.61-2.26-2.68-1.33-4.37-3.31-4.74-5.59-.32-1.98.37-3.96,1.94-5.63-1.1-7.13,1.47-12.92,4.26-15.97,4.25-4.65,11.25-5.93,17.42-3.18,3.01,1.34,5.47,3.51,7.11,6.28,1.79,3.02,2.53,6.54,2.2,10.49,3.38,2.56,3.63,6.22,2.4,8.6-2.36,4.54-10.49,7.26-16.99,7.26ZM31.63,133.72c-3.76,0-7.35,1.46-9.87,4.22-2.64,2.89-5.06,8.42-3.91,15.26.03.2-.03.39-.17.53-1.44,1.42-2.08,3.13-1.81,4.79.3,1.88,1.75,3.54,4.07,4.69,2.8,1.38,5.71,2.13,13.07,2.13,6.88,0,14.01-2.96,15.91-6.6,1.03-1.98.75-5.1-2.31-7.25-.18-.13-.28-.34-.26-.56.71-7.25-2.49-13.19-8.56-15.89-2.01-.89-4.11-1.33-6.15-1.33Z"/>
        <path class="cls-1" d="M32.64,163.05c-1.88,0-3.48-.99-4.4-2.72l-.45.09c-.33.07-.65-.14-.72-.47-.07-.33.14-.65.47-.72l.91-.19c.28-.06.57.09.68.35.73,1.67,2.12,2.55,3.82,2.43,1.72-.13,3.25-1.27,3.64-2.72.07-.28.34-.46.62-.45l.77.04c.34.02.59.3.58.64-.02.34-.31.59-.64.58l-.31-.02c-.69,1.72-2.5,2.99-4.57,3.14-.14.01-.27.02-.41.02Z"/>
        <ellipse class="cls-1" cx="36.22" cy="152.94" rx="1.44" ry="1.56" transform="translate(-23.35 7.5) rotate(-8.95)"/>
        <ellipse class="cls-1" cx="28.55" cy="153.3" rx="1.56" ry="1.44" transform="translate(-126 174.06) rotate(-87.1)"/>
        <path class="cls-1" d="M13.94,143.28c-1.46,0-2.58-.54-3.4-1.18-2.09-1.64-2.9-4.58-2.43-5.75.29-.72.99-1.3,1.99-1.65,2.66-.93,6.69-.08,10.79,2.27.29.17.39.54.22.83-.17.29-.54.39-.83.22-5.62-3.23-8.91-2.48-9.78-2.18-.65.23-1.11.57-1.26.95-.21.53.31,2.97,2.06,4.35,1.89,1.49,4.48,1.14,7.49-.99.27-.19.65-.13.85.15.19.27.13.65-.15.85-2.23,1.58-4.07,2.14-5.55,2.14Z"/>
        <path class="cls-1" d="M36.73,133.98c-.3,0-.56-.22-.6-.52-.32-2.23-1.48-3.66-2.12-3.62-.31.02-.93.69-1,3.09-.01.34-.3.59-.63.59-.34-.01-.6-.29-.59-.63.11-3.61,1.4-4.22,2.15-4.27.03,0,.06,0,.09,0,1.46,0,2.94,2.06,3.31,4.67.05.33-.18.64-.52.69-.03,0-.06,0-.09,0Z"/>
        <path class="cls-1" d="M25.05,135.04c-.3,0-.57-.23-.6-.54-.32-2.66.61-5.08,2.07-5.39.74-.15,2.14.1,3.19,3.56.1.32-.08.66-.41.76-.32.1-.66-.08-.76-.41-.7-2.3-1.46-2.78-1.77-2.72-.62.13-1.38,1.81-1.11,4.05.04.33-.2.64-.53.68-.02,0-.05,0-.07,0Z"/>
        <path class="cls-1" d="M37.48,144.48c-.65-1.09-1.64-1.26-2.41-.7-.18.13-.11.42.12.44.71.07,1.33.3,1.98.61.22.1.44-.14.31-.35Z"/>
        <path class="cls-1" d="M26.58,144.88c.65-1.09,1.64-1.26,2.41-.7.18.13.11.42-.12.44-.71.07-1.33.3-1.98.61-.22.1-.44-.14-.31-.35Z"/>
        <circle class="cls-1" cx="33.86" cy="158.88" r=".57"/>
        <circle class="cls-1" cx="32.08" cy="158.88" r=".57"/>
      </g>
    </g>
  </g>
</svg>