<?xml version="1.0" encoding="UTF-8"?>
<svg id="_レイヤー_2" data-name="レイヤー 2" xmlns="http://www.w3.org/2000/svg" width="341.97" height="251.79" viewBox="0 0 341.97 251.79">
  <defs>
    <style>
      .cls-1 {
        fill: #211815;
      }

      .cls-2 {
        fill: #ecbb6e;
      }

      .cls-3 {
        fill: #5c948d;
      }

      .cls-4 {
        fill: #fffba1;
      }

      .cls-5 {
        fill: #d3f2c9;
      }

      .cls-6 {
        fill: #fffb9f;
      }

      .cls-7 {
        fill: #f2d496;
      }

      .cls-8 {
        fill: #fff;
        stroke: #ceeaeb;
        stroke-miterlimit: 10;
        stroke-width: 2.83px;
      }
    </style>
  </defs>
  <g id="_レイヤー_1-2" data-name="レイヤー 1">
    <g>
      <path class="cls-8" d="M9.89,1.42h239.38c4.68,0,8.47,3.79,8.47,8.47v68.3s9.69,9.69,9.69,9.69h-9.69s0,.5,0,.5c0,4.68-3.79,8.47-8.47,8.47H9.89c-4.68,0-8.47-3.79-8.47-8.47V9.89c0-4.68,3.79-8.47,8.47-8.47Z"/>
      <g>
        <path d="M14.37,29.46c1.17-.18,2.17-.54,2.85-1.03-.69-.33-1.35-.57-2.25-.89.34-.55.6-1,.9-1.57h-1.71v-1.16h2.22c.15-.34.32-.74.42-1.14l.26.07v-1.8c-.68.93-1.43,1.63-2.31,2.16l-.79-1.05c.98-.41,1.83-1.04,2.54-1.82h-2.21v-1.17h2.78v-2.86h1.3v2.86h2.64v1.17h-2.64v.03c.75.32,1.46.69,2.26,1.23l-.72,1.02c-.42-.43-.88-.78-1.54-1.21v1.48h-1.16l.79.24c-.1.32-.18.5-.3.78h3.51v1.16h-1.14c-.23.84-.48,1.53-.83,2.04.46.2.93.42,1.23.6l-.82,1.17c-.44-.29-.65-.42-1.23-.75-.93.79-1.95,1.29-3.22,1.56l-.83-1.12ZM14.61,18.06l1.25-.43c.29.48.55,1.06.79,1.81l-1.25.42c-.18-.61-.48-1.32-.79-1.8ZM18.81,25.96h-1.59c-.24.54-.35.7-.53,1.03.9.32.96.33,1.41.51.29-.35.51-.87.71-1.54ZM18.66,19.45c.32-.6.58-1.23.78-1.94l1.27.36c-.22.63-.6,1.39-.96,1.93l-1.09-.36ZM20.22,29.32c1.29-.63,2.39-1.63,3.12-2.83-.57-.88-.99-1.83-1.38-3-.22.5-.42.84-.69,1.25l-.93-1.17c.98-1.59,1.5-3.39,1.82-6.36l1.39.27c-.09.74-.17,1.14-.38,2.24h4.12v1.35h-1.08c-.21,2.07-.67,3.97-1.33,5.33.67.9,1.62,1.78,2.83,2.61l-.95,1.3c-.93-.73-1.87-1.68-2.61-2.64-.78,1.16-1.83,2.13-3.03,2.82l-.92-1.16ZM24.87,21.06h-2.03l-.13.51c.25,1.25.72,2.45,1.32,3.48.43-1.17.69-2.42.84-3.99Z"/>
        <path d="M32.32,30.27l-.25-1.46c.83.13,1.58.21,2.07.21.38,0,.48-.11.48-.45v-2.31h-5.92v-1.32h5.85v-.97c.86-.36,1.75-.84,2.28-1.23h-5.55v-1.26h7.36l.71.81c-.97.81-2.1,1.57-3.29,2.22v.43h5.71v1.32h-5.64v2.88c0,.9-.45,1.26-1.5,1.26-.67,0-1.54-.04-2.31-.13ZM29.14,18.94h5.26v-1.74h1.56v1.74h5.36v3.25h-1.49v-1.99h-9.21v1.99h-1.48v-3.25Z"/>
        <path d="M43.69,29.22c1.23-2.76,2.1-5.34,2.71-7.94-1.02.08-1.98.12-2.78.15l-.16-1.51c1.03-.03,2.14-.08,3.28-.15.15-.81.3-1.63.42-2.47l1.54.24c-.13.72-.28,1.42-.43,2.11,1.11-.12,2.21-.25,3.27-.46l.24,1.5c-1.18.2-2.54.36-3.85.48-.69,2.92-1.54,5.7-2.71,8.65l-1.53-.6ZM48.93,27.28c0-.55.21-1.23.68-1.89l1.36.43c-.39.45-.57.9-.57,1.21,0,.58.66.92,2.13.92.96,0,1.98-.1,2.79-.28l.3,1.56c-.93.18-2.13.21-2.85.21-2.74,0-3.84-.9-3.84-2.16ZM49.69,22.48c1.71-.29,3.7-.42,5.4-.34l-.2,1.49c-1.63-.09-3.45.03-4.8.27l-.4-1.41ZM52.21,18.49l.9-.54c.55.71.85,1.24,1.24,2.11l-.94.57c-.39-.87-.71-1.46-1.2-2.14ZM53.92,17.98l.88-.55c.54.67.88,1.25,1.26,2.08l-.93.57c-.39-.87-.71-1.42-1.21-2.1Z"/>
        <path d="M59.2,24.73c0-1.33.3-4.17.57-6.39l1.53.25c-.52,3.18-.66,5.08-.66,6.48,0,.48.01,1.05.1,1.53.21-.57.54-1.21.83-1.74l.85.87c-.45.81-.6,1.16-.78,1.67-.18.51-.32,1.16-.25,1.71l-1.19.46c-.67-1.35-1-2.82-1-4.84ZM62.85,21.27c1.28.03,2.58.01,3.81-.08-.06-1-.15-2.19-.25-3.48l1.6-.12c.08,1.21.15,2.38.2,3.45.79-.09,1.51-.21,2.17-.36l.18,1.5c-.69.12-1.47.22-2.29.32.02.48.03.94.03,1.36,0,3.72-.53,5.07-2.31,6.55l-1.58-.69c2.22-1.68,2.32-3.44,2.32-6.27,0-.26,0-.54-.01-.84-1.27.08-2.58.11-3.76.09l-.11-1.44Z"/>
        <path d="M72.22,29.17c2.97-.39,3.97-1.24,4.05-3.46h-2.21v-7.93h9.09v7.93h-2.39v2.52c0,.3.05.42.2.5.13.07.53.12.93.12.32,0,.56-.02.83-.06.65-.1.69-.24.76-2.14l1.43.42c-.11,2.46-.33,2.92-1.49,3.06-.57.08-.85.09-1.49.09-2.14,0-2.64-.24-2.64-1.25v-3.25h-1.56c-.15,3-1.32,4.17-4.72,4.79l-.79-1.32ZM81.69,20.05v-1.12h-6.15v1.12h6.15ZM81.69,22.26v-1.12h-6.15v1.12h6.15ZM81.69,24.55v-1.21h-6.15v1.21h6.15Z"/>
        <path d="M90.12,27.64c0-1.05.95-1.82,2.23-1.82s2.39.72,3.12,2.01c.72-.48,1.19-1.18,1.19-2.02,0-1.05-1.07-1.91-2.79-1.91-1.09,0-2.42.36-3.42.99-.69.43-1.2.86-1.96,1.63l-1.04-1.12c1.65-1.27,4.05-3.39,6.21-5.82-1.21.21-2.73.34-3.99.41l-.27-1.44c1.72-.03,3.61-.15,5.77-.55l.85,1.05c-1.44,1.54-2.56,2.61-3.91,3.83.69-.21,1.33-.3,1.93-.3,2.52,0,4.16,1.33,4.16,3.2,0,2.4-2.4,4.05-5.24,4.05-1.54,0-2.85-.83-2.85-2.17ZM93.12,28.5c.39,0,.75-.04,1.11-.13-.46-.81-1.11-1.26-1.8-1.26-.51,0-.81.25-.81.58,0,.52.66.81,1.5.81Z"/>
        <path d="M102.88,26.64c0-1.32,1-2.5,2.88-3.69-.61-1.41-1.3-3.21-1.71-4.98l1.58-.38c.27,1.41.88,3.25,1.44,4.62,1.14-.6,2.5-1.21,4.02-1.84l.69,1.47c-3.94,1.35-7.35,3.1-7.35,4.63,0,.94.79,1.51,2.99,1.51,1.32,0,2.92-.1,4.67-.43l.27,1.6c-1.79.3-3.62.36-4.79.36-3.46,0-4.68-1.16-4.68-2.88Z"/>
        <path d="M116.29,26.98c0-1.04,1.07-2.5,2.8-3.29-.01-.78-.04-1.59-.04-2.28-.97.09-1.9.13-2.68.17l-.15-1.38c.83-.02,1.8-.08,2.81-.15,0-.69-.02-1.51,0-2.38l1.69.08c-.04.67-.06,1.42-.08,2.14.87-.1,1.7-.24,2.4-.39l.17,1.38c-.77.15-1.67.27-2.58.38v.36c0,.41.01.98.03,1.64,1-.3,2.11-.48,3.1-.48,2.4,0,3.69,1.3,3.69,3.08,0,2.17-1.46,3.38-3.53,3.38-.58,0-1.29-.11-1.72-.3l-.24-1.51c.6.24,1.2.38,1.8.38,1.33,0,2.13-.85,2.13-1.92,0-.95-.73-1.74-2.4-1.74-.86,0-1.88.18-2.81.53.03.97.06,1.93.09,2.62.01.42.01.66.01.99,0,.99-.78,1.33-1.67,1.33-1.51,0-2.83-1.19-2.83-2.61ZM118.8,28.09c.38,0,.51-.26.51-.78,0-.38,0-.67-.01-1.17-.01-.32-.01-.65-.03-.95-.88.46-1.47,1.25-1.47,1.79,0,.67.57,1.11,1,1.11ZM123.96,19.71l.75-1.21c1.27.57,2.08,1.09,3.27,2.17l-.9,1.26c-1.14-1.08-1.94-1.63-3.12-2.22Z"/>
        <path d="M134.31,17.67h1.56v3.87c1.86.79,3.97,2.01,5.56,3.27l-1,1.29c-1.44-1.2-3.13-2.28-4.56-2.97v6.91h-1.56v-12.37Z"/>
        <path d="M147.39,29.07c3.66-1.75,5.8-4.56,6.74-7.9-1.47.04-2.96.06-4.1.06-.82,1.42-1.81,2.66-3.01,3.67l-1.46-.78c2.08-1.78,3.51-3.93,4.35-6.37l1.56.4c-.21.56-.43,1.11-.67,1.64,1.17-.02,2.54-.05,4.23-.09l.96.77c-1.2,4.71-3.39,7.6-7.21,9.73l-1.38-1.12Z"/>
        <path d="M160.26,24.88c0-1.42.32-3.93.86-6.79l1.53.24c-.6,2.89-.92,5.41-.92,6.58,0,.47.03,1,.11,1.46.24-.76.62-1.65.9-2.19l.9.9c-.46.93-.67,1.53-.84,2.1-.2.69-.3,1.36-.24,1.99l-1.18.5c-.62-1.21-1.11-2.82-1.11-4.78ZM164.61,26.52c0-.65.27-1.37.99-2.17l1.42.48c-.69.6-.92,1.08-.92,1.46,0,.75.63,1.19,2.29,1.19.66,0,1.63-.09,2.59-.32l.3,1.56c-1.04.17-2.07.21-2.7.21-2.71,0-3.99-.72-3.99-2.4ZM164.77,19.62c1.68.03,4.29-.12,6-.39l.18,1.5c-1.72.27-4.32.44-6.04.39l-.14-1.5Z"/>
        <path d="M173.44,29.17c2.97-.39,3.97-1.24,4.05-3.46h-2.21v-7.93h9.09v7.93h-2.39v2.52c0,.3.05.42.2.5.13.07.53.12.93.12.32,0,.56-.02.83-.06.65-.1.69-.24.76-2.14l1.43.42c-.11,2.46-.33,2.92-1.49,3.06-.57.08-.85.09-1.49.09-2.14,0-2.64-.24-2.64-1.25v-3.25h-1.56c-.15,3-1.32,4.17-4.72,4.79l-.79-1.32ZM182.91,20.05v-1.12h-6.15v1.12h6.15ZM182.91,22.26v-1.12h-6.15v1.12h6.15ZM182.91,24.55v-1.21h-6.15v1.21h6.15Z"/>
        <path d="M188.38,28.69c3.03-3,4.93-4.81,6.94-6.71-1.93.33-4.2.51-5.52.57l-.19-1.46c1.74-.04,5.4-.31,7.51-.78l1,1.04c-1.05.88-2.55,2.19-3.6,3.12.29-.06.56-.09.79-.09.74,0,1.11.54,1.11,1.09,0,.41-.04,1.32-.04,1.59,0,.71.17,1.08,1.05,1.08.65,0,1.91-.1,2.85-.34l.18,1.59c-1.02.21-2.28.27-2.99.27-1.88,0-2.67-.76-2.67-2.22,0-.33.03-.83.03-1.05,0-.38-.2-.75-.57-.75-.45,0-.87.24-1.39.71-.6.54-1.17,1.12-3.24,3.39l-1.26-1.05ZM191.52,18.67l.58-1.3c1.5.25,2.79.51,4.41,1.2l-.72,1.31c-1.4-.62-2.9-.95-4.28-1.2Z"/>
        <path d="M205.8,27.64c0-1.05.95-1.82,2.23-1.82s2.39.72,3.12,2.01c.72-.48,1.19-1.18,1.19-2.02,0-1.05-1.07-1.91-2.79-1.91-1.1,0-2.42.36-3.42.99-.69.43-1.2.86-1.96,1.63l-1.04-1.12c1.65-1.27,4.05-3.39,6.21-5.82-1.21.21-2.73.34-3.99.41l-.27-1.44c1.72-.03,3.61-.15,5.77-.55l.85,1.05c-1.44,1.54-2.56,2.61-3.91,3.83.69-.21,1.33-.3,1.93-.3,2.52,0,4.16,1.33,4.16,3.2,0,2.4-2.4,4.05-5.24,4.05-1.54,0-2.85-.83-2.85-2.17ZM208.8,28.5c.39,0,.75-.04,1.11-.13-.46-.81-1.11-1.26-1.8-1.26-.51,0-.81.25-.81.58,0,.52.66.81,1.5.81Z"/>
        <path d="M218.26,24.73c0-1.33.3-4.17.57-6.39l1.53.25c-.52,3.18-.66,5.08-.66,6.48,0,.48.01,1.05.1,1.53.21-.57.54-1.21.83-1.74l.85.87c-.45.81-.6,1.16-.78,1.67-.18.51-.32,1.16-.25,1.71l-1.19.46c-.67-1.35-1-2.82-1-4.84ZM221.91,21.27c1.28.03,2.58.01,3.81-.08-.06-1-.15-2.19-.25-3.48l1.6-.12c.08,1.21.15,2.38.2,3.45.79-.09,1.51-.21,2.17-.36l.18,1.5c-.69.12-1.47.22-2.29.32.02.48.03.94.03,1.36,0,3.72-.53,5.07-2.31,6.55l-1.58-.69c2.22-1.68,2.32-3.44,2.32-6.27,0-.26,0-.54-.01-.84-1.27.08-2.58.11-3.76.09l-.11-1.44Z"/>
        <path d="M15.97,52.96c0-1.32,1-2.5,2.88-3.69-.62-1.41-1.31-3.21-1.71-4.98l1.57-.38c.27,1.41.89,3.25,1.44,4.62,1.11-.58,2.43-1.19,3.88-1.79-.39-.9-.78-1.52-1.25-2.16l.88-.53c.54.66.92,1.31,1.33,2.18l-.82.48.67,1.44c-3.95,1.35-7.35,3.1-7.35,4.63,0,.94.79,1.51,2.98,1.51,1.32,0,2.92-.11,4.67-.44l.27,1.61c-1.78.3-3.61.36-4.78.36-3.46,0-4.68-1.16-4.68-2.88ZM24.43,43.95l.9-.53c.58.71.96,1.32,1.37,2.16l-.96.52c-.42-.92-.78-1.53-1.31-2.16Z"/>
        <path d="M28.26,53.61l1.3-1.12c.92.78,1.98,2,2.77,3.13l-1.41,1.25c-.69-1.16-1.64-2.29-2.67-3.25Z"/>
        <path d="M48.93,53.5c-1.2,1.41-2.97,2.52-4.92,3.12l-.94-1.23c2.01-.46,3.73-1.32,5.04-2.49h-4.88v-1.08h5.7v-.79h-4.3v-.97h4.3v-.77h-4.87v-1.03h3.15c-.17-.44-.38-.81-.64-1.21h-3.18v-1.07h2.22c-.32-.78-.66-1.32-1.07-1.8l1.29-.48c.39.48.76,1.11,1.09,1.8l-1.23.48h2.01v-2.52h1.32v2.52h1.24v-2.52h1.32v2.52h1.88l-1.18-.39c.4-.66.78-1.42,1-2.01l1.42.43c-.35.74-.79,1.49-1.14,1.96h2.45v1.07h-3.31c-.2.43-.41.85-.63,1.21h3.25v1.03h-4.96v.77h4.41v.97h-4.41v.79h5.8v1.08h-4.85c1.33.99,3.04,1.72,4.94,2.13l-.96,1.32c-2-.66-3.71-1.67-4.93-2.91v3.24h-1.43v-3.18ZM50.59,48.25c.21-.35.41-.71.62-1.21h-3.17c.21.36.36.66.57,1.21h1.98Z"/>
        <path d="M59.64,50.65c-.96.09-1.41.12-1.94.15l-.33-1.3h1.11l.85-1.1c-.75-1.04-1.33-1.72-1.89-2.25l.78-1,.57.62c.51-.72.93-1.46,1.35-2.37l1.21.62c-.6,1-1.17,1.81-1.82,2.62.24.29.3.38.54.72.46-.66.86-1.33,1.46-2.31l1.19.71c-.78,1.21-1.73,2.46-2.79,3.67.45-.02,1.29-.08,1.6-.11-.13-.36-.27-.69-.43-1.02l.94-.34c.41.73.77,1.6,1.11,2.68l-1.09.55c-.09-.41-.12-.52-.2-.79l-.97.12v6.17h-1.26v-6.03ZM57.42,55.08c.32-.97.5-2.17.58-3.58l1.2.14c-.04,1.6-.22,2.85-.57,4.03l-1.21-.58ZM61.2,51.61l1.02-.3c.3.85.57,1.88.74,2.85l-1.2.56c-.1-1.11-.25-2-.55-3.11ZM62.1,55.71c1.11-.3,2.24-.81,2.96-1.35h-1.59v-5.26h6.45v5.26h-1.54c1.02.39,1.81.76,2.67,1.25l-1.11,1.05c-.78-.6-1.7-1.12-2.89-1.67l.81-.63h-2.54l.86.66c-1.09.84-2.13,1.44-3.08,1.77l-.99-1.08ZM62.64,47.53h3.35v-.6h-2.85v-.9h2.85v-.59h-3.11v-.96h3.11v-1.03h1.3v1.03h3.28v.96h-3.28v.59h2.86v.9h-2.86v.6h3.52v.99h-8.17v-.99ZM68.65,50.55v-.62h-3.93v.62h3.93ZM68.65,51.97v-.62h-3.93v.62h3.93ZM68.65,53.46v-.67h-3.93v.67h3.93Z"/>
        <path d="M72.61,55.18c1.25-2.34,2.1-4.38,2.71-6.57-.92.14-1.77.25-2.43.36l-.25-1.46c.69-.06,1.96-.2,2.98-.34.24-1.04.45-2.12.65-3.25l1.53.24c-.19.93-.42,1.86-.66,2.82.44-.03.83-.06,1.14-.06,1.44,0,2.4.88,2.4,2.68,0,1.29-.12,2.91-.45,4.27-.37,1.56-1.27,1.97-2.17,1.97-.7,0-1.39-.14-2.01-.36l-.12-1.65c.71.35,1.38.48,1.83.48.58,0,.88-.32,1.11-1.35.19-.89.3-2,.3-3.06s-.43-1.59-1.18-1.59c-.26,0-.62.03-1.14.09-.73,2.59-1.53,4.88-2.82,7.51l-1.41-.73ZM80.61,47.16l1.23-.91c1.17,1.39,1.95,3.06,2.64,5.19l-1.38.9c-.72-2.26-1.35-3.97-2.49-5.17ZM81.78,45.04l.79-.66c.63.6,1.05,1.11,1.56,2.01l-.86.67c-.51-.92-.94-1.48-1.5-2.02ZM83.23,44.2l.79-.66c.68.58,1.08,1.16,1.56,1.98l-.87.66c-.45-.84-.9-1.46-1.49-1.98Z"/>
        <path d="M86.59,55.51c.68-.81,1.23-1.85,1.61-2.94l1.25.46c-.41,1.41-.96,2.55-1.63,3.39l-1.22-.92ZM86.61,50.65h4.27v-1.06h-3.1v-3.41h3.1v-1h-3.99v-1.12h12.36v1.12h-4.07v1h3.18v3.41h-3.18v1.06h4.37v1.14h-12.94v-1.14ZM90.88,48.52v-1.27h-1.75v1.27h1.75ZM90.78,56.31c-.38-.18-.56-.48-.56-.99v-2.87h1.44v2.19c0,.54.15.58,1.75.58.53,0,.87-.02,1.25-.06.6-.04.66-.18.71-1.42l1.36.39c-.04.91-.17,1.56-.38,1.84-.3.42-1,.55-2.94.55-1.49,0-2.29-.08-2.64-.22ZM92.08,52.51l1.06-.69c.58.46,1.17,1.12,1.71,1.91l-1.14.81c-.51-.81-1.09-1.53-1.63-2.02ZM93.91,46.18v-1h-1.75v1h1.75ZM93.91,48.52v-1.27h-1.75v1.27h1.75ZM93.91,50.65v-1.06h-1.75v1.06h1.75ZM97.02,48.52v-1.27h-1.83v1.27h1.83ZM96.22,52.9l1.14-.69c.9.78,1.76,1.77,2.49,2.88l-1.27.9c-.71-1.2-1.54-2.31-2.36-3.09Z"/>
        <path d="M103.14,49.77c-.42.67-.85,1.29-1.36,1.91l-.84-1.33c1.51-1.74,2.77-4.14,3.48-6.63l1.46.41c-.36,1.09-.75,2.05-1.28,3.16v9.17h-1.46v-6.67ZM106.96,54.81v-10.88h1.46v4.7c1.47-.63,2.77-1.4,3.85-2.25l1.2,1.14c-1.39.99-3.18,1.89-5.05,2.55v4c0,.41.06.55.25.63.2.09.76.13,1.5.13.55,0,.9-.03,1.27-.09.78-.12.86-.31.99-2.79l1.52.5c-.27,3.65-.45,3.83-3.78,3.83-2.71,0-3.21-.24-3.21-1.47Z"/>
        <path d="M118.75,52.12c0-.84.03-2.65.06-3.78.03-.98.02-2.97-.01-4.28l1.72.03c-.03,1.29-.07,3.18-.12,4.12-.04,1-.08,2.75-.08,3.67,0,1.79.5,2.66,1.89,2.66,1.72,0,3.57-1.23,4.56-3.04l.83,1.63c-1.16,1.65-3.21,2.92-5.4,2.92-2.62,0-3.45-1.63-3.45-3.95Z"/>
        <path d="M134.56,51.57c0-1.67,1.05-3.22,3.02-4.56-2.88.27-4.68.42-6.81.58l-.19-1.58c3.12-.12,7.92-.41,11.43-.97l.3,1.53c-2.08.29-2.79.51-4,1.47-1.38,1.08-2.21,2.19-2.21,3.55,0,1.71,1.37,2.59,4.04,2.94l-.67,1.46c-2.99-.42-4.89-1.86-4.89-4.42Z"/>
        <path d="M146.29,52.69c-.33-1.06-.55-2.97-.55-4.71,0-.75.03-1.81.09-2.75l1.59.33c-.09,1.02-.13,1.92-.13,2.88,0,1.64.17,2.81.43,3.67.32,1.02.76,1.64,1.2,1.64.48,0,1.11-1.04,1.51-2.94l1.32,1.11c-.63,2.37-1.7,3.51-2.8,3.51-1.22,0-2.13-1.07-2.66-2.75ZM153.15,47.04l1.14-1.02c1.8,1.65,2.32,3.67,2.71,6.52l-1.54.48c-.35-2.66-.9-4.77-2.31-5.98Z"/>
        <path d="M163.48,51.57c0-1.67,1.05-3.22,3.02-4.56-2.88.27-4.68.42-6.81.58l-.19-1.58c3.12-.12,7.92-.41,11.43-.97l.3,1.53c-2.08.29-2.79.51-4,1.47-1.38,1.08-2.21,2.19-2.21,3.55,0,1.71,1.37,2.59,4.04,2.94l-.67,1.46c-2.99-.42-4.89-1.86-4.89-4.42Z"/>
        <path d="M179.04,52.24c-1.21,1.73-2.87,3.02-4.95,3.9l-.93-1.25c2.26-.79,4.11-2.12,5.55-3.88h-5.17v-1.28h2.92c-.3-.85-.74-1.74-1.19-2.38l1.37-.52c.48.72.92,1.56,1.23,2.32l-1.33.58h2.53v-2.97h-4.86v-1.26h4.83v-2.05h1.48v2.05h4.93v1.26h-4.95v2.97h1.04c.51-.94.93-1.95,1.21-2.92l1.51.58c-.38.87-.78,1.65-1.21,2.34h3.06v1.28h-5.13c1.37,1.53,3.27,2.75,5.57,3.55l-.99,1.33c-2.1-.96-3.84-2.25-5.04-3.75v4.53h-1.48v-4.44Z"/>
        <path d="M194.25,53.32h-6.29v-1.3h2.28v-3.71h4v-2.05h-3.18c-.58,1.17-1.3,2.19-2.11,3.03l-1.07-1.11c1.23-1.2,2.16-2.82,2.71-4.75l1.52.27c-.17.54-.32.92-.48,1.31h8.43v1.26h-4.3v2.05h3.69v1.26h-3.69v2.45h5.11v1.3h-5.11v3.36h-1.51v-3.36ZM194.25,52.02v-2.45h-2.57v2.45h2.57Z"/>
        <path d="M203.5,51.16c0-1.33.3-3.96.84-6.81l1.53.27c-.65,2.92-.95,5.56-.95,6.67,0,.46.03.97.09,1.44.24-.76.54-1.47.87-2.19l.9.9c-.45.93-.65,1.47-.79,2.03-.23.84-.3,1.27-.29,1.95l-1.19.5c-.63-1.36-1.02-2.73-1.02-4.75ZM207.27,53.61c0-1.05.86-2.04,2.55-2.04.42,0,.87.04,1.32.12l-.04-1.17c-.04-.64-.08-1.38-.09-2.07-1.19.08-2.37.11-3.38.11l-.11-1.5c1.07.01,2.26-.01,3.46-.09,0-.84-.01-1.58.03-2.79l1.58.04c-.08,1.02-.11,1.83-.14,2.61.8-.08,1.54-.18,2.24-.32l.15,1.51c-.72.12-1.53.23-2.39.3.02.78.03,1.49.06,2.16.01.6.04,1.14.06,1.59.86.32,1.71.78,2.54,1.4l-.87,1.38c-.55-.53-1.11-.92-1.65-1.2-.12,1.46-1.1,2.19-2.71,2.19-1.5,0-2.61-.86-2.61-2.24ZM209.85,54.49c.81,0,1.35-.39,1.33-1.21v-.2c-.45-.13-.88-.21-1.25-.21-.88,0-1.26.36-1.26.81,0,.5.43.81,1.17.81Z"/>
        <path d="M217.14,47.01h1.75v-1.51h-2.21v-1.25h6.93v1.25h-1.99v1.51h1.75v9.61h-1.19v-.57h-3.85v.64h-1.2v-9.69ZM222.19,52.47v-1.1h-.78c-.65,0-.81-.15-.81-.73v-2.52h-.69c-.03,1.92-.32,3.14-.92,4.04l-.66-.63v.95h3.85ZM219.06,48.12h-.72v3.29c.46-.76.67-1.72.72-3.29ZM222.19,54.85v-1.3h-3.85v1.3h3.85ZM220.6,47.01v-1.51h-.67v1.51h.67ZM222.19,50.32v-2.21h-.72v1.94c0,.22.06.27.32.27h.4ZM224.19,55.03v-6.34h3.72v-3.13h-3.9v-1.3h5.23v6.57h-1.33v-.83h-2.37v4.46c0,.42.09.5.63.54.23.03.33.03.59.03.42,0,.75-.02,1.02-.04.66-.03.74-.27.79-2.49l1.39.32c-.06,1.68-.15,2.46-.33,2.89-.25.6-.76.74-2.94.74s-2.5-.18-2.5-1.4Z"/>
        <path d="M241.42,55.96h-9.36v-1.3h9.36v-1.74h-8.99v-1.27h8.99v-1.61h-9.33v-1.27h4.75v-5h1.56v5h4.54v7.92h-1.53v-.72ZM232.39,45.3l1.32-.75c.63.79,1.25,1.8,1.83,2.98l-1.42.75c-.57-1.24-1.12-2.2-1.73-2.98ZM239.5,47.73c.7-.99,1.3-2.08,1.84-3.34l1.56.64c-.72,1.43-1.41,2.58-2.01,3.33l-1.39-.63Z"/>
        <path d="M14.77,81.43c1.25-2.34,2.1-4.38,2.71-6.57-.92.14-1.77.25-2.43.36l-.25-1.46c.69-.06,1.96-.2,2.98-.34.24-1.04.45-2.12.65-3.25l1.53.24c-.19.93-.42,1.86-.66,2.82.44-.03.83-.06,1.14-.06,1.44,0,2.4.88,2.4,2.68,0,1.29-.12,2.91-.45,4.27-.37,1.56-1.27,1.97-2.17,1.97-.7,0-1.39-.14-2.01-.36l-.12-1.65c.71.35,1.38.48,1.83.48.58,0,.88-.32,1.11-1.35.19-.89.3-2,.3-3.06s-.43-1.59-1.18-1.59c-.26,0-.62.03-1.14.09-.73,2.59-1.53,4.88-2.82,7.51l-1.41-.73ZM22.77,73.41l1.23-.91c1.17,1.39,1.95,3.06,2.64,5.19l-1.38.9c-.72-2.26-1.35-3.97-2.49-5.17ZM23.94,71.29l.79-.66c.63.6,1.05,1.11,1.56,2.01l-.86.67c-.51-.92-.94-1.48-1.5-2.02ZM25.39,70.45l.79-.66c.68.58,1.08,1.16,1.56,1.98l-.87.66c-.45-.84-.9-1.46-1.49-1.98Z"/>
        <path d="M28.5,74.43l.87-1.05c.83.57,1.54,1.18,2.15,1.89l-.95,1.18c-.58-.76-1.3-1.47-2.07-2.02ZM28.56,81.9c.71-1.28,1.25-2.7,1.83-4.71l1.12.87c-.56,2.1-1.07,3.51-1.74,4.88l-1.21-1.04ZM29.01,71.2l.88-1.04c.85.57,1.54,1.2,2.14,1.9l-.92,1.14c-.69-.84-1.36-1.5-2.11-2.01ZM35.17,81.97c1.21-.75,2.07-1.59,3-2.91-.41-1.28-.69-3.12-.85-5.8h-3.65v2.68c0,3.69-.36,5.52-1.46,7.04l-1.06-1.05c.9-1.29,1.21-2.78,1.21-5.73v-4.18h4.89c-.03-.42-.06-1.3-.09-2.31h1.38c.01,1.03.03,1.89.06,2.23h1.57c-.31-.61-.73-1.2-1.12-1.6l1.16-.56c.43.41.83.95,1.17,1.5l-1.11.66h1.29v1.25h-2.92c.04,1.5.21,3,.46,4.23.44-1.02.77-2.01,1.02-3.09l1.23.5c-.51,1.77-1.08,3.12-1.77,4.33.3.83.69,1.56.84,1.56s.34-.78.48-2.04l1.12.81c-.34,2.16-.79,3.22-1.38,3.22-.55,0-1.42-.96-1.96-2.21-.67.92-1.54,1.77-2.55,2.49l-.96-1.02ZM34.06,74.29h3.13v1.15h-3.13v-1.15ZM34.12,76.33h3.08v3.73h-2.04v.88h-1.04v-4.62ZM36.16,78.97v-1.56h-1v1.56h1Z"/>
        <path d="M46.74,80.14c0-1.05.95-1.82,2.23-1.82s2.39.72,3.12,2.01c.72-.48,1.19-1.18,1.19-2.02,0-1.05-1.07-1.91-2.79-1.91-1.1,0-2.42.36-3.42.99-.69.43-1.2.86-1.96,1.63l-1.04-1.12c1.65-1.27,4.05-3.39,6.21-5.82-1.21.21-2.73.34-3.99.41l-.27-1.44c1.72-.03,3.61-.15,5.77-.55l.85,1.05c-1.44,1.54-2.56,2.61-3.91,3.83.69-.21,1.33-.3,1.93-.3,2.52,0,4.16,1.33,4.16,3.2,0,2.4-2.4,4.05-5.24,4.05-1.54,0-2.85-.83-2.85-2.17ZM49.74,81c.39,0,.75-.04,1.11-.13-.46-.81-1.11-1.26-1.8-1.26-.51,0-.81.25-.81.58,0,.52.66.81,1.5.81Z"/>
        <path d="M58.45,81.28c1.28-2.38,2.07-4.33,2.71-6.57-.92.13-1.77.25-2.43.36l-.25-1.46c.69-.06,1.96-.19,2.98-.34.24-1.04.45-2.11.65-3.25l1.53.24c-.19.93-.4,1.86-.64,2.82.42-.03.81-.06,1.12-.06,1.44,0,2.4.88,2.4,2.68,0,1.29-.12,2.91-.45,4.28-.38,1.56-1.28,1.96-2.17,1.96-.71,0-1.4-.13-2.01-.36l-.12-1.65c.7.34,1.38.48,1.83.48.58,0,.89-.31,1.11-1.35.2-.88.3-2,.3-3.06s-.43-1.59-1.18-1.59c-.27,0-.62.03-1.16.09-.71,2.62-1.48,4.83-2.8,7.51l-1.41-.74ZM67.06,72.87l1.28-.84c1.04,1.47,1.75,3.2,2.34,5.46l-1.44.81c-.56-2.29-1.1-3.92-2.18-5.43Z"/>
        <path d="M73.06,76.29c0-.52.38-1.26,1.02-1.92l1.05.51c-.4.36-.64.67-.64.88,0,.33.43.48,1.5.48h.22c.06-.36.11-.73.17-1.14.06-.45.13-.93.2-1.42-1-.01-2.01-.08-2.9-.2l-.07-1.42c1.05.15,2.11.24,3.15.24.12-.93.24-1.8.3-2.43l1.56.21c-.11.52-.24,1.32-.38,2.17.92-.04,1.83-.15,2.74-.32l.09,1.42c-.89.15-2.04.25-3.06.29-.07.53-.13,1.02-.19,1.47-.04.38-.09.72-.12,1.04,1.06-.1,2.17-.3,3.03-.57l.33,1.41c-1.11.24-2.37.39-3.51.46-.04.56-.08.96-.08,1.22,0,1.38.62,2.16,2.07,2.14,1.54-.01,2.92-1.09,2.92-2.89,0-.93-.33-1.68-.93-2.69l1.56-.06c.66,1.09.88,2.17.88,2.94,0,2.66-1.84,4.2-4.47,4.2-2.43,0-3.54-1.21-3.54-3.33,0-.34.03-.84.09-1.46h-.36c-1.96,0-2.64-.55-2.64-1.25Z"/>
        <path d="M89.83,78.37c0-.84.03-2.65.06-3.78.03-.98.02-2.97-.01-4.28l1.72.03c-.03,1.29-.07,3.18-.12,4.12-.04,1-.08,2.75-.08,3.67,0,1.79.5,2.66,1.89,2.66,1.72,0,3.57-1.23,4.56-3.04l.83,1.63c-1.16,1.65-3.21,2.92-5.4,2.92-2.62,0-3.45-1.63-3.45-3.95Z"/>
        <path d="M104.19,78.34c-.54.61-1.17,1.36-1.94,2.38l-1.23-.93c1.25-1.26,2.28-2.73,2.7-3.57.15-.3.33-.74.48-1.2v-.96c-.86.2-1.89.35-2.68.42l-.24-1.39c.83-.06,1.95-.2,2.91-.42,0-1.07-.02-1.86-.03-2.66l1.59.06c-.03.88-.06,1.68-.08,2.61l.63.42c-.15.51-.36,1.07-.64,1.77v.18c1.69-1.79,3.18-3.1,4.51-3.1.96,0,1.6.58,1.6,1.68,0,.64-.1,1.3-.22,2.04-.25,1.59-.36,2.77-.36,3.38,0,.81.27,1.03.72,1.03.63,0,1.33-.42,2.07-1.63l.66,1.54c-.75,1.08-1.75,1.62-2.97,1.62s-2.01-.88-2.01-2.28c0-.94.1-2.19.38-3.93.08-.5.15-1.05.15-1.44,0-.36-.12-.51-.39-.51-.72,0-2.57,1.74-4.14,3.33,0,1.96,0,3.44.03,5.7l-1.57.06c.03-1.62.06-2.92.08-4.2Z"/>
        <path d="M116.08,78.97c1.35-2.04,2.19-3.66,2.8-5.29-.99.09-1.93.15-2.67.17l-.19-1.42c1-.02,2.19-.08,3.38-.2.22-.76.45-1.56.66-2.43l1.53.38c-.2.66-.38,1.27-.57,1.86.89-.12,1.73-.27,2.42-.45l.27,1.42c-.78.18-1.95.36-3.18.51-.73,2.04-1.6,3.92-3.03,6.27l-1.41-.81ZM119.16,80.28c0-1.14,1.06-2.05,2.67-2.05.36,0,.75.03,1.14.09-.03-.5-.06-1.08-.06-1.37,0-.42.06-1.15.51-1.92l1.33.77c-.29.58-.33.99-.33,1.41,0,.47.03.9.04,1.43,1.07.34,2.16.88,3.15,1.47l-.72,1.3c-.78-.55-1.58-1.02-2.35-1.35v.24c0,1.4-1,2.25-2.58,2.25-1.39,0-2.8-.71-2.8-2.26ZM121.95,81.12c.69,0,1.11-.31,1.11-.94,0-.12,0-.29-.01-.48-.34-.09-.69-.13-1-.13-.79,0-1.33.29-1.33.76,0,.53.55.79,1.25.79ZM124.21,73.9l.67-1.2c1.37.52,2.46,1.14,3.48,2.13l-.82,1.18c-1.16-1.07-2.04-1.59-3.33-2.12Z"/>
        <path d="M131.83,78.94c-.33-1.06-.55-2.97-.55-4.71,0-.75.03-1.81.09-2.75l1.59.33c-.09,1.02-.13,1.92-.13,2.88,0,1.64.17,2.81.43,3.67.32,1.02.76,1.64,1.2,1.64.48,0,1.11-1.04,1.51-2.94l1.32,1.11c-.63,2.37-1.7,3.51-2.8,3.51-1.21,0-2.13-1.07-2.66-2.75ZM138.69,73.29l1.14-1.02c1.8,1.65,2.32,3.67,2.71,6.52l-1.54.48c-.35-2.66-.9-4.77-2.31-5.98Z"/>
        <path d="M147.58,78.19c-.69.74-1.33,1.53-2.01,2.43l-1.26-.93c1.42-1.41,2.32-2.66,2.85-3.58.15-.27.3-.63.43-1v-1.27c-.92.24-2.07.42-2.74.46l-.3-1.4c.96-.08,2.12-.22,3.03-.42,0-.97-.01-1.72-.03-2.46l1.59.06c-.03.76-.04,1.48-.06,2.28l.88.42c-.21.57-.53,1.32-.88,2.16,1.54-1.44,2.98-2.13,4.44-2.13,2.1,0,3.69,1.53,3.69,3.83,0,2.74-1.73,4.38-4.77,5.23l-1.11-1.21c2.98-.76,4.3-2.13,4.3-3.99,0-1.35-.9-2.4-2.17-2.4s-2.85,1.04-4.41,2.46c0,2,0,3.46.03,5.76l-1.58.06c.03-1.68.06-3.03.08-4.35Z"/>
        <path d="M158.55,80.94c0-1.17.98-2.15,2.17-2.15s2.15.99,2.15,2.16-.98,2.16-2.17,2.16-2.15-.99-2.15-2.17ZM161.86,80.95c0-.64-.51-1.15-1.16-1.15s-1.16.52-1.16,1.15.51,1.16,1.16,1.16,1.16-.53,1.16-1.16Z"/>
      </g>
      <circle class="cls-5" cx="308.24" cy="80.46" r="30"/>
      <g>
        <g>
          <path class="cls-1" d="M325.7,73.01c1.96.16,1.33,2.32.37,3.57-.2.26-.59.3-.84.08-1.7-1.45-1.11-3.78.47-3.66Z"/>
          <path class="cls-1" d="M325.6,73.87c-.34,0-.62-.28-.62-.62v-3.88l-.98-1.36c-.2-.28-.13-.66.14-.86.28-.2.66-.13.86.14l1.09,1.52c.08.1.12.23.12.36v4.08c0,.34-.28.62-.62.62Z"/>
          <polygon class="cls-3" points="322.67 63.29 316.34 62.7 319.16 68.38 325.6 69.07 322.67 63.29"/>
          <rect class="cls-3" x="315.74" y="66.49" width="6.88" height="2.99" transform="translate(111.51 -183.75) rotate(38.45)"/>
          <path class="cls-1" d="M320.97,72.39c-.13,0-.27-.04-.38-.13-.27-.21-.31-.6-.1-.87l2.32-2.95c.13-.17.34-.25.55-.23l1.17.13-2.27-4.46-4.88-.46.69,1.4c.1.21.08.46-.06.65l-1.87,2.48c-.21.27-.59.33-.86.12-.27-.21-.33-.59-.12-.86l1.64-2.18-1.02-2.05c-.1-.2-.08-.44.04-.62s.34-.29.57-.26l6.32.59c.21.02.4.15.49.34l2.93,5.78c.1.2.09.44-.04.63-.13.19-.35.29-.57.26l-1.97-.21-2.11,2.68c-.12.15-.3.24-.49.24Z"/>
        </g>
        <path class="cls-6" d="M316.14,98l1.71-.86,4.59-2.84,2.64-4.39.28-4.79-2.34-9.89-4.79-6.82-5.62-3.02-6.16-.11-6.16,2.16-3.41,3.79-4.85,9.67-1.63,4.07-.28,5.61,3.62,4.23c4.39,3.17,12.82,4.62,22.39,3.2Z"/>
        <path class="cls-7" d="M324.99,86.66c-5.95-1.44-12.03,4.39-11.11,11.55,6.59-1.14,10.95-4.52,11.11-11.55Z"/>
        <ellipse class="cls-1" cx="300.75" cy="85.3" rx="1.91" ry="1.76" transform="translate(168.19 368.42) rotate(-80.75)"/>
        <ellipse class="cls-1" cx="311.28" cy="86.45" rx="1.76" ry="1.91" transform="translate(-3.59 14.16) rotate(-2.59)"/>
        <path class="cls-7" d="M290.97,83.97c5.2.87,7.66,6.71,5.13,12.44-4.82-3.29-7.39-6.4-5.13-12.44Z"/>
        <path class="cls-1" d="M311.49,98.83c-.33,0-.6-.25-.62-.58-.02-.34.24-.63.58-.65,4.82-.27,12.9-2.05,12.92-10.94,0-1.93-.17-6.91-1.92-11.46-2.11-5.46-5.73-8.5-10.79-9.04-12.14-1.29-14.96,5.89-16.82,10.64-.23.59-.45,1.14-.67,1.63-.21.47-.48,1.01-.76,1.58-1.47,2.98-3.7,7.49-2.19,11.05.9,2.11,3.06,3.71,6.43,4.77,1.39.44,3.2.96,4.76,1.11.34.03.59.33.55.67-.03.34-.34.59-.67.55-1.68-.16-3.56-.71-5.01-1.16-3.72-1.17-6.14-3.01-7.19-5.46-1.74-4.08.64-8.89,2.21-12.08.28-.56.54-1.09.74-1.54.21-.46.42-1,.64-1.58,1.88-4.79,5.03-12.8,18.1-11.41,5.55.59,9.52,3.89,11.81,9.82,1.83,4.74,2.01,9.91,2.01,11.91,0,2.06-.47,5.05-2.62,7.56-2.37,2.76-6.23,4.31-11.47,4.61-.01,0-.02,0-.04,0Z"/>
        <path class="cls-1" d="M299.49,84.66c-.07,0-.13-.02-.19-.07-.78-.62-1.18-1.25-1.48-2.35-.04-.16.05-.33.22-.38.16-.04.33.05.38.22.3,1.1.68,1.56,1.27,2.03.13.11.16.3.05.43-.06.08-.15.12-.24.12Z"/>
        <path class="cls-1" d="M299.29,85.27c-.83,0-1.72-.48-2.42-1.31-.11-.13-.09-.32.03-.44.13-.11.32-.1.44.03.63.74,1.44,1.15,2.12,1.08.17-.02.32.1.34.27.02.17-.1.32-.27.34-.08,0-.15.01-.23.01Z"/>
        <path class="cls-1" d="M312.13,85.88c-.15,0-.28-.11-.31-.27-.02-.17.1-.32.26-.35.68-.09,1.47-.68,1.91-1.43.09-.15.28-.19.42-.11.15.09.2.28.11.42-.54.92-1.49,1.61-2.36,1.73-.01,0-.03,0-.04,0Z"/>
        <path class="cls-1" d="M313.25,87.17c-.38,0-.78-.07-1.16-.25-.16-.07-.22-.25-.15-.41.07-.16.25-.22.41-.15.88.4,1.88.09,2.56-.25.15-.07.34-.01.41.14.08.15.01.34-.14.41-.52.26-1.21.5-1.92.5Z"/>
        <g>
          <path class="cls-2" d="M310.28,91.63c-.69-1.89-3.76-3.93-5.32-3.7-1.56.22-4.86,2.12-5.88,2.06s-1.74-.75-1.86,1.64,1.75,3.62,4.26,2.74c3.48,1.98,9.99.5,8.8-2.74Z"/>
          <path class="cls-2" d="M310.28,93.78c-.77,3.01-5.09,4.77-6.39,4.32-1.3-.44-4.02-1.68-2.59-4.29,2.58.43,8.21.42,8.33-.81s.65.78.65.78Z"/>
          <path class="cls-1" d="M305.2,95.89c-1.1,0-2.27-.34-3.48-1.02-2.37.67-3.69.04-4.39-.63-.88-.84-1.21-2.18-.86-3.5.35-1.34.95-1.45,1.88-1.47.67-.02,1.67-.04,3.32-.9,3.65-1.92,5.78-.82,7.87,1.43.2.22.19.56-.03.76-.22.2-.56.19-.76-.03-1.84-1.98-3.51-2.82-6.57-1.21-1.87.98-3.07,1.01-3.79,1.02q-.69.02-.86.67c-.24.93-.02,1.89.56,2.45.73.7,1.95.8,3.55.31.15-.05.3-.03.43.05,1.98,1.16,4.81,1.86,7.06-1.42.14-.21.41-.29.65-.19,0,0,.74.3,1.4.44.29.06.47.35.41.64-.06.29-.35.48-.64.41-.42-.09-.86-.24-1.17-.35-1.27,1.68-2.82,2.53-4.56,2.53Z"/>
          <path class="cls-1" d="M304.44,98.65c-.58,0-1.15-.1-1.66-.3-2.67-1.04-2.67-3.69-2.66-3.81,0-.3.25-.53.54-.53h0c.3,0,.54.25.53.55,0,.08.02,2.02,1.98,2.79,1.15.45,2.63.23,3.97-.59,1.48-.9,2.46-2.33,2.61-3.82.03-.3.29-.51.59-.48.3.03.51.3.48.59-.19,1.82-1.36,3.55-3.12,4.63-1.05.64-2.19.97-3.26.97Z"/>
        </g>
        <path class="cls-1" d="M300.81,76.96c1.71-.7,3.25-.04,3.97,1.3.17.31-.15.58-.48.41-1.07-.54-2.13-.81-3.29-1.03-.39-.07-.53-.55-.2-.68Z"/>
        <path class="cls-1" d="M314.39,79.57c-1.26-1.34-2.94-1.38-4.15-.47-.28.21-.11.59.27.58,1.2-.05,2.27.15,3.42.43.38.09.71-.28.47-.54Z"/>
      </g>
      <g>
        <path class="cls-8" d="M11.89,112.82h239.38c4.68,0,8.47,3.79,8.47,8.47v93.97s9.69,9.69,9.69,9.69h-9.69s0,.5,0,.5c0,4.68-3.79,8.47-8.47,8.47H11.89c-4.68,0-8.47-3.79-8.47-8.47v-104.16c0-4.68,3.79-8.47,8.47-8.47Z"/>
        <g>
          <path d="M17.52,140.7c1.23-2.76,2.1-5.34,2.71-7.93-1.02.08-1.98.12-2.78.15l-.16-1.51c1.03-.03,2.14-.08,3.28-.15.15-.81.3-1.63.42-2.47l1.54.24c-.13.72-.28,1.42-.43,2.11,1.11-.12,2.21-.25,3.27-.46l.24,1.5c-1.18.19-2.54.36-3.85.48-.69,2.93-1.54,5.7-2.71,8.65l-1.53-.6ZM22.75,138.77c0-.56.21-1.23.68-1.89l1.36.43c-.39.45-.57.9-.57,1.21,0,.58.66.92,2.13.92.96,0,1.98-.11,2.79-.29l.3,1.56c-.93.18-2.13.21-2.85.21-2.74,0-3.84-.9-3.84-2.16ZM23.52,133.97c1.71-.29,3.7-.42,5.4-.35l-.2,1.49c-1.63-.09-3.45.03-4.8.27l-.4-1.41ZM26.04,129.98l.9-.54c.55.71.85,1.24,1.24,2.11l-.94.57c-.39-.87-.71-1.45-1.2-2.14ZM27.75,129.47l.88-.55c.54.67.88,1.24,1.26,2.08l-.93.57c-.39-.87-.71-1.42-1.21-2.1Z"/>
          <path d="M32.28,140.27c1.28-2.39,2.07-4.33,2.71-6.57-.92.13-1.77.25-2.43.36l-.25-1.46c.69-.06,1.96-.2,2.98-.34.24-1.04.45-2.11.65-3.25l1.53.24c-.19.93-.4,1.86-.64,2.82.42-.03.81-.06,1.12-.06,1.44,0,2.4.88,2.4,2.68,0,1.29-.12,2.91-.45,4.27-.38,1.56-1.28,1.96-2.17,1.96-.71,0-1.4-.13-2.01-.36l-.12-1.65c.7.35,1.38.48,1.83.48.58,0,.89-.31,1.11-1.35.2-.88.3-2,.3-3.06s-.43-1.59-1.18-1.59c-.27,0-.62.03-1.16.09-.71,2.62-1.48,4.83-2.8,7.52l-1.41-.74ZM40.89,131.85l1.28-.84c1.04,1.47,1.75,3.2,2.34,5.46l-1.44.81c-.56-2.29-1.1-3.91-2.18-5.43Z"/>
          <path d="M50.56,140.19c3.18-.27,5.28-1.23,5.25-2.83-.02-.97-.84-1.6-2.13-1.58-1.58.03-3.15.96-4.4,2.34l-1.18-.57c.34-1.82.52-4.08.54-6.08l1.59.15c-.04,1.26-.2,2.85-.42,4.32,1.15-.99,2.73-1.49,3.9-1.52,2.05-.04,3.63.99,3.66,2.82v.07c0,2.38-2.04,3.72-5.87,4.2l-.94-1.33ZM49.96,130.31l.56-1.26c1.46.24,2.95.75,4.36,1.5l-.61,1.35c-1.44-.76-2.85-1.26-4.31-1.59Z"/>
          <path d="M59.92,138.85l1.3-1.12c.92.78,1.98,1.99,2.77,3.13l-1.41,1.24c-.69-1.15-1.64-2.29-2.67-3.25Z"/>
          <path d="M75.16,130.16h3.9c2.76,0,3.81,1.31,3.81,3.23,0,2.49-1.65,3.72-3.97,3.72h-1.92v3.82h-1.82v-10.77ZM76.96,131.61v4.07h1.71c1.68,0,2.36-.78,2.36-2.11,0-1.22-.51-1.95-2.28-1.95h-1.79Z"/>
          <path d="M84.06,130.16h6.43v1.49h-4.62v3.07h4.36v1.5h-4.36v3.24h4.62v1.47h-6.43v-10.77Z"/>
          <path d="M92.08,130.16h3.96c2.36,0,3.63,1.08,3.63,3.06,0,1.48-.66,2.58-1.88,3.17l2.69,4.54h-2.12l-2.26-4.12c-.2.01-.41.03-.62.03h-1.59v4.09h-1.82v-10.77ZM93.88,131.59v3.88h1.53c1.72,0,2.43-.73,2.43-2.08,0-1.16-.6-1.8-2.14-1.8h-1.82Z"/>
          <path d="M108.45,135.17c-1.11.45-2.14.87-2.89,1.19l-.69-1.47c.92-.34,1.95-.72,3.03-1.11-.48-1.17-.95-2.17-1.49-3.21l1.46-.6c.5.98.99,2.13,1.47,3.3.23-.09.44-.17.66-.24,1.83-.64,3.33-1.15,4.51-1.15,1.82,0,3.11,1.14,3.11,2.89s-1.5,2.94-3.67,2.94c-.44,0-.79-.04-1.11-.1l-.42-1.58c.39.13.9.2,1.37.2,1.39,0,2.28-.64,2.28-1.53,0-.93-.64-1.42-1.67-1.42-.75,0-2.04.38-3.84,1.08l-.69.27c.9,2.34,1.63,4.39,2.31,6.81l-1.53.48c-.58-2.31-1.38-4.59-2.19-6.74ZM109.95,130.46l.62-1.23c1.18.35,2.16.74,3.27,1.4l-.74,1.3c-1.15-.74-2.04-1.09-3.15-1.47Z"/>
          <path d="M123.33,130.16h3.96c2.36,0,3.63,1.08,3.63,3.06,0,1.48-.66,2.58-1.88,3.17l2.69,4.54h-2.12l-2.26-4.12c-.2.01-.41.03-.62.03h-1.59v4.09h-1.82v-10.77ZM125.13,131.59v3.88h1.53c1.72,0,2.43-.73,2.43-2.08,0-1.16-.6-1.8-2.14-1.8h-1.82Z"/>
          <path d="M132.01,135.71c0-3.29,2.08-5.66,5.1-5.66s5,2.16,5,5.34-1.92,5.64-5.17,5.64c-2.97,0-4.92-2.16-4.92-5.32ZM140.22,135.59c0-1.83-.78-3.92-3.24-3.92-1.92,0-3.08,1.79-3.08,3.86,0,2.25,1.17,3.9,3.15,3.9s3.16-1.65,3.16-3.84Z"/>
          <path d="M143.56,130.16h6.43v1.49h-4.62v3.07h4.36v1.5h-4.36v3.24h4.62v1.47h-6.43v-10.77Z"/>
          <path d="M150.81,138.85l1.3-1.12c.92.78,1.98,1.99,2.77,3.13l-1.41,1.24c-.69-1.15-1.64-2.29-2.67-3.25Z"/>
          <path d="M165.49,140.43c.71-.42,1.37-.9,2.01-1.48v-3.27h-1.83v-1.35h3.23v4.54c.84,1.11,1.93,1.43,5.04,1.43,1.32,0,2.71-.06,5.08-.2-.27.62-.38.96-.43,1.51-1.86.08-2.79.09-3.81.09-1.36,0-2.68-.08-3.46-.18-1.23-.12-2.43-.75-3.04-1.62-.61.79-1.27,1.5-1.95,2.04l-.83-1.51ZM165.99,130.07l1.11-.9c.77.66,1.53,1.47,2.13,2.26l-1.17.99c-.58-.84-1.35-1.72-2.07-2.36ZM175.84,139.58l-.17-1.27c.3.06.62.1.84.1.27,0,.36-.09.36-.36v-3.62h-5.73v5.14h-1.29v-6.19h.94v-4.2h6.39v4.2h.98v5.11c0,.88-.27,1.17-1.14,1.17-.36,0-.82-.03-1.18-.09ZM171.99,135.23h3.87v2.97h-2.74v.66h-1.12v-3.63ZM173.22,133.39v-2.15h2.71v-1h-3.87v3.15h1.16ZM174.75,137.24v-1.06h-1.63v1.06h1.63ZM175.93,133.39v-1.17h-1.53v1.17h1.53Z"/>
          <path d="M190.43,140.33c-2.36.41-5.64.79-8.94,1.08l-.44-1.48c.3-.02,1.14-.06,2.05-.12.74-1.27,1.33-2.55,1.85-3.85h-4.58v-1.29h5.52v-1.99h-4.33v-1.3h4.33v-2.37h1.53v2.37h4.42v1.3h-4.42v1.99h5.61v1.29h-6.43c-.54,1.33-1.14,2.58-1.8,3.73,1.84-.15,3.76-.33,4.72-.45-.63-.71-.94-1.07-1.59-1.72l1.25-.65c1.23,1.14,2.55,2.57,3.66,3.99l-1.32.93-1.09-1.46Z"/>
          <path d="M201.06,139.95c2.75-.69,4.38-2.37,4.38-4.5s-1.47-3.52-3.6-3.66c-.11,1.69-.38,3.17-.84,4.6-.72,2.25-2,3.48-3.36,3.48s-2.52-1.4-2.52-3.32c0-3.48,2.88-6.21,6.42-6.21,3.25,0,5.49,1.98,5.49,5.08,0,2.68-1.65,4.68-4.74,5.75l-1.23-1.23ZM197.69,138.27c.77,0,1.41-.9,1.88-2.38.41-1.32.65-2.49.74-3.96-2.07.52-3.64,2.42-3.64,4.65,0,.92.49,1.7,1.03,1.7Z"/>
          <path d="M214.86,138.74c-1.2,1.41-2.97,2.52-4.92,3.12l-.94-1.23c2.01-.46,3.73-1.32,5.04-2.49h-4.88v-1.08h5.7v-.79h-4.3v-.97h4.3v-.77h-4.87v-1.04h3.15c-.17-.43-.38-.81-.64-1.21h-3.18v-1.06h2.22c-.32-.78-.66-1.32-1.07-1.8l1.29-.48c.39.48.76,1.11,1.09,1.8l-1.23.48h2.01v-2.52h1.32v2.52h1.24v-2.52h1.32v2.52h1.88l-1.19-.39c.41-.66.78-1.42,1.01-2.01l1.42.44c-.35.73-.79,1.48-1.14,1.96h2.45v1.06h-3.31c-.2.44-.41.86-.63,1.21h3.25v1.04h-4.96v.77h4.41v.97h-4.41v.79h5.81v1.08h-4.84c1.33.99,3.04,1.72,4.93,2.13l-.96,1.32c-2-.66-3.71-1.66-4.94-2.91v3.24h-1.42v-3.18ZM216.52,133.49c.21-.34.41-.71.62-1.21h-3.17c.21.36.36.66.57,1.21h1.98Z"/>
          <path d="M225.57,135.89c-.96.09-1.41.12-1.94.15l-.33-1.3h1.11l.85-1.1c-.75-1.04-1.33-1.72-1.89-2.25l.78-1,.57.62c.51-.72.93-1.46,1.35-2.37l1.21.62c-.6,1-1.17,1.81-1.82,2.62.24.29.3.38.54.72.46-.66.86-1.33,1.46-2.31l1.19.71c-.78,1.21-1.73,2.46-2.79,3.67.45-.01,1.29-.07,1.6-.1-.13-.36-.27-.69-.43-1.02l.94-.34c.41.73.77,1.6,1.11,2.68l-1.09.56c-.09-.41-.12-.52-.2-.79l-.97.12v6.16h-1.26v-6.03ZM223.35,140.31c.32-.98.5-2.17.58-3.58l1.2.13c-.04,1.61-.22,2.85-.57,4.04l-1.21-.58ZM227.13,136.85l1.02-.3c.3.86.57,1.88.74,2.85l-1.2.55c-.1-1.11-.25-1.99-.55-3.1ZM228.03,140.94c1.11-.3,2.24-.81,2.96-1.35h-1.59v-5.27h6.45v5.27h-1.54c1.02.39,1.81.76,2.67,1.24l-1.11,1.05c-.78-.6-1.7-1.12-2.89-1.67l.81-.63h-2.54l.86.66c-1.09.84-2.13,1.44-3.08,1.77l-.99-1.08ZM228.57,132.77h3.35v-.6h-2.85v-.9h2.85v-.59h-3.11v-.96h3.11v-1.04h1.3v1.04h3.29v.96h-3.29v.59h2.86v.9h-2.86v.6h3.52v.99h-8.17v-.99ZM234.59,135.78v-.62h-3.93v.62h3.93ZM234.59,137.21v-.62h-3.93v.62h3.93ZM234.59,138.69v-.67h-3.93v.67h3.93Z"/>
          <path d="M244.44,139.95c2.75-.69,4.38-2.37,4.38-4.5s-1.47-3.52-3.6-3.66c-.11,1.69-.38,3.17-.84,4.6-.72,2.25-2,3.48-3.36,3.48s-2.52-1.4-2.52-3.32c0-3.48,2.88-6.21,6.42-6.21,3.25,0,5.49,1.98,5.49,5.08,0,2.68-1.65,4.68-4.74,5.75l-1.23-1.23ZM241.06,138.27c.77,0,1.41-.9,1.88-2.38.41-1.32.65-2.49.74-3.96-2.07.52-3.64,2.42-3.64,4.65,0,.92.49,1.7,1.03,1.7Z"/>
          <path d="M22.47,160.22c-.33.53-.68.97-.98,1.32l.04.9c-.69.25-1.12.42-1.51.54v3.99c0,.91-.29,1.15-1.3,1.15-.48,0-.95-.04-1.33-.12l-.27-1.4c.38.08.77.12,1.12.12.33,0,.42-.09.42-.41v-2.91c-.4.1-1.2.33-1.59.42l-.34-1.41c.95-.2,1.47-.32,1.93-.45v-2.99h-1.67v-1.32h1.67v-2.73h1.37v2.73h1.44v1.32h-1.44v2.64c.69-.2.97-.29,1.23-.38l-.49-.88c1.05-1.16,2.04-3.21,2.61-5.45l1.33.39c-.21.81-.46,1.48-.85,2.35h1.89c.42-.95.71-1.74.92-2.61l1.44.39c-.3.76-.63,1.56-.97,2.22h2.66v1.18h-2.7v1.61h2.33v1.15h-2.33v1.62h2.33v1.14h-2.33v1.8h3v1.23h-6.25v.76h-1.35v-7.95ZM25.75,160.46v-1.61h-1.93v1.61h1.93ZM25.75,163.23v-1.62h-1.93v1.62h1.93ZM25.75,166.18v-1.8h-1.93v1.8h1.93Z"/>
          <path d="M33.48,162.38c-.45,1.39-.97,2.52-1.65,3.49l-.71-1.42c1.01-1.29,1.68-2.61,2.15-4.25h-1.88v-1.27h2.08v-1.75c-.46.11-1.08.21-1.58.27l-.54-1.12c1.63-.24,3.03-.58,4.32-1.11l.96,1.14c-.6.21-1.17.39-1.86.56v2.02h1.71v1.27h-1.71v.87c.81.66,1.46,1.27,1.98,1.86l-.77,1.28c-.45-.66-.75-1.07-1.21-1.61v5.56h-1.3v-5.79ZM36.42,161.47c1.17-.38,2.31-.96,3.21-1.68-.38-.38-.76-.71-1.27-1.04-.3.29-.71.59-1.1.83l-.88-.93c1.56-.94,2.66-2.13,3.38-3.63l1.32.29c-.2.36-.33.6-.46.79h2.47l.63.58c-1.41,2.75-3.72,4.83-6.46,5.83l-.83-1.05ZM36.69,167.06c1.29-.35,2.76-.99,3.69-1.65-.42-.42-.72-.72-1.25-1.15-.51.39-1.09.76-1.63,1.04l-.85-1.02c1.88-.9,3.36-2.22,4.32-3.81l1.3.31c-.22.36-.28.46-.45.66h2.13l.67.63c-1.71,3.33-3.6,5.01-7.06,6.19l-.87-1.2ZM41.86,157.3h-2.03c-.19.24-.42.48-.71.75.58.34.89.57,1.37.97.69-.67,1.05-1.12,1.37-1.72ZM42.85,162.64h-1.9c-.32.33-.57.58-.96.92.57.4.83.6,1.33,1.05.62-.52,1.2-1.27,1.53-1.96Z"/>
          <path d="M46.53,164.21c1.35-2.04,2.19-3.66,2.8-5.29-.99.09-1.93.15-2.67.16l-.19-1.42c1-.02,2.19-.08,3.38-.2.22-.77.45-1.56.66-2.43l1.53.38c-.2.66-.38,1.27-.57,1.86.89-.12,1.73-.27,2.42-.45l.27,1.42c-.78.18-1.95.36-3.18.51-.73,2.04-1.6,3.92-3.03,6.27l-1.41-.81ZM49.6,165.52c0-1.14,1.06-2.05,2.67-2.05.36,0,.75.03,1.14.09-.03-.5-.06-1.08-.06-1.37,0-.42.06-1.15.51-1.92l1.33.77c-.29.58-.33.99-.33,1.41,0,.47.03.9.04,1.42,1.06.35,2.16.88,3.15,1.47l-.72,1.3c-.78-.55-1.58-1.02-2.35-1.35v.24c0,1.4-1,2.25-2.58,2.25-1.39,0-2.8-.71-2.8-2.26ZM52.39,166.35c.69,0,1.11-.31,1.11-.95,0-.12,0-.29-.01-.48-.34-.09-.69-.14-1-.14-.79,0-1.33.29-1.33.77,0,.53.55.79,1.25.79ZM54.66,159.14l.67-1.2c1.37.52,2.46,1.14,3.48,2.13l-.82,1.19c-1.16-1.07-2.04-1.59-3.33-2.12Z"/>
          <path d="M62.1,164.45c0-1.32,1-2.51,2.88-3.69-.62-1.41-1.31-3.21-1.71-4.98l1.57-.38c.27,1.41.89,3.25,1.44,4.62,1.11-.58,2.43-1.18,3.88-1.79-.39-.9-.78-1.51-1.25-2.16l.88-.53c.54.66.92,1.31,1.33,2.17l-.82.48.67,1.44c-3.95,1.35-7.35,3.11-7.35,4.63,0,.95.79,1.52,2.98,1.52,1.32,0,2.92-.11,4.67-.44l.27,1.61c-1.78.3-3.61.36-4.78.36-3.46,0-4.68-1.15-4.68-2.88ZM70.56,155.43l.9-.53c.58.71.96,1.32,1.37,2.16l-.96.53c-.42-.92-.78-1.53-1.31-2.16Z"/>
          <path d="M79.47,163.06c0-1.67,1.05-3.23,3.02-4.56-2.88.27-4.68.42-6.81.58l-.19-1.57c3.12-.12,7.92-.41,11.43-.97l.3,1.53c-2.08.29-2.79.51-4,1.47-1.38,1.08-2.21,2.19-2.21,3.55,0,1.71,1.46,2.59,4.04,2.96l-.67,1.44c-2.99-.42-4.89-1.86-4.89-4.42ZM83.83,160.81l.87-.58c.62.63,1.02,1.28,1.51,2.14l-.9.63c-.48-.92-.93-1.58-1.49-2.19ZM85.26,159.87l.88-.58c.6.58,1.07,1.27,1.52,2.08l-.9.6c-.51-.93-.9-1.51-1.5-2.1Z"/>
          <path d="M89.08,160.18c2.55-1,4.44-2.64,5.75-4.94h1.7c1.38,1.94,3.4,3.46,6.01,4.53l-.92,1.25c-.9-.4-1.77-.88-2.57-1.42v1.05h-6.42v-.84c-.84.6-1.74,1.12-2.67,1.54l-.89-1.17ZM99.45,166.79c-2.82.42-6.09.78-9.03,1l-.45-1.44c.69-.03,1.57-.08,2.07-.12.51-.9.97-1.84,1.38-2.9h-3.55v-1.29h11.91v1.29h-6.69c-.45,1.01-.93,1.94-1.42,2.81,1.92-.14,3.43-.25,4.88-.42-.38-.42-.83-.9-1.49-1.49l1.25-.69c1.26,1.09,2.47,2.37,3.48,3.66l-1.32.91c-.45-.63-.53-.72-1-1.33ZM98.74,159.38c-1.2-.84-2.28-1.83-3.06-2.87-.69,1.12-1.5,2.04-2.5,2.87h5.57Z"/>
          <path d="M106,162.91c-.58.63-1.05,1.09-1.81,1.72l-.71-1.32c1.44-.99,3.13-2.83,3.97-4.37h-3.52v-1.33h2.01v-2.58h1.41v2.58h1.38l.6.61c-.53,1.04-1.12,2.02-1.84,2.94.9.54,1.59,1.02,2.58,1.83l-.92,1.23c-.66-.69-1.11-1.11-1.74-1.62v5.56h-1.41v-5.26ZM108.72,166.27h3.27v-5.83h-2.64v-1.38h2.64v-3.84h1.48v3.84h2.92v1.38h-2.92v5.83h3.44v1.39h-8.19v-1.39Z"/>
          <path d="M124.63,166.2c2.75-.69,4.38-2.37,4.38-4.5s-1.47-3.52-3.6-3.66c-.11,1.69-.38,3.17-.84,4.6-.72,2.25-2,3.48-3.36,3.48s-2.52-1.4-2.52-3.32c0-3.48,2.88-6.21,6.42-6.21,3.25,0,5.49,1.98,5.49,5.08,0,2.68-1.65,4.68-4.74,5.75l-1.23-1.23ZM121.26,164.52c.77,0,1.41-.9,1.88-2.38.41-1.32.65-2.49.74-3.96-2.07.52-3.64,2.42-3.64,4.65,0,.92.49,1.7,1.03,1.7Z"/>
          <path d="M133.06,166.76c2.65-.19,4.29-.6,5.65-1.41-.72-.33-1.47-.63-2.22-.93-.17.27-.33.51-.54.77l-1.32-.57c.69-.99,1.22-1.81,1.74-2.76h-3.57v-1.28h4.21c.34-.71.7-1.48.96-2.19l1.44.3c-.34.91-.57,1.42-.81,1.89h6.97v1.28h-2.82c-.38,1.28-.93,2.28-1.68,3.11,1.38.62,2.75,1.26,3.97,1.88l-1,1.23c-1.32-.75-2.61-1.44-3.92-2.06-1.39,1.08-3.52,1.79-6.18,2.06l-.9-1.31ZM133.23,156.68h5.14v-1.74h1.56v1.74h5.24v3.12h-1.49v-1.88h-8.97v1.88h-1.48v-3.12ZM141.24,161.85h-3.21c-.32.58-.56,1-.86,1.52.84.3,1.7.63,2.59,1.02.6-.57,1.17-1.54,1.47-2.54Z"/>
          <path d="M147.21,167.04c1.37-1.26,2.28-3.04,2.71-5.37l1.42.34c-.17.75-.3,1.29-.52,1.89.54.77,1.18,1.29,2.04,1.72v-5.04h-3.12v-1.23h7.83v1.23h-3.21v1.92h4.39v1.25h-4.39v2.26c.96.17,2.08.24,3.49.24.74,0,1.33-.02,2.36-.08-.25.58-.38.94-.5,1.53-.69.01-1.05.03-1.38.03-4.7,0-6.62-.62-8-2.56-.63,1.3-1.29,2.23-2.11,3.01l-1.02-1.16ZM147.67,156.71h5.17v-1.77h1.53v1.77h5.26v3.24h-1.49v-2h-9v2h-1.49v-3.24Z"/>
          <path d="M161.25,162.18c.3-1.28.44-2.5.5-4.33l1.2.15c-.06,2-.23,3.48-.54,4.84l-1.16-.66ZM163.33,154.94h1.42v2.8l.98-.51c.38.69.64,1.32.85,1.98.32-1,.54-1.93.75-3.34l1.32.24c-.09.66-.21,1.26-.38,2.04h1.36v-3.07h1.42v3.07h3.24v1.28h-3.24v2.65h2.91v1.29h-2.91v3.06h3.65v1.32h-8.66v-1.32h3.58v-3.06h-2.73v-1.29h2.73v-2.65h-1.71c-.31,1-.69,1.86-1.11,2.55l-1.08-.9c.33-.57.58-1.12.79-1.74l-1.08.64c-.2-.82-.41-1.39-.71-2.08v10.27h-1.42v-13.23Z"/>
          <path d="M179.71,161.42c-1.11.45-2.14.87-2.89,1.19l-.69-1.47c.92-.34,1.95-.72,3.03-1.11-.48-1.17-.95-2.17-1.49-3.21l1.46-.6c.5.98.99,2.13,1.47,3.3.23-.09.44-.17.66-.24,1.83-.64,3.33-1.15,4.51-1.15,1.82,0,3.11,1.14,3.11,2.89s-1.5,2.94-3.67,2.94c-.44,0-.79-.04-1.11-.1l-.42-1.58c.39.13.9.2,1.37.2,1.39,0,2.28-.64,2.28-1.53,0-.93-.64-1.42-1.67-1.42-.75,0-2.04.38-3.84,1.08l-.69.27c.9,2.34,1.63,4.39,2.31,6.81l-1.53.48c-.59-2.31-1.38-4.59-2.19-6.74ZM181.21,156.71l.62-1.23c1.18.35,2.16.74,3.27,1.4l-.74,1.3c-1.15-.74-2.04-1.09-3.15-1.47Z"/>
          <path d="M193.5,162.21c-.65,1.53-1.37,2.72-2.17,3.6l-.88-1.32c1.26-1.17,2.17-2.54,2.86-4.28h-2.62v-1.32h2.82v-1.66c-.54.1-1.16.19-2.03.29l-.58-1.2c1.96-.21,3.78-.58,5.37-1.12l.85,1.2c-.63.21-1.47.42-2.2.57v1.93h2.46v1.32h-2.46v1.04c.97.63,1.74,1.21,2.47,1.88l-.83,1.38c-.54-.66-1.04-1.18-1.65-1.75v5.41h-1.41v-5.96ZM198.19,156.65h1.43v7.89h-1.43v-7.89ZM199,167.78l-.3-1.53c.73.12,1.51.2,2.14.2.43,0,.55-.12.55-.55v-10.28h1.44v10.86c0,1.11-.39,1.42-1.73,1.42-.66,0-1.47-.04-2.11-.12Z"/>
          <path d="M205,166.42h1.88v-3.66c-.36.27-.74.48-1.23.75l-.98-1.04c1.86-.87,3.18-2.01,4.09-3.53h-3.55v-1.23h3.69c-.35-.83-.74-1.49-1.16-2.01l1.39-.62c.41.54.88,1.32,1.29,2.13l-1.12.5h2.94c.61-.96.97-1.65,1.38-2.68l1.59.55c-.36.71-.72,1.26-1.35,2.13h3.92v1.23h-3.54c.98,1.28,2.34,2.34,4.08,3.21l-.92,1.17c-.34-.2-.87-.53-1.29-.84v3.93h1.86v1.26h-12.97v-1.26ZM215.52,162.05c-1.14-.9-2.03-1.88-2.8-3.11h-2.47c-.63,1.23-1.38,2.19-2.45,3.11h7.72ZM209.56,166.42v-3.2h-1.38v3.2h1.38ZM212.14,166.42v-3.2h-1.37v3.2h1.37ZM214.81,166.42v-3.2h-1.44v3.2h1.44Z"/>
          <path d="M225.85,166.2c2.75-.69,4.38-2.37,4.38-4.5s-1.47-3.52-3.6-3.66c-.11,1.69-.38,3.17-.84,4.6-.72,2.25-2,3.48-3.36,3.48s-2.52-1.4-2.52-3.32c0-3.48,2.88-6.21,6.42-6.21,3.25,0,5.49,1.98,5.49,5.08,0,2.68-1.65,4.68-4.74,5.75l-1.23-1.23ZM222.48,164.52c.77,0,1.41-.9,1.88-2.38.41-1.32.65-2.49.74-3.96-2.07.52-3.64,2.42-3.64,4.65,0,.92.49,1.7,1.03,1.7Z"/>
          <path d="M233.64,167.04c.92-1.2,1.25-2.62,1.25-5.25v-4.26h5.47c-.12-.87-.19-1.8-.24-2.59h1.46c.04.73.14,1.72.23,2.52h4.9v1.3h-4.72c.17,1.41.57,3.06.97,4.06.68-1,1.14-1.99,1.53-3.27l1.32.66c-.58,1.54-1.33,2.92-2.17,4.06.49.92,1.27,1.82,1.54,1.82.22,0,.42-.67.58-2.12l1.24.81c-.38,2.4-.73,3.15-1.48,3.15s-1.98-1.05-2.87-2.45c-.97,1.08-1.95,1.86-3.25,2.58l-1-1.14c1.42-.69,2.54-1.56,3.55-2.75-.57-1.21-1.08-3.1-1.41-5.35h-4.2v1.67h3.71c-.14,4.88-.35,5.46-1.8,5.46-.48,0-1.02-.04-1.46-.13l-.17-1.39c.45.11.96.18,1.27.18.51,0,.54-.11.71-2.85h-2.26c0,3.17-.43,5.01-1.58,6.36l-1.12-1.08ZM242.7,155.71l1.29-.65c.58.48,1.12,1.02,1.53,1.59l-1.37.74c-.42-.66-.96-1.27-1.46-1.68Z"/>
          <path d="M17.49,193c.65-.08,1.41-.21,2.01-.35v-3.86h-2.52v-1.17h2.52v-5.83h9.06v1.15h-7.57v.84h6.97v1.04h-6.97v.84h6.97v1.05h-6.97v.91h9.07v1.17h-5.86c.22.6.73,1.32,1.37,1.92.93-.57,1.68-1.12,2.52-1.86l1.23.88c-.99.75-1.72,1.23-2.7,1.8.92.63,2.13,1.14,3.51,1.47l-.9,1.32c-3.21-.87-5.58-2.89-6.45-5.54h-1.79v3.56c1.17-.24,2.01-.45,3.01-.76l.12,1.26c-1.84.62-4,1.17-6.07,1.56l-.56-1.41Z"/>
          <path d="M32.43,187.77c0-.53.38-1.26,1.02-1.92l1.05.51c-.4.36-.64.68-.64.88,0,.33.43.48,1.5.48h.22c.06-.36.11-.73.17-1.14.06-.45.13-.93.2-1.42-1-.02-2.01-.08-2.9-.2l-.07-1.42c1.05.15,2.11.24,3.15.24.12-.93.24-1.8.3-2.43l1.56.21c-.11.52-.24,1.32-.38,2.17.92-.04,1.83-.15,2.74-.31l.09,1.42c-.89.15-2.04.25-3.06.29-.07.52-.13,1.02-.19,1.47-.04.38-.09.72-.12,1.04,1.06-.11,2.17-.3,3.03-.57l.33,1.41c-1.11.24-2.37.39-3.51.46-.04.55-.08.96-.08,1.21,0,1.38.62,2.16,2.07,2.14,1.54-.01,2.92-1.09,2.92-2.89,0-.93-.33-1.68-.93-2.68l1.56-.06c.66,1.09.88,2.17.88,2.94,0,2.65-1.84,4.2-4.47,4.2-2.43,0-3.54-1.21-3.54-3.33,0-.34.03-.84.09-1.46h-.36c-1.96,0-2.64-.56-2.64-1.25Z"/>
          <path d="M46.18,186.58h12.51v1.65h-12.51v-1.65Z"/>
          <path d="M62.47,188.5c-.48.04-1.32.12-2.01.16l-.33-1.3c.27,0,.72-.01,1.12-.03l.85-1.1c-.66-.93-1.3-1.7-1.86-2.23l.8-1.01.51.57c.54-.79.99-1.57,1.36-2.45l1.22.63c-.65,1.06-1.2,1.89-1.85,2.65.23.29.32.41.57.79.62-.87,1.05-1.56,1.5-2.32l1.18.72c-.84,1.26-1.83,2.53-2.85,3.69.75-.04,1.38-.08,1.63-.11-.13-.41-.19-.54-.43-1.05l.96-.36c.18.35.24.5.42.9v-1.08h2.73v-1.49h-1.93v-1.18h2.04v-1.72h1.33v1.72h1.62v.78c.46-.72.73-1.2,1.03-1.79l1.12.6c-.66,1.12-1.39,2.16-2.08,2.97h2.43v1.17h-3.36c-.54.55-.97.96-1.37,1.25h3.63v6.52h-1.3v-.62h-2.98v.62h-1.31v-4.83l-1.02.71-.75-1.02c1.09-.6,2.4-1.59,3.41-2.52h-3.21c.22.55.4,1.04.54,1.6l-1.01.57c-.04-.17-.09-.41-.16-.72-.45.07-.62.09-.96.13v6.07h-1.24v-5.92ZM60.21,192.9c.3-1.02.5-2.19.57-3.55l1.2.13c-.08,1.65-.27,2.91-.58,3.99l-1.19-.57ZM63.96,189.43l.99-.3c.29.79.6,1.92.79,3.02l-1.14.49c-.18-1.3-.38-2.28-.65-3.21ZM71.17,190.23v-1.23h-2.98v1.23h2.98ZM71.17,192.63v-1.3h-2.98v1.3h2.98ZM69.58,185.59c.36-.38.79-.9,1.21-1.49h-1.46v1.49h.24Z"/>
          <path d="M76.24,188.87c0-1.43.32-3.93.86-6.79l1.53.24c-.6,2.89-.92,5.41-.92,6.58,0,.46.03,1.01.11,1.46.24-.77.62-1.65.9-2.19l.9.9c-.46.93-.67,1.53-.84,2.1-.2.69-.3,1.36-.24,1.99l-1.18.5c-.62-1.21-1.11-2.82-1.11-4.78ZM80.59,190.51c0-.65.27-1.37.99-2.18l1.42.48c-.69.6-.92,1.08-.92,1.46,0,.75.63,1.19,2.29,1.19.66,0,1.63-.09,2.59-.32l.3,1.56c-1.04.17-2.07.21-2.7.21-2.71,0-3.99-.72-3.99-2.4ZM80.76,183.6c1.68.03,4.29-.12,6-.39l.18,1.5c-1.72.27-4.32.43-6.04.39l-.14-1.5Z"/>
          <path d="M92.22,193.29c2.42-1.42,3.29-3.3,3.44-5.2-2.04.03-3.88.03-5.73.04l-.03-1.46c1.92.03,3.78.01,5.77-.01v-2.54c-1.21.22-2.4.4-3.34.53l-1.07-1.25c3.27-.39,6.03-.97,7.75-1.68l1.37,1.02c-.84.41-1.98.76-3.21,1.05v2.83c1.49-.03,3.04-.06,4.79-.12l.04,1.48c-1.75.03-3.34.06-4.83.08-.12,2.38-1.23,4.65-3.48,6.03l-1.47-.81Z"/>
          <path d="M105.34,191.36h4.11v-3.83c-1.16.02-2.24.02-3.27.02l-.02-1.32c2.46.03,5.07.02,8.04-.04l.03,1.3-3.36.04v3.83l4.29-.04v1.35c-3.2,0-6.39.01-9.79.04l-.03-1.35Z"/>
          <path d="M120.24,186.83l1.18-.6c.54.88.99,1.83,1.35,2.76l-1.22.63c-.36-.96-.75-1.8-1.32-2.79ZM122.23,193.16c3.34-1.54,4.83-4,5.35-7.53l1.42.46c-1,4.39-2.43,6.33-5.56,8.08l-1.21-1.02ZM123.22,186.02l1.22-.55c.52.96.81,1.69,1.2,2.88l-1.26.57c-.38-1.21-.66-1.91-1.16-2.9Z"/>
          <path d="M135.67,193.05c3.66-1.75,5.8-4.56,6.74-7.9-1.47.04-2.96.06-4.1.06-.82,1.42-1.81,2.65-3.01,3.67l-1.46-.78c2.08-1.79,3.51-3.93,4.35-6.38l1.56.41c-.21.56-.43,1.11-.67,1.64,1.17-.02,2.54-.05,4.23-.09l.96.76c-1.2,4.71-3.39,7.61-7.21,9.73l-1.38-1.12Z"/>
          <path d="M151.48,193.31c1.35-.5,2.59-1.43,3.06-2.49-.32.26-.72.41-1.16.41-1.53,0-2.5-1.14-2.5-2.68,0-1.38,1.11-2.36,2.42-2.36.43,0,.87.15,1.16.35l-.04-1.32c-2.28.09-4.63.2-6.66.29l-.1-1.5c1.99-.04,4.39-.11,6.7-.21l-.08-2.43,1.58.04c-.01.74-.01,1.53-.01,2.33,1.41-.08,2.76-.15,3.92-.24l.09,1.48c-1.19.06-2.57.12-4,.18l.04,2.4c.17.53.22,1.18.22,1.83,0,2.08-.78,3.72-3.39,5.02l-1.23-1.09ZM154.44,188.57c0-.66-.43-1.06-.99-1.06-.68,0-1.1.53-1.1,1.15s.41,1.21,1.07,1.21,1.02-.51,1.02-1.3Z"/>
          <path d="M165.16,191.63c0-1.05.95-1.82,2.23-1.82s2.39.72,3.12,2.01c.72-.48,1.19-1.19,1.19-2.03,0-1.05-1.07-1.91-2.79-1.91-1.1,0-2.42.36-3.42.99-.69.43-1.2.85-1.96,1.63l-1.04-1.12c1.65-1.27,4.05-3.39,6.21-5.82-1.21.21-2.73.34-3.99.4l-.27-1.44c1.72-.03,3.61-.15,5.77-.55l.85,1.05c-1.44,1.54-2.56,2.61-3.91,3.83.69-.21,1.33-.3,1.93-.3,2.52,0,4.16,1.33,4.16,3.2,0,2.4-2.4,4.05-5.24,4.05-1.54,0-2.85-.82-2.85-2.17ZM168.16,192.48c.39,0,.75-.04,1.11-.13-.46-.81-1.11-1.26-1.8-1.26-.51,0-.81.26-.81.59,0,.52.66.81,1.5.81Z"/>
          <path d="M182.47,192.45c2.75-.69,4.38-2.37,4.38-4.5s-1.47-3.52-3.6-3.66c-.11,1.69-.38,3.17-.84,4.6-.72,2.25-2,3.48-3.36,3.48s-2.52-1.4-2.52-3.32c0-3.48,2.88-6.21,6.42-6.21,3.25,0,5.49,1.98,5.49,5.08,0,2.68-1.65,4.68-4.74,5.75l-1.23-1.23ZM179.1,190.77c.77,0,1.41-.9,1.88-2.38.41-1.32.65-2.49.74-3.96-2.07.52-3.64,2.42-3.64,4.65,0,.92.49,1.7,1.03,1.7Z"/>
          <path d="M191.04,192.92c1.25-2.34,2.1-4.38,2.71-6.57-.92.14-1.77.25-2.43.36l-.25-1.46c.69-.06,1.96-.2,2.98-.35.24-1.03.45-2.11.65-3.25l1.53.24c-.19.93-.42,1.86-.66,2.82.44-.03.83-.06,1.14-.06,1.44,0,2.4.88,2.4,2.68,0,1.29-.12,2.91-.45,4.27-.37,1.56-1.27,1.96-2.17,1.96-.7,0-1.39-.13-2.01-.36l-.12-1.65c.71.35,1.38.48,1.83.48.58,0,.88-.32,1.11-1.35.19-.89.3-2,.3-3.06s-.43-1.59-1.18-1.59c-.26,0-.62.03-1.14.09-.73,2.59-1.53,4.88-2.82,7.51l-1.41-.74ZM199.03,184.89l1.23-.92c1.17,1.39,1.95,3.06,2.64,5.19l-1.38.9c-.72-2.26-1.35-3.97-2.49-5.17ZM200.2,182.78l.79-.66c.63.6,1.05,1.11,1.56,2.01l-.86.67c-.51-.92-.94-1.49-1.5-2.02ZM201.66,181.94l.79-.66c.68.58,1.08,1.15,1.56,1.98l-.87.66c-.45-.84-.9-1.46-1.49-1.98Z"/>
          <path d="M205.18,192.83c2.97-1.09,5.01-3.6,5.37-6.58h-5.29v-1.46h5.4v-3.31h1.59v3.31h5.5v1.46h-5.24c.81,2.67,2.89,4.99,5.56,6.24l-1.08,1.41c-2.43-1.33-4.42-3.6-5.38-6.15-.51,2.74-2.58,5.19-5.4,6.39l-1.04-1.3Z"/>
          <path d="M223.33,194.3l-.24-1.26c.69.1,1.29.16,1.6.16.38,0,.48-.07.48-.4v-.84h-4.69v-.99h4.69v-.74h-5.83v-1.02h5.83v-.67h-4.68v-.96h4.68v-.73h-3.81v-2.59h3.81v-.72h-5.47v-1.05h5.47v-1.29h1.44v1.29h5.6v1.05h-5.6v.72h3.93v2.59h-3.93v.73h4.38v1.63h1.58v1.02h-1.58v2.35h-1.42v-.63h-2.96v1.24c0,.95-.31,1.2-1.42,1.2-.5,0-1.26-.04-1.86-.1ZM225.18,185.96v-.83h-2.46v.83h2.46ZM229.2,185.96v-.83h-2.58v.83h2.58ZM229.57,189.21v-.67h-2.96v.67h2.96ZM229.57,190.97v-.74h-2.96v.74h2.96Z"/>
          <path d="M234.51,190.46c1.35-2.04,2.19-3.66,2.8-5.29-.99.09-1.93.15-2.67.16l-.19-1.42c1-.02,2.19-.08,3.38-.2.22-.77.45-1.56.66-2.43l1.53.38c-.2.66-.38,1.27-.57,1.86.89-.12,1.73-.27,2.42-.45l.27,1.42c-.78.18-1.95.36-3.18.51-.73,2.04-1.6,3.92-3.03,6.27l-1.41-.81ZM237.58,191.77c0-1.14,1.06-2.05,2.67-2.05.36,0,.75.03,1.14.09-.03-.5-.06-1.08-.06-1.37,0-.42.06-1.15.51-1.92l1.33.77c-.29.58-.33.99-.33,1.41,0,.47.03.9.04,1.42,1.06.35,2.16.88,3.15,1.47l-.72,1.3c-.78-.55-1.58-1.02-2.35-1.35v.24c0,1.4-1,2.25-2.58,2.25-1.39,0-2.8-.71-2.8-2.26ZM240.37,192.6c.69,0,1.11-.31,1.11-.95,0-.12,0-.29-.01-.48-.34-.09-.69-.14-1-.14-.79,0-1.33.29-1.33.77,0,.53.55.79,1.25.79ZM242.64,185.39l.67-1.2c1.37.52,2.46,1.14,3.48,2.13l-.82,1.19c-1.16-1.07-2.04-1.59-3.33-2.12Z"/>
          <path d="M23.41,218.7c2.75-.69,4.38-2.37,4.38-4.5s-1.47-3.52-3.6-3.66c-.11,1.69-.38,3.17-.84,4.6-.72,2.25-2,3.48-3.36,3.48s-2.52-1.4-2.52-3.32c0-3.48,2.88-6.21,6.42-6.21,3.25,0,5.49,1.98,5.49,5.08,0,2.68-1.65,4.68-4.74,5.75l-1.23-1.23ZM20.04,217.02c.77,0,1.41-.9,1.88-2.38.41-1.32.65-2.49.74-3.96-2.07.52-3.64,2.42-3.64,4.65,0,.92.49,1.7,1.03,1.7Z"/>
          <path d="M36.76,218.6c0-.66.49-1.23,1.21-1.23s1.21.57,1.21,1.23-.5,1.21-1.21,1.21-1.21-.56-1.21-1.21ZM37.09,208.91h1.76l-.09,7.34h-1.56l-.11-7.34Z"/>
        </g>
        <circle class="cls-5" cx="311.97" cy="221.79" r="30"/>
        <g>
          <path class="cls-1" d="M329.9,213.3c1.98.16,1.35,2.34.38,3.61-.2.27-.59.3-.85.08-1.72-1.47-1.12-3.82.47-3.69Z"/>
          <path class="cls-1" d="M329.79,214.17c-.34,0-.62-.28-.62-.62v-3.92l-.99-1.38c-.2-.28-.14-.67.14-.87.28-.2.67-.14.87.14l1.1,1.54c.08.11.12.23.12.36v4.12c0,.34-.28.62-.62.62Z"/>
          <path class="cls-4" d="M314.61,239.17c1.36-.08,2.68-.26,3.95-.54,9.96-2.2,10.33-7.28,10.2-11.51s-1.05-19.4-13.27-20.23c-12.22-.83-15.37,8.9-17.74,12.05-2.37,3.15-10.98,13.01,5.18,18.52,1.58.54,3.14.95,4.68,1.24"/>
          <polygon class="cls-3" points="326.76 203.28 320.56 202.71 323.32 208.28 329.63 208.95 326.76 203.28"/>
          <rect class="cls-3" x="319.97" y="206.42" width="6.74" height="2.93" transform="translate(199.42 -156) rotate(38.45)"/>
          <path class="cls-7" d="M294.04,224.86c5.12.33,8.07,5.74,6.18,11.54-4.99-2.72-7.78-5.48-6.18-11.54Z"/>
          <path class="cls-7" d="M328.24,227.02c-5.9-.82-10.43,4.27-9.51,10.87,6.27-1.75,10.04-4.05,9.51-10.87Z"/>
          <ellipse class="cls-1" cx="306.23" cy="227.2" rx="1.86" ry="1.71" transform="translate(34.16 494.36) rotate(-81.05)"/>
          <path class="cls-1" d="M306.07,217.42c1.67-.68,3.18-.04,3.89,1.27.17.31-.14.57-.47.41-1.05-.53-2.09-.79-3.22-1.01-.38-.07-.52-.54-.2-.67Z"/>
          <path class="cls-1" d="M319.38,219.97c-1.24-1.32-2.88-1.35-4.07-.46-.28.21-.11.58.26.56,1.18-.05,2.23.15,3.35.42.37.09.69-.27.46-.52Z"/>
          <path class="cls-1" d="M314.61,239.78c-.32,0-.58-.25-.6-.57-.02-.33.24-.62.57-.64,1.31-.08,2.61-.25,3.85-.53,9.99-2.21,9.83-7.44,9.72-10.9-.13-4.35-.83-8.12-2.06-11.19-2.12-5.28-5.7-8.12-10.65-8.46-9.8-.66-13.46,5.57-15.88,9.7-.49.84-.91,1.56-1.33,2.11-.12.16-.25.33-.39.51-1.69,2.2-4.83,6.29-3.64,10.22.85,2.82,3.86,5.13,8.92,6.86,1.53.52,3.07.93,4.59,1.21.33.06.54.38.48.71-.06.33-.38.55-.71.48-1.58-.3-3.18-.72-4.76-1.26-5.46-1.86-8.72-4.43-9.69-7.65-1.37-4.52,2.15-9.1,3.84-11.3.14-.18.27-.35.38-.5.38-.5.78-1.2,1.26-2,2.42-4.12,6.46-11.01,17.01-10.29,5.45.37,9.39,3.47,11.69,9.21,1.28,3.2,2.01,7.11,2.15,11.6.15,4.69-.55,9.89-10.67,12.12-1.3.29-2.66.47-4.04.55-.01,0-.02,0-.04,0Z"/>
          <path class="cls-1" d="M305.29,226.56c-.07,0-.13-.02-.19-.07-.77-.61-1.16-1.23-1.45-2.3-.04-.16.05-.33.21-.37.16-.04.33.05.37.21.29,1.08.66,1.53,1.24,1.99.13.1.15.29.05.42-.06.08-.15.11-.24.11Z"/>
          <path class="cls-1" d="M305.1,227.16c-.81,0-1.68-.47-2.38-1.28-.11-.13-.09-.32.03-.43.13-.11.32-.09.43.03.63.74,1.4,1.13,2.08,1.06.16-.02.32.1.33.27s-.1.32-.27.33c-.08,0-.15.01-.23.01Z"/>
          <path class="cls-1" d="M325.1,212.2c-.13,0-.26-.04-.37-.13-.26-.21-.31-.59-.1-.85l2.28-2.89c.13-.16.33-.25.54-.23l1.15.12-2.22-4.37-4.78-.45.68,1.37c.1.2.08.45-.06.63l-1.83,2.43c-.2.27-.58.32-.85.12-.27-.2-.32-.58-.12-.85l1.6-2.13-1-2.01c-.1-.2-.08-.43.04-.61.12-.18.34-.28.55-.26l6.19.58c.21.02.39.14.48.33l2.88,5.66c.1.2.08.43-.04.62-.13.18-.34.28-.56.26l-1.93-.21-2.07,2.62c-.12.15-.3.23-.48.23Z"/>
          <path class="cls-2" d="M315.29,232.99c-.68-1.85-3.69-3.85-5.22-3.63-1.53.22-4.76,2.08-5.76,2.02-1.01-.06-1.7-.74-1.82,1.61s1.72,3.55,4.17,2.69c3.41,1.94,9.79.49,8.63-2.69Z"/>
          <path class="cls-2" d="M315.29,235.09c-.76,2.94-4.99,4.67-6.27,4.24-1.28-.43-3.94-1.64-2.54-4.21,2.53.42,8.05.42,8.16-.8s.64.77.64.77Z"/>
          <path class="cls-1" d="M310.32,237.16c-1.07,0-2.22-.33-3.41-1-2.32.66-3.62.04-4.3-.61-.86-.82-1.18-2.14-.84-3.43.35-1.31.93-1.42,1.84-1.44.65-.02,1.64-.04,3.25-.88,3.58-1.88,5.67-.8,7.71,1.4.2.21.19.55-.03.75s-.55.19-.75-.03c-1.8-1.94-3.44-2.76-6.44-1.18-1.83.96-3.01.99-3.72,1q-.67.02-.84.65c-.24.91-.02,1.85.55,2.4.71.68,1.92.79,3.47.3.14-.04.3-.03.43.05,1.94,1.14,4.71,1.83,6.92-1.39.14-.21.4-.28.64-.19,0,0,.73.29,1.37.44.29.06.47.35.4.63-.06.29-.35.47-.63.4-.42-.09-.85-.23-1.14-.34-1.24,1.64-2.77,2.48-4.47,2.48Z"/>
          <path class="cls-1" d="M309.57,239.87c-.57,0-1.12-.1-1.63-.29-2.62-1.02-2.61-3.62-2.61-3.73,0-.29.24-.52.53-.52h0c.29,0,.53.24.52.54,0,.08.02,1.98,1.94,2.73,1.12.44,2.58.22,3.89-.58,1.45-.88,2.41-2.28,2.56-3.74.03-.29.29-.5.58-.47.29.03.5.29.47.58-.19,1.78-1.33,3.48-3.06,4.54-1.03.63-2.15.95-3.19.95Z"/>
          <path class="cls-1" d="M314.47,229.31c-.15,0-.29-.05-.41-.15-.27-.23-.3-.63-.08-.9.73-.86,1.61-1.32,2.49-1.27.79.04,1.53.49,2.06,1.26.2.29.13.69-.16.89-.29.2-.69.13-.89-.16-.21-.31-.57-.68-1.07-.71-.47-.02-.99.27-1.45.82-.13.15-.31.23-.49.23Z"/>
          <path class="cls-1" d="M317.53,228.21c-.15,0-.28-.11-.3-.26-.02-.17.09-.32.26-.34.71-.1,1.53-.71,1.99-1.49.09-.14.27-.19.41-.11.14.09.19.27.11.41-.56.94-1.53,1.66-2.43,1.78-.01,0-.03,0-.04,0Z"/>
          <path class="cls-1" d="M318.97,228.78c-.39,0-.8-.07-1.19-.25-.15-.07-.22-.25-.15-.4.07-.15.25-.22.4-.15.91.42,1.95.09,2.65-.26.15-.07.33-.01.4.14.07.15.01.33-.14.41-.54.26-1.24.52-1.98.52Z"/>
        </g>
      </g>
    </g>
  </g>
</svg>