<?xml version="1.0" encoding="UTF-8"?>
<svg id="_レイヤー_2" data-name="レイヤー 2" xmlns="http://www.w3.org/2000/svg" width="339.72" height="212.56" viewBox="0 0 339.72 212.56">
  <defs>
    <style>
      .cls-1 {
        fill: #211815;
      }

      .cls-2 {
        fill: #f5f19b;
      }

      .cls-3 {
        fill: #e0a99c;
      }

      .cls-4 {
        fill: #ecbb6e;
      }

      .cls-5 {
        fill: #93c9ce;
      }

      .cls-6 {
        fill: #5c948d;
      }

      .cls-7 {
        fill: #fffba1;
      }

      .cls-8, .cls-9 {
        fill: #fff;
      }

      .cls-10 {
        fill: #d3f2c9;
      }

      .cls-11 {
        fill: #ceeaeb;
      }

      .cls-12 {
        fill: #f2ec67;
      }

      .cls-13 {
        fill: #f2d496;
      }

      .cls-9 {
        stroke: #ceeaeb;
        stroke-miterlimit: 10;
        stroke-width: 2.83px;
      }
    </style>
  </defs>
  <g id="_レイヤー_1-2" data-name="レイヤー 1">
    <g>
      <path class="cls-9" d="M9.95,103.52h239.38c4.68,0,8.47,3.79,8.47,8.47v68.3s9.69,9.69,9.69,9.69h-9.69s0,.5,0,.5c0,4.68-3.79,8.47-8.47,8.47H9.95c-4.68,0-8.47-3.79-8.47-8.47v-78.49c0-4.68,3.79-8.47,8.47-8.47Z"/>
      <g>
        <path d="M19.13,128.83c0-.97.54-1.95,1.74-2.77-1.96.29-3.99.54-5.83.78l-.2-1.47c.55-.01,1.27-.08,2.07-.13,1.69-.99,3.57-2.4,4.87-3.51-1.63.25-2.92.36-4.06.41l-.25-1.44c1.74-.03,3.4-.1,5.86-.46l1.14.9c-.96,1.08-3.06,2.6-5.03,3.86,2.67-.29,5.59-.68,7.26-.99l.27,1.52c-1.23-.02-2.42.1-3.39.43-1.65.55-2.95,1.72-2.95,2.89,0,1.25,1.5,1.93,3.99,2.06l-.5,1.48c-2.91-.2-4.99-1.44-4.99-3.54Z"/>
        <path d="M35.19,130.57c2.75-.69,4.38-2.37,4.38-4.5s-1.47-3.52-3.6-3.66c-.11,1.69-.38,3.16-.84,4.6-.72,2.25-2,3.48-3.36,3.48s-2.52-1.39-2.52-3.31c0-3.48,2.88-6.21,6.42-6.21,3.25,0,5.49,1.98,5.49,5.08,0,2.68-1.65,4.68-4.74,5.74l-1.23-1.23ZM31.82,128.89c.77,0,1.41-.9,1.88-2.38.41-1.32.65-2.49.74-3.96-2.07.52-3.64,2.41-3.64,4.65,0,.92.49,1.69,1.03,1.69Z"/>
        <path d="M45.11,128.74c0-1.32,1-2.5,2.88-3.69-.61-1.41-1.3-3.21-1.71-4.98l1.58-.38c.27,1.41.88,3.25,1.44,4.62,1.14-.6,2.5-1.21,4.02-1.84l.69,1.47c-3.94,1.35-7.35,3.11-7.35,4.63,0,.95.79,1.52,2.99,1.52,1.32,0,2.92-.11,4.67-.44l.27,1.61c-1.79.3-3.62.36-4.79.36-3.46,0-4.68-1.15-4.68-2.88Z"/>
        <path d="M58.52,129.09c0-1.04,1.07-2.5,2.8-3.29-.01-.78-.04-1.59-.04-2.28-.97.09-1.9.13-2.68.17l-.15-1.38c.83-.02,1.8-.08,2.81-.15,0-.69-.02-1.51,0-2.38l1.69.08c-.04.67-.06,1.42-.08,2.15.87-.11,1.7-.24,2.4-.39l.17,1.38c-.77.15-1.67.27-2.58.38v.36c0,.4.01.97.03,1.63,1-.3,2.11-.48,3.1-.48,2.4,0,3.69,1.3,3.69,3.08,0,2.17-1.46,3.38-3.53,3.38-.58,0-1.29-.1-1.72-.3l-.24-1.52c.6.24,1.2.38,1.8.38,1.33,0,2.13-.85,2.13-1.92,0-.95-.73-1.74-2.4-1.74-.86,0-1.88.18-2.81.53.03.97.06,1.94.09,2.62.01.42.01.66.01.99,0,.99-.78,1.33-1.67,1.33-1.51,0-2.83-1.18-2.83-2.61ZM61.02,130.2c.38,0,.51-.25.51-.78,0-.38,0-.67-.01-1.17-.01-.31-.01-.64-.03-.95-.88.46-1.47,1.25-1.47,1.79,0,.68.57,1.11,1,1.11ZM66.18,121.81l.75-1.21c1.27.57,2.08,1.09,3.27,2.17l-.9,1.26c-1.14-1.08-1.94-1.63-3.12-2.22Z"/>
        <path d="M74.76,123.91c0-1.29.17-2.51.5-4.14l1.5.36c-.36,1.44-.6,2.99-.6,4.08,0,.3,0,.59.02.84.3-.75.67-1.53.97-2.11l.76,1.03c-.46.77-.78,1.5-.96,2.03-.27.81-.3,1.33-.27,2.07l-1.2.4c-.55-1.57-.72-3.07-.72-4.56ZM77.01,131.4c2.73-1.65,3.96-3.45,3.96-6.75,0-1.19-.12-2.92-.33-4.63l1.59-.2c.18,1.81.27,3.36.27,4.67,0,3.94-1.15,5.94-4,7.83l-1.48-.91Z"/>
        <path d="M91.92,130.47c0-.66.49-1.23,1.21-1.23s1.21.57,1.21,1.23-.5,1.21-1.21,1.21-1.21-.56-1.21-1.21ZM92.25,120.78h1.76l-.09,7.33h-1.56l-.11-7.33Z"/>
        <path d="M102.99,126.06c-.45,1.48-.94,2.62-1.6,3.75l-.69-1.61c.93-1.2,1.67-2.8,2.13-4.63h-1.8v-1.3h1.96v-2.96h1.35v2.96h1.65v1.3h-1.65v1.42c.75.66,1.36,1.31,1.93,2.02l-.78,1.35c-.42-.75-.64-1.12-1.15-1.84v6.01h-1.35v-6.48ZM109.26,127.87c-.68,1.43-1.62,2.7-2.82,3.77l-.96-1.2c1.51-1.05,2.62-2.35,3.51-4.14h-3.12v-1.28h3.39v-1.91h-1.59c-.25.71-.43,1.14-.76,1.73l-1.08-.81c.54-.92.92-2.22,1.16-3.85l1.28.21c-.06.46-.15.96-.27,1.44h1.28v-2.52h1.38v2.52h2.88v1.29h-2.88v1.91h3.54v1.28h-3.27c.86,1.5,2.16,2.79,3.62,3.67l-.87,1.35c-1.25-1.04-2.25-2.19-3.01-3.54v4.75h-1.38v-4.67Z"/>
        <path d="M116.73,125.67c-.27.59-.58,1.12-.95,1.67l-.61-1.42c1.11-1.77,1.93-4.11,2.4-6.66l1.37.29c-.27,1.16-.53,2.09-.86,2.99v10.02h-1.35v-6.87ZM119.37,123.51h2.49v-1.92h-2.89v-1.3h9.7v1.3h-3.01v1.92h2.56v8.88h-1.29v-.83h-6.27v.83h-1.29v-8.88ZM121.92,130.3v-5.55h-1.26v5.55h1.26ZM124.4,123.51v-1.92h-1.28v1.92h1.28ZM124.4,130.3v-5.55h-1.28v5.55h1.28ZM126.93,130.3v-5.55h-1.33v5.55h1.33Z"/>
        <path d="M130.52,131.04c1.25-2.34,2.1-4.38,2.71-6.57-.92.13-1.77.25-2.43.36l-.25-1.46c.69-.06,1.96-.2,2.98-.34.24-1.03.45-2.11.65-3.25l1.53.24c-.19.93-.42,1.86-.66,2.82.44-.03.83-.06,1.14-.06,1.44,0,2.4.88,2.4,2.69,0,1.29-.12,2.91-.45,4.27-.37,1.56-1.27,1.97-2.17,1.97-.7,0-1.39-.14-2.01-.36l-.12-1.65c.71.35,1.38.48,1.83.48.58,0,.88-.31,1.11-1.35.19-.88.3-2,.3-3.06s-.43-1.59-1.18-1.59c-.26,0-.62.03-1.14.09-.73,2.6-1.53,4.88-2.82,7.52l-1.41-.74ZM138.51,123.01l1.23-.92c1.17,1.39,1.95,3.06,2.64,5.19l-1.38.9c-.72-2.26-1.35-3.97-2.49-5.17ZM139.68,120.9l.79-.66c.63.6,1.05,1.11,1.56,2.01l-.86.68c-.51-.92-.94-1.49-1.5-2.03ZM141.14,120.06l.79-.66c.68.58,1.08,1.16,1.56,1.98l-.87.66c-.45-.84-.9-1.46-1.49-1.98Z"/>
        <path d="M150.63,131.6c.39-.31.6-.52.83-.81-2.01.45-4.46.85-6.84,1.12l-.34-1.27c.74-.06,1.7-.15,3.18-.32v-.98h-2.67v-1.02h2.67v-.72h-2.43v-4.23h2.43v-.68h-3.06v-1h3.06v-.72c-.66.06-1.56.12-2.44.15l-.39-1.05c2.19-.07,4.3-.33,5.8-.67l.78,1.09c-.74.14-1.63.27-2.47.36v.84h2.85v.93h1.71v-3.18h1.35v3.03h2.67c-.03,5.12-.13,7.71-.42,8.87-.18.79-.57,1.06-1.54,1.06-.39,0-1.09-.04-1.47-.11l-.27-1.44c.45.08.96.13,1.32.13.51,0,.66-.12.75-.66.17-.82.27-3.07.32-6.51h-1.38c-.04,4.62-.77,6.78-2.92,8.79l-1.05-1.02ZM147.5,125.08v-.83h-1.32v.83h1.32ZM147.5,126.73v-.84h-1.32v.84h1.32ZM150.05,125.08v-.83h-1.36v.83h1.36ZM150.05,126.73v-.84h-1.36v.84h1.36ZM153.27,123.99h-1.73v-1.28h-2.82v.68h2.47v4.23h-2.47v.72h2.68v1.02h-2.68v.81c.88-.11,1.98-.27,2.83-.44v.96c1.2-1.54,1.65-3.29,1.71-6.71Z"/>
        <path d="M159.74,130.89c1.28-2.38,2.07-4.34,2.71-6.57-.92.13-1.77.25-2.43.36l-.25-1.46c.69-.06,1.96-.19,2.98-.34.24-1.04.45-2.12.65-3.26l1.53.24c-.19.93-.4,1.86-.64,2.82.42-.03.81-.06,1.12-.06,1.44,0,2.4.88,2.4,2.69,0,1.29-.12,2.91-.45,4.27-.38,1.56-1.28,1.96-2.17,1.96-.71,0-1.4-.13-2.01-.36l-.12-1.65c.7.34,1.38.48,1.83.48.58,0,.89-.31,1.11-1.35.2-.88.3-1.99.3-3.06s-.43-1.59-1.18-1.59c-.27,0-.62.03-1.16.09-.71,2.62-1.48,4.83-2.8,7.51l-1.41-.73ZM168.35,122.47l1.28-.84c1.04,1.47,1.75,3.2,2.34,5.46l-1.44.81c-.56-2.29-1.1-3.92-2.18-5.43Z"/>
        <path d="M173.99,128.58c1.35-2.04,2.19-3.66,2.8-5.29-.99.09-1.93.15-2.67.17l-.19-1.42c1-.02,2.19-.08,3.38-.2.22-.76.45-1.56.66-2.43l1.53.38c-.2.66-.38,1.28-.57,1.86.89-.12,1.73-.27,2.42-.45l.27,1.42c-.78.18-1.95.36-3.18.51-.73,2.04-1.6,3.92-3.03,6.27l-1.41-.81ZM177.06,129.88c0-1.14,1.06-2.05,2.67-2.05.36,0,.75.03,1.14.09-.03-.49-.06-1.08-.06-1.37,0-.42.06-1.15.51-1.92l1.33.77c-.29.58-.33.99-.33,1.41,0,.46.03.9.04,1.42,1.07.34,2.16.88,3.15,1.47l-.72,1.3c-.78-.55-1.58-1.02-2.35-1.35v.24c0,1.39-1,2.25-2.58,2.25-1.39,0-2.8-.71-2.8-2.27ZM179.85,130.72c.69,0,1.11-.31,1.11-.94,0-.12,0-.29-.01-.48-.34-.09-.69-.14-1-.14-.79,0-1.33.29-1.33.76,0,.53.55.79,1.25.79ZM182.12,123.51l.67-1.2c1.37.53,2.46,1.14,3.48,2.13l-.82,1.18c-1.16-1.06-2.04-1.59-3.33-2.12Z"/>
        <path d="M191.73,127.86c-1.21-.81-1.58-1.22-1.58-1.89,0-.63.53-1.11,1.72-2.07,1.56-1.25,2.9-2.42,4.32-4.12l1.35,1.02c-1.56,1.76-2.61,2.58-4.36,3.93-1,.77-1.29,1.04-1.29,1.26,0,.28.18.43,1.29,1.12,1.81,1.12,3.06,1.91,5.2,3.93l-1.18,1.18c-1.93-1.95-3.25-2.88-5.47-4.36Z"/>
        <path d="M206.93,127.42c0-1.67,1.05-3.23,3.02-4.56-2.88.27-4.68.42-6.81.58l-.19-1.58c3.12-.12,7.92-.4,11.43-.97l.3,1.53c-2.08.29-2.79.51-4,1.47-1.38,1.08-2.21,2.19-2.21,3.55,0,1.71,1.37,2.6,4.04,2.94l-.67,1.46c-2.99-.42-4.89-1.86-4.89-4.42Z"/>
        <path d="M217.73,125.89c0-.52.38-1.26,1.02-1.92l1.05.51c-.4.36-.64.67-.64.88,0,.33.43.48,1.5.48h.22c.06-.36.11-.73.17-1.14.06-.45.13-.93.2-1.43-1-.01-2.01-.07-2.9-.2l-.07-1.42c1.05.15,2.11.24,3.15.24.12-.93.24-1.8.3-2.43l1.56.21c-.11.53-.24,1.32-.38,2.17.92-.04,1.83-.15,2.74-.32l.09,1.43c-.89.15-2.04.25-3.06.29-.07.52-.13,1.02-.19,1.47-.04.38-.09.72-.12,1.04,1.06-.1,2.17-.3,3.03-.57l.33,1.41c-1.11.24-2.37.39-3.51.46-.04.56-.08.96-.08,1.22,0,1.38.62,2.16,2.07,2.15,1.54-.02,2.92-1.1,2.92-2.9,0-.93-.33-1.68-.93-2.68l1.56-.06c.66,1.1.88,2.17.88,2.94,0,2.66-1.84,4.2-4.47,4.2-2.43,0-3.54-1.21-3.54-3.33,0-.35.03-.84.09-1.46h-.36c-1.96,0-2.64-.55-2.64-1.25Z"/>
        <path d="M230.76,129.46l1.3-1.12c.92.78,1.98,2,2.77,3.13l-1.41,1.25c-.69-1.16-1.64-2.29-2.67-3.25Z"/>
        <path d="M14.88,158.67l-.25-1.47c.41.09.78.13,1.23.13.3,0,.39-.09.39-.41v-3.36c-.54.2-1.11.38-1.75.51l-.38-1.39c.66-.13,1.46-.33,2.13-.54v-2.49h-1.88v-1.32h1.88v-2.78h1.36v2.78h1.47v1.32h-1.47v2.08c.53-.17.92-.33,1.2-.45v-1.11h3.29v-1.5h-2.67v-1.23h2.67v-1.89h1.38v1.89h3.12v1.23h-3.12v1.5h3.94v1.21h-2.07v1.46h1.77v1.21h-1.72v3.35c0,.99-.32,1.29-1.3,1.29-.67,0-1.44-.05-2.04-.1l-.21-1.43c.63.11,1.17.15,1.75.15.34,0,.42-.08.42-.42v-2.84h-4.98v-1.21h4.93v-1.46h-4.96l.1,1.08c-.43.21-.84.38-1.5.62v4.58c0,.83-.33,1.09-1.32,1.09-.42,0-.98-.03-1.41-.09ZM19.67,154.86l1.18-.75c.63.61,1.23,1.35,1.71,2.11l-1.21.84c-.46-.82-1.05-1.57-1.68-2.2Z"/>
        <path d="M33.81,156.51c2.99-.31,4.59-1.38,4.59-2.88,0-.95-.64-1.85-1.92-1.85-.67,0-1.5.18-2.46.38-.94.2-2.23.5-3.21.73l-.4-1.41c.96-.21,2.08-.43,3.28-.67,1.05-.21,2.05-.39,2.85-.39,2.17,0,3.42,1.37,3.42,3.13,0,2.31-1.8,3.77-5.28,4.29l-.87-1.34Z"/>
        <path d="M47.87,153.67c0-1.67,1.05-3.23,3.02-4.56-2.88.27-4.68.42-6.81.58l-.19-1.58c3.12-.12,7.92-.4,11.43-.97l.3,1.53c-2.08.29-2.79.51-4,1.47-1.38,1.08-2.21,2.19-2.21,3.55,0,1.71,1.37,2.6,4.04,2.94l-.67,1.46c-2.99-.42-4.89-1.86-4.89-4.42Z"/>
        <path d="M59.6,154.8c-.33-1.07-.55-2.97-.55-4.71,0-.75.03-1.81.09-2.74l1.59.33c-.09,1.02-.13,1.92-.13,2.88,0,1.64.17,2.81.43,3.68.32,1.02.76,1.63,1.2,1.63.48,0,1.11-1.04,1.51-2.94l1.32,1.11c-.63,2.37-1.7,3.51-2.8,3.51-1.22,0-2.13-1.06-2.66-2.74ZM66.45,149.14l1.14-1.02c1.8,1.65,2.32,3.68,2.71,6.53l-1.54.48c-.35-2.66-.9-4.77-2.31-5.98Z"/>
        <path d="M75.72,156c0-1.05.95-1.81,2.23-1.81s2.39.72,3.12,2.01c.72-.48,1.19-1.19,1.19-2.03,0-1.05-1.07-1.9-2.79-1.9-1.1,0-2.42.36-3.42.99-.69.43-1.2.85-1.96,1.63l-1.04-1.12c1.65-1.28,4.05-3.39,6.21-5.82-1.21.21-2.73.35-3.99.41l-.27-1.44c1.72-.03,3.61-.15,5.77-.55l.85,1.05c-1.44,1.54-2.56,2.61-3.91,3.83.69-.21,1.33-.3,1.93-.3,2.52,0,4.16,1.34,4.16,3.2,0,2.4-2.4,4.05-5.24,4.05-1.54,0-2.85-.83-2.85-2.17ZM78.72,156.85c.39,0,.75-.04,1.11-.13-.46-.81-1.11-1.26-1.8-1.26-.51,0-.81.25-.81.58,0,.53.66.81,1.5.81Z"/>
        <path d="M87.14,157.57c1.23-2.76,2.1-5.34,2.71-7.93-1.02.07-1.98.12-2.77.15l-.17-1.52c1.03-.03,2.14-.08,3.28-.15.15-.81.3-1.63.42-2.47l1.54.24c-.13.72-.29,1.42-.43,2.12,1.11-.12,2.21-.26,3.27-.46l.24,1.5c-1.18.19-2.54.36-3.85.48-.69,2.92-1.54,5.7-2.71,8.65l-1.53-.6ZM92.37,155.64c0-.56.21-1.23.68-1.89l1.36.44c-.39.45-.57.9-.57,1.21,0,.58.66.91,2.13.91.96,0,1.98-.1,2.79-.28l.3,1.56c-.93.18-2.13.21-2.85.21-2.74,0-3.84-.9-3.84-2.16ZM93.14,150.84c1.71-.29,3.7-.42,5.4-.34l-.2,1.49c-1.63-.09-3.45.03-4.8.27l-.4-1.41ZM95.66,146.85l.9-.54c.55.71.85,1.24,1.24,2.12l-.94.57c-.39-.87-.71-1.46-1.2-2.15ZM97.37,146.34l.88-.55c.54.68.88,1.25,1.26,2.09l-.93.57c-.39-.87-.71-1.42-1.21-2.1Z"/>
        <path d="M102.65,153.09c0-1.33.3-4.17.57-6.39l1.53.25c-.52,3.18-.66,5.08-.66,6.48,0,.48.01,1.05.1,1.53.21-.57.54-1.21.83-1.74l.85.87c-.45.81-.6,1.15-.78,1.66-.18.51-.32,1.16-.25,1.71l-1.19.46c-.67-1.35-1-2.82-1-4.85ZM106.29,149.62c1.28.03,2.58.02,3.81-.07-.06-1.01-.15-2.19-.25-3.48l1.6-.12c.08,1.21.15,2.38.2,3.45.79-.09,1.51-.21,2.17-.36l.18,1.5c-.69.12-1.47.22-2.29.31.02.48.03.95.03,1.37,0,3.72-.53,5.07-2.31,6.55l-1.58-.69c2.22-1.68,2.33-3.43,2.33-6.27,0-.25,0-.54-.02-.84-1.27.08-2.58.11-3.76.09l-.11-1.44Z"/>
        <path d="M120.17,153.67c0-1.67,1.05-3.23,3.02-4.56-2.88.27-4.68.42-6.81.58l-.19-1.58c3.12-.12,7.92-.4,11.43-.97l.3,1.53c-2.08.29-2.79.51-4,1.47-1.38,1.08-2.21,2.19-2.21,3.55,0,1.71,1.46,2.6,4.04,2.96l-.67,1.44c-2.99-.42-4.89-1.86-4.89-4.42ZM124.53,151.42l.87-.59c.62.63,1.02,1.28,1.51,2.15l-.9.63c-.48-.92-.93-1.58-1.49-2.19ZM125.96,150.49l.88-.58c.6.58,1.07,1.28,1.52,2.08l-.9.6c-.51-.93-.9-1.52-1.5-2.1Z"/>
        <path d="M132.98,152.83c-.65,1.53-1.37,2.71-2.17,3.6l-.88-1.32c1.26-1.17,2.17-2.54,2.86-4.28h-2.62v-1.32h2.82v-1.67c-.54.11-1.16.2-2.03.29l-.58-1.2c1.96-.21,3.78-.58,5.37-1.12l.85,1.2c-.63.21-1.47.42-2.2.57v1.93h2.46v1.32h-2.46v1.04c.97.63,1.74,1.21,2.47,1.88l-.83,1.38c-.54-.66-1.04-1.18-1.65-1.75v5.42h-1.41v-5.95ZM137.67,147.27h1.43v7.89h-1.43v-7.89ZM138.48,158.4l-.3-1.53c.73.12,1.51.19,2.14.19.43,0,.55-.12.55-.55v-10.27h1.44v10.86c0,1.11-.39,1.42-1.73,1.42-.66,0-1.47-.04-2.11-.12Z"/>
        <path d="M144.48,157.03h1.88v-3.66c-.36.27-.74.48-1.23.75l-.98-1.04c1.86-.87,3.18-2.01,4.09-3.52h-3.55v-1.23h3.69c-.35-.83-.74-1.49-1.16-2.01l1.39-.62c.41.54.88,1.32,1.29,2.13l-1.12.5h2.94c.61-.96.97-1.65,1.38-2.69l1.59.55c-.36.71-.72,1.26-1.35,2.13h3.92v1.23h-3.54c.98,1.27,2.34,2.34,4.08,3.21l-.92,1.17c-.34-.2-.87-.53-1.29-.84v3.93h1.86v1.26h-12.97v-1.26ZM155,152.67c-1.14-.9-2.03-1.88-2.8-3.1h-2.48c-.63,1.23-1.38,2.19-2.44,3.1h7.72ZM149.04,157.03v-3.2h-1.38v3.2h1.38ZM151.62,157.03v-3.2h-1.37v3.2h1.37ZM154.29,157.03v-3.2h-1.44v3.2h1.44Z"/>
        <path d="M159.44,157.29c1.25-2.34,2.1-4.38,2.71-6.57-.92.13-1.77.25-2.43.36l-.25-1.46c.69-.06,1.96-.2,2.98-.34.24-1.03.45-2.11.65-3.25l1.53.24c-.19.93-.42,1.86-.66,2.82.44-.03.83-.06,1.14-.06,1.44,0,2.4.88,2.4,2.69,0,1.29-.12,2.91-.45,4.27-.37,1.56-1.27,1.97-2.17,1.97-.7,0-1.39-.14-2.01-.36l-.12-1.65c.71.35,1.38.48,1.83.48.58,0,.88-.31,1.11-1.35.19-.88.3-2,.3-3.06s-.43-1.59-1.18-1.59c-.26,0-.62.03-1.14.09-.73,2.6-1.53,4.88-2.82,7.52l-1.41-.74ZM167.43,149.26l1.23-.92c1.17,1.39,1.95,3.06,2.64,5.19l-1.38.9c-.72-2.26-1.35-3.97-2.49-5.17ZM168.6,147.15l.79-.66c.63.6,1.05,1.11,1.56,2.01l-.86.68c-.51-.92-.94-1.49-1.5-2.03ZM170.06,146.31l.79-.66c.68.58,1.08,1.16,1.56,1.98l-.87.66c-.45-.84-.9-1.46-1.49-1.98Z"/>
        <path d="M173.42,157.23c3.62-1.49,5.62-4.77,5.81-9.51h-3.35v-1.44h5.01v.58c.03,4.77,1.67,7.7,5.58,10l-1.06,1.42c-2.85-1.88-4.68-4.28-5.29-7-.71,3.32-2.82,6.06-5.66,7.31l-1.04-1.37Z"/>
        <path d="M191.4,156c0-1.05.95-1.81,2.23-1.81s2.39.72,3.12,2.01c.72-.48,1.19-1.19,1.19-2.03,0-1.05-1.07-1.9-2.79-1.9-1.1,0-2.42.36-3.42.99-.69.43-1.2.85-1.96,1.63l-1.04-1.12c1.65-1.28,4.05-3.39,6.21-5.82-1.21.21-2.73.35-3.99.41l-.27-1.44c1.72-.03,3.61-.15,5.77-.55l.85,1.05c-1.44,1.54-2.56,2.61-3.91,3.83.69-.21,1.33-.3,1.93-.3,2.52,0,4.16,1.34,4.16,3.2,0,2.4-2.4,4.05-5.24,4.05-1.54,0-2.85-.83-2.85-2.17ZM194.4,156.85c.39,0,.75-.04,1.11-.13-.46-.81-1.11-1.26-1.8-1.26-.51,0-.81.25-.81.58,0,.53.66.81,1.5.81Z"/>
        <path d="M208.71,156.82c2.75-.69,4.38-2.37,4.38-4.5s-1.47-3.52-3.6-3.66c-.11,1.69-.38,3.16-.84,4.6-.72,2.25-2,3.48-3.36,3.48s-2.52-1.39-2.52-3.31c0-3.48,2.88-6.21,6.42-6.21,3.25,0,5.49,1.98,5.49,5.08,0,2.68-1.65,4.68-4.74,5.74l-1.23-1.23ZM205.34,155.14c.77,0,1.41-.9,1.88-2.38.41-1.32.65-2.49.74-3.96-2.07.52-3.64,2.41-3.64,4.65,0,.92.49,1.69,1.03,1.69Z"/>
        <path d="M217.28,157.29c1.25-2.34,2.1-4.38,2.71-6.57-.92.13-1.77.25-2.43.36l-.25-1.46c.69-.06,1.96-.2,2.98-.34.24-1.03.45-2.11.65-3.25l1.53.24c-.19.93-.42,1.86-.66,2.82.44-.03.83-.06,1.14-.06,1.44,0,2.4.88,2.4,2.69,0,1.29-.12,2.91-.45,4.27-.38,1.56-1.28,1.97-2.18,1.97-.71,0-1.39-.14-2.01-.36l-.12-1.65c.71.35,1.38.48,1.83.48.58,0,.88-.31,1.11-1.35.19-.88.3-2,.3-3.06s-.43-1.59-1.18-1.59c-.26,0-.62.03-1.14.09-.73,2.6-1.53,4.88-2.82,7.52l-1.41-.74ZM225.27,149.26l1.23-.92c1.17,1.39,1.95,3.06,2.64,5.19l-1.38.9c-.72-2.26-1.35-3.97-2.49-5.17ZM226.44,147.15l.79-.66c.63.6,1.05,1.11,1.56,2.01l-.86.68c-.51-.92-.94-1.49-1.5-2.03ZM227.9,146.31l.79-.66c.68.58,1.08,1.16,1.56,1.98l-.87.66c-.45-.84-.9-1.46-1.49-1.98Z"/>
        <path d="M231.66,149.11h1.75v-1.51h-2.21v-1.25h6.93v1.25h-1.99v1.51h1.75v9.62h-1.19v-.57h-3.85v.64h-1.2v-9.69ZM236.72,154.57v-1.09h-.78c-.65,0-.81-.15-.81-.74v-2.52h-.69c-.03,1.92-.32,3.14-.92,4.04l-.66-.63v.94h3.85ZM233.58,150.22h-.72v3.29c.46-.76.67-1.72.72-3.29ZM236.72,156.96v-1.3h-3.85v1.3h3.85ZM235.13,149.11v-1.51h-.67v1.51h.67ZM236.72,152.42v-2.21h-.72v1.94c0,.22.06.27.32.27h.4ZM238.71,157.14v-6.35h3.72v-3.13h-3.9v-1.3h5.23v6.57h-1.33v-.83h-2.37v4.46c0,.42.09.5.63.54.23.03.33.03.58.03.42,0,.75-.02,1.02-.04.66-.03.74-.27.79-2.49l1.39.32c-.06,1.68-.15,2.46-.33,2.89-.26.6-.77.74-2.94.74s-2.5-.18-2.5-1.39Z"/>
        <path d="M24.59,184.32h-9.36v-1.3h9.36v-1.74h-8.99v-1.28h8.99v-1.61h-9.33v-1.27h4.75v-5h1.56v5h4.54v7.92h-1.53v-.72ZM15.56,173.65l1.32-.75c.63.79,1.25,1.8,1.83,2.99l-1.42.75c-.57-1.25-1.12-2.21-1.73-2.99ZM22.67,176.08c.7-.99,1.3-2.09,1.84-3.35l1.56.64c-.72,1.43-1.41,2.58-2.01,3.33l-1.39-.63Z"/>
        <path d="M35.19,183.07c2.75-.69,4.38-2.37,4.38-4.5s-1.47-3.52-3.6-3.66c-.11,1.69-.38,3.16-.84,4.6-.72,2.25-2,3.48-3.36,3.48s-2.52-1.39-2.52-3.31c0-3.48,2.88-6.21,6.42-6.21,3.25,0,5.49,1.98,5.49,5.08,0,2.68-1.65,4.68-4.74,5.74l-1.23-1.23ZM31.82,181.39c.77,0,1.41-.9,1.88-2.38.41-1.32.65-2.49.74-3.96-2.07.52-3.64,2.41-3.64,4.65,0,.92.49,1.69,1.03,1.69Z"/>
        <path d="M42.93,184.14c1.25-.95,1.74-2.31,1.82-5.07h-1.16v-5.78h1.91c.19-.52.34-1.06.43-1.59l1.44.21c-.17.45-.38.88-.66,1.38h2.86v5.78h-1.83v2.65h.16c.27-.81.45-1.59.56-2.34l1,.2c-.15.69-.38,1.32-.72,2.07.33-.04.64-.09.93-.15-.12-.34-.27-.64-.41-.9l.69-.39.19.34c.72-.76,1.28-1.71,1.75-2.96h-1.93v-1.14h2.19v-1.56h-1.94v-1.17h1.94v-1.77h1.3v1.77h2.22v1.17h-2.22v1.56h2.59v1.14h-2.35c.58,1.11,1.59,2.24,2.7,3.03l-.92,1.2c-.78-.75-1.56-1.84-2.02-2.89v4.06h-1.3v-3.93c-.41,1.06-.78,1.75-1.47,2.61.12.32.17.44.3.84l-.93.46-.19-.67c-.6.15-1.26.27-2.13.39v.25c0,.33.06.42.28.48.27.07,1.58.12,3.17.12,1.77,0,3.22-.07,3.46-.16.33-.11.44-.51.44-1.54l1.36.36c-.01,1.15-.19,1.89-.55,2.21-.21.18-.54.29-.99.31-.73.08-2.73.12-4.11.12-4.02,0-4.26-.06-4.26-1.41v-4.37h-.62c-.04,3.27-.6,4.89-2.08,6.15l-.92-1.08ZM46.01,175.66v-1.29h-1.25v1.29h1.25ZM46.01,177.99v-1.37h-1.25v1.37h1.25ZM48.42,175.66v-1.29h-1.32v1.29h1.32ZM48.42,177.99v-1.37h-1.32v1.37h1.32Z"/>
        <path d="M58.23,183.55c2.91-1.42,4.59-3.9,4.74-6.99h-4.63v-1.46h4.69v-3h1.62v2.87h5.21c-.08,4.26-.25,7.02-.57,8.14-.29,1.03-.81,1.4-2.01,1.4-.66,0-1.65-.08-2.5-.2l-.32-1.67c.84.21,1.7.33,2.25.33.72,0,.96-.16,1.12-.79.21-.9.36-2.86.45-5.77h-3.67c-.34,3.96-2,6.57-5.33,8.41l-1.05-1.28Z"/>
        <path d="M73.71,182.11c0-1.28,1.11-2.22,3.15-2.22.36,0,.72.03,1.11.08-.02-.32-.04-.65-.06-.96-.09-1.37-.17-3.42-.17-4.41,0-.71-.01-1.5.02-2.48l1.6.08c-.09,1-.1,1.69-.12,2.65,1.23-.06,2.49-.21,3.72-.46l.17,1.5c-1.41.22-2.7.36-3.87.42.01.88.06,1.9.12,2.68.03.43.06.89.07,1.31,1.44.4,2.94,1.11,4.21,2.04l-.85,1.3c-1.19-.9-2.31-1.5-3.29-1.88v.29c0,1.58-.94,2.37-2.8,2.37s-3.01-.85-3.01-2.31ZM76.59,183c.84,0,1.44-.29,1.44-1.19,0-.1,0-.25-.01-.46-.41-.07-.79-.1-1.12-.1-1.09,0-1.65.38-1.65.88,0,.58.57.87,1.35.87Z"/>
        <path d="M86.31,183.04c0-1.17.98-2.14,2.17-2.14s2.15.99,2.15,2.16-.98,2.16-2.17,2.16-2.15-.99-2.15-2.17ZM89.63,183.06c0-.65-.51-1.16-1.16-1.16s-1.16.52-1.16,1.16.51,1.15,1.16,1.15,1.16-.53,1.16-1.15Z"/>
      </g>
      <circle class="cls-10" cx="308.3" cy="182.56" r="30"/>
      <circle class="cls-11" cx="30" cy="59.77" r="30"/>
      <path class="cls-9" d="M329.84,1.42H90.46c-4.68,0-8.47,3.79-8.47,8.47v43.9s-9.69,9.69-9.69,9.69h9.69v.5c0,4.68,3.79,8.47,8.47,8.47h239.38c4.68,0,8.47-3.79,8.47-8.47V9.89c0-4.68-3.79-8.47-8.47-8.47Z"/>
      <g>
        <path d="M95.12,29.93l.1-1.56c.92.35,1.75.5,2.45.5,1.77,0,2.45-.87,2.45-2.01,0-1.68-1.53-2.33-4.59-1.79l.24-5.65h5.97v1.5h-4.36l-.13,2.62c3.24-.23,4.72,1.02,4.72,3.15s-1.42,3.63-4.35,3.63c-.77,0-1.64-.09-2.49-.39Z"/>
        <path d="M102.95,22.43c0-1.83,1.18-3.09,2.91-3.09s2.83,1.14,2.83,2.96-1.12,3.09-2.94,3.09c-1.69,0-2.8-1.16-2.8-2.96ZM107.28,22.37c0-1.08-.43-1.84-1.49-1.84-.88,0-1.45.72-1.45,1.83,0,1.17.54,1.83,1.45,1.83s1.49-.67,1.49-1.82ZM112.46,19.44h1.47l-6.7,10.77h-1.49l6.72-10.77ZM110.97,27.35c0-1.86,1.19-3.11,2.92-3.11s2.81,1.14,2.81,2.96-1.12,3.08-2.94,3.08c-1.68,0-2.79-1.14-2.79-2.92ZM115.32,27.27c0-1.09-.44-1.83-1.49-1.83-.9,0-1.49.71-1.49,1.82,0,1.17.57,1.83,1.46,1.83s1.52-.66,1.52-1.81Z"/>
        <path d="M122.79,28.92c2.99-.32,4.59-1.38,4.59-2.88,0-.95-.64-1.85-1.92-1.85-.67,0-1.5.18-2.46.38-.94.2-2.23.5-3.21.74l-.4-1.41c.96-.21,2.08-.43,3.28-.67,1.05-.21,2.05-.39,2.85-.39,2.17,0,3.42,1.36,3.42,3.13,0,2.31-1.8,3.76-5.28,4.29l-.87-1.33Z"/>
        <path d="M136.85,26.09c0-1.67,1.05-3.23,3.02-4.56-2.88.27-4.68.42-6.81.58l-.19-1.57c3.12-.12,7.92-.41,11.43-.98l.3,1.53c-2.08.29-2.79.51-4,1.47-1.38,1.08-2.21,2.19-2.21,3.55,0,1.71,1.37,2.6,4.04,2.94l-.67,1.46c-2.99-.42-4.89-1.86-4.89-4.42Z"/>
        <path d="M148.64,27.24c0-.96.5-1.78,1.31-2.58l1.27.74c-.76.58-1.05,1.25-1.05,1.77,0,.98,1.02,1.44,3.39,1.44,1.61,0,3.41-.21,4.75-.55l.38,1.59c-1.65.36-3.12.5-4.9.5-3.39,0-5.15-.98-5.15-2.9ZM152.1,22.61c.53-.43.99-.79,1.54-1.17-1.57.08-3.21.11-4.23.08l-.09-1.51c2.64.09,5.54.03,7.71-.23l.3,1.49c-.6.04-1.04.09-1.53.29-.9.36-1.48.84-2.38,1.65l-1.32-.58Z"/>
        <path d="M163.01,27.41c0-1.32,1-2.5,2.88-3.69-.61-1.41-1.3-3.21-1.71-4.98l1.58-.38c.27,1.41.88,3.25,1.44,4.62,1.14-.6,2.5-1.21,4.02-1.84l.69,1.47c-3.94,1.35-7.35,3.11-7.35,4.63,0,.95.79,1.52,2.99,1.52,1.32,0,2.92-.11,4.67-.44l.27,1.61c-1.79.3-3.62.36-4.79.36-3.46,0-4.68-1.15-4.68-2.88Z"/>
        <path d="M176.87,25.68c0-1.33.3-3.96.84-6.81l1.53.27c-.65,2.92-.95,5.57-.95,6.67,0,.46.03.98.09,1.44.24-.77.54-1.47.87-2.19l.9.9c-.45.93-.65,1.47-.79,2.02-.23.84-.3,1.28-.29,1.95l-1.19.5c-.63-1.37-1.02-2.73-1.02-4.75ZM180.63,28.13c0-1.05.86-2.04,2.55-2.04.42,0,.87.04,1.32.12l-.04-1.17c-.04-.64-.08-1.38-.09-2.07-1.19.08-2.37.1-3.38.1l-.11-1.5c1.07.02,2.26-.01,3.46-.09,0-.84-.01-1.57.03-2.79l1.58.05c-.08,1.02-.11,1.83-.14,2.61.79-.08,1.54-.18,2.24-.31l.15,1.51c-.72.12-1.53.22-2.39.3.02.78.03,1.49.06,2.16.01.6.04,1.14.06,1.59.86.31,1.71.78,2.54,1.39l-.87,1.38c-.55-.52-1.11-.92-1.65-1.2-.12,1.45-1.1,2.19-2.71,2.19-1.5,0-2.61-.85-2.61-2.24ZM183.21,29.01c.81,0,1.35-.39,1.33-1.21v-.2c-.45-.13-.88-.21-1.25-.21-.88,0-1.26.36-1.26.81,0,.5.43.81,1.17.81Z"/>
        <path d="M189.6,28.13l1.3-1.12c.92.78,1.98,1.99,2.77,3.13l-1.41,1.24c-.69-1.15-1.64-2.29-2.67-3.25Z"/>
        <path d="M206.36,21.11l-2.28.38-.04-1.57,4.12-.6-.02,1.02v9.88h-1.78v-9.1Z"/>
        <path d="M210.38,24.98c0-3.55,1.63-5.67,4.18-5.67s3.97,1.89,3.97,5.37-1.58,5.64-4.15,5.64-4-1.91-4-5.34ZM216.66,24.86c0-2.83-.72-3.96-2.23-3.96-1.38,0-2.19,1.31-2.19,3.92s.79,3.93,2.27,3.93c1.36,0,2.16-1.27,2.16-3.88Z"/>
        <path d="M219.53,24.98c0-3.55,1.63-5.67,4.18-5.67s3.97,1.89,3.97,5.37-1.58,5.64-4.15,5.64-4-1.91-4-5.34ZM225.81,24.86c0-2.83-.72-3.96-2.23-3.96-1.38,0-2.19,1.31-2.19,3.92s.79,3.93,2.27,3.93c1.36,0,2.16-1.27,2.16-3.88Z"/>
        <path d="M233.1,29.84c1.59-.81,2.98-2.5,3.52-4.29.36-1.12.56-2.82.58-5.04h-4.05v-1.35h12.18v1.35h-6.58c-.01.9-.06,1.58-.15,2.42h5.59c-.11,3.36-.32,5.49-.63,6.51-.3.99-.86,1.32-2.13,1.32-.83,0-1.8-.06-2.57-.18l-.22-1.56c1.12.21,1.83.3,2.4.3.71,0,.96-.18,1.14-.86.18-.66.33-2.02.43-4.18h-4.17c-.39,3.03-1.95,5.45-4.33,6.71l-1.02-1.14Z"/>
        <path d="M247.98,18.96h11.25v10.44c0,1.11-.4,1.49-1.56,1.49-.67,0-1.54-.04-2.4-.12l-.3-1.53c.74.11,1.61.18,2.17.18.47,0,.59-.13.59-.54v-3.37h-8.25v5.52h-1.5v-12.06ZM252.83,24.2v-3.91h-3.34v3.91h3.34ZM257.73,24.2v-3.91h-3.44v3.91h3.44Z"/>
        <path d="M262.37,29.97c2.55-.93,3.87-2.62,4.14-5.31h-2.29v-.85c-.5.54-1.09,1.05-1.72,1.47l-.97-1.15c1.95-1.32,3.34-3.21,4.2-5.7l1.44.51c-.65,1.74-1.41,3.12-2.5,4.41h7.11c-1.32-1.32-2.44-2.87-3.29-4.53l1.44-.54c.97,2.08,2.66,3.99,4.71,5.37l-.99,1.3c-.58-.43-.99-.76-1.41-1.17-.08,2.92-.25,5.08-.51,5.91-.25.88-.81,1.23-1.96,1.23-.58,0-1.37-.06-1.96-.15l-.29-1.53c.67.13,1.38.22,1.82.22.63,0,.87-.16.99-.69.17-.66.32-2.19.39-4.11h-2.67c-.44,3.44-1.8,5.34-4.65,6.51l-1-1.2Z"/>
        <path d="M276.57,31.08l-.25-1.47c.41.09.78.13,1.23.13.3,0,.39-.09.39-.4v-3.36c-.54.2-1.11.38-1.75.51l-.38-1.39c.66-.13,1.46-.33,2.13-.54v-2.49h-1.88v-1.32h1.88v-2.78h1.36v2.78h1.47v1.32h-1.47v2.08c.53-.17.92-.33,1.2-.45v-1.11h3.29v-1.5h-2.67v-1.23h2.67v-1.89h1.38v1.89h3.12v1.23h-3.12v1.5h3.94v1.21h-2.07v1.46h1.77v1.21h-1.72v3.34c0,.99-.32,1.29-1.3,1.29-.68,0-1.44-.04-2.04-.11l-.21-1.42c.63.11,1.17.15,1.75.15.34,0,.42-.08.42-.42v-2.83h-4.98v-1.21h4.93v-1.46h-4.96l.1,1.08c-.43.21-.84.38-1.5.62v4.57c0,.83-.33,1.09-1.32,1.09-.42,0-.98-.03-1.41-.09ZM281.36,27.27l1.18-.75c.63.62,1.23,1.35,1.71,2.12l-1.21.84c-.46-.83-1.05-1.58-1.68-2.21Z"/>
        <path d="M295.5,28.92c2.99-.32,4.59-1.38,4.59-2.88,0-.95-.64-1.85-1.92-1.85-.67,0-1.5.18-2.46.38-.95.2-2.23.5-3.21.74l-.4-1.41c.96-.21,2.08-.43,3.28-.67,1.05-.21,2.05-.39,2.85-.39,2.17,0,3.42,1.36,3.42,3.13,0,2.31-1.8,3.76-5.28,4.29l-.87-1.33Z"/>
        <path d="M309.56,26.09c0-1.67,1.05-3.23,3.02-4.56-2.88.27-4.68.42-6.81.58l-.19-1.57c3.12-.12,7.92-.41,11.43-.98l.3,1.53c-2.08.29-2.79.51-4,1.47-1.38,1.08-2.21,2.19-2.21,3.55,0,1.71,1.37,2.6,4.04,2.94l-.67,1.46c-2.99-.42-4.89-1.86-4.89-4.42Z"/>
        <path d="M95.93,56.24c1.23-2.76,2.1-5.34,2.71-7.93-1.02.08-1.98.12-2.77.15l-.17-1.52c1.04-.03,2.14-.08,3.29-.15.15-.81.3-1.64.42-2.48l1.54.24c-.14.72-.29,1.42-.44,2.12,1.11-.12,2.21-.25,3.27-.46l.24,1.5c-1.18.19-2.53.36-3.85.48-.69,2.92-1.54,5.7-2.71,8.65l-1.53-.6ZM101.16,54.3c0-.56.21-1.23.67-1.89l1.37.44c-.39.45-.57.9-.57,1.21,0,.58.66.92,2.13.92.96,0,1.98-.11,2.79-.29l.3,1.56c-.93.18-2.13.21-2.85.21-2.75,0-3.84-.9-3.84-2.16ZM101.93,49.51c1.71-.29,3.71-.42,5.4-.35l-.19,1.49c-1.63-.09-3.45.03-4.8.27l-.41-1.41Z"/>
        <path d="M114.29,55.73c3.18-.27,5.28-1.23,5.25-2.83-.02-.97-.84-1.61-2.13-1.58-1.58.03-3.15.96-4.4,2.34l-1.18-.57c.34-1.82.52-4.08.54-6.08l1.59.15c-.04,1.26-.2,2.85-.42,4.32,1.15-.99,2.73-1.48,3.9-1.51,2.05-.04,3.63.99,3.66,2.82v.08c0,2.38-2.04,3.72-5.87,4.2l-.94-1.33ZM113.69,45.84l.56-1.26c1.46.24,2.95.75,4.36,1.5l-.61,1.35c-1.44-.76-2.85-1.26-4.31-1.59Z"/>
        <path d="M131.16,57.38l-.29-1.38c.64.14,1.33.21,1.81.21.56,0,.67-.15.77-.87h-6.36c-.08.39-.17.81-.22,1.17l-1.44-.23c.29-1.3.51-2.58.75-4.12h-2.17v-1.21h2.34c.15-1.02.24-1.83.36-3.04h8.55c-.02.86-.03,1.62-.08,3.04h2.05v1.21h-2.1l-.13,2.01h1.9v1.17h-2.02c-.12,1.17-.23,1.56-.63,1.86-.29.22-.58.3-1.28.3-.58,0-1.26-.04-1.81-.12ZM124.16,48.59c1.26-1.28,2.14-2.76,2.64-4.47l1.46.24c-.15.45-.25.75-.46,1.26h8.8v1.2h-9.38c-.6,1.08-1.25,1.96-2.05,2.82l-1-1.05ZM129.54,54.17c.12-.94.21-1.53.27-2.04h-2.21c-.1.72-.18,1.24-.31,2.04h2.25ZM129.95,50.97c.09-.72.13-1.25.18-1.91h-2.16c-.06.69-.1,1.11-.21,1.91h2.19ZM133.58,54.17c.06-.63.09-1.03.15-2.04h-2.49c-.06.6-.13,1.14-.24,2.04h2.58ZM133.77,50.97c.04-.74.06-1.11.08-1.91h-2.34c-.03.56-.04.81-.15,1.91h2.42Z"/>
        <path d="M145.04,54.09h-6.29v-1.31h2.28v-3.7h4v-2.06h-3.18c-.58,1.17-1.3,2.19-2.11,3.03l-1.07-1.11c1.23-1.2,2.16-2.82,2.71-4.75l1.52.27c-.17.54-.32.92-.48,1.3h8.43v1.26h-4.3v2.06h3.69v1.26h-3.69v2.44h5.11v1.31h-5.11v3.36h-1.51v-3.36ZM145.04,52.79v-2.44h-2.57v2.44h2.57Z"/>
        <path d="M156.71,56.18l.1-1.56c.92.35,1.75.5,2.45.5,1.77,0,2.45-.87,2.45-2.01,0-1.68-1.53-2.33-4.59-1.79l.24-5.65h5.97v1.5h-4.36l-.13,2.62c3.24-.23,4.72,1.02,4.72,3.15s-1.42,3.63-4.35,3.63c-.77,0-1.64-.09-2.49-.39Z"/>
        <path d="M169.11,56.09c1.59-.81,2.98-2.5,3.52-4.29.36-1.12.56-2.82.58-5.04h-4.05v-1.35h12.18v1.35h-6.58c-.01.9-.06,1.58-.15,2.42h5.59c-.11,3.36-.32,5.49-.63,6.51-.3.99-.86,1.32-2.13,1.32-.83,0-1.8-.06-2.57-.18l-.22-1.56c1.12.21,1.83.3,2.4.3.71,0,.96-.18,1.14-.86.18-.66.33-2.02.43-4.18h-4.17c-.39,3.03-1.95,5.45-4.33,6.71l-1.02-1.14Z"/>
        <path d="M183.99,45.21h11.25v10.44c0,1.11-.4,1.49-1.56,1.49-.67,0-1.54-.04-2.4-.12l-.3-1.53c.74.11,1.61.18,2.18.18.46,0,.58-.13.58-.54v-3.37h-8.25v5.52h-1.5v-12.06ZM188.84,50.45v-3.91h-3.34v3.91h3.34ZM193.74,50.45v-3.91h-3.44v3.91h3.44Z"/>
        <path d="M198.53,50.81c0-.53.38-1.26,1.02-1.92l1.05.51c-.4.36-.64.67-.64.88,0,.33.43.48,1.5.48h.22c.06-.36.11-.74.17-1.14.06-.45.13-.93.2-1.43-1-.01-2.01-.07-2.9-.19l-.07-1.42c1.05.15,2.11.24,3.15.24.12-.93.24-1.8.3-2.43l1.56.21c-.11.53-.24,1.32-.38,2.17.92-.04,1.83-.15,2.74-.31l.09,1.42c-.89.15-2.04.25-3.06.29-.07.52-.13,1.02-.19,1.47-.04.38-.09.72-.12,1.04,1.06-.11,2.17-.3,3.03-.57l.33,1.41c-1.11.24-2.37.39-3.51.46-.04.55-.08.96-.08,1.21,0,1.38.62,2.16,2.07,2.14,1.54-.01,2.92-1.09,2.92-2.89,0-.93-.33-1.68-.93-2.68l1.56-.06c.66,1.1.88,2.17.88,2.94,0,2.65-1.84,4.2-4.47,4.2-2.43,0-3.54-1.21-3.54-3.33,0-.35.03-.84.09-1.46h-.36c-1.96,0-2.64-.56-2.64-1.25Z"/>
        <path d="M216.66,55.73c3.18-.27,5.28-1.23,5.25-2.83-.02-.97-.84-1.61-2.13-1.58-1.58.03-3.15.96-4.4,2.34l-1.18-.57c.34-1.82.52-4.08.54-6.08l1.59.15c-.04,1.26-.2,2.85-.42,4.32,1.15-.99,2.73-1.48,3.9-1.51,2.05-.04,3.63.99,3.66,2.82v.08c0,2.38-2.04,3.72-5.87,4.2l-.94-1.33ZM216.06,45.84l.56-1.26c1.46.24,2.95.75,4.36,1.5l-.61,1.35c-1.44-.76-2.85-1.26-4.31-1.59Z"/>
        <path d="M227.09,55.71c3.03-3,4.93-4.81,6.94-6.7-1.93.33-4.2.51-5.52.57l-.19-1.45c1.74-.04,5.4-.32,7.51-.78l1,1.04c-1.05.88-2.55,2.19-3.6,3.12.29-.06.56-.09.79-.09.74,0,1.11.54,1.11,1.1,0,.4-.04,1.32-.04,1.59,0,.71.17,1.08,1.05,1.08.65,0,1.91-.11,2.85-.35l.18,1.59c-1.02.21-2.28.27-2.99.27-1.88,0-2.67-.76-2.67-2.22,0-.33.03-.83.03-1.05,0-.37-.2-.75-.57-.75-.45,0-.87.24-1.39.7-.6.54-1.17,1.12-3.24,3.39l-1.26-1.05ZM230.22,45.69l.58-1.3c1.5.25,2.79.51,4.41,1.2l-.72,1.3c-1.4-.62-2.9-.94-4.28-1.2Z"/>
        <path d="M244.5,54.66c0-1.05.95-1.81,2.23-1.81s2.39.72,3.12,2.01c.72-.48,1.19-1.18,1.19-2.03,0-1.05-1.07-1.9-2.79-1.9-1.09,0-2.42.36-3.42.99-.69.43-1.2.85-1.96,1.63l-1.04-1.12c1.65-1.28,4.05-3.39,6.21-5.82-1.21.21-2.73.35-3.99.41l-.27-1.44c1.72-.03,3.61-.15,5.77-.56l.85,1.05c-1.44,1.54-2.56,2.61-3.91,3.83.69-.21,1.33-.3,1.93-.3,2.52,0,4.16,1.33,4.16,3.19,0,2.4-2.4,4.05-5.24,4.05-1.54,0-2.85-.82-2.85-2.17ZM247.5,55.52c.39,0,.75-.04,1.11-.13-.46-.81-1.11-1.26-1.8-1.26-.51,0-.81.25-.81.58,0,.53.66.81,1.5.81Z"/>
        <path d="M260.43,55.17c2.99-.32,4.59-1.38,4.59-2.88,0-.95-.64-1.85-1.92-1.85-.67,0-1.5.18-2.46.38-.95.2-2.23.5-3.21.74l-.4-1.41c.96-.21,2.08-.43,3.28-.67,1.05-.21,2.05-.39,2.85-.39,2.17,0,3.42,1.36,3.42,3.13,0,2.31-1.8,3.76-5.28,4.29l-.87-1.33Z"/>
        <path d="M274.49,52.34c0-1.67,1.05-3.23,3.02-4.56-2.88.27-4.68.42-6.81.58l-.19-1.57c3.12-.12,7.92-.41,11.43-.98l.3,1.53c-2.08.29-2.79.51-4,1.47-1.38,1.08-2.21,2.19-2.21,3.55,0,1.71,1.37,2.6,4.04,2.94l-.67,1.46c-2.99-.42-4.89-1.86-4.89-4.42Z"/>
        <path d="M286.28,53.49c0-.96.5-1.78,1.31-2.58l1.27.74c-.76.58-1.05,1.25-1.05,1.77,0,.98,1.02,1.44,3.39,1.44,1.61,0,3.41-.21,4.75-.55l.38,1.59c-1.65.36-3.12.5-4.9.5-3.39,0-5.15-.98-5.15-2.9ZM289.74,48.86c.53-.43.99-.79,1.54-1.17-1.57.08-3.21.11-4.23.08l-.09-1.51c2.64.09,5.54.03,7.71-.23l.3,1.49c-.6.04-1.04.09-1.53.29-.9.36-1.48.84-2.38,1.65l-1.32-.58Z"/>
        <path d="M300.65,53.66c0-1.32,1-2.5,2.88-3.69-.61-1.41-1.3-3.21-1.71-4.98l1.58-.38c.27,1.41.88,3.25,1.44,4.62,1.14-.6,2.5-1.21,4.02-1.84l.69,1.47c-3.94,1.35-7.35,3.11-7.35,4.63,0,.95.79,1.52,2.99,1.52,1.32,0,2.92-.11,4.67-.44l.27,1.61c-1.79.3-3.62.36-4.79.36-3.46,0-4.68-1.15-4.68-2.88Z"/>
        <path d="M318.33,52.37c-.02-2.2,2.85-2.31,2.85-4.03,0-.84-.78-1.28-1.86-1.28-.79,0-1.77.25-2.71.75l-.09-1.59c1.14-.43,2.24-.67,3.21-.67,1.95,0,3.34.9,3.34,2.47,0,2.75-3.01,2.68-3.1,4.56l-.02.42h-1.6v-.63ZM318,55.38c0-.66.49-1.23,1.21-1.23s1.21.57,1.21,1.23-.5,1.21-1.21,1.21-1.21-.56-1.21-1.21Z"/>
      </g>
      <g>
        <g>
          <path class="cls-7" d="M321.02,199.04l2.44-1.25,1.46-4.73.45-7.2-1.46-6.87-4.68-6.99-5.39-2.36-6.79-.22-6.1,3.81-4.7,6.93-3.53,4.99-1.3,4.93,1.86,3.93,6.11,3.68c3.93,2.14,16.2,3.55,21.64,1.34Z"/>
          <path class="cls-13" d="M292.19,186.71c4.13.27,6.52,4.64,4.99,9.32-4.03-2.19-6.28-4.42-4.99-9.32Z"/>
          <path class="cls-1" d="M327.02,175.81c1.96.16,1.33,2.31.37,3.56-.2.26-.59.3-.84.08-1.7-1.45-1.1-3.77.47-3.64Z"/>
          <path class="cls-1" d="M326.91,176.65c-.33,0-.6-.27-.6-.6v-3.87l-.98-1.36c-.19-.27-.13-.64.14-.83.27-.19.64-.13.83.14l1.09,1.52c.07.1.11.22.11.35v4.07c0,.33-.27.6-.6.6Z"/>
          <ellipse class="cls-1" cx="303.18" cy="185.62" rx="1.67" ry="1.55" transform="translate(72.65 456.24) rotate(-81.05)"/>
          <ellipse class="cls-1" cx="312.68" cy="187.29" rx="1.55" ry="1.67" transform="translate(-9.07 16.04) rotate(-2.9)"/>
          <path class="cls-1" d="M302.33,185.07c-.06,0-.13-.02-.19-.06-.7-.55-1.05-1.12-1.32-2.09-.04-.16.05-.32.21-.37.16-.04.32.05.37.21.26.96.59,1.37,1.11,1.78.13.1.15.29.05.42-.06.07-.15.11-.23.11Z"/>
          <path class="cls-1" d="M302.16,185.62c-.74,0-1.53-.42-2.16-1.16-.11-.13-.09-.31.03-.42.13-.11.31-.09.42.03.55.65,1.26,1.01,1.85.95.16-.02.31.1.33.26.02.16-.1.31-.26.33-.07,0-.14.01-.21.01Z"/>
          <path class="cls-1" d="M313.76,186.86c-.15,0-.27-.11-.3-.26-.02-.16.09-.31.26-.34.49-.07,1.22-.49,1.67-1.25.08-.14.27-.19.41-.1.14.08.19.27.1.41-.48.82-1.33,1.44-2.11,1.54-.01,0-.03,0-.04,0Z"/>
          <path class="cls-1" d="M314.75,188.01c-.34,0-.7-.06-1.04-.22-.15-.07-.22-.25-.15-.4.07-.15.25-.22.4-.15.77.35,1.64.08,2.24-.22.15-.07.33-.01.4.14.07.15.01.33-.14.4-.46.23-1.07.45-1.71.45Z"/>
          <polygon class="cls-6" points="323.28 165.54 317.28 164.98 319.95 170.37 326.06 171.02 323.28 165.54"/>
          <polygon class="cls-6" points="321.67 173.6 316.39 169.58 318.3 166.85 323.41 170.91 321.67 173.6"/>
          <path class="cls-13" d="M325.55,189.72c-5.72-.79-10.1,4.13-9.2,10.53,6.07-1.7,9.72-3.92,9.2-10.53Z"/>
          <path class="cls-1" d="M306.72,180.96c-1.73-.3-2.63-1.6-2.54-3.04.02-.34.41-.4.6-.09.59.98,1.31,1.72,2.13,2.48.27.25.15.71-.18.65Z"/>
          <path class="cls-1" d="M312.45,181.47c1.54.83,3.06.36,3.88-.82.19-.28-.08-.57-.41-.44-1.07.4-2.09.55-3.2.64-.37.03-.55.46-.26.62Z"/>
          <path class="cls-1" d="M314.25,200.74c-2.36,0-4.28-.24-4.41-.25-.33-.04-.56-.34-.52-.67s.34-.56.67-.52c.06,0,5.61.69,9.39-.29,5.98-1.55,5.72-6.95,5.57-10.19-.01-.26-.02-.5-.03-.71-.07-2.22-.44-6.51-2.13-10.33-2.12-4.8-5.64-7.39-10.45-7.72-9.35-.63-12.53,5.04-14.64,8.79-.48.86-.9,1.6-1.33,2.17-.17.23-.38.49-.61.78-1.72,2.17-4.59,5.8-3.56,9.3.77,2.6,3.63,4.77,8.5,6.43.31.11.48.45.37.76-.11.31-.45.48-.76.37-5.26-1.79-8.37-4.22-9.26-7.22-1.21-4.09,2.03-8.18,3.77-10.38.22-.28.42-.54.59-.76.38-.51.78-1.22,1.24-2.04,2.12-3.77,5.66-10.08,15.76-9.4,5.29.36,9.15,3.19,11.46,8.43,1.77,4.01,2.16,8.47,2.23,10.77,0,.21.02.44.03.69.15,3.12.45,9.61-6.46,11.4-1.7.44-3.69.57-5.43.57Z"/>
          <path class="cls-1" d="M321.67,174.18c-.13,0-.26-.04-.37-.13-.26-.2-.3-.58-.1-.84l2.2-2.79c.13-.16.33-.25.53-.22l1.09.12-2.14-4.21-4.6-.43.65,1.31c.1.2.08.44-.06.62l-1.77,2.35c-.2.26-.57.32-.84.12-.26-.2-.32-.57-.12-.84l1.55-2.06-.96-1.94c-.1-.19-.08-.42.04-.6.12-.18.33-.28.55-.26l6,.56c.2.02.38.14.48.32l2.78,5.49c.1.2.08.43-.04.61-.12.18-.34.28-.55.25l-1.86-.2-2,2.54c-.12.15-.29.23-.47.23Z"/>
          <g>
            <path class="cls-4" d="M311.4,191.68c-.54-1.83-3.33-3.94-4.82-3.82-1.49.12-4.72,1.72-5.69,1.6s-1.6-.82-1.86,1.44,1.44,3.53,3.87,2.85c3.18,2.08,9.43,1.07,8.5-2.07Z"/>
            <path class="cls-4" d="M311.5,193.18c-.96,3.55-5.93,6.02-7.13,5.41-1.2-.61-3.89-1.63-2.34-4.67,2.41.67,7.43.52,7.63-.95s1.84.22,1.84.22Z"/>
            <path class="cls-1" d="M306.65,195.42c-1.13,0-2.33-.39-3.55-1.18-2.28.5-3.5-.18-4.12-.86-.78-.85-1.02-2.14-.61-3.38.41-1.25,1.01-1.32,1.88-1.29.63.02,1.59.06,3.19-.65,3.58-1.6,5.53-.43,7.38,1.82.18.22.15.55-.07.73-.22.18-.55.15-.73-.07-1.62-1.98-3.15-2.87-6.14-1.53-1.83.82-2.97.77-3.66.75q-.65-.02-.84.57c-.28.86-.13,1.78.38,2.34.65.7,1.8.87,3.33.5.14-.03.29,0,.42.07,1.8,1.22,4.44,2.05,6.76-.92.15-.19.42-.25.64-.15,0,0,.68.33,1.29.5.28.08.44.37.36.65s-.37.44-.65.36c-.39-.11-.8-.28-1.08-.4-1.22,1.42-2.63,2.13-4.16,2.13Z"/>
            <path class="cls-1" d="M305.19,198.84c-.84,0-1.62-.2-2.27-.61-2.95-1.84-1.53-4.57-1.52-4.59.14-.25.45-.35.71-.21.25.14.35.45.21.71-.1.19-.92,1.92,1.15,3.21.99.62,2.52.59,3.97-.09,1.83-.85,3.09-2.45,3.35-4.27.04-.29.31-.48.59-.44.29.04.48.31.44.59-.32,2.17-1.79,4.06-3.95,5.06-.91.42-1.83.63-2.69.63Z"/>
          </g>
        </g>
        <g>
          <polygon class="cls-12" points="291.9 173.21 289.69 175.66 292.02 178.25 294.13 175.62 291.9 173.21"/>
          <path class="cls-1" d="M295.15,175.91c-1.55,0-2.71-.89-3.25-2.38-.54,1.49-1.7,2.38-3.25,2.38-.19,0-.34-.15-.34-.34s.15-.34.34-.34c1.79,0,2.91-1.46,2.91-3.82,0-.19.15-.34.34-.34s.34.15.34.34c0,2.32,1.14,3.82,2.91,3.82.19,0,.34.15.34.34s-.15.34-.34.34Z"/>
          <path class="cls-1" d="M292.04,180.37c-.19,0-.34-.15-.34-.34,0-2.33-1.28-4.02-3.05-4.02-.19,0-.34-.15-.34-.34s.15-.34.34-.34c1.53,0,2.77,1,3.35,2.55.51-1.6,1.64-2.55,3.14-2.55.19,0,.34.15.34.34s-.15.34-.34.34c-1.71,0-2.77,1.54-2.77,4.02,0,.19-.15.34-.34.34Z"/>
        </g>
      </g>
      <g>
        <path class="cls-8" d="M39.57,49.19c5.99-4.81,10.66-4.4,11.63-2.77.89,1.5-.2,9.39-9.11,4.98"/>
        <path class="cls-5" d="M43.81,51.77c2.15-3.69,6.52-2.97,7.64-2.44-1.95,3.62-3.96,4.96-7.64,2.44Z"/>
        <path class="cls-1" d="M46.8,53.34c-1.31,0-2.94-.38-4.99-1.39-.3-.15-.42-.51-.28-.82.15-.3.52-.42.82-.28,3.32,1.64,5.84,1.68,7.29.12,1.3-1.4,1.35-3.69,1.02-4.24-.21-.35-.72-.62-1.4-.75-.91-.16-4.27-.39-9.33,3.68-.26.21-.65.17-.86-.09-.21-.26-.17-.65.09-.86,3.68-2.96,7.53-4.43,10.31-3.92,1.04.19,1.83.66,2.23,1.32.64,1.09.43,3.95-1.18,5.69-.75.81-1.93,1.54-3.74,1.54Z"/>
        <path class="cls-8" d="M45.05,63.41c1.64-16.82-17.11-22.8-25.64-13.47-2.97,3.25-5.19,9.02-4.06,15.77-3.29,3.25-2.73,7.92,2.42,10.46,3.1,1.53,6.19,2.19,13.34,2.19,6.63,0,14.3-2.8,16.45-6.93,1.2-2.31.78-5.72-2.5-8.03Z"/>
        <path class="cls-2" d="M34.83,45.78c-.6-4.19-4.15-6.52-4.34-.47"/>
        <path class="cls-2" d="M23.15,46.85c-.51-4.2,2.31-7.38,4.07-1.58"/>
        <path class="cls-8" d="M18.69,49.91c-6.66-3.82-11.21-2.69-11.91-.92-.65,1.62,2.36,9.82,10.47,4.08"/>
        <ellipse class="cls-1" cx="34.31" cy="65.36" rx="1.44" ry="1.56" transform="translate(-9.75 6.13) rotate(-8.95)"/>
        <path class="cls-5" d="M15.42,53.72c-2.15-3.69-7.03-2.78-8.16-2.25,1.95,3.62,4.47,4.77,8.16,2.25Z"/>
        <path class="cls-5" d="M28.25,45.3c1.23,7.46-2.33,14.45-12.53,14.45,0-11.42,12.53-14.45,12.53-14.45Z"/>
        <path class="cls-5" d="M30.49,45.32c0,8.41,6.81,12.72,13.84,13.25,0-11.42-13.84-13.25-13.84-13.25Z"/>
        <path class="cls-5" d="M14.27,72.18c13.81-6.39,25.45-3.61,33.28-.74-3.13,7.57-29.25,10.15-33.28.74Z"/>
        <path class="cls-1" d="M31.1,78.98c-7.59,0-10.64-.79-13.61-2.26-2.68-1.33-4.37-3.31-4.74-5.59-.32-1.98.37-3.96,1.94-5.63-1.1-7.13,1.47-12.92,4.26-15.97,4.25-4.65,11.25-5.93,17.42-3.18,3.01,1.34,5.47,3.51,7.11,6.28,1.79,3.02,2.53,6.54,2.2,10.49,3.38,2.56,3.63,6.22,2.4,8.6-2.36,4.54-10.49,7.26-16.99,7.26ZM29.73,46.14c-3.76,0-7.35,1.46-9.87,4.22-2.64,2.89-5.06,8.42-3.91,15.26.03.2-.03.39-.17.53-1.44,1.42-2.08,3.13-1.81,4.79.3,1.88,1.75,3.54,4.07,4.69,2.8,1.38,5.71,2.13,13.07,2.13,6.88,0,14.01-2.96,15.91-6.6,1.03-1.98.75-5.1-2.31-7.25-.18-.13-.28-.34-.26-.56.71-7.25-2.49-13.19-8.56-15.89-2.01-.89-4.11-1.33-6.15-1.33Z"/>
        <ellipse cx="34.31" cy="65.36" rx="1.44" ry="1.56" transform="translate(-9.75 6.13) rotate(-8.95)"/>
        <ellipse class="cls-1" cx="26.64" cy="65.72" rx="1.56" ry="1.44" transform="translate(-40.34 89.01) rotate(-87.1)"/>
        <path class="cls-1" d="M12.04,55.7c-1.46,0-2.58-.54-3.4-1.18-2.09-1.64-2.9-4.58-2.43-5.75.29-.72.99-1.3,1.99-1.65,2.66-.93,6.69-.08,10.79,2.27.29.17.39.54.22.83-.17.29-.54.39-.83.22-5.62-3.23-8.91-2.48-9.78-2.18-.65.23-1.11.57-1.26.95-.21.53.31,2.97,2.06,4.35,1.89,1.49,4.48,1.14,7.49-.99.27-.19.65-.13.85.15.19.27.13.65-.15.85-2.23,1.58-4.07,2.14-5.55,2.14Z"/>
        <path class="cls-1" d="M34.83,46.39c-.3,0-.56-.22-.6-.52-.32-2.23-1.48-3.66-2.12-3.62-.31.02-.93.69-1,3.09-.01.34-.3.59-.63.59-.34-.01-.6-.29-.59-.63.11-3.61,1.4-4.22,2.15-4.27.03,0,.06,0,.09,0,1.46,0,2.94,2.06,3.31,4.67.05.33-.18.64-.52.69-.03,0-.06,0-.09,0Z"/>
        <path class="cls-1" d="M23.15,47.46c-.3,0-.57-.23-.6-.54-.32-2.66.61-5.08,2.07-5.39.74-.15,2.14.1,3.19,3.56.1.32-.08.66-.41.76-.32.1-.66-.08-.76-.41-.7-2.3-1.46-2.78-1.77-2.72-.62.13-1.38,1.81-1.11,4.05.04.33-.2.64-.53.68-.02,0-.05,0-.07,0Z"/>
        <path class="cls-1" d="M35.58,56.89c-.65-1.09-1.64-1.26-2.41-.7-.18.13-.11.42.12.44.71.07,1.33.3,1.98.61.22.1.44-.14.31-.35Z"/>
        <path class="cls-1" d="M24.68,57.29c.65-1.09,1.64-1.26,2.41-.7.18.13.11.42-.12.44-.71.07-1.33.3-1.98.61-.22.1-.44-.14-.31-.35Z"/>
        <circle class="cls-1" cx="31.96" cy="71.3" r=".57"/>
        <circle class="cls-1" cx="30.17" cy="71.3" r=".57"/>
        <ellipse class="cls-3" cx="30.71" cy="74.61" rx="1.19" ry="1.28" transform="translate(-47.26 95.36) rotate(-82.53)"/>
        <path class="cls-1" d="M30.74,76.23c-.08,0-.16,0-.24-.02-.94-.12-1.61-.94-1.49-1.83.12-.88.97-1.5,1.91-1.38h0c.94.12,1.61.94,1.49,1.83-.11.81-.83,1.4-1.67,1.4ZM30.68,73.86c-.41,0-.77.27-.82.64-.05.41.28.8.75.86.47.06.89-.22.94-.64.05-.41-.28-.8-.75-.86-.04,0-.08,0-.13,0Z"/>
      </g>
    </g>
  </g>
</svg>