<?xml version="1.0" encoding="UTF-8"?>
<svg id="_レイヤー_2" data-name="レイヤー 2" xmlns="http://www.w3.org/2000/svg" width="374" height="77.36" viewBox="0 0 374 77.36">
  <defs>
    <style>
      .cls-1 {
        fill: #fff;
      }

      .cls-2 {
        fill: #9abbbd;
      }

      .cls-3 {
        fill: #739b9e;
      }
    </style>
  </defs>
  <g id="_レイヤー_2-2" data-name="レイヤー 2">
    <g>
      <rect class="cls-2" x="0" y="0" width="374" height="77.36"/>
      <rect class="cls-1" x="7.58" y="14.39" width="358.85" height="51.32" rx="25.57" ry="25.57"/>
      <g>
        <path class="cls-3" d="M119.98,40.98c0,.92.04,3.36.08,4.06v.08c0,.13-.03.24-.1.28-.1.09-.71.17-1.26.17-.48,0-.57-.04-.57-.34v-.06c.03-.39.08-4.71.08-6.5,0-3.45-.03-4.42-.17-5.29,1.08.07,1.56.12,1.99.21.15.04.23.12.23.24q0,.08-.06.33c-.06.18-.09.39-.1.63,0,.03-.03.93-.07,2.7q1.06.3,1.68.52c1.5.52,2.35.92,3.69,1.62.12.09.18.17.18.26,0,.15-.27.87-.51,1.32-.12.25-.19.33-.28.33-.06,0-.14-.03-.24-.1-1.47-.98-3.01-1.69-4.54-2.15v1.69Z"/>
        <path class="cls-3" d="M135.31,38.58c2.75,0,4.32-.03,5.83-.13h.19c.45,0,.45.01.45,1.21,0,.61-.05.72-.3.72h-.06c-.99-.04-1.54-.04-5.88-.04-1.59,0-2.39.02-3.77.06h-.44c-.48,0-.55.02-.84.06-.08,0-.13.02-.17.02-.17,0-.27-.08-.3-.21-.09-.38-.15-1.14-.15-1.83,1.21.12,2.28.15,5.41.15Z"/>
        <path class="cls-3" d="M147.91,39.21c-.45.36-.69.51-.81.51s-.13,0-.42-.3c-.27-.27-.65-.54-1.06-.76,1.6-.98,2.56-1.85,3.5-3.15.63-.89,1.09-1.75,1.33-2.58,1.59.58,1.96.78,1.96.99,0,.07-.04.13-.2.24-.15.1-.34.38-.75.99h.27c.53.01.9.01.99.01,1.46,0,1.83-.03,2.29-.21.12-.04.17-.06.25-.06.21,0,.42.17.88.72.38.42.48.6.48.77,0,.13-.04.21-.21.37-.12.12-.3.41-.52.84-1.41,2.56-2.46,3.97-4.15,5.5-1.33,1.21-3.45,2.64-3.91,2.64-.14,0-.26-.06-.38-.18-.45-.43-.83-.7-1.26-.88,2.07-1,3.67-2.13,5.1-3.55q-.11-.1-.44-.45c-.31-.33-.66-.61-1.43-1.19-.09-.07-.12-.12-.12-.18,0-.08.19-.3.72-.84.25-.25.31-.3.41-.3.24,0,1.12.72,2.02,1.63.9-1.17,1.54-2.28,1.9-3.24q-1.71.03-3.9.04c-.69.9-1.56,1.79-2.56,2.61Z"/>
        <path class="cls-3" d="M164.69,34.65c.12.04.18.13.18.25,0,.06,0,.09-.03.21-.09.33-.1.57-.1,1.17-.03,3.66-.69,6-2.27,7.99-.34.42-.48.56-.63.56-.06,0-.13-.03-.25-.09-.41-.26-.78-.39-1.46-.54,1.04-1.05,1.44-1.6,1.89-2.62.63-1.41.88-2.83.88-4.98,0-.99-.03-1.44-.15-2.19.84.02,1.53.1,1.94.24ZM166.3,36.1c0-.74-.05-1.32-.14-1.95,1.62.06,2.21.18,2.21.48,0,.09-.02.14-.08.3-.04.09-.09.33-.1.55q-.04.41-.07,7c1.9-1.08,3.15-2.12,4.41-3.71.03.78.09,1.35.23,1.8.04.14.04.18.04.26,0,.24-.15.44-.84,1.08-1.11,1.02-1.86,1.54-3.25,2.28-.33.17-.53.3-.71.46-.1.09-.24.15-.35.15-.18,0-.72-.36-1.11-.73-.3-.3-.44-.52-.44-.72,0-.07.02-.12.06-.25.1-.28.14-.55.14-1.38v-5.62Z"/>
        <path class="cls-3" d="M179.98,38.16c0,.35.02,1.04.03,1.46,0,.15.01.3.01.36,0,.3-.21.36-1.38.36-.45,0-.54-.06-.54-.31v-.3c.06-1.17.09-1.81.09-2.88,0-1.74-.04-2.42-.17-3.19.77.01,1.47.06,1.81.13.21.04.33.15.33.33,0,.08-.02.12-.04.21-.12.3-.15.58-.15,1.31v2.53ZM185.81,36.21c0,2.14-.14,3.54-.42,4.59-.54,1.9-1.74,3.43-3.51,4.41-.38.21-.66.33-.77.33s-.18-.04-.29-.17c-.34-.44-.61-.68-1.14-1.02.96-.36,1.77-.87,2.43-1.52.77-.75,1.26-1.65,1.53-2.73.2-.85.33-2.48.33-4.2,0-1.21-.04-1.81-.15-2.37.9.01,1.44.07,1.9.17.2.04.29.12.29.27,0,.07-.02.13-.06.27-.12.33-.15.63-.15,1.33v.63Z"/>
        <path class="cls-3" d="M194.03,39.21c-.45.36-.69.51-.81.51s-.13,0-.42-.3c-.27-.27-.65-.54-1.06-.76,1.6-.98,2.56-1.85,3.5-3.15.63-.89,1.09-1.75,1.33-2.58,1.59.58,1.96.78,1.96.99,0,.07-.04.13-.2.24-.15.1-.34.38-.75.99h.27c.53.01.9.01.99.01,1.46,0,1.83-.03,2.29-.21.12-.04.17-.06.25-.06.21,0,.42.17.88.72.38.42.48.6.48.77,0,.13-.04.21-.21.37-.12.12-.3.41-.52.84-1.41,2.56-2.46,3.97-4.15,5.5-1.33,1.21-3.45,2.64-3.91,2.64-.14,0-.26-.06-.38-.18-.45-.43-.83-.7-1.26-.88,2.07-1,3.67-2.13,5.1-3.55q-.11-.1-.44-.45c-.31-.33-.66-.61-1.43-1.19-.09-.07-.12-.12-.12-.18,0-.08.19-.3.72-.84.25-.25.31-.3.41-.3.24,0,1.12.72,2.02,1.63.9-1.17,1.54-2.28,1.9-3.24q-1.71.03-3.9.04c-.69.9-1.56,1.79-2.56,2.61Z"/>
        <path class="cls-3" d="M212.18,38.58c2.75,0,4.32-.03,5.83-.13h.19c.45,0,.45.01.45,1.21,0,.61-.05.72-.3.72h-.06c-.99-.04-1.54-.04-5.88-.04-1.59,0-2.39.02-3.77.06h-.44c-.48,0-.55.02-.84.06-.08,0-.13.02-.17.02-.17,0-.27-.08-.3-.21-.09-.38-.15-1.14-.15-1.83,1.21.12,2.28.15,5.41.15Z"/>
        <path class="cls-3" d="M233.86,37.35c.08.15.1.25.1.35,0,.15-.06.25-.25.52-.83,1.08-1.71,1.95-3.04,2.98-1.5,1.17-2.77,1.95-4.57,2.8-1.16.54-1.22.57-1.4.74-.12.12-.18.15-.27.15-.14,0-.25-.12-.48-.45-.3-.45-.58-1.06-.75-1.59,1.52-.35,3.33-1.15,5.08-2.27,2.31-1.45,3.76-2.89,4.89-4.86.17.55.3.85.69,1.62ZM223.87,34.83c.25-.28.36-.36.5-.36.29.02,1.41.73,2.34,1.48.57.47.75.66.75.81,0,.1-.27.51-.63.92-.33.38-.5.51-.62.51q-.1,0-.72-.59c-.39-.37-1.17-1-1.56-1.24q-.52-.35-.63-.41c-.06-.04-.09-.09-.09-.13,0-.14.28-.56.66-.99Z"/>
        <path class="cls-3" d="M243.35,41.46c-1.48.87-1.9,1.31-1.9,1.96,0,.27.1.45.33.58.33.2,1.06.3,2.01.3.81,0,1.94-.08,2.7-.18.32-.04.5-.09,1.1-.24h.07c.11,0,.18.07.23.18.09.31.15.77.15,1.31,0,.23-.07.31-.27.36-.36.08-2.03.17-3.12.17-1.83,0-2.8-.12-3.52-.42-.87-.36-1.3-1.04-1.3-1.98,0-.87.4-1.63,1.21-2.28.65-.51.79-.62,2.17-1.4-.12-.5-.35-.71-.81-.71-.61,0-1.26.24-1.96.71-.44.3-.94.72-1.26,1.03-.45.47-.5.5-.62.5-.15,0-.46-.34-.78-.87-.15-.25-.24-.45-.24-.55,0-.14.03-.17.39-.39,1.23-.82,2.25-1.88,2.86-2.95-1.06.07-1.62.09-2.2.09-.23,0-.27-.04-.35-.3-.04-.2-.12-.99-.13-1.4.51.07.81.09,1.53.09.58,0,1.23-.02,1.9-.04.31-.85.42-1.4.44-2.1,1.33.23,1.95.45,1.95.71,0,.06-.02.09-.06.18-.1.19-.23.43-.42.9q-.03.06-.04.1c.85-.12,1.6-.27,2.13-.39.33-.09.41-.1.48-.1.12,0,.18.04.21.14.06.27.15.96.15,1.17,0,.16-.06.24-.26.28-.48.14-2.13.39-3.51.52-.45.83-.76,1.31-1.23,1.81.68-.31,1.19-.43,1.79-.43.67,0,1.12.39,1.42,1.23,1.48-.81,2.28-1.24,2.37-1.3.69-.4.97-.63,1.3-1,.62.63,1.27,1.57,1.27,1.83,0,.09-.06.15-.25.2-.73.19-2.1.78-4.38,1.89.02.27.04.96.04,1.44v.72c0,.18-.03.27-.1.31-.07.08-.48.12-.93.12-.51,0-.6-.04-.6-.29v-.06c.03-.44.04-1,.04-1.36v-.08Z"/>
        <path class="cls-3" d="M255.62,41.86c-.67,0-1.2.01-1.56.04.04-.42.07-.89.07-1.53v-5.25c0-.78-.03-1.42-.07-1.79.42.05.87.06,1.51.06h6.65c.63,0,1.09-.01,1.51-.06-.04.31-.07.98-.07,1.79v5.25c0,.72.01,1.11.07,1.53-.38-.03-.96-.04-1.53-.04h-1.25v2.22c0,.4.12.45,1.29.45,1.08,0,1.36-.06,1.53-.3.15-.21.23-.78.26-1.84.6.31.96.46,1.5.6-.15,1.6-.28,2.14-.66,2.49-.41.36-1.02.48-2.62.48-2.42,0-2.85-.2-2.85-1.27v-2.82h-1.29c-.17,1.09-.63,1.99-1.37,2.67-.92.84-1.99,1.36-3.64,1.74-.24-.6-.42-.9-.84-1.42,1.37-.24,2.12-.5,2.82-.96.76-.5,1.18-1.12,1.36-2.02h-.83ZM255.65,35.79h6.49v-.94h-6.49v.94ZM255.65,38.08h6.49v-.94h-6.49v.94ZM255.65,40.47h6.49v-1.04h-6.49v1.04Z"/>
        <path class="cls-3" d="M270.29,36.96c-.39.09-.53.13-1.06.33-.2.08-.3.1-.39.1-.33,0-.63-.61-.9-1.9.96-.04,1.3-.09,2.97-.34,1.8-.27,4.08-.62,5.28-.77,1.35-.18,2.43-.36,3-.48.1-.03.15-.03.23-.03.19,0,.27.09.4.47.12.31.21.76.21.98,0,.18-.06.24-.27.24-.31,0-.6.03-.88.08-2.54.42-4.56,2.64-4.56,4.98,0,1.75,1.38,2.91,3.72,3.12.21.01.29.09.29.27,0,.38-.15,1.09-.29,1.42-.07.17-.19.24-.39.24s-.65-.09-1.11-.22c-2.55-.75-3.89-2.37-3.89-4.67,0-1.25.41-2.4,1.19-3.39.42-.54.78-.84,1.64-1.43-1.97.33-4.04.72-5.17,1.01Z"/>
        <path class="cls-3" d="M288.88,40.21c-.54,1-1.15,1.99-1.71,2.8-.62.88-1.32,1.33-2.06,1.33-1.08,0-1.81-.89-1.81-2.21,0-1.14.57-2.11,1.63-2.74.71-.41,1.77-.69,2.62-.69h.15c.77-1.56.96-1.98,1.47-3.15-1.38.06-2.22.18-2.83.39-.03.02-.08.02-.1.02-.25,0-.5-.78-.57-1.9.33.06.65.09,1.05.09.51,0,1.38-.04,2.29-.13q.85-.08,1.05-.2c.12-.06.2-.09.27-.09.19,0,.5.24.83.65.24.31.39.57.39.67,0,.12-.06.23-.24.41-.23.24-.92,1.53-1.79,3.36,1.43.28,1.96.45,3,.9.08-.52.14-1.14.14-1.56,0-.19-.02-.42-.05-.67.65.09,1.19.19,1.62.3.27.08.36.15.36.27,0,.1-.03.21-.12.39-.14.28-.18.48-.29,1.09-.04.31-.09.52-.18.96.77.48,1.43.94,1.73,1.23.08.08.12.15.12.23,0,.42-.65,1.4-.92,1.4-.08,0-.15-.04-.27-.14-.41-.36-.9-.78-1.2-1-.51,1.08-1.03,1.77-1.86,2.48-.71.58-1.68,1.12-2.04,1.12-.12,0-.25-.06-.36-.15-.04-.04-.04-.06-.24-.33-.23-.35-.42-.51-.78-.68,1.2-.42,1.79-.72,2.43-1.27.65-.57,1.14-1.26,1.47-2.07-1.02-.56-2.02-.9-3.21-1.09ZM284.83,42.01c0,.36.14.58.38.58.33,0,.92-.73,1.86-2.35-1.42.15-2.23.79-2.23,1.77Z"/>
        <path class="cls-3" d="M305.53,38.13c.03,1.12.06,1.71.21,3.21,1.26.41,1.86.66,2.74,1.14,1.19.67,1.79,1.12,1.79,1.33,0,.18-.2.52-.54,1.02-.23.33-.39.48-.51.48-.07,0-.13-.03-.24-.14-1.06-1.02-1.92-1.57-3.18-2.08-.03.91-.19,1.39-.63,1.84-.52.52-1.44.81-2.62.81-1.97,0-3.17-.87-3.17-2.29,0-1.52,1.32-2.48,3.38-2.48.49,0,.93.03,1.3.08-.15-2.46-.19-3.65-.21-5.85-.02-.87-.04-1.39-.13-2.1.69.02,1.38.09,1.78.19.24.08.33.15.33.31,0,.08-.02.12-.06.24-.17.39-.23.96-.25,2.62q.12,0,.58-.03c.72-.04,1.74-.23,2.88-.54.04-.01.07-.01.12-.01.09,0,.12.03.18.18.15.36.31,1.1.31,1.35,0,.12-.06.17-.19.21-1.15.27-2.77.5-3.66.5h-.21ZM302.59,42.45c-1.02,0-1.64.34-1.64.91,0,.53.51.8,1.46.8,1.15,0,1.67-.41,1.67-1.35v-.12c-.5-.18-.92-.24-1.48-.24Z"/>
        <path class="cls-3" d="M318.55,36.94c.97-.25,1.62-.35,2.32-.35,2.13,0,3.36,1.26,3.36,3.42,0,1.88-.81,3.39-2.44,4.59-.87.65-2.19,1.29-2.62,1.29-.19,0-.24-.04-.55-.5-.23-.34-.45-.55-.83-.82,1.73-.58,2.44-.96,3.23-1.64.9-.79,1.35-1.75,1.35-2.89,0-1.22-.57-1.91-1.57-1.91-.81,0-1.86.31-3.23.98-.19.09-.3.17-.55.35-.06.03-.12.06-.18.06-.29,0-.77-.84-1.09-1.96.55-.04.84-.12,2.82-.61ZM319.55,33.28c.54.17,1.35.32,2.08.41.3.03.4.04,1.17.07.23,0,.28.06.28.23,0,.5-.1,1.31-.19,1.46-.03.09-.1.12-.21.12-.34,0-1.56-.17-2.26-.31-1.19-.24-2.22-.54-2.43-.71-.04-.04-.07-.1-.07-.17,0-.12.31-.93.46-1.21.07-.12.12-.15.21-.15q.07,0,.96.27Z"/>
      </g>
      <g>
        <g>
          <path class="cls-3" d="M43.64,35.58c.02-1.97.63-3.49,1.83-4.55,1.13-1.05,2.47-1.58,4.03-1.58s2.98.53,4.1,1.58c1.15,1.06,1.74,2.58,1.77,4.56v9.42c-.04,1.96-.63,3.48-1.77,4.54-1.13,1.05-2.5,1.59-4.1,1.61-1.56-.02-2.91-.56-4.03-1.61-1.2-1.06-1.81-2.57-1.83-4.53v-9.44ZM52.43,35.77c-.06-2.14-1.03-3.23-2.92-3.27-1.9.04-2.87,1.13-2.91,3.27v9.07c.04,2.16,1.01,3.25,2.91,3.27,1.89-.02,2.87-1.11,2.92-3.27v-9.07Z"/>
          <path class="cls-3" d="M62.73,32.86l-2.94,2.23v-3.26l2.94-2.2h2.96v21.36h-2.96v-18.13Z"/>
        </g>
        <path class="cls-3" d="M33.72,42.84c-.76.79-1.8,1.41-3.01,1.81-.17-.32-.31-.52-.56-.82,1.2-.29,2.21-.79,2.94-1.47h-1.5c-.05.18-.06.22-.13.43l-1.01-.02c.24-.56.38-1.02.49-1.58.08-.39.14-.77.14-.95.17.02.4.03.82.03h1.78l-.02-.58h-1.93c-.34,0-.56,0-.8.04v-.83c-.1.08-.13.12-.26.23-.17-.29-.35-.5-.56-.69.74-.57,1.16-1.12,1.35-1.76l.93.17c-.11.23-.14.29-.25.47h1.11c.41,0,.64-.02.85-.04v.7c.34-.4.55-.78.7-1.3l.92.16q-.07.17-.22.49h1.65c.46,0,.67,0,.95-.05v.9c-.26-.04-.52-.05-.9-.05h-.68c.23.33.23.35.38.59l-.71.2h.41c.43,0,.59,0,.81-.03-.03.16-.04.3-.04.61v.91c0,.31,0,.45.04.63-.2-.02-.47-.03-.81-.03h-1.99v.57h2.47c.33,0,.52,0,.74-.03-.02.11-.02.17-.03.26t-.03.26s-.02.22-.05.55c-.09.86-.14,1.07-.31,1.27-.17.2-.43.26-1.02.26-.25,0-.43,0-.8-.03-.05-.36-.11-.56-.22-.85.33.04.74.08.95.08.47,0,.49-.05.55-1.01h-2.22l.02,1.45c0,.46.02.68.06.95h-1.02c.04-.25.05-.4.05-.75v-.22l-.02-.96ZM32.48,38.94c-.11-.29-.22-.5-.39-.8h-.48c-.21.29-.4.5-.68.77.21.03.38.04.79.04h.75ZM33.69,41.04h-1.77c-.03.19-.04.21-.12.57h1.9v-.57ZM34.18,38.94c-.13-.16-.31-.33-.56-.51.15-.12.2-.15.32-.27-.15,0-.32-.02-.49-.02h-.48c.11.17.17.26.34.58l-.71.22h1.58ZM36.01,38.94c-.1-.22-.26-.51-.44-.79h-.53c-.23.33-.42.55-.69.79h1.67ZM34.59,40.28h1.87v-.58h-1.88v.58Z"/>
        <path class="cls-3" d="M78.6,44.74v-.47h-5.38v.47h-1.01c.04-.28.05-.64.05-1.12v-5.46c0-.42-.02-.69-.05-1.04.32.04.59.05,1.02.05h5.36c.42,0,.7,0,1.02-.05-.04.32-.04.6-.04,1.04v5.47c0,.47.02.89.04,1.11h-1ZM73.22,43.42h5.38v-5.39h-5.38v5.39ZM76.82,39.01c.38,0,.6,0,.83-.03-.02.21-.03.41-.03.68v2.06c0,.29,0,.47.03.68-.26-.02-.47-.03-.83-.03h-1.85c-.43,0-.57,0-.84.03.03-.23.04-.42.04-.68v-2.06c0-.25,0-.45-.04-.68.22.02.46.03.84.03h1.85ZM75.08,41.58h1.63v-1.76h-1.63v1.76Z"/>
      </g>
      <rect class="cls-2" x="95.06" y="32.52" width="1.42" height="15.06"/>
    </g>
  </g>
</svg>